M48
; DRILL file {KiCad (5.1.12)-1} date 12/30/21 16:40:50
; FORMAT={-:-/ absolute / metric / decimal}
; #@! TF.CreationDate,2021-12-30T16:40:50-05:00
; #@! TF.GenerationSoftware,Kicad,Pcbnew,(5.1.12)-1
; #@! TF.FileFunction,Plated,1,2,PTH
FMAT,2
METRIC
T1C0.400
T2C0.750
T3C0.800
T4C1.000
T5C2.200
%
G90
G05
T1
X65.192Y-106.671
X73.457Y-131.436
X100.014Y-74.331
X120.345Y-112.37
X124.892Y-77.906
X126.517Y-79.781
X130.382Y-81.301
X137.541Y-125.832
X140.818Y-84.938
X165.989Y-127.737
X178.537Y-131.436
T2
X74.233Y-102.613
X74.55Y-105.227
X75.166Y-100.152
X76.045Y-107.393
X77.136Y-98.406
X78.376Y-108.617
X79.692Y-97.776
X81.009Y-108.617
X82.248Y-98.406
X83.34Y-107.393
X84.219Y-100.152
X84.835Y-105.227
X85.152Y-102.613
X104.233Y-102.613
X104.55Y-105.227
X105.166Y-100.152
X106.045Y-107.393
X107.136Y-98.406
X108.376Y-108.617
X109.692Y-97.776
X111.009Y-108.617
X112.248Y-98.406
X113.34Y-107.393
X114.219Y-100.152
X114.835Y-105.227
X115.152Y-102.613
X128.422Y-103.276
X130.962Y-103.276
X144.233Y-102.613
X144.55Y-105.227
X145.166Y-100.152
X146.045Y-107.393
X147.136Y-98.406
X148.376Y-108.617
X149.692Y-97.776
X151.009Y-108.617
X152.248Y-98.406
X153.34Y-107.393
X154.219Y-100.152
X154.835Y-105.227
X155.152Y-102.613
X174.233Y-102.613
X174.55Y-105.227
X175.166Y-100.152
X176.045Y-107.393
X177.136Y-98.406
X178.376Y-108.617
X179.692Y-97.776
X181.009Y-108.617
X182.248Y-98.406
X183.34Y-107.393
X184.219Y-100.152
X184.835Y-105.227
X185.152Y-102.613
T3
X65.192Y-85.736
X65.192Y-88.276
X65.192Y-90.816
X70.802Y-119.516
X70.802Y-127.036
X73.342Y-119.516
X73.342Y-127.036
X75.882Y-119.516
X75.882Y-127.036
X78.422Y-119.516
X78.422Y-127.036
X80.962Y-119.516
X80.962Y-127.036
X83.502Y-119.516
X83.502Y-127.036
X86.042Y-119.516
X86.042Y-127.036
X88.582Y-119.516
X88.582Y-127.036
X100.802Y-119.516
X100.802Y-127.036
X101.652Y-78.776
X103.342Y-119.516
X103.342Y-127.036
X104.192Y-78.776
X105.882Y-119.516
X105.882Y-127.036
X108.422Y-119.516
X108.422Y-127.036
X109.692Y-75.656
X109.692Y-83.276
X110.962Y-119.516
X110.962Y-127.036
X113.502Y-119.516
X113.502Y-127.036
X114.692Y-75.656
X114.692Y-83.276
X116.042Y-119.516
X116.042Y-127.036
X118.582Y-119.516
X118.582Y-127.036
X119.692Y-87.276
X121.692Y-90.776
X121.692Y-98.396
X125.932Y-109.386
X125.932Y-111.926
X125.932Y-114.466
X125.932Y-117.006
X125.932Y-119.546
X125.932Y-122.086
X125.932Y-124.626
X125.932Y-127.166
X127.312Y-87.276
X129.692Y-90.776
X129.692Y-98.396
X132.072Y-87.276
X133.452Y-109.386
X133.452Y-111.926
X133.452Y-114.466
X133.452Y-117.006
X133.452Y-119.546
X133.452Y-122.086
X133.452Y-124.626
X133.452Y-127.166
X133.692Y-75.656
X133.692Y-83.276
X137.692Y-90.776
X137.692Y-98.396
X138.692Y-75.656
X138.692Y-83.276
X139.692Y-87.276
X140.802Y-119.516
X140.802Y-127.036
X143.342Y-119.516
X143.342Y-127.036
X145.882Y-119.516
X145.882Y-127.036
X148.422Y-119.516
X148.422Y-127.036
X150.962Y-119.516
X150.962Y-127.036
X153.502Y-119.516
X153.502Y-127.036
X156.042Y-119.516
X156.042Y-127.036
X158.582Y-119.516
X158.582Y-127.036
X164.541Y-98.069
X164.541Y-100.609
X164.541Y-103.149
X164.541Y-105.689
X164.541Y-108.229
X164.541Y-110.769
X170.802Y-119.516
X170.802Y-127.036
X173.342Y-119.516
X173.342Y-127.036
X175.882Y-119.516
X175.882Y-127.036
X178.422Y-119.516
X178.422Y-127.036
X180.962Y-119.516
X180.962Y-127.036
X183.502Y-119.516
X183.502Y-127.036
X186.042Y-119.516
X186.042Y-127.036
X188.582Y-119.516
X188.582Y-127.036
T4
X145.692Y-76.276
X145.692Y-91.516
X148.232Y-76.276
X148.232Y-91.516
X150.772Y-76.276
X150.772Y-91.516
X153.312Y-76.276
X153.312Y-91.516
X155.852Y-76.276
X155.852Y-91.516
X158.392Y-76.276
X158.392Y-91.516
X160.932Y-76.276
X160.932Y-91.516
X163.472Y-76.276
X163.472Y-91.516
X166.012Y-76.276
X166.012Y-91.516
X168.552Y-76.276
X168.552Y-91.516
X171.092Y-76.276
X171.092Y-91.516
X173.632Y-76.276
X173.632Y-91.516
X176.172Y-76.276
X176.172Y-91.516
X178.712Y-76.276
X178.712Y-91.516
X181.252Y-76.276
X181.252Y-91.516
T5
X63.692Y-129.276
X195.692Y-77.276
X195.692Y-129.276
T0
M30
