G04 #@! TF.GenerationSoftware,KiCad,Pcbnew,(5.1.12)-1*
G04 #@! TF.CreationDate,2021-12-29T20:31:44-05:00*
G04 #@! TF.ProjectId,Nixie_Clock,4e697869-655f-4436-9c6f-636b2e6b6963,1.0*
G04 #@! TF.SameCoordinates,Original*
G04 #@! TF.FileFunction,Legend,Top*
G04 #@! TF.FilePolarity,Positive*
%FSLAX46Y46*%
G04 Gerber Fmt 4.6, Leading zero omitted, Abs format (unit mm)*
G04 Created by KiCad (PCBNEW (5.1.12)-1) date 2021-12-29 20:31:44*
%MOMM*%
%LPD*%
G01*
G04 APERTURE LIST*
%ADD10C,0.100000*%
%ADD11C,0.120000*%
%ADD12C,0.150000*%
%ADD13O,1.200000X2.000000*%
%ADD14C,1.500000*%
%ADD15R,1.600000X1.600000*%
%ADD16O,1.600000X1.600000*%
%ADD17O,2.000000X1.200000*%
%ADD18C,1.600000*%
G04 APERTURE END LIST*
D10*
X-69059533Y28452333D02*
X-69059533Y29152333D01*
X-68659533Y28452333D01*
X-68659533Y29152333D01*
X-68326200Y28452333D02*
X-68326200Y28919000D01*
X-68326200Y29152333D02*
X-68359533Y29119000D01*
X-68326200Y29085666D01*
X-68292866Y29119000D01*
X-68326200Y29152333D01*
X-68326200Y29085666D01*
X-68059533Y28452333D02*
X-67692866Y28919000D01*
X-68059533Y28919000D02*
X-67692866Y28452333D01*
X-67426200Y28452333D02*
X-67426200Y28919000D01*
X-67426200Y29152333D02*
X-67459533Y29119000D01*
X-67426200Y29085666D01*
X-67392866Y29119000D01*
X-67426200Y29152333D01*
X-67426200Y29085666D01*
X-66826200Y28485666D02*
X-66892866Y28452333D01*
X-67026200Y28452333D01*
X-67092866Y28485666D01*
X-67126200Y28552333D01*
X-67126200Y28819000D01*
X-67092866Y28885666D01*
X-67026200Y28919000D01*
X-66892866Y28919000D01*
X-66826200Y28885666D01*
X-66792866Y28819000D01*
X-66792866Y28752333D01*
X-67126200Y28685666D01*
X-65559533Y28519000D02*
X-65592866Y28485666D01*
X-65692866Y28452333D01*
X-65759533Y28452333D01*
X-65859533Y28485666D01*
X-65926200Y28552333D01*
X-65959533Y28619000D01*
X-65992866Y28752333D01*
X-65992866Y28852333D01*
X-65959533Y28985666D01*
X-65926200Y29052333D01*
X-65859533Y29119000D01*
X-65759533Y29152333D01*
X-65692866Y29152333D01*
X-65592866Y29119000D01*
X-65559533Y29085666D01*
X-65159533Y28452333D02*
X-65226200Y28485666D01*
X-65259533Y28552333D01*
X-65259533Y29152333D01*
X-64792866Y28452333D02*
X-64859533Y28485666D01*
X-64892866Y28519000D01*
X-64926200Y28585666D01*
X-64926200Y28785666D01*
X-64892866Y28852333D01*
X-64859533Y28885666D01*
X-64792866Y28919000D01*
X-64692866Y28919000D01*
X-64626200Y28885666D01*
X-64592866Y28852333D01*
X-64559533Y28785666D01*
X-64559533Y28585666D01*
X-64592866Y28519000D01*
X-64626200Y28485666D01*
X-64692866Y28452333D01*
X-64792866Y28452333D01*
X-63959533Y28485666D02*
X-64026200Y28452333D01*
X-64159533Y28452333D01*
X-64226200Y28485666D01*
X-64259533Y28519000D01*
X-64292866Y28585666D01*
X-64292866Y28785666D01*
X-64259533Y28852333D01*
X-64226200Y28885666D01*
X-64159533Y28919000D01*
X-64026200Y28919000D01*
X-63959533Y28885666D01*
X-63659533Y28452333D02*
X-63659533Y29152333D01*
X-63592866Y28719000D02*
X-63392866Y28452333D01*
X-63392866Y28919000D02*
X-63659533Y28652333D01*
X-62659533Y29152333D02*
X-62426200Y28452333D01*
X-62192866Y29152333D01*
X-61592866Y28452333D02*
X-61992866Y28452333D01*
X-61792866Y28452333D02*
X-61792866Y29152333D01*
X-61859533Y29052333D01*
X-61926200Y28985666D01*
X-61992866Y28952333D01*
X-61292866Y28519000D02*
X-61259533Y28485666D01*
X-61292866Y28452333D01*
X-61326200Y28485666D01*
X-61292866Y28519000D01*
X-61292866Y28452333D01*
X-60826200Y29152333D02*
X-60759533Y29152333D01*
X-60692866Y29119000D01*
X-60659533Y29085666D01*
X-60626200Y29019000D01*
X-60592866Y28885666D01*
X-60592866Y28719000D01*
X-60626200Y28585666D01*
X-60659533Y28519000D01*
X-60692866Y28485666D01*
X-60759533Y28452333D01*
X-60826200Y28452333D01*
X-60892866Y28485666D01*
X-60926200Y28519000D01*
X-60959533Y28585666D01*
X-60992866Y28719000D01*
X-60992866Y28885666D01*
X-60959533Y29019000D01*
X-60926200Y29085666D01*
X-60892866Y29119000D01*
X-60826200Y29152333D01*
X-69059533Y27302333D02*
X-69059533Y28002333D01*
X-68826200Y27502333D01*
X-68592866Y28002333D01*
X-68592866Y27302333D01*
X-68259533Y27302333D02*
X-68259533Y27769000D01*
X-68259533Y28002333D02*
X-68292866Y27969000D01*
X-68259533Y27935666D01*
X-68226200Y27969000D01*
X-68259533Y28002333D01*
X-68259533Y27935666D01*
X-67626200Y27335666D02*
X-67692866Y27302333D01*
X-67826200Y27302333D01*
X-67892866Y27335666D01*
X-67926200Y27369000D01*
X-67959533Y27435666D01*
X-67959533Y27635666D01*
X-67926200Y27702333D01*
X-67892866Y27735666D01*
X-67826200Y27769000D01*
X-67692866Y27769000D01*
X-67626200Y27735666D01*
X-67326200Y27302333D02*
X-67326200Y28002333D01*
X-67026200Y27302333D02*
X-67026200Y27669000D01*
X-67059533Y27735666D01*
X-67126200Y27769000D01*
X-67226200Y27769000D01*
X-67292866Y27735666D01*
X-67326200Y27702333D01*
X-66392866Y27302333D02*
X-66392866Y27669000D01*
X-66426200Y27735666D01*
X-66492866Y27769000D01*
X-66626200Y27769000D01*
X-66692866Y27735666D01*
X-66392866Y27335666D02*
X-66459533Y27302333D01*
X-66626200Y27302333D01*
X-66692866Y27335666D01*
X-66726200Y27402333D01*
X-66726200Y27469000D01*
X-66692866Y27535666D01*
X-66626200Y27569000D01*
X-66459533Y27569000D01*
X-66392866Y27602333D01*
X-65792866Y27335666D02*
X-65859533Y27302333D01*
X-65992866Y27302333D01*
X-66059533Y27335666D01*
X-66092866Y27402333D01*
X-66092866Y27669000D01*
X-66059533Y27735666D01*
X-65992866Y27769000D01*
X-65859533Y27769000D01*
X-65792866Y27735666D01*
X-65759533Y27669000D01*
X-65759533Y27602333D01*
X-66092866Y27535666D01*
X-65359533Y27302333D02*
X-65426200Y27335666D01*
X-65459533Y27402333D01*
X-65459533Y28002333D01*
X-64626200Y28002333D02*
X-64159533Y28002333D01*
X-64626200Y27302333D01*
X-64159533Y27302333D01*
X-63892866Y27302333D02*
X-63892866Y28002333D01*
X-63592866Y27302333D02*
X-63592866Y27669000D01*
X-63626200Y27735666D01*
X-63692866Y27769000D01*
X-63792866Y27769000D01*
X-63859533Y27735666D01*
X-63892866Y27702333D01*
X-62992866Y27335666D02*
X-63059533Y27302333D01*
X-63192866Y27302333D01*
X-63259533Y27335666D01*
X-63292866Y27402333D01*
X-63292866Y27669000D01*
X-63259533Y27735666D01*
X-63192866Y27769000D01*
X-63059533Y27769000D01*
X-62992866Y27735666D01*
X-62959533Y27669000D01*
X-62959533Y27602333D01*
X-63292866Y27535666D01*
X-62659533Y27769000D02*
X-62659533Y27302333D01*
X-62659533Y27702333D02*
X-62626200Y27735666D01*
X-62559533Y27769000D01*
X-62459533Y27769000D01*
X-62392866Y27735666D01*
X-62359533Y27669000D01*
X-62359533Y27302333D01*
X-61726200Y27769000D02*
X-61726200Y27202333D01*
X-61759533Y27135666D01*
X-61792866Y27102333D01*
X-61859533Y27069000D01*
X-61959533Y27069000D01*
X-62026200Y27102333D01*
X-61726200Y27335666D02*
X-61792866Y27302333D01*
X-61926200Y27302333D01*
X-61992866Y27335666D01*
X-62026200Y27369000D01*
X-62059533Y27435666D01*
X-62059533Y27635666D01*
X-62026200Y27702333D01*
X-61992866Y27735666D01*
X-61926200Y27769000D01*
X-61792866Y27769000D01*
X-61726200Y27735666D01*
D11*
X50000000Y2540000D02*
X51270000Y1270000D01*
X50000000Y2540000D02*
X48730000Y1270000D01*
X50000000Y-2540000D02*
X50000000Y2540000D01*
X55500000Y0D02*
G75*
G03*
X55500000Y0I-5500000J0D01*
G01*
X59250000Y0D02*
G75*
G03*
X59250000Y0I-9250000J0D01*
G01*
X-40750000Y0D02*
G75*
G03*
X-40750000Y0I-9250000J0D01*
G01*
X-44500000Y0D02*
G75*
G03*
X-44500000Y0I-5500000J0D01*
G01*
X-50000000Y-2540000D02*
X-50000000Y2540000D01*
X-50000000Y2540000D02*
X-51270000Y1270000D01*
X-50000000Y2540000D02*
X-48730000Y1270000D01*
X-20000000Y2540000D02*
X-18730000Y1270000D01*
X-20000000Y2540000D02*
X-21270000Y1270000D01*
X-20000000Y-2540000D02*
X-20000000Y2540000D01*
X-14500000Y0D02*
G75*
G03*
X-14500000Y0I-5500000J0D01*
G01*
X-10750000Y0D02*
G75*
G03*
X-10750000Y0I-9250000J0D01*
G01*
X-3810000Y635000D02*
X-3810000Y-635000D01*
X-4445000Y0D02*
X-3175000Y0D01*
X1500000Y-1270000D02*
X-1500000Y-1270000D01*
X-1500000Y1270000D02*
X1500000Y1270000D01*
X1500000Y1270000D02*
G75*
G02*
X1500000Y-1270000I0J-1270000D01*
G01*
X-1500000Y-1270000D02*
G75*
G02*
X-1500000Y1270000I0J1270000D01*
G01*
X29250000Y0D02*
G75*
G03*
X29250000Y0I-9250000J0D01*
G01*
X25500000Y0D02*
G75*
G03*
X25500000Y0I-5500000J0D01*
G01*
X20000000Y-2540000D02*
X20000000Y2540000D01*
X20000000Y2540000D02*
X18730000Y1270000D01*
X20000000Y2540000D02*
X21270000Y1270000D01*
D12*
X48761904Y-9612380D02*
X48761904Y-10421904D01*
X48809523Y-10517142D01*
X48857142Y-10564761D01*
X48952380Y-10612380D01*
X49142857Y-10612380D01*
X49238095Y-10564761D01*
X49285714Y-10517142D01*
X49333333Y-10421904D01*
X49333333Y-9612380D01*
X50333333Y-10612380D02*
X49761904Y-10612380D01*
X50047619Y-10612380D02*
X50047619Y-9612380D01*
X49952380Y-9755238D01*
X49857142Y-9850476D01*
X49761904Y-9898095D01*
X51285714Y-10612380D02*
X50714285Y-10612380D01*
X51000000Y-10612380D02*
X51000000Y-9612380D01*
X50904761Y-9755238D01*
X50809523Y-9850476D01*
X50714285Y-9898095D01*
X-50761904Y-9612380D02*
X-50761904Y-10421904D01*
X-50714285Y-10517142D01*
X-50666666Y-10564761D01*
X-50571428Y-10612380D01*
X-50380952Y-10612380D01*
X-50285714Y-10564761D01*
X-50238095Y-10517142D01*
X-50190476Y-10421904D01*
X-50190476Y-9612380D01*
X-49761904Y-9707619D02*
X-49714285Y-9660000D01*
X-49619047Y-9612380D01*
X-49380952Y-9612380D01*
X-49285714Y-9660000D01*
X-49238095Y-9707619D01*
X-49190476Y-9802857D01*
X-49190476Y-9898095D01*
X-49238095Y-10040952D01*
X-49809523Y-10612380D01*
X-49190476Y-10612380D01*
X-20761904Y-9612380D02*
X-20761904Y-10421904D01*
X-20714285Y-10517142D01*
X-20666666Y-10564761D01*
X-20571428Y-10612380D01*
X-20380952Y-10612380D01*
X-20285714Y-10564761D01*
X-20238095Y-10517142D01*
X-20190476Y-10421904D01*
X-20190476Y-9612380D01*
X-19285714Y-9945714D02*
X-19285714Y-10612380D01*
X-19523809Y-9564761D02*
X-19761904Y-10279047D01*
X-19142857Y-10279047D01*
X-761904Y-1992380D02*
X-761904Y-2801904D01*
X-714285Y-2897142D01*
X-666666Y-2944761D01*
X-571428Y-2992380D01*
X-380952Y-2992380D01*
X-285714Y-2944761D01*
X-238095Y-2897142D01*
X-190476Y-2801904D01*
X-190476Y-1992380D01*
X714285Y-1992380D02*
X523809Y-1992380D01*
X428571Y-2040000D01*
X380952Y-2087619D01*
X285714Y-2230476D01*
X238095Y-2420952D01*
X238095Y-2801904D01*
X285714Y-2897142D01*
X333333Y-2944761D01*
X428571Y-2992380D01*
X619047Y-2992380D01*
X714285Y-2944761D01*
X761904Y-2897142D01*
X809523Y-2801904D01*
X809523Y-2563809D01*
X761904Y-2468571D01*
X714285Y-2420952D01*
X619047Y-2373333D01*
X428571Y-2373333D01*
X333333Y-2420952D01*
X285714Y-2468571D01*
X238095Y-2563809D01*
X19238095Y-9612380D02*
X19238095Y-10421904D01*
X19285714Y-10517142D01*
X19333333Y-10564761D01*
X19428571Y-10612380D01*
X19619047Y-10612380D01*
X19714285Y-10564761D01*
X19761904Y-10517142D01*
X19809523Y-10421904D01*
X19809523Y-9612380D01*
X20333333Y-10612380D02*
X20523809Y-10612380D01*
X20619047Y-10564761D01*
X20666666Y-10517142D01*
X20761904Y-10374285D01*
X20809523Y-10183809D01*
X20809523Y-9802857D01*
X20761904Y-9707619D01*
X20714285Y-9660000D01*
X20619047Y-9612380D01*
X20428571Y-9612380D01*
X20333333Y-9660000D01*
X20285714Y-9707619D01*
X20238095Y-9802857D01*
X20238095Y-10040952D01*
X20285714Y-10136190D01*
X20333333Y-10183809D01*
X20428571Y-10231428D01*
X20619047Y-10231428D01*
X20714285Y-10183809D01*
X20761904Y-10136190D01*
X20809523Y-10040952D01*
%LPC*%
D13*
X28890000Y-16240000D03*
X28890000Y-23760000D03*
X26350000Y-16240000D03*
X26350000Y-23760000D03*
X23810000Y-16240000D03*
X23810000Y-23760000D03*
X21270000Y-16240000D03*
X21270000Y-23760000D03*
X18730000Y-16240000D03*
X18730000Y-23760000D03*
X16190000Y-16240000D03*
X16190000Y-23760000D03*
X13650000Y-16240000D03*
X13650000Y-23760000D03*
X11110000Y-16240000D03*
X11110000Y-23760000D03*
D14*
X50000000Y5500000D03*
X52555977Y4870008D03*
X54526411Y3124356D03*
X55459899Y662952D03*
X55142589Y-1950327D03*
X53647175Y-4116809D03*
X51316236Y-5340180D03*
X48683764Y-5340180D03*
X46352825Y-4116809D03*
X44857411Y-1950327D03*
X44540101Y662952D03*
X45473887Y3124356D03*
X47444023Y4870008D03*
D13*
X58890000Y-16240000D03*
X58890000Y-23760000D03*
X56350000Y-16240000D03*
X56350000Y-23760000D03*
X53810000Y-16240000D03*
X53810000Y-23760000D03*
X51270000Y-16240000D03*
X51270000Y-23760000D03*
X48730000Y-16240000D03*
X48730000Y-23760000D03*
X46190000Y-16240000D03*
X46190000Y-23760000D03*
X43650000Y-16240000D03*
X43650000Y-23760000D03*
X41110000Y-16240000D03*
X41110000Y-23760000D03*
D15*
X16000000Y27000000D03*
D16*
X49020000Y11760000D03*
X18540000Y27000000D03*
X46480000Y11760000D03*
X21080000Y27000000D03*
X43940000Y11760000D03*
X23620000Y27000000D03*
X41400000Y11760000D03*
X26160000Y27000000D03*
X38860000Y11760000D03*
X28700000Y27000000D03*
X36320000Y11760000D03*
X31240000Y27000000D03*
X33780000Y11760000D03*
X33780000Y27000000D03*
X31240000Y11760000D03*
X36320000Y27000000D03*
X28700000Y11760000D03*
X38860000Y27000000D03*
X26160000Y11760000D03*
X41400000Y27000000D03*
X23620000Y11760000D03*
X43940000Y27000000D03*
X21080000Y11760000D03*
X46480000Y27000000D03*
X18540000Y11760000D03*
X49020000Y27000000D03*
X16000000Y11760000D03*
X51560000Y27000000D03*
X51560000Y11760000D03*
D17*
X-64500000Y12460000D03*
X-64500000Y15000000D03*
X-64500000Y17540000D03*
D13*
X-28040000Y24500000D03*
X-25500000Y24500000D03*
D14*
X-52555977Y4870008D03*
X-54526113Y3124356D03*
X-55459899Y662952D03*
X-55142589Y-1950327D03*
X-53647175Y-4116809D03*
X-51316236Y-5340180D03*
X-48683764Y-5340180D03*
X-46352825Y-4116809D03*
X-44857411Y-1950327D03*
X-44540101Y662952D03*
X-45473589Y3124356D03*
X-47444023Y4870008D03*
X-50000000Y5500000D03*
D18*
X-20000000Y20000000D03*
D16*
X-20000000Y27620000D03*
X-15000000Y27620000D03*
D18*
X-15000000Y20000000D03*
X-8000000Y12500000D03*
D16*
X-8000000Y4880000D03*
D18*
X0Y12500000D03*
D16*
X0Y4880000D03*
X8000000Y4880000D03*
D18*
X8000000Y12500000D03*
D16*
X2380000Y16000000D03*
D18*
X10000000Y16000000D03*
X-10000000Y16000000D03*
D16*
X-2380000Y16000000D03*
D18*
X4000000Y20000000D03*
D16*
X4000000Y27620000D03*
X9000000Y27620000D03*
D18*
X9000000Y20000000D03*
D13*
X-41110000Y-16240000D03*
X-41110000Y-23760000D03*
X-43650000Y-16240000D03*
X-43650000Y-23760000D03*
X-46190000Y-16240000D03*
X-46190000Y-23760000D03*
X-48730000Y-16240000D03*
X-48730000Y-23760000D03*
X-51270000Y-16240000D03*
X-51270000Y-23760000D03*
X-53810000Y-16240000D03*
X-53810000Y-23760000D03*
X-56350000Y-16240000D03*
X-56350000Y-23760000D03*
X-58890000Y-16240000D03*
X-58890000Y-23760000D03*
X-28890000Y-23760000D03*
X-28890000Y-16240000D03*
X-26350000Y-23760000D03*
X-26350000Y-16240000D03*
X-23810000Y-23760000D03*
X-23810000Y-16240000D03*
X-21270000Y-23760000D03*
X-21270000Y-16240000D03*
X-18730000Y-23760000D03*
X-18730000Y-16240000D03*
X-16190000Y-23760000D03*
X-16190000Y-16240000D03*
X-13650000Y-23760000D03*
X-13650000Y-16240000D03*
X-11110000Y-23760000D03*
X-11110000Y-16240000D03*
D14*
X-20000000Y5500000D03*
X-17444023Y4870008D03*
X-15473589Y3124356D03*
X-14540101Y662952D03*
X-14857411Y-1950327D03*
X-16352825Y-4116809D03*
X-18683764Y-5340180D03*
X-21316236Y-5340180D03*
X-23647175Y-4116809D03*
X-25142589Y-1950327D03*
X-25459899Y662952D03*
X-24526113Y3124356D03*
X-22555977Y4870008D03*
D17*
X3760000Y-23890000D03*
X-3760000Y-23890000D03*
X3760000Y-21350000D03*
X-3760000Y-21350000D03*
X3760000Y-18810000D03*
X-3760000Y-18810000D03*
X3760000Y-16270000D03*
X-3760000Y-16270000D03*
X3760000Y-13730000D03*
X-3760000Y-13730000D03*
X3760000Y-11190000D03*
X-3760000Y-11190000D03*
X3760000Y-8650000D03*
X-3760000Y-8650000D03*
X3760000Y-6110000D03*
X-3760000Y-6110000D03*
D14*
X-1270000Y0D03*
X1270000Y0D03*
X17444023Y4870008D03*
X15473887Y3124356D03*
X14540101Y662952D03*
X14857411Y-1950327D03*
X16352825Y-4116809D03*
X18683764Y-5340180D03*
X21316236Y-5340180D03*
X23647175Y-4116809D03*
X25142589Y-1950327D03*
X25459899Y662952D03*
X24526411Y3124356D03*
X22555977Y4870008D03*
X20000000Y5500000D03*
D17*
X34848800Y5207000D03*
X34848800Y2667000D03*
X34848800Y127000D03*
X34848800Y-2413000D03*
X34848800Y-4953000D03*
X34848800Y-7493000D03*
M02*
