G04 #@! TF.GenerationSoftware,KiCad,Pcbnew,(5.1.12)-1*
G04 #@! TF.CreationDate,2022-01-06T04:44:55-05:00*
G04 #@! TF.ProjectId,Nixie_Clock,4e697869-655f-4436-9c6f-636b2e6b6963,1.1*
G04 #@! TF.SameCoordinates,Original*
G04 #@! TF.FileFunction,Legend,Bot*
G04 #@! TF.FilePolarity,Positive*
%FSLAX46Y46*%
G04 Gerber Fmt 4.6, Leading zero omitted, Abs format (unit mm)*
G04 Created by KiCad (PCBNEW (5.1.12)-1) date 2022-01-06 04:44:55*
%MOMM*%
%LPD*%
G01*
G04 APERTURE LIST*
%ADD10C,0.150000*%
%ADD11C,0.120000*%
%ADD12C,4.400000*%
%ADD13O,2.000000X1.200000*%
%ADD14O,1.200000X2.000000*%
%ADD15O,1.600000X1.600000*%
%ADD16C,1.600000*%
%ADD17R,1.600000X1.600000*%
%ADD18C,1.500000*%
G04 APERTURE END LIST*
D10*
X228690476Y-129785714D02*
X228690476Y-130595238D01*
X228738095Y-130690476D01*
X228785714Y-130738095D01*
X228880952Y-130785714D01*
X229023809Y-130785714D01*
X229119047Y-130738095D01*
X228690476Y-130404761D02*
X228785714Y-130452380D01*
X228976190Y-130452380D01*
X229071428Y-130404761D01*
X229119047Y-130357142D01*
X229166666Y-130261904D01*
X229166666Y-129976190D01*
X229119047Y-129880952D01*
X229071428Y-129833333D01*
X228976190Y-129785714D01*
X228785714Y-129785714D01*
X228690476Y-129833333D01*
X228214285Y-130452380D02*
X228214285Y-129785714D01*
X228214285Y-129452380D02*
X228261904Y-129500000D01*
X228214285Y-129547619D01*
X228166666Y-129500000D01*
X228214285Y-129452380D01*
X228214285Y-129547619D01*
X227880952Y-129785714D02*
X227500000Y-129785714D01*
X227738095Y-129452380D02*
X227738095Y-130309523D01*
X227690476Y-130404761D01*
X227595238Y-130452380D01*
X227500000Y-130452380D01*
X227166666Y-130452380D02*
X227166666Y-129452380D01*
X226738095Y-130452380D02*
X226738095Y-129928571D01*
X226785714Y-129833333D01*
X226880952Y-129785714D01*
X227023809Y-129785714D01*
X227119047Y-129833333D01*
X227166666Y-129880952D01*
X225833333Y-129785714D02*
X225833333Y-130452380D01*
X226261904Y-129785714D02*
X226261904Y-130309523D01*
X226214285Y-130404761D01*
X226119047Y-130452380D01*
X225976190Y-130452380D01*
X225880952Y-130404761D01*
X225833333Y-130357142D01*
X225357142Y-130452380D02*
X225357142Y-129452380D01*
X225357142Y-129833333D02*
X225261904Y-129785714D01*
X225071428Y-129785714D01*
X224976190Y-129833333D01*
X224928571Y-129880952D01*
X224880952Y-129976190D01*
X224880952Y-130261904D01*
X224928571Y-130357142D01*
X224976190Y-130404761D01*
X225071428Y-130452380D01*
X225261904Y-130452380D01*
X225357142Y-130404761D01*
X224452380Y-130357142D02*
X224404761Y-130404761D01*
X224452380Y-130452380D01*
X224500000Y-130404761D01*
X224452380Y-130357142D01*
X224452380Y-130452380D01*
X223547619Y-130404761D02*
X223642857Y-130452380D01*
X223833333Y-130452380D01*
X223928571Y-130404761D01*
X223976190Y-130357142D01*
X224023809Y-130261904D01*
X224023809Y-129976190D01*
X223976190Y-129880952D01*
X223928571Y-129833333D01*
X223833333Y-129785714D01*
X223642857Y-129785714D01*
X223547619Y-129833333D01*
X222976190Y-130452380D02*
X223071428Y-130404761D01*
X223119047Y-130357142D01*
X223166666Y-130261904D01*
X223166666Y-129976190D01*
X223119047Y-129880952D01*
X223071428Y-129833333D01*
X222976190Y-129785714D01*
X222833333Y-129785714D01*
X222738095Y-129833333D01*
X222690476Y-129880952D01*
X222642857Y-129976190D01*
X222642857Y-130261904D01*
X222690476Y-130357142D01*
X222738095Y-130404761D01*
X222833333Y-130452380D01*
X222976190Y-130452380D01*
X222214285Y-130452380D02*
X222214285Y-129785714D01*
X222214285Y-129880952D02*
X222166666Y-129833333D01*
X222071428Y-129785714D01*
X221928571Y-129785714D01*
X221833333Y-129833333D01*
X221785714Y-129928571D01*
X221785714Y-130452380D01*
X221785714Y-129928571D02*
X221738095Y-129833333D01*
X221642857Y-129785714D01*
X221500000Y-129785714D01*
X221404761Y-129833333D01*
X221357142Y-129928571D01*
X221357142Y-130452380D01*
X220166666Y-129404761D02*
X221023809Y-130690476D01*
X219833333Y-130452380D02*
X219833333Y-129452380D01*
X219404761Y-130452380D02*
X219404761Y-129928571D01*
X219452380Y-129833333D01*
X219547619Y-129785714D01*
X219690476Y-129785714D01*
X219785714Y-129833333D01*
X219833333Y-129880952D01*
X218500000Y-130452380D02*
X218500000Y-129928571D01*
X218547619Y-129833333D01*
X218642857Y-129785714D01*
X218833333Y-129785714D01*
X218928571Y-129833333D01*
X218500000Y-130404761D02*
X218595238Y-130452380D01*
X218833333Y-130452380D01*
X218928571Y-130404761D01*
X218976190Y-130309523D01*
X218976190Y-130214285D01*
X218928571Y-130119047D01*
X218833333Y-130071428D01*
X218595238Y-130071428D01*
X218500000Y-130023809D01*
X218119047Y-129452380D02*
X217452380Y-130452380D01*
X217452380Y-129452380D02*
X218119047Y-130452380D01*
X216928571Y-130452380D02*
X217023809Y-130404761D01*
X217071428Y-130357142D01*
X217119047Y-130261904D01*
X217119047Y-129976190D01*
X217071428Y-129880952D01*
X217023809Y-129833333D01*
X216928571Y-129785714D01*
X216785714Y-129785714D01*
X216690476Y-129833333D01*
X216642857Y-129880952D01*
X216595238Y-129976190D01*
X216595238Y-130261904D01*
X216642857Y-130357142D01*
X216690476Y-130404761D01*
X216785714Y-130452380D01*
X216928571Y-130452380D01*
X216166666Y-130452380D02*
X216166666Y-129785714D01*
X216166666Y-129976190D02*
X216119047Y-129880952D01*
X216071428Y-129833333D01*
X215976190Y-129785714D01*
X215880952Y-129785714D01*
X215119047Y-129785714D02*
X215119047Y-130452380D01*
X215547619Y-129785714D02*
X215547619Y-130309523D01*
X215500000Y-130404761D01*
X215404761Y-130452380D01*
X215261904Y-130452380D01*
X215166666Y-130404761D01*
X215119047Y-130357142D01*
X214166666Y-129452380D02*
X214642857Y-129452380D01*
X214690476Y-129928571D01*
X214642857Y-129880952D01*
X214547619Y-129833333D01*
X214309523Y-129833333D01*
X214214285Y-129880952D01*
X214166666Y-129928571D01*
X214119047Y-130023809D01*
X214119047Y-130261904D01*
X214166666Y-130357142D01*
X214214285Y-130404761D01*
X214309523Y-130452380D01*
X214547619Y-130452380D01*
X214642857Y-130404761D01*
X214690476Y-130357142D01*
X212976190Y-129404761D02*
X213833333Y-130690476D01*
X212642857Y-129785714D02*
X212642857Y-130452380D01*
X212642857Y-129880952D02*
X212595238Y-129833333D01*
X212500000Y-129785714D01*
X212357142Y-129785714D01*
X212261904Y-129833333D01*
X212214285Y-129928571D01*
X212214285Y-130452380D01*
X211738095Y-130452380D02*
X211738095Y-129785714D01*
X211738095Y-129452380D02*
X211785714Y-129500000D01*
X211738095Y-129547619D01*
X211690476Y-129500000D01*
X211738095Y-129452380D01*
X211738095Y-129547619D01*
X211357142Y-130452380D02*
X210833333Y-129785714D01*
X211357142Y-129785714D02*
X210833333Y-130452380D01*
X210452380Y-130452380D02*
X210452380Y-129785714D01*
X210452380Y-129452380D02*
X210500000Y-129500000D01*
X210452380Y-129547619D01*
X210404761Y-129500000D01*
X210452380Y-129452380D01*
X210452380Y-129547619D01*
X209595238Y-130404761D02*
X209690476Y-130452380D01*
X209880952Y-130452380D01*
X209976190Y-130404761D01*
X210023809Y-130309523D01*
X210023809Y-129928571D01*
X209976190Y-129833333D01*
X209880952Y-129785714D01*
X209690476Y-129785714D01*
X209595238Y-129833333D01*
X209547619Y-129928571D01*
X209547619Y-130023809D01*
X210023809Y-130119047D01*
X209357142Y-130547619D02*
X208595238Y-130547619D01*
X207928571Y-130404761D02*
X208023809Y-130452380D01*
X208214285Y-130452380D01*
X208309523Y-130404761D01*
X208357142Y-130357142D01*
X208404761Y-130261904D01*
X208404761Y-129976190D01*
X208357142Y-129880952D01*
X208309523Y-129833333D01*
X208214285Y-129785714D01*
X208023809Y-129785714D01*
X207928571Y-129833333D01*
X207357142Y-130452380D02*
X207452380Y-130404761D01*
X207500000Y-130309523D01*
X207500000Y-129452380D01*
X206833333Y-130452380D02*
X206928571Y-130404761D01*
X206976190Y-130357142D01*
X207023809Y-130261904D01*
X207023809Y-129976190D01*
X206976190Y-129880952D01*
X206928571Y-129833333D01*
X206833333Y-129785714D01*
X206690476Y-129785714D01*
X206595238Y-129833333D01*
X206547619Y-129880952D01*
X206500000Y-129976190D01*
X206500000Y-130261904D01*
X206547619Y-130357142D01*
X206595238Y-130404761D01*
X206690476Y-130452380D01*
X206833333Y-130452380D01*
X205642857Y-130404761D02*
X205738095Y-130452380D01*
X205928571Y-130452380D01*
X206023809Y-130404761D01*
X206071428Y-130357142D01*
X206119047Y-130261904D01*
X206119047Y-129976190D01*
X206071428Y-129880952D01*
X206023809Y-129833333D01*
X205928571Y-129785714D01*
X205738095Y-129785714D01*
X205642857Y-129833333D01*
X205214285Y-130452380D02*
X205214285Y-129452380D01*
X205119047Y-130071428D02*
X204833333Y-130452380D01*
X204833333Y-129785714D02*
X205214285Y-130166666D01*
X115383214Y-73627380D02*
X115383214Y-72627380D01*
X114811785Y-73627380D01*
X114811785Y-72627380D01*
X114335595Y-73627380D02*
X114335595Y-72960714D01*
X114335595Y-72627380D02*
X114383214Y-72675000D01*
X114335595Y-72722619D01*
X114287976Y-72675000D01*
X114335595Y-72627380D01*
X114335595Y-72722619D01*
X113954642Y-73627380D02*
X113430833Y-72960714D01*
X113954642Y-72960714D02*
X113430833Y-73627380D01*
X113049880Y-73627380D02*
X113049880Y-72960714D01*
X113049880Y-72627380D02*
X113097500Y-72675000D01*
X113049880Y-72722619D01*
X113002261Y-72675000D01*
X113049880Y-72627380D01*
X113049880Y-72722619D01*
X112192738Y-73579761D02*
X112287976Y-73627380D01*
X112478452Y-73627380D01*
X112573690Y-73579761D01*
X112621309Y-73484523D01*
X112621309Y-73103571D01*
X112573690Y-73008333D01*
X112478452Y-72960714D01*
X112287976Y-72960714D01*
X112192738Y-73008333D01*
X112145119Y-73103571D01*
X112145119Y-73198809D01*
X112621309Y-73294047D01*
X110383214Y-73532142D02*
X110430833Y-73579761D01*
X110573690Y-73627380D01*
X110668928Y-73627380D01*
X110811785Y-73579761D01*
X110907023Y-73484523D01*
X110954642Y-73389285D01*
X111002261Y-73198809D01*
X111002261Y-73055952D01*
X110954642Y-72865476D01*
X110907023Y-72770238D01*
X110811785Y-72675000D01*
X110668928Y-72627380D01*
X110573690Y-72627380D01*
X110430833Y-72675000D01*
X110383214Y-72722619D01*
X109811785Y-73627380D02*
X109907023Y-73579761D01*
X109954642Y-73484523D01*
X109954642Y-72627380D01*
X109287976Y-73627380D02*
X109383214Y-73579761D01*
X109430833Y-73532142D01*
X109478452Y-73436904D01*
X109478452Y-73151190D01*
X109430833Y-73055952D01*
X109383214Y-73008333D01*
X109287976Y-72960714D01*
X109145119Y-72960714D01*
X109049880Y-73008333D01*
X109002261Y-73055952D01*
X108954642Y-73151190D01*
X108954642Y-73436904D01*
X109002261Y-73532142D01*
X109049880Y-73579761D01*
X109145119Y-73627380D01*
X109287976Y-73627380D01*
X108097500Y-73579761D02*
X108192738Y-73627380D01*
X108383214Y-73627380D01*
X108478452Y-73579761D01*
X108526071Y-73532142D01*
X108573690Y-73436904D01*
X108573690Y-73151190D01*
X108526071Y-73055952D01*
X108478452Y-73008333D01*
X108383214Y-72960714D01*
X108192738Y-72960714D01*
X108097500Y-73008333D01*
X107668928Y-73627380D02*
X107668928Y-72627380D01*
X107573690Y-73246428D02*
X107287976Y-73627380D01*
X107287976Y-72960714D02*
X107668928Y-73341666D01*
X106240357Y-72627380D02*
X105907023Y-73627380D01*
X105573690Y-72627380D01*
X104716547Y-73627380D02*
X105287976Y-73627380D01*
X105002261Y-73627380D02*
X105002261Y-72627380D01*
X105097500Y-72770238D01*
X105192738Y-72865476D01*
X105287976Y-72913095D01*
X104287976Y-73532142D02*
X104240357Y-73579761D01*
X104287976Y-73627380D01*
X104335595Y-73579761D01*
X104287976Y-73532142D01*
X104287976Y-73627380D01*
X103287976Y-73627380D02*
X103859404Y-73627380D01*
X103573690Y-73627380D02*
X103573690Y-72627380D01*
X103668928Y-72770238D01*
X103764166Y-72865476D01*
X103859404Y-72913095D01*
X113811785Y-75277380D02*
X113811785Y-74277380D01*
X113478452Y-74991666D01*
X113145119Y-74277380D01*
X113145119Y-75277380D01*
X112668928Y-75277380D02*
X112668928Y-74610714D01*
X112668928Y-74277380D02*
X112716547Y-74325000D01*
X112668928Y-74372619D01*
X112621309Y-74325000D01*
X112668928Y-74277380D01*
X112668928Y-74372619D01*
X111764166Y-75229761D02*
X111859404Y-75277380D01*
X112049880Y-75277380D01*
X112145119Y-75229761D01*
X112192738Y-75182142D01*
X112240357Y-75086904D01*
X112240357Y-74801190D01*
X112192738Y-74705952D01*
X112145119Y-74658333D01*
X112049880Y-74610714D01*
X111859404Y-74610714D01*
X111764166Y-74658333D01*
X111335595Y-75277380D02*
X111335595Y-74277380D01*
X110907023Y-75277380D02*
X110907023Y-74753571D01*
X110954642Y-74658333D01*
X111049880Y-74610714D01*
X111192738Y-74610714D01*
X111287976Y-74658333D01*
X111335595Y-74705952D01*
X110002261Y-75277380D02*
X110002261Y-74753571D01*
X110049880Y-74658333D01*
X110145119Y-74610714D01*
X110335595Y-74610714D01*
X110430833Y-74658333D01*
X110002261Y-75229761D02*
X110097500Y-75277380D01*
X110335595Y-75277380D01*
X110430833Y-75229761D01*
X110478452Y-75134523D01*
X110478452Y-75039285D01*
X110430833Y-74944047D01*
X110335595Y-74896428D01*
X110097500Y-74896428D01*
X110002261Y-74848809D01*
X109145119Y-75229761D02*
X109240357Y-75277380D01*
X109430833Y-75277380D01*
X109526071Y-75229761D01*
X109573690Y-75134523D01*
X109573690Y-74753571D01*
X109526071Y-74658333D01*
X109430833Y-74610714D01*
X109240357Y-74610714D01*
X109145119Y-74658333D01*
X109097500Y-74753571D01*
X109097500Y-74848809D01*
X109573690Y-74944047D01*
X108526071Y-75277380D02*
X108621309Y-75229761D01*
X108668928Y-75134523D01*
X108668928Y-74277380D01*
X107478452Y-74277380D02*
X106811785Y-74277380D01*
X107478452Y-75277380D01*
X106811785Y-75277380D01*
X106430833Y-75277380D02*
X106430833Y-74277380D01*
X106002261Y-75277380D02*
X106002261Y-74753571D01*
X106049880Y-74658333D01*
X106145119Y-74610714D01*
X106287976Y-74610714D01*
X106383214Y-74658333D01*
X106430833Y-74705952D01*
X105145119Y-75229761D02*
X105240357Y-75277380D01*
X105430833Y-75277380D01*
X105526071Y-75229761D01*
X105573690Y-75134523D01*
X105573690Y-74753571D01*
X105526071Y-74658333D01*
X105430833Y-74610714D01*
X105240357Y-74610714D01*
X105145119Y-74658333D01*
X105097500Y-74753571D01*
X105097500Y-74848809D01*
X105573690Y-74944047D01*
X104668928Y-74610714D02*
X104668928Y-75277380D01*
X104668928Y-74705952D02*
X104621309Y-74658333D01*
X104526071Y-74610714D01*
X104383214Y-74610714D01*
X104287976Y-74658333D01*
X104240357Y-74753571D01*
X104240357Y-75277380D01*
X103335595Y-74610714D02*
X103335595Y-75420238D01*
X103383214Y-75515476D01*
X103430833Y-75563095D01*
X103526071Y-75610714D01*
X103668928Y-75610714D01*
X103764166Y-75563095D01*
X103335595Y-75229761D02*
X103430833Y-75277380D01*
X103621309Y-75277380D01*
X103716547Y-75229761D01*
X103764166Y-75182142D01*
X103811785Y-75086904D01*
X103811785Y-74801190D01*
X103764166Y-74705952D01*
X103716547Y-74658333D01*
X103621309Y-74610714D01*
X103430833Y-74610714D01*
X103335595Y-74658333D01*
X103261904Y-112571428D02*
X102500000Y-112571428D01*
X102880952Y-112952380D02*
X102880952Y-112190476D01*
X101500000Y-112952380D02*
X102071428Y-112952380D01*
X101785714Y-112952380D02*
X101785714Y-111952380D01*
X101880952Y-112095238D01*
X101976190Y-112190476D01*
X102071428Y-112238095D01*
X101119047Y-112047619D02*
X101071428Y-112000000D01*
X100976190Y-111952380D01*
X100738095Y-111952380D01*
X100642857Y-112000000D01*
X100595238Y-112047619D01*
X100547619Y-112142857D01*
X100547619Y-112238095D01*
X100595238Y-112380952D01*
X101166666Y-112952380D01*
X100547619Y-112952380D01*
X100261904Y-111952380D02*
X99928571Y-112952380D01*
X99595238Y-111952380D01*
X104238095Y-105071428D02*
X103476190Y-105071428D01*
X103857142Y-105452380D02*
X103857142Y-104690476D01*
X102476190Y-105452380D02*
X103047619Y-105452380D01*
X102761904Y-105452380D02*
X102761904Y-104452380D01*
X102857142Y-104595238D01*
X102952380Y-104690476D01*
X103047619Y-104738095D01*
X102142857Y-104452380D02*
X101476190Y-104452380D01*
X101904761Y-105452380D01*
X100904761Y-104452380D02*
X100809523Y-104452380D01*
X100714285Y-104500000D01*
X100666666Y-104547619D01*
X100619047Y-104642857D01*
X100571428Y-104833333D01*
X100571428Y-105071428D01*
X100619047Y-105261904D01*
X100666666Y-105357142D01*
X100714285Y-105404761D01*
X100809523Y-105452380D01*
X100904761Y-105452380D01*
X101000000Y-105404761D01*
X101047619Y-105357142D01*
X101095238Y-105261904D01*
X101142857Y-105071428D01*
X101142857Y-104833333D01*
X101095238Y-104642857D01*
X101047619Y-104547619D01*
X101000000Y-104500000D01*
X100904761Y-104452380D01*
X100285714Y-104452380D02*
X99952380Y-105452380D01*
X99619047Y-104452380D01*
X102285714Y-110071428D02*
X101523809Y-110071428D01*
X101904761Y-110452380D02*
X101904761Y-109690476D01*
X100571428Y-109452380D02*
X101047619Y-109452380D01*
X101095238Y-109928571D01*
X101047619Y-109880952D01*
X100952380Y-109833333D01*
X100714285Y-109833333D01*
X100619047Y-109880952D01*
X100571428Y-109928571D01*
X100523809Y-110023809D01*
X100523809Y-110261904D01*
X100571428Y-110357142D01*
X100619047Y-110404761D01*
X100714285Y-110452380D01*
X100952380Y-110452380D01*
X101047619Y-110404761D01*
X101095238Y-110357142D01*
X100238095Y-109452380D02*
X99904761Y-110452380D01*
X99571428Y-109452380D01*
X101761904Y-107000000D02*
X101857142Y-106952380D01*
X102000000Y-106952380D01*
X102142857Y-107000000D01*
X102238095Y-107095238D01*
X102285714Y-107190476D01*
X102333333Y-107380952D01*
X102333333Y-107523809D01*
X102285714Y-107714285D01*
X102238095Y-107809523D01*
X102142857Y-107904761D01*
X102000000Y-107952380D01*
X101904761Y-107952380D01*
X101761904Y-107904761D01*
X101714285Y-107857142D01*
X101714285Y-107523809D01*
X101904761Y-107523809D01*
X101285714Y-107952380D02*
X101285714Y-106952380D01*
X100714285Y-107952380D01*
X100714285Y-106952380D01*
X100238095Y-107952380D02*
X100238095Y-106952380D01*
X100000000Y-106952380D01*
X99857142Y-107000000D01*
X99761904Y-107095238D01*
X99714285Y-107190476D01*
X99666666Y-107380952D01*
X99666666Y-107523809D01*
X99714285Y-107714285D01*
X99761904Y-107809523D01*
X99857142Y-107904761D01*
X100000000Y-107952380D01*
X100238095Y-107952380D01*
X187738095Y-73452380D02*
X187738095Y-72452380D01*
X187500000Y-72452380D01*
X187357142Y-72500000D01*
X187261904Y-72595238D01*
X187214285Y-72690476D01*
X187166666Y-72880952D01*
X187166666Y-73023809D01*
X187214285Y-73214285D01*
X187261904Y-73309523D01*
X187357142Y-73404761D01*
X187500000Y-73452380D01*
X187738095Y-73452380D01*
X186547619Y-72452380D02*
X186452380Y-72452380D01*
X186357142Y-72500000D01*
X186309523Y-72547619D01*
X186261904Y-72642857D01*
X186214285Y-72833333D01*
X186214285Y-73071428D01*
X186261904Y-73261904D01*
X186309523Y-73357142D01*
X186357142Y-73404761D01*
X186452380Y-73452380D01*
X186547619Y-73452380D01*
X186642857Y-73404761D01*
X186690476Y-73357142D01*
X186738095Y-73261904D01*
X186785714Y-73071428D01*
X186785714Y-72833333D01*
X186738095Y-72642857D01*
X186690476Y-72547619D01*
X186642857Y-72500000D01*
X186547619Y-72452380D01*
D11*
X99500000Y-103590000D02*
X96500000Y-103590000D01*
X99500000Y-113410000D02*
X99500000Y-103590000D01*
X96500000Y-113410000D02*
X99500000Y-113410000D01*
X96500000Y-103590000D02*
X96500000Y-113410000D01*
X225990000Y-126759999D02*
X206010000Y-126760000D01*
X206010000Y-126760000D02*
X206010000Y-116240001D01*
X206010000Y-116240001D02*
X225990000Y-116240000D01*
X225990000Y-116240000D02*
X225990000Y-119746667D01*
X225990000Y-119746667D02*
X225630000Y-119746667D01*
X225630000Y-119746667D02*
X225630000Y-123253333D01*
X225630000Y-123253333D02*
X225990000Y-123253333D01*
X225990000Y-123253333D02*
X225990000Y-126759999D01*
X138920000Y-89870000D02*
X138920000Y-89540000D01*
X145460000Y-89870000D02*
X138920000Y-89870000D01*
X145460000Y-89540000D02*
X145460000Y-89870000D01*
X138920000Y-87130000D02*
X138920000Y-87460000D01*
X145460000Y-87130000D02*
X138920000Y-87130000D01*
X145460000Y-87460000D02*
X145460000Y-87130000D01*
X188270000Y-76255000D02*
X185730000Y-76255000D01*
X185730000Y-76255000D02*
X185730000Y-73585000D01*
X188270000Y-73585000D02*
X226500000Y-73585000D01*
X183060000Y-73585000D02*
X185730000Y-73585000D01*
X185730000Y-88955000D02*
X185730000Y-91625000D01*
X185730000Y-88955000D02*
X223830000Y-88955000D01*
X223830000Y-88955000D02*
X223830000Y-91625000D01*
X188270000Y-76255000D02*
X188270000Y-73585000D01*
X188270000Y-76255000D02*
X223830000Y-76255000D01*
X223830000Y-76255000D02*
X223830000Y-73585000D01*
X226500000Y-73585000D02*
X226500000Y-91625000D01*
X226500000Y-91625000D02*
X183060000Y-91625000D01*
X183060000Y-91625000D02*
X183060000Y-73585000D01*
X103640000Y-121384165D02*
X103640000Y-121615835D01*
X104360000Y-121384165D02*
X104360000Y-121615835D01*
X134360000Y-121384165D02*
X134360000Y-121615835D01*
X133640000Y-121384165D02*
X133640000Y-121615835D01*
X166115835Y-128140000D02*
X165884165Y-128140000D01*
X166115835Y-128860000D02*
X165884165Y-128860000D01*
X174640000Y-82884165D02*
X174640000Y-83115835D01*
X175360000Y-82884165D02*
X175360000Y-83115835D01*
X178788748Y-83910000D02*
X180211252Y-83910000D01*
X178788748Y-82090000D02*
X180211252Y-82090000D01*
X173640000Y-121384165D02*
X173640000Y-121615835D01*
X174360000Y-121384165D02*
X174360000Y-121615835D01*
X204360000Y-120589165D02*
X204360000Y-120820835D01*
X203640000Y-120589165D02*
X203640000Y-120820835D01*
X100211252Y-116410000D02*
X98788748Y-116410000D01*
X100211252Y-114590000D02*
X98788748Y-114590000D01*
X101735000Y-122761252D02*
X101735000Y-122238748D01*
X100265000Y-122761252D02*
X100265000Y-122238748D01*
X203640000Y-102615835D02*
X203640000Y-102384165D01*
X204360000Y-102615835D02*
X204360000Y-102384165D01*
X116540000Y-89540000D02*
X116540000Y-89870000D01*
X116540000Y-89870000D02*
X123080000Y-89870000D01*
X123080000Y-89870000D02*
X123080000Y-89540000D01*
X116540000Y-87460000D02*
X116540000Y-87130000D01*
X116540000Y-87130000D02*
X123080000Y-87130000D01*
X123080000Y-87130000D02*
X123080000Y-87460000D01*
X174960000Y-91040000D02*
X174630000Y-91040000D01*
X174630000Y-91040000D02*
X174630000Y-97580000D01*
X174630000Y-97580000D02*
X174960000Y-97580000D01*
X177040000Y-91040000D02*
X177370000Y-91040000D01*
X177370000Y-91040000D02*
X177370000Y-97580000D01*
X177370000Y-97580000D02*
X177040000Y-97580000D01*
X169960000Y-91040000D02*
X169630000Y-91040000D01*
X169630000Y-91040000D02*
X169630000Y-97580000D01*
X169630000Y-97580000D02*
X169960000Y-97580000D01*
X172040000Y-91040000D02*
X172370000Y-91040000D01*
X172370000Y-91040000D02*
X172370000Y-97580000D01*
X172370000Y-97580000D02*
X172040000Y-97580000D01*
X167370000Y-97580000D02*
X167040000Y-97580000D01*
X167370000Y-91040000D02*
X167370000Y-97580000D01*
X167040000Y-91040000D02*
X167370000Y-91040000D01*
X164630000Y-97580000D02*
X164960000Y-97580000D01*
X164630000Y-91040000D02*
X164630000Y-97580000D01*
X164960000Y-91040000D02*
X164630000Y-91040000D01*
X162370000Y-97580000D02*
X162040000Y-97580000D01*
X162370000Y-91040000D02*
X162370000Y-97580000D01*
X162040000Y-91040000D02*
X162370000Y-91040000D01*
X159630000Y-97580000D02*
X159960000Y-97580000D01*
X159630000Y-91040000D02*
X159630000Y-97580000D01*
X159960000Y-91040000D02*
X159630000Y-91040000D01*
X154960000Y-91040000D02*
X154630000Y-91040000D01*
X154630000Y-91040000D02*
X154630000Y-97580000D01*
X154630000Y-97580000D02*
X154960000Y-97580000D01*
X157040000Y-91040000D02*
X157370000Y-91040000D01*
X157370000Y-91040000D02*
X157370000Y-97580000D01*
X157370000Y-97580000D02*
X157040000Y-97580000D01*
X174540000Y-88540000D02*
X174540000Y-88870000D01*
X174540000Y-88870000D02*
X181080000Y-88870000D01*
X181080000Y-88870000D02*
X181080000Y-88540000D01*
X174540000Y-86460000D02*
X174540000Y-86130000D01*
X174540000Y-86130000D02*
X181080000Y-86130000D01*
X181080000Y-86130000D02*
X181080000Y-86460000D01*
X197920000Y-98870000D02*
X197920000Y-98540000D01*
X204460000Y-98870000D02*
X197920000Y-98870000D01*
X204460000Y-98540000D02*
X204460000Y-98870000D01*
X197920000Y-96130000D02*
X197920000Y-96460000D01*
X204460000Y-96130000D02*
X197920000Y-96130000D01*
X204460000Y-96460000D02*
X204460000Y-96130000D01*
X125990000Y-126759999D02*
X106010000Y-126760000D01*
X106010000Y-126760000D02*
X106010000Y-116240001D01*
X106010000Y-116240001D02*
X125990000Y-116240000D01*
X125990000Y-116240000D02*
X125990000Y-119746667D01*
X125990000Y-119746667D02*
X125630000Y-119746667D01*
X125630000Y-119746667D02*
X125630000Y-123253333D01*
X125630000Y-123253333D02*
X125990000Y-123253333D01*
X125990000Y-123253333D02*
X125990000Y-126759999D01*
X155990000Y-123253333D02*
X155990000Y-126759999D01*
X155630000Y-123253333D02*
X155990000Y-123253333D01*
X155630000Y-119746667D02*
X155630000Y-123253333D01*
X155990000Y-119746667D02*
X155630000Y-119746667D01*
X155990000Y-116240000D02*
X155990000Y-119746667D01*
X136010000Y-116240001D02*
X155990000Y-116240000D01*
X136010000Y-126760000D02*
X136010000Y-116240001D01*
X155990000Y-126759999D02*
X136010000Y-126760000D01*
X167753333Y-106510000D02*
X171259999Y-106510000D01*
X167753333Y-106870000D02*
X167753333Y-106510000D01*
X164246667Y-106870000D02*
X167753333Y-106870000D01*
X164246667Y-106510000D02*
X164246667Y-106870000D01*
X160740000Y-106510000D02*
X164246667Y-106510000D01*
X160740001Y-126490000D02*
X160740000Y-106510000D01*
X171260000Y-126490000D02*
X160740001Y-126490000D01*
X171259999Y-106510000D02*
X171260000Y-126490000D01*
X181640000Y-78000000D02*
X174360000Y-78000000D01*
X174360000Y-78000000D02*
X174360000Y-81000000D01*
X174360000Y-81000000D02*
X181640000Y-81000000D01*
X181640000Y-81000000D02*
X181640000Y-78000000D01*
X179270000Y-78000000D02*
X179270000Y-81000000D01*
X96500000Y-119730000D02*
X99500000Y-119730000D01*
X99500000Y-117360000D02*
X96500000Y-117360000D01*
X99500000Y-124640000D02*
X99500000Y-117360000D01*
X96500000Y-124640000D02*
X99500000Y-124640000D01*
X96500000Y-117360000D02*
X96500000Y-124640000D01*
X195990000Y-126759999D02*
X176010000Y-126760000D01*
X176010000Y-126760000D02*
X176010000Y-116240001D01*
X176010000Y-116240001D02*
X195990000Y-116240000D01*
X195990000Y-116240000D02*
X195990000Y-119746667D01*
X195990000Y-119746667D02*
X195630000Y-119746667D01*
X195630000Y-119746667D02*
X195630000Y-123253333D01*
X195630000Y-123253333D02*
X195990000Y-123253333D01*
X195990000Y-123253333D02*
X195990000Y-126759999D01*
X201500000Y-112580000D02*
X198500000Y-112580000D01*
X198500000Y-114950000D02*
X201500000Y-114950000D01*
X198500000Y-100050000D02*
X198500000Y-114950000D01*
X201500000Y-100050000D02*
X198500000Y-100050000D01*
X201500000Y-114950000D02*
X201500000Y-100050000D01*
D10*
X228738095Y-120952380D02*
X228738095Y-121761904D01*
X228690476Y-121857142D01*
X228642857Y-121904761D01*
X228547619Y-121952380D01*
X228357142Y-121952380D01*
X228261904Y-121904761D01*
X228214285Y-121857142D01*
X228166666Y-121761904D01*
X228166666Y-120952380D01*
X227166666Y-121952380D02*
X227738095Y-121952380D01*
X227452380Y-121952380D02*
X227452380Y-120952380D01*
X227547619Y-121095238D01*
X227642857Y-121190476D01*
X227738095Y-121238095D01*
X226785714Y-121047619D02*
X226738095Y-121000000D01*
X226642857Y-120952380D01*
X226404761Y-120952380D01*
X226309523Y-121000000D01*
X226261904Y-121047619D01*
X226214285Y-121142857D01*
X226214285Y-121238095D01*
X226261904Y-121380952D01*
X226833333Y-121952380D01*
X226214285Y-121952380D01*
X142356666Y-86582380D02*
X142690000Y-86106190D01*
X142928095Y-86582380D02*
X142928095Y-85582380D01*
X142547142Y-85582380D01*
X142451904Y-85630000D01*
X142404285Y-85677619D01*
X142356666Y-85772857D01*
X142356666Y-85915714D01*
X142404285Y-86010952D01*
X142451904Y-86058571D01*
X142547142Y-86106190D01*
X142928095Y-86106190D01*
X141975714Y-85677619D02*
X141928095Y-85630000D01*
X141832857Y-85582380D01*
X141594761Y-85582380D01*
X141499523Y-85630000D01*
X141451904Y-85677619D01*
X141404285Y-85772857D01*
X141404285Y-85868095D01*
X141451904Y-86010952D01*
X142023333Y-86582380D01*
X141404285Y-86582380D01*
X228214285Y-82771666D02*
X227738095Y-82771666D01*
X228309523Y-83057380D02*
X227976190Y-82057380D01*
X227642857Y-83057380D01*
X226785714Y-83057380D02*
X227357142Y-83057380D01*
X227071428Y-83057380D02*
X227071428Y-82057380D01*
X227166666Y-82200238D01*
X227261904Y-82295476D01*
X227357142Y-82343095D01*
X104166666Y-123857142D02*
X104214285Y-123904761D01*
X104357142Y-123952380D01*
X104452380Y-123952380D01*
X104595238Y-123904761D01*
X104690476Y-123809523D01*
X104738095Y-123714285D01*
X104785714Y-123523809D01*
X104785714Y-123380952D01*
X104738095Y-123190476D01*
X104690476Y-123095238D01*
X104595238Y-123000000D01*
X104452380Y-122952380D01*
X104357142Y-122952380D01*
X104214285Y-123000000D01*
X104166666Y-123047619D01*
X103214285Y-123952380D02*
X103785714Y-123952380D01*
X103500000Y-123952380D02*
X103500000Y-122952380D01*
X103595238Y-123095238D01*
X103690476Y-123190476D01*
X103785714Y-123238095D01*
X134166666Y-123857142D02*
X134214285Y-123904761D01*
X134357142Y-123952380D01*
X134452380Y-123952380D01*
X134595238Y-123904761D01*
X134690476Y-123809523D01*
X134738095Y-123714285D01*
X134785714Y-123523809D01*
X134785714Y-123380952D01*
X134738095Y-123190476D01*
X134690476Y-123095238D01*
X134595238Y-123000000D01*
X134452380Y-122952380D01*
X134357142Y-122952380D01*
X134214285Y-123000000D01*
X134166666Y-123047619D01*
X133785714Y-123047619D02*
X133738095Y-123000000D01*
X133642857Y-122952380D01*
X133404761Y-122952380D01*
X133309523Y-123000000D01*
X133261904Y-123047619D01*
X133214285Y-123142857D01*
X133214285Y-123238095D01*
X133261904Y-123380952D01*
X133833333Y-123952380D01*
X133214285Y-123952380D01*
X166166666Y-130357142D02*
X166214285Y-130404761D01*
X166357142Y-130452380D01*
X166452380Y-130452380D01*
X166595238Y-130404761D01*
X166690476Y-130309523D01*
X166738095Y-130214285D01*
X166785714Y-130023809D01*
X166785714Y-129880952D01*
X166738095Y-129690476D01*
X166690476Y-129595238D01*
X166595238Y-129500000D01*
X166452380Y-129452380D01*
X166357142Y-129452380D01*
X166214285Y-129500000D01*
X166166666Y-129547619D01*
X165833333Y-129452380D02*
X165214285Y-129452380D01*
X165547619Y-129833333D01*
X165404761Y-129833333D01*
X165309523Y-129880952D01*
X165261904Y-129928571D01*
X165214285Y-130023809D01*
X165214285Y-130261904D01*
X165261904Y-130357142D01*
X165309523Y-130404761D01*
X165404761Y-130452380D01*
X165690476Y-130452380D01*
X165785714Y-130404761D01*
X165833333Y-130357142D01*
X173666666Y-83357142D02*
X173714285Y-83404761D01*
X173857142Y-83452380D01*
X173952380Y-83452380D01*
X174095238Y-83404761D01*
X174190476Y-83309523D01*
X174238095Y-83214285D01*
X174285714Y-83023809D01*
X174285714Y-82880952D01*
X174238095Y-82690476D01*
X174190476Y-82595238D01*
X174095238Y-82500000D01*
X173952380Y-82452380D01*
X173857142Y-82452380D01*
X173714285Y-82500000D01*
X173666666Y-82547619D01*
X172809523Y-82785714D02*
X172809523Y-83452380D01*
X173047619Y-82404761D02*
X173285714Y-83119047D01*
X172666666Y-83119047D01*
X179666666Y-85207142D02*
X179714285Y-85254761D01*
X179857142Y-85302380D01*
X179952380Y-85302380D01*
X180095238Y-85254761D01*
X180190476Y-85159523D01*
X180238095Y-85064285D01*
X180285714Y-84873809D01*
X180285714Y-84730952D01*
X180238095Y-84540476D01*
X180190476Y-84445238D01*
X180095238Y-84350000D01*
X179952380Y-84302380D01*
X179857142Y-84302380D01*
X179714285Y-84350000D01*
X179666666Y-84397619D01*
X178761904Y-84302380D02*
X179238095Y-84302380D01*
X179285714Y-84778571D01*
X179238095Y-84730952D01*
X179142857Y-84683333D01*
X178904761Y-84683333D01*
X178809523Y-84730952D01*
X178761904Y-84778571D01*
X178714285Y-84873809D01*
X178714285Y-85111904D01*
X178761904Y-85207142D01*
X178809523Y-85254761D01*
X178904761Y-85302380D01*
X179142857Y-85302380D01*
X179238095Y-85254761D01*
X179285714Y-85207142D01*
X174166666Y-123857142D02*
X174214285Y-123904761D01*
X174357142Y-123952380D01*
X174452380Y-123952380D01*
X174595238Y-123904761D01*
X174690476Y-123809523D01*
X174738095Y-123714285D01*
X174785714Y-123523809D01*
X174785714Y-123380952D01*
X174738095Y-123190476D01*
X174690476Y-123095238D01*
X174595238Y-123000000D01*
X174452380Y-122952380D01*
X174357142Y-122952380D01*
X174214285Y-123000000D01*
X174166666Y-123047619D01*
X173309523Y-122952380D02*
X173500000Y-122952380D01*
X173595238Y-123000000D01*
X173642857Y-123047619D01*
X173738095Y-123190476D01*
X173785714Y-123380952D01*
X173785714Y-123761904D01*
X173738095Y-123857142D01*
X173690476Y-123904761D01*
X173595238Y-123952380D01*
X173404761Y-123952380D01*
X173309523Y-123904761D01*
X173261904Y-123857142D01*
X173214285Y-123761904D01*
X173214285Y-123523809D01*
X173261904Y-123428571D01*
X173309523Y-123380952D01*
X173404761Y-123333333D01*
X173595238Y-123333333D01*
X173690476Y-123380952D01*
X173738095Y-123428571D01*
X173785714Y-123523809D01*
X204166666Y-123357142D02*
X204214285Y-123404761D01*
X204357142Y-123452380D01*
X204452380Y-123452380D01*
X204595238Y-123404761D01*
X204690476Y-123309523D01*
X204738095Y-123214285D01*
X204785714Y-123023809D01*
X204785714Y-122880952D01*
X204738095Y-122690476D01*
X204690476Y-122595238D01*
X204595238Y-122500000D01*
X204452380Y-122452380D01*
X204357142Y-122452380D01*
X204214285Y-122500000D01*
X204166666Y-122547619D01*
X203833333Y-122452380D02*
X203166666Y-122452380D01*
X203595238Y-123452380D01*
X103166666Y-115857142D02*
X103214285Y-115904761D01*
X103357142Y-115952380D01*
X103452380Y-115952380D01*
X103595238Y-115904761D01*
X103690476Y-115809523D01*
X103738095Y-115714285D01*
X103785714Y-115523809D01*
X103785714Y-115380952D01*
X103738095Y-115190476D01*
X103690476Y-115095238D01*
X103595238Y-115000000D01*
X103452380Y-114952380D01*
X103357142Y-114952380D01*
X103214285Y-115000000D01*
X103166666Y-115047619D01*
X102595238Y-115380952D02*
X102690476Y-115333333D01*
X102738095Y-115285714D01*
X102785714Y-115190476D01*
X102785714Y-115142857D01*
X102738095Y-115047619D01*
X102690476Y-115000000D01*
X102595238Y-114952380D01*
X102404761Y-114952380D01*
X102309523Y-115000000D01*
X102261904Y-115047619D01*
X102214285Y-115142857D01*
X102214285Y-115190476D01*
X102261904Y-115285714D01*
X102309523Y-115333333D01*
X102404761Y-115380952D01*
X102595238Y-115380952D01*
X102690476Y-115428571D01*
X102738095Y-115476190D01*
X102785714Y-115571428D01*
X102785714Y-115761904D01*
X102738095Y-115857142D01*
X102690476Y-115904761D01*
X102595238Y-115952380D01*
X102404761Y-115952380D01*
X102309523Y-115904761D01*
X102261904Y-115857142D01*
X102214285Y-115761904D01*
X102214285Y-115571428D01*
X102261904Y-115476190D01*
X102309523Y-115428571D01*
X102404761Y-115380952D01*
X101166666Y-120357142D02*
X101214285Y-120404761D01*
X101357142Y-120452380D01*
X101452380Y-120452380D01*
X101595238Y-120404761D01*
X101690476Y-120309523D01*
X101738095Y-120214285D01*
X101785714Y-120023809D01*
X101785714Y-119880952D01*
X101738095Y-119690476D01*
X101690476Y-119595238D01*
X101595238Y-119500000D01*
X101452380Y-119452380D01*
X101357142Y-119452380D01*
X101214285Y-119500000D01*
X101166666Y-119547619D01*
X100690476Y-120452380D02*
X100500000Y-120452380D01*
X100404761Y-120404761D01*
X100357142Y-120357142D01*
X100261904Y-120214285D01*
X100214285Y-120023809D01*
X100214285Y-119642857D01*
X100261904Y-119547619D01*
X100309523Y-119500000D01*
X100404761Y-119452380D01*
X100595238Y-119452380D01*
X100690476Y-119500000D01*
X100738095Y-119547619D01*
X100785714Y-119642857D01*
X100785714Y-119880952D01*
X100738095Y-119976190D01*
X100690476Y-120023809D01*
X100595238Y-120071428D01*
X100404761Y-120071428D01*
X100309523Y-120023809D01*
X100261904Y-119976190D01*
X100214285Y-119880952D01*
X204642857Y-104857142D02*
X204690476Y-104904761D01*
X204833333Y-104952380D01*
X204928571Y-104952380D01*
X205071428Y-104904761D01*
X205166666Y-104809523D01*
X205214285Y-104714285D01*
X205261904Y-104523809D01*
X205261904Y-104380952D01*
X205214285Y-104190476D01*
X205166666Y-104095238D01*
X205071428Y-104000000D01*
X204928571Y-103952380D01*
X204833333Y-103952380D01*
X204690476Y-104000000D01*
X204642857Y-104047619D01*
X203690476Y-104952380D02*
X204261904Y-104952380D01*
X203976190Y-104952380D02*
X203976190Y-103952380D01*
X204071428Y-104095238D01*
X204166666Y-104190476D01*
X204261904Y-104238095D01*
X203071428Y-103952380D02*
X202976190Y-103952380D01*
X202880952Y-104000000D01*
X202833333Y-104047619D01*
X202785714Y-104142857D01*
X202738095Y-104333333D01*
X202738095Y-104571428D01*
X202785714Y-104761904D01*
X202833333Y-104857142D01*
X202880952Y-104904761D01*
X202976190Y-104952380D01*
X203071428Y-104952380D01*
X203166666Y-104904761D01*
X203214285Y-104857142D01*
X203261904Y-104761904D01*
X203309523Y-104571428D01*
X203309523Y-104333333D01*
X203261904Y-104142857D01*
X203214285Y-104047619D01*
X203166666Y-104000000D01*
X203071428Y-103952380D01*
X119976666Y-86452380D02*
X120310000Y-85976190D01*
X120548095Y-86452380D02*
X120548095Y-85452380D01*
X120167142Y-85452380D01*
X120071904Y-85500000D01*
X120024285Y-85547619D01*
X119976666Y-85642857D01*
X119976666Y-85785714D01*
X120024285Y-85880952D01*
X120071904Y-85928571D01*
X120167142Y-85976190D01*
X120548095Y-85976190D01*
X119024285Y-86452380D02*
X119595714Y-86452380D01*
X119310000Y-86452380D02*
X119310000Y-85452380D01*
X119405238Y-85595238D01*
X119500476Y-85690476D01*
X119595714Y-85738095D01*
X174082380Y-94143333D02*
X173606190Y-93810000D01*
X174082380Y-93571904D02*
X173082380Y-93571904D01*
X173082380Y-93952857D01*
X173130000Y-94048095D01*
X173177619Y-94095714D01*
X173272857Y-94143333D01*
X173415714Y-94143333D01*
X173510952Y-94095714D01*
X173558571Y-94048095D01*
X173606190Y-93952857D01*
X173606190Y-93571904D01*
X173082380Y-94476666D02*
X173082380Y-95095714D01*
X173463333Y-94762380D01*
X173463333Y-94905238D01*
X173510952Y-95000476D01*
X173558571Y-95048095D01*
X173653809Y-95095714D01*
X173891904Y-95095714D01*
X173987142Y-95048095D01*
X174034761Y-95000476D01*
X174082380Y-94905238D01*
X174082380Y-94619523D01*
X174034761Y-94524285D01*
X173987142Y-94476666D01*
X169082380Y-94143333D02*
X168606190Y-93810000D01*
X169082380Y-93571904D02*
X168082380Y-93571904D01*
X168082380Y-93952857D01*
X168130000Y-94048095D01*
X168177619Y-94095714D01*
X168272857Y-94143333D01*
X168415714Y-94143333D01*
X168510952Y-94095714D01*
X168558571Y-94048095D01*
X168606190Y-93952857D01*
X168606190Y-93571904D01*
X168415714Y-95000476D02*
X169082380Y-95000476D01*
X168034761Y-94762380D02*
X168749047Y-94524285D01*
X168749047Y-95143333D01*
X164082380Y-94143333D02*
X163606190Y-93810000D01*
X164082380Y-93571904D02*
X163082380Y-93571904D01*
X163082380Y-93952857D01*
X163130000Y-94048095D01*
X163177619Y-94095714D01*
X163272857Y-94143333D01*
X163415714Y-94143333D01*
X163510952Y-94095714D01*
X163558571Y-94048095D01*
X163606190Y-93952857D01*
X163606190Y-93571904D01*
X163082380Y-95048095D02*
X163082380Y-94571904D01*
X163558571Y-94524285D01*
X163510952Y-94571904D01*
X163463333Y-94667142D01*
X163463333Y-94905238D01*
X163510952Y-95000476D01*
X163558571Y-95048095D01*
X163653809Y-95095714D01*
X163891904Y-95095714D01*
X163987142Y-95048095D01*
X164034761Y-95000476D01*
X164082380Y-94905238D01*
X164082380Y-94667142D01*
X164034761Y-94571904D01*
X163987142Y-94524285D01*
X159082380Y-94143333D02*
X158606190Y-93810000D01*
X159082380Y-93571904D02*
X158082380Y-93571904D01*
X158082380Y-93952857D01*
X158130000Y-94048095D01*
X158177619Y-94095714D01*
X158272857Y-94143333D01*
X158415714Y-94143333D01*
X158510952Y-94095714D01*
X158558571Y-94048095D01*
X158606190Y-93952857D01*
X158606190Y-93571904D01*
X158082380Y-95000476D02*
X158082380Y-94810000D01*
X158130000Y-94714761D01*
X158177619Y-94667142D01*
X158320476Y-94571904D01*
X158510952Y-94524285D01*
X158891904Y-94524285D01*
X158987142Y-94571904D01*
X159034761Y-94619523D01*
X159082380Y-94714761D01*
X159082380Y-94905238D01*
X159034761Y-95000476D01*
X158987142Y-95048095D01*
X158891904Y-95095714D01*
X158653809Y-95095714D01*
X158558571Y-95048095D01*
X158510952Y-95000476D01*
X158463333Y-94905238D01*
X158463333Y-94714761D01*
X158510952Y-94619523D01*
X158558571Y-94571904D01*
X158653809Y-94524285D01*
X154082380Y-94143333D02*
X153606190Y-93810000D01*
X154082380Y-93571904D02*
X153082380Y-93571904D01*
X153082380Y-93952857D01*
X153130000Y-94048095D01*
X153177619Y-94095714D01*
X153272857Y-94143333D01*
X153415714Y-94143333D01*
X153510952Y-94095714D01*
X153558571Y-94048095D01*
X153606190Y-93952857D01*
X153606190Y-93571904D01*
X153082380Y-94476666D02*
X153082380Y-95143333D01*
X154082380Y-94714761D01*
X171666666Y-87952380D02*
X172000000Y-87476190D01*
X172238095Y-87952380D02*
X172238095Y-86952380D01*
X171857142Y-86952380D01*
X171761904Y-87000000D01*
X171714285Y-87047619D01*
X171666666Y-87142857D01*
X171666666Y-87285714D01*
X171714285Y-87380952D01*
X171761904Y-87428571D01*
X171857142Y-87476190D01*
X172238095Y-87476190D01*
X171095238Y-87380952D02*
X171190476Y-87333333D01*
X171238095Y-87285714D01*
X171285714Y-87190476D01*
X171285714Y-87142857D01*
X171238095Y-87047619D01*
X171190476Y-87000000D01*
X171095238Y-86952380D01*
X170904761Y-86952380D01*
X170809523Y-87000000D01*
X170761904Y-87047619D01*
X170714285Y-87142857D01*
X170714285Y-87190476D01*
X170761904Y-87285714D01*
X170809523Y-87333333D01*
X170904761Y-87380952D01*
X171095238Y-87380952D01*
X171190476Y-87428571D01*
X171238095Y-87476190D01*
X171285714Y-87571428D01*
X171285714Y-87761904D01*
X171238095Y-87857142D01*
X171190476Y-87904761D01*
X171095238Y-87952380D01*
X170904761Y-87952380D01*
X170809523Y-87904761D01*
X170761904Y-87857142D01*
X170714285Y-87761904D01*
X170714285Y-87571428D01*
X170761904Y-87476190D01*
X170809523Y-87428571D01*
X170904761Y-87380952D01*
X201356666Y-95582380D02*
X201690000Y-95106190D01*
X201928095Y-95582380D02*
X201928095Y-94582380D01*
X201547142Y-94582380D01*
X201451904Y-94630000D01*
X201404285Y-94677619D01*
X201356666Y-94772857D01*
X201356666Y-94915714D01*
X201404285Y-95010952D01*
X201451904Y-95058571D01*
X201547142Y-95106190D01*
X201928095Y-95106190D01*
X200880476Y-95582380D02*
X200690000Y-95582380D01*
X200594761Y-95534761D01*
X200547142Y-95487142D01*
X200451904Y-95344285D01*
X200404285Y-95153809D01*
X200404285Y-94772857D01*
X200451904Y-94677619D01*
X200499523Y-94630000D01*
X200594761Y-94582380D01*
X200785238Y-94582380D01*
X200880476Y-94630000D01*
X200928095Y-94677619D01*
X200975714Y-94772857D01*
X200975714Y-95010952D01*
X200928095Y-95106190D01*
X200880476Y-95153809D01*
X200785238Y-95201428D01*
X200594761Y-95201428D01*
X200499523Y-95153809D01*
X200451904Y-95106190D01*
X200404285Y-95010952D01*
X127751904Y-120952380D02*
X127751904Y-121761904D01*
X127704285Y-121857142D01*
X127656666Y-121904761D01*
X127561428Y-121952380D01*
X127370952Y-121952380D01*
X127275714Y-121904761D01*
X127228095Y-121857142D01*
X127180476Y-121761904D01*
X127180476Y-120952380D01*
X126180476Y-121952380D02*
X126751904Y-121952380D01*
X126466190Y-121952380D02*
X126466190Y-120952380D01*
X126561428Y-121095238D01*
X126656666Y-121190476D01*
X126751904Y-121238095D01*
X157751904Y-120952380D02*
X157751904Y-121761904D01*
X157704285Y-121857142D01*
X157656666Y-121904761D01*
X157561428Y-121952380D01*
X157370952Y-121952380D01*
X157275714Y-121904761D01*
X157228095Y-121857142D01*
X157180476Y-121761904D01*
X157180476Y-120952380D01*
X156799523Y-120952380D02*
X156180476Y-120952380D01*
X156513809Y-121333333D01*
X156370952Y-121333333D01*
X156275714Y-121380952D01*
X156228095Y-121428571D01*
X156180476Y-121523809D01*
X156180476Y-121761904D01*
X156228095Y-121857142D01*
X156275714Y-121904761D01*
X156370952Y-121952380D01*
X156656666Y-121952380D01*
X156751904Y-121904761D01*
X156799523Y-121857142D01*
X166761904Y-104962380D02*
X166761904Y-105771904D01*
X166714285Y-105867142D01*
X166666666Y-105914761D01*
X166571428Y-105962380D01*
X166380952Y-105962380D01*
X166285714Y-105914761D01*
X166238095Y-105867142D01*
X166190476Y-105771904D01*
X166190476Y-104962380D01*
X165238095Y-104962380D02*
X165714285Y-104962380D01*
X165761904Y-105438571D01*
X165714285Y-105390952D01*
X165619047Y-105343333D01*
X165380952Y-105343333D01*
X165285714Y-105390952D01*
X165238095Y-105438571D01*
X165190476Y-105533809D01*
X165190476Y-105771904D01*
X165238095Y-105867142D01*
X165285714Y-105914761D01*
X165380952Y-105962380D01*
X165619047Y-105962380D01*
X165714285Y-105914761D01*
X165761904Y-105867142D01*
X173761904Y-78952380D02*
X173761904Y-79761904D01*
X173714285Y-79857142D01*
X173666666Y-79904761D01*
X173571428Y-79952380D01*
X173380952Y-79952380D01*
X173285714Y-79904761D01*
X173238095Y-79857142D01*
X173190476Y-79761904D01*
X173190476Y-78952380D01*
X172809523Y-78952380D02*
X172142857Y-78952380D01*
X172571428Y-79952380D01*
X98261904Y-124952380D02*
X98261904Y-125761904D01*
X98214285Y-125857142D01*
X98166666Y-125904761D01*
X98071428Y-125952380D01*
X97880952Y-125952380D01*
X97785714Y-125904761D01*
X97738095Y-125857142D01*
X97690476Y-125761904D01*
X97690476Y-124952380D01*
X97166666Y-125952380D02*
X96976190Y-125952380D01*
X96880952Y-125904761D01*
X96833333Y-125857142D01*
X96738095Y-125714285D01*
X96690476Y-125523809D01*
X96690476Y-125142857D01*
X96738095Y-125047619D01*
X96785714Y-125000000D01*
X96880952Y-124952380D01*
X97071428Y-124952380D01*
X97166666Y-125000000D01*
X97214285Y-125047619D01*
X97261904Y-125142857D01*
X97261904Y-125380952D01*
X97214285Y-125476190D01*
X97166666Y-125523809D01*
X97071428Y-125571428D01*
X96880952Y-125571428D01*
X96785714Y-125523809D01*
X96738095Y-125476190D01*
X96690476Y-125380952D01*
X198738095Y-120952380D02*
X198738095Y-121761904D01*
X198690476Y-121857142D01*
X198642857Y-121904761D01*
X198547619Y-121952380D01*
X198357142Y-121952380D01*
X198261904Y-121904761D01*
X198214285Y-121857142D01*
X198166666Y-121761904D01*
X198166666Y-120952380D01*
X197166666Y-121952380D02*
X197738095Y-121952380D01*
X197452380Y-121952380D02*
X197452380Y-120952380D01*
X197547619Y-121095238D01*
X197642857Y-121190476D01*
X197738095Y-121238095D01*
X196547619Y-120952380D02*
X196452380Y-120952380D01*
X196357142Y-121000000D01*
X196309523Y-121047619D01*
X196261904Y-121142857D01*
X196214285Y-121333333D01*
X196214285Y-121571428D01*
X196261904Y-121761904D01*
X196309523Y-121857142D01*
X196357142Y-121904761D01*
X196452380Y-121952380D01*
X196547619Y-121952380D01*
X196642857Y-121904761D01*
X196690476Y-121857142D01*
X196738095Y-121761904D01*
X196785714Y-121571428D01*
X196785714Y-121333333D01*
X196738095Y-121142857D01*
X196690476Y-121047619D01*
X196642857Y-121000000D01*
X196547619Y-120952380D01*
X201238095Y-115452380D02*
X201238095Y-116261904D01*
X201190476Y-116357142D01*
X201142857Y-116404761D01*
X201047619Y-116452380D01*
X200857142Y-116452380D01*
X200761904Y-116404761D01*
X200714285Y-116357142D01*
X200666666Y-116261904D01*
X200666666Y-115452380D01*
X199666666Y-116452380D02*
X200238095Y-116452380D01*
X199952380Y-116452380D02*
X199952380Y-115452380D01*
X200047619Y-115595238D01*
X200142857Y-115690476D01*
X200238095Y-115738095D01*
X198809523Y-115785714D02*
X198809523Y-116452380D01*
X199047619Y-115404761D02*
X199285714Y-116119047D01*
X198666666Y-116119047D01*
%LPC*%
D12*
X232000000Y-76000000D03*
X232000000Y-128000000D03*
X100000000Y-128000000D03*
X100000000Y-76000000D03*
D13*
X98000000Y-112310000D03*
X98000000Y-109770000D03*
X98000000Y-107230000D03*
X98000000Y-104690000D03*
D14*
X224890000Y-117740000D03*
X224890000Y-125260000D03*
X222350000Y-117740000D03*
X222350000Y-125260000D03*
X219810000Y-117740000D03*
X219810000Y-125260000D03*
X217270000Y-117740000D03*
X217270000Y-125260000D03*
X214730000Y-117740000D03*
X214730000Y-125260000D03*
X212190000Y-117740000D03*
X212190000Y-125260000D03*
X209650000Y-117740000D03*
X209650000Y-125260000D03*
X207110000Y-117740000D03*
X207110000Y-125260000D03*
D15*
X138380000Y-88500000D03*
D16*
X146000000Y-88500000D03*
D17*
X187000000Y-74985000D03*
D15*
X220020000Y-90225000D03*
X189540000Y-74985000D03*
X217480000Y-90225000D03*
X192080000Y-74985000D03*
X214940000Y-90225000D03*
X194620000Y-74985000D03*
X212400000Y-90225000D03*
X197160000Y-74985000D03*
X209860000Y-90225000D03*
X199700000Y-74985000D03*
X207320000Y-90225000D03*
X202240000Y-74985000D03*
X204780000Y-90225000D03*
X204780000Y-74985000D03*
X202240000Y-90225000D03*
X207320000Y-74985000D03*
X199700000Y-90225000D03*
X209860000Y-74985000D03*
X197160000Y-90225000D03*
X212400000Y-74985000D03*
X194620000Y-90225000D03*
X214940000Y-74985000D03*
X192080000Y-90225000D03*
X217480000Y-74985000D03*
X189540000Y-90225000D03*
X220020000Y-74985000D03*
X187000000Y-90225000D03*
X222560000Y-74985000D03*
X222560000Y-90225000D03*
G36*
G01*
X103845000Y-120565000D02*
X104155000Y-120565000D01*
G75*
G02*
X104310000Y-120720000I0J-155000D01*
G01*
X104310000Y-121145000D01*
G75*
G02*
X104155000Y-121300000I-155000J0D01*
G01*
X103845000Y-121300000D01*
G75*
G02*
X103690000Y-121145000I0J155000D01*
G01*
X103690000Y-120720000D01*
G75*
G02*
X103845000Y-120565000I155000J0D01*
G01*
G37*
G36*
G01*
X103845000Y-121700000D02*
X104155000Y-121700000D01*
G75*
G02*
X104310000Y-121855000I0J-155000D01*
G01*
X104310000Y-122280000D01*
G75*
G02*
X104155000Y-122435000I-155000J0D01*
G01*
X103845000Y-122435000D01*
G75*
G02*
X103690000Y-122280000I0J155000D01*
G01*
X103690000Y-121855000D01*
G75*
G02*
X103845000Y-121700000I155000J0D01*
G01*
G37*
G36*
G01*
X133845000Y-121700000D02*
X134155000Y-121700000D01*
G75*
G02*
X134310000Y-121855000I0J-155000D01*
G01*
X134310000Y-122280000D01*
G75*
G02*
X134155000Y-122435000I-155000J0D01*
G01*
X133845000Y-122435000D01*
G75*
G02*
X133690000Y-122280000I0J155000D01*
G01*
X133690000Y-121855000D01*
G75*
G02*
X133845000Y-121700000I155000J0D01*
G01*
G37*
G36*
G01*
X133845000Y-120565000D02*
X134155000Y-120565000D01*
G75*
G02*
X134310000Y-120720000I0J-155000D01*
G01*
X134310000Y-121145000D01*
G75*
G02*
X134155000Y-121300000I-155000J0D01*
G01*
X133845000Y-121300000D01*
G75*
G02*
X133690000Y-121145000I0J155000D01*
G01*
X133690000Y-120720000D01*
G75*
G02*
X133845000Y-120565000I155000J0D01*
G01*
G37*
G36*
G01*
X166935000Y-128345000D02*
X166935000Y-128655000D01*
G75*
G02*
X166780000Y-128810000I-155000J0D01*
G01*
X166355000Y-128810000D01*
G75*
G02*
X166200000Y-128655000I0J155000D01*
G01*
X166200000Y-128345000D01*
G75*
G02*
X166355000Y-128190000I155000J0D01*
G01*
X166780000Y-128190000D01*
G75*
G02*
X166935000Y-128345000I0J-155000D01*
G01*
G37*
G36*
G01*
X165800000Y-128345000D02*
X165800000Y-128655000D01*
G75*
G02*
X165645000Y-128810000I-155000J0D01*
G01*
X165220000Y-128810000D01*
G75*
G02*
X165065000Y-128655000I0J155000D01*
G01*
X165065000Y-128345000D01*
G75*
G02*
X165220000Y-128190000I155000J0D01*
G01*
X165645000Y-128190000D01*
G75*
G02*
X165800000Y-128345000I0J-155000D01*
G01*
G37*
G36*
G01*
X174845000Y-82065000D02*
X175155000Y-82065000D01*
G75*
G02*
X175310000Y-82220000I0J-155000D01*
G01*
X175310000Y-82645000D01*
G75*
G02*
X175155000Y-82800000I-155000J0D01*
G01*
X174845000Y-82800000D01*
G75*
G02*
X174690000Y-82645000I0J155000D01*
G01*
X174690000Y-82220000D01*
G75*
G02*
X174845000Y-82065000I155000J0D01*
G01*
G37*
G36*
G01*
X174845000Y-83200000D02*
X175155000Y-83200000D01*
G75*
G02*
X175310000Y-83355000I0J-155000D01*
G01*
X175310000Y-83780000D01*
G75*
G02*
X175155000Y-83935000I-155000J0D01*
G01*
X174845000Y-83935000D01*
G75*
G02*
X174690000Y-83780000I0J155000D01*
G01*
X174690000Y-83355000D01*
G75*
G02*
X174845000Y-83200000I155000J0D01*
G01*
G37*
G36*
G01*
X177275000Y-83650002D02*
X177275000Y-82349998D01*
G75*
G02*
X177524998Y-82100000I249998J0D01*
G01*
X178350002Y-82100000D01*
G75*
G02*
X178600000Y-82349998I0J-249998D01*
G01*
X178600000Y-83650002D01*
G75*
G02*
X178350002Y-83900000I-249998J0D01*
G01*
X177524998Y-83900000D01*
G75*
G02*
X177275000Y-83650002I0J249998D01*
G01*
G37*
G36*
G01*
X180400000Y-83650002D02*
X180400000Y-82349998D01*
G75*
G02*
X180649998Y-82100000I249998J0D01*
G01*
X181475002Y-82100000D01*
G75*
G02*
X181725000Y-82349998I0J-249998D01*
G01*
X181725000Y-83650002D01*
G75*
G02*
X181475002Y-83900000I-249998J0D01*
G01*
X180649998Y-83900000D01*
G75*
G02*
X180400000Y-83650002I0J249998D01*
G01*
G37*
G36*
G01*
X173845000Y-120565000D02*
X174155000Y-120565000D01*
G75*
G02*
X174310000Y-120720000I0J-155000D01*
G01*
X174310000Y-121145000D01*
G75*
G02*
X174155000Y-121300000I-155000J0D01*
G01*
X173845000Y-121300000D01*
G75*
G02*
X173690000Y-121145000I0J155000D01*
G01*
X173690000Y-120720000D01*
G75*
G02*
X173845000Y-120565000I155000J0D01*
G01*
G37*
G36*
G01*
X173845000Y-121700000D02*
X174155000Y-121700000D01*
G75*
G02*
X174310000Y-121855000I0J-155000D01*
G01*
X174310000Y-122280000D01*
G75*
G02*
X174155000Y-122435000I-155000J0D01*
G01*
X173845000Y-122435000D01*
G75*
G02*
X173690000Y-122280000I0J155000D01*
G01*
X173690000Y-121855000D01*
G75*
G02*
X173845000Y-121700000I155000J0D01*
G01*
G37*
G36*
G01*
X203845000Y-120905000D02*
X204155000Y-120905000D01*
G75*
G02*
X204310000Y-121060000I0J-155000D01*
G01*
X204310000Y-121485000D01*
G75*
G02*
X204155000Y-121640000I-155000J0D01*
G01*
X203845000Y-121640000D01*
G75*
G02*
X203690000Y-121485000I0J155000D01*
G01*
X203690000Y-121060000D01*
G75*
G02*
X203845000Y-120905000I155000J0D01*
G01*
G37*
G36*
G01*
X203845000Y-119770000D02*
X204155000Y-119770000D01*
G75*
G02*
X204310000Y-119925000I0J-155000D01*
G01*
X204310000Y-120350000D01*
G75*
G02*
X204155000Y-120505000I-155000J0D01*
G01*
X203845000Y-120505000D01*
G75*
G02*
X203690000Y-120350000I0J155000D01*
G01*
X203690000Y-119925000D01*
G75*
G02*
X203845000Y-119770000I155000J0D01*
G01*
G37*
G36*
G01*
X98600000Y-114849998D02*
X98600000Y-116150002D01*
G75*
G02*
X98350002Y-116400000I-249998J0D01*
G01*
X97524998Y-116400000D01*
G75*
G02*
X97275000Y-116150002I0J249998D01*
G01*
X97275000Y-114849998D01*
G75*
G02*
X97524998Y-114600000I249998J0D01*
G01*
X98350002Y-114600000D01*
G75*
G02*
X98600000Y-114849998I0J-249998D01*
G01*
G37*
G36*
G01*
X101725000Y-114849998D02*
X101725000Y-116150002D01*
G75*
G02*
X101475002Y-116400000I-249998J0D01*
G01*
X100649998Y-116400000D01*
G75*
G02*
X100400000Y-116150002I0J249998D01*
G01*
X100400000Y-114849998D01*
G75*
G02*
X100649998Y-114600000I249998J0D01*
G01*
X101475002Y-114600000D01*
G75*
G02*
X101725000Y-114849998I0J-249998D01*
G01*
G37*
G36*
G01*
X101475000Y-124125000D02*
X100525000Y-124125000D01*
G75*
G02*
X100275000Y-123875000I0J250000D01*
G01*
X100275000Y-123200000D01*
G75*
G02*
X100525000Y-122950000I250000J0D01*
G01*
X101475000Y-122950000D01*
G75*
G02*
X101725000Y-123200000I0J-250000D01*
G01*
X101725000Y-123875000D01*
G75*
G02*
X101475000Y-124125000I-250000J0D01*
G01*
G37*
G36*
G01*
X101475000Y-122050000D02*
X100525000Y-122050000D01*
G75*
G02*
X100275000Y-121800000I0J250000D01*
G01*
X100275000Y-121125000D01*
G75*
G02*
X100525000Y-120875000I250000J0D01*
G01*
X101475000Y-120875000D01*
G75*
G02*
X101725000Y-121125000I0J-250000D01*
G01*
X101725000Y-121800000D01*
G75*
G02*
X101475000Y-122050000I-250000J0D01*
G01*
G37*
G36*
G01*
X204155000Y-102300000D02*
X203845000Y-102300000D01*
G75*
G02*
X203690000Y-102145000I0J155000D01*
G01*
X203690000Y-101720000D01*
G75*
G02*
X203845000Y-101565000I155000J0D01*
G01*
X204155000Y-101565000D01*
G75*
G02*
X204310000Y-101720000I0J-155000D01*
G01*
X204310000Y-102145000D01*
G75*
G02*
X204155000Y-102300000I-155000J0D01*
G01*
G37*
G36*
G01*
X204155000Y-103435000D02*
X203845000Y-103435000D01*
G75*
G02*
X203690000Y-103280000I0J155000D01*
G01*
X203690000Y-102855000D01*
G75*
G02*
X203845000Y-102700000I155000J0D01*
G01*
X204155000Y-102700000D01*
G75*
G02*
X204310000Y-102855000I0J-155000D01*
G01*
X204310000Y-103280000D01*
G75*
G02*
X204155000Y-103435000I-155000J0D01*
G01*
G37*
D16*
X116000000Y-88500000D03*
D15*
X123620000Y-88500000D03*
D16*
X176000000Y-90500000D03*
D15*
X176000000Y-98120000D03*
D16*
X171000000Y-90500000D03*
D15*
X171000000Y-98120000D03*
X166000000Y-98120000D03*
D16*
X166000000Y-90500000D03*
D15*
X161000000Y-98120000D03*
D16*
X161000000Y-90500000D03*
X156000000Y-90500000D03*
D15*
X156000000Y-98120000D03*
D16*
X174000000Y-87500000D03*
D15*
X181620000Y-87500000D03*
X197380000Y-97500000D03*
D16*
X205000000Y-97500000D03*
D14*
X124890000Y-117740000D03*
X124890000Y-125260000D03*
X122350000Y-117740000D03*
X122350000Y-125260000D03*
X119810000Y-117740000D03*
X119810000Y-125260000D03*
X117270000Y-117740000D03*
X117270000Y-125260000D03*
X114730000Y-117740000D03*
X114730000Y-125260000D03*
X112190000Y-117740000D03*
X112190000Y-125260000D03*
X109650000Y-117740000D03*
X109650000Y-125260000D03*
X107110000Y-117740000D03*
X107110000Y-125260000D03*
D18*
X116000000Y-96000000D03*
X118555977Y-96629992D03*
X120526411Y-98375644D03*
X121459899Y-100837048D03*
X121142589Y-103450327D03*
X119647175Y-105616809D03*
X117316236Y-106840180D03*
X114683764Y-106840180D03*
X112352825Y-105616809D03*
X110857411Y-103450327D03*
X110540101Y-100837048D03*
X111473887Y-98375644D03*
X113444023Y-96629992D03*
D14*
X137110000Y-125260000D03*
X137110000Y-117740000D03*
X139650000Y-125260000D03*
X139650000Y-117740000D03*
X142190000Y-125260000D03*
X142190000Y-117740000D03*
X144730000Y-125260000D03*
X144730000Y-117740000D03*
X147270000Y-125260000D03*
X147270000Y-117740000D03*
X149810000Y-125260000D03*
X149810000Y-117740000D03*
X152350000Y-125260000D03*
X152350000Y-117740000D03*
X154890000Y-125260000D03*
X154890000Y-117740000D03*
D18*
X143444023Y-96629992D03*
X141473887Y-98375644D03*
X140540101Y-100837048D03*
X140857411Y-103450327D03*
X142352825Y-105616809D03*
X144683764Y-106840180D03*
X147316236Y-106840180D03*
X149647175Y-105616809D03*
X151142589Y-103450327D03*
X151459899Y-100837048D03*
X150526411Y-98375644D03*
X148555977Y-96629992D03*
X146000000Y-96000000D03*
D13*
X169760000Y-125390000D03*
X162240000Y-125390000D03*
X169760000Y-122850000D03*
X162240000Y-122850000D03*
X169760000Y-120310000D03*
X162240000Y-120310000D03*
X169760000Y-117770000D03*
X162240000Y-117770000D03*
X169760000Y-115230000D03*
X162240000Y-115230000D03*
X169760000Y-112690000D03*
X162240000Y-112690000D03*
X169760000Y-110150000D03*
X162240000Y-110150000D03*
X169760000Y-107610000D03*
X162240000Y-107610000D03*
D18*
X164730000Y-101500000D03*
X167270000Y-101500000D03*
D14*
X180540000Y-79500000D03*
X178000000Y-79500000D03*
X175460000Y-79500000D03*
D13*
X98000000Y-123540000D03*
X98000000Y-121000000D03*
X98000000Y-118460000D03*
D14*
X194890000Y-117740000D03*
X194890000Y-125260000D03*
X192350000Y-117740000D03*
X192350000Y-125260000D03*
X189810000Y-117740000D03*
X189810000Y-125260000D03*
X187270000Y-117740000D03*
X187270000Y-125260000D03*
X184730000Y-117740000D03*
X184730000Y-125260000D03*
X182190000Y-117740000D03*
X182190000Y-125260000D03*
X179650000Y-117740000D03*
X179650000Y-125260000D03*
X177110000Y-117740000D03*
X177110000Y-125260000D03*
D18*
X186000000Y-96000000D03*
X188555977Y-96629992D03*
X190526411Y-98375644D03*
X191459899Y-100837048D03*
X191142589Y-103450327D03*
X189647175Y-105616809D03*
X187316236Y-106840180D03*
X184683764Y-106840180D03*
X182352825Y-105616809D03*
X180857411Y-103450327D03*
X180540101Y-100837048D03*
X181473887Y-98375644D03*
X183444023Y-96629992D03*
X213444023Y-96629992D03*
X211473887Y-98375644D03*
X210540101Y-100837048D03*
X210857411Y-103450327D03*
X212352825Y-105616809D03*
X214683764Y-106840180D03*
X217316236Y-106840180D03*
X219647175Y-105616809D03*
X221142589Y-103450327D03*
X221459899Y-100837048D03*
X220526411Y-98375644D03*
X218555977Y-96629992D03*
X216000000Y-96000000D03*
D13*
X200000000Y-113850000D03*
X200000000Y-111310000D03*
X200000000Y-108770000D03*
X200000000Y-106230000D03*
X200000000Y-103690000D03*
X200000000Y-101150000D03*
M02*
