M48
; DRILL file {KiCad (5.1.12)-1} date 12/29/21 20:33:03
; FORMAT={-:-/ absolute / metric / decimal}
; #@! TF.CreationDate,2021-12-29T20:33:03-05:00
; #@! TF.GenerationSoftware,Kicad,Pcbnew,(5.1.12)-1
; #@! TF.FileFunction,Plated,1,2,PTH
FMAT,2
METRIC
T1C0.400
T2C0.750
T3C0.800
T4C1.000
%
G90
G05
T1
X-64.5Y-3.394
X-56.236Y-28.16
X-29.678Y28.945
X-9.347Y-9.093
X-4.801Y25.37
X-3.175Y23.495
X0.69Y21.975
X7.849Y-22.555
X11.125Y18.339
X36.297Y-24.46
X48.844Y-28.16
T2
X-55.46Y0.663
X-55.143Y-1.95
X-54.526Y3.124
X-53.647Y-4.117
X-52.556Y4.87
X-51.316Y-5.34
X-50.0Y5.5
X-48.684Y-5.34
X-47.444Y4.87
X-46.353Y-4.117
X-45.474Y3.124
X-44.857Y-1.95
X-44.54Y0.663
X-25.46Y0.663
X-25.143Y-1.95
X-24.526Y3.124
X-23.647Y-4.117
X-22.556Y4.87
X-21.316Y-5.34
X-20.0Y5.5
X-18.684Y-5.34
X-17.444Y4.87
X-16.353Y-4.117
X-15.474Y3.124
X-14.857Y-1.95
X-14.54Y0.663
X-1.27Y0.0
X1.27Y0.0
X14.54Y0.663
X14.857Y-1.95
X15.474Y3.124
X16.353Y-4.117
X17.444Y4.87
X18.684Y-5.34
X20.0Y5.5
X21.316Y-5.34
X22.556Y4.87
X23.647Y-4.117
X24.526Y3.124
X25.143Y-1.95
X25.46Y0.663
X44.54Y0.663
X44.857Y-1.95
X45.474Y3.124
X46.353Y-4.117
X47.444Y4.87
X48.684Y-5.34
X50.0Y5.5
X51.316Y-5.34
X52.556Y4.87
X53.647Y-4.117
X54.526Y3.124
X55.143Y-1.95
X55.46Y0.663
T3
X-64.5Y17.54
X-64.5Y15.0
X-64.5Y12.46
X-58.89Y-16.24
X-58.89Y-23.76
X-56.35Y-16.24
X-56.35Y-23.76
X-53.81Y-16.24
X-53.81Y-23.76
X-51.27Y-16.24
X-51.27Y-23.76
X-48.73Y-16.24
X-48.73Y-23.76
X-46.19Y-16.24
X-46.19Y-23.76
X-43.65Y-16.24
X-43.65Y-23.76
X-41.11Y-16.24
X-41.11Y-23.76
X-28.89Y-16.24
X-28.89Y-23.76
X-28.04Y24.5
X-26.35Y-16.24
X-26.35Y-23.76
X-25.5Y24.5
X-23.81Y-16.24
X-23.81Y-23.76
X-21.27Y-16.24
X-21.27Y-23.76
X-20.0Y27.62
X-20.0Y20.0
X-18.73Y-16.24
X-18.73Y-23.76
X-16.19Y-16.24
X-16.19Y-23.76
X-15.0Y27.62
X-15.0Y20.0
X-13.65Y-16.24
X-13.65Y-23.76
X-11.11Y-16.24
X-11.11Y-23.76
X-10.0Y16.0
X-8.0Y12.5
X-8.0Y4.88
X-3.76Y-6.11
X-3.76Y-8.65
X-3.76Y-11.19
X-3.76Y-13.73
X-3.76Y-16.27
X-3.76Y-18.81
X-3.76Y-21.35
X-3.76Y-23.89
X-2.38Y16.0
X0.0Y12.5
X0.0Y4.88
X2.38Y16.0
X3.76Y-6.11
X3.76Y-8.65
X3.76Y-11.19
X3.76Y-13.73
X3.76Y-16.27
X3.76Y-18.81
X3.76Y-21.35
X3.76Y-23.89
X4.0Y27.62
X4.0Y20.0
X8.0Y12.5
X8.0Y4.88
X9.0Y27.62
X9.0Y20.0
X10.0Y16.0
X11.11Y-16.24
X11.11Y-23.76
X13.65Y-16.24
X13.65Y-23.76
X16.19Y-16.24
X16.19Y-23.76
X18.73Y-16.24
X18.73Y-23.76
X21.27Y-16.24
X21.27Y-23.76
X23.81Y-16.24
X23.81Y-23.76
X26.35Y-16.24
X26.35Y-23.76
X28.89Y-16.24
X28.89Y-23.76
X34.849Y5.207
X34.849Y2.667
X34.849Y0.127
X34.849Y-2.413
X34.849Y-4.953
X34.849Y-7.493
X41.11Y-16.24
X41.11Y-23.76
X43.65Y-16.24
X43.65Y-23.76
X46.19Y-16.24
X46.19Y-23.76
X48.73Y-16.24
X48.73Y-23.76
X51.27Y-16.24
X51.27Y-23.76
X53.81Y-16.24
X53.81Y-23.76
X56.35Y-16.24
X56.35Y-23.76
X58.89Y-16.24
X58.89Y-23.76
T4
X16.0Y27.0
X16.0Y11.76
X18.54Y27.0
X18.54Y11.76
X21.08Y27.0
X21.08Y11.76
X23.62Y27.0
X23.62Y11.76
X26.16Y27.0
X26.16Y11.76
X28.7Y27.0
X28.7Y11.76
X31.24Y27.0
X31.24Y11.76
X33.78Y27.0
X33.78Y11.76
X36.32Y27.0
X36.32Y11.76
X38.86Y27.0
X38.86Y11.76
X41.4Y27.0
X41.4Y11.76
X43.94Y27.0
X43.94Y11.76
X46.48Y27.0
X46.48Y11.76
X49.02Y27.0
X49.02Y11.76
X51.56Y27.0
X51.56Y11.76
T0
M30
