G04 #@! TF.GenerationSoftware,KiCad,Pcbnew,(5.1.12)-1*
G04 #@! TF.CreationDate,2022-01-06T14:59:38-05:00*
G04 #@! TF.ProjectId,Nixie_Clock,4e697869-655f-4436-9c6f-636b2e6b6963,1.1*
G04 #@! TF.SameCoordinates,Original*
G04 #@! TF.FileFunction,Legend,Top*
G04 #@! TF.FilePolarity,Positive*
%FSLAX46Y46*%
G04 Gerber Fmt 4.6, Leading zero omitted, Abs format (unit mm)*
G04 Created by KiCad (PCBNEW (5.1.12)-1) date 2022-01-06 14:59:38*
%MOMM*%
%LPD*%
G01*
G04 APERTURE LIST*
%ADD10C,0.120000*%
%ADD11C,0.150000*%
%ADD12C,4.400000*%
%ADD13O,3.500000X3.500000*%
%ADD14R,1.905000X2.000000*%
%ADD15O,1.905000X2.000000*%
%ADD16O,2.000000X1.200000*%
%ADD17O,1.200000X2.000000*%
%ADD18O,1.600000X1.600000*%
%ADD19C,1.600000*%
%ADD20R,1.600000X1.600000*%
%ADD21C,1.500000*%
%ADD22R,2.000000X1.905000*%
%ADD23O,2.000000X1.905000*%
G04 APERTURE END LIST*
D10*
X125250000Y-101500000D02*
G75*
G03*
X125250000Y-101500000I-9250000J0D01*
G01*
X121500000Y-101500000D02*
G75*
G03*
X121500000Y-101500000I-5500000J0D01*
G01*
X116000000Y-104040000D02*
X116000000Y-98960000D01*
X116000000Y-98960000D02*
X114730000Y-100230000D01*
X116000000Y-98960000D02*
X117270000Y-100230000D01*
X146000000Y-98960000D02*
X147270000Y-100230000D01*
X146000000Y-98960000D02*
X144730000Y-100230000D01*
X146000000Y-104040000D02*
X146000000Y-98960000D01*
X151500000Y-101500000D02*
G75*
G03*
X151500000Y-101500000I-5500000J0D01*
G01*
X155250000Y-101500000D02*
G75*
G03*
X155250000Y-101500000I-9250000J0D01*
G01*
X164500000Y-100230000D02*
X167500000Y-100230000D01*
X167500000Y-102770000D02*
X164500000Y-102770000D01*
X161555000Y-101500000D02*
X162825000Y-101500000D01*
X162190000Y-100865000D02*
X162190000Y-102135000D01*
X167500000Y-100230000D02*
G75*
G02*
X167500000Y-102770000I0J-1270000D01*
G01*
X164500000Y-102770000D02*
G75*
G02*
X164500000Y-100230000I0J1270000D01*
G01*
X195250000Y-101500000D02*
G75*
G03*
X195250000Y-101500000I-9250000J0D01*
G01*
X191500000Y-101500000D02*
G75*
G03*
X191500000Y-101500000I-5500000J0D01*
G01*
X186000000Y-104040000D02*
X186000000Y-98960000D01*
X186000000Y-98960000D02*
X184730000Y-100230000D01*
X186000000Y-98960000D02*
X187270000Y-100230000D01*
X216000000Y-98960000D02*
X217270000Y-100230000D01*
X216000000Y-98960000D02*
X214730000Y-100230000D01*
X216000000Y-104040000D02*
X216000000Y-98960000D01*
X221500000Y-101500000D02*
G75*
G03*
X221500000Y-101500000I-5500000J0D01*
G01*
X225250000Y-101500000D02*
G75*
G03*
X225250000Y-101500000I-9250000J0D01*
G01*
D11*
X115238095Y-110952380D02*
X115238095Y-111761904D01*
X115285714Y-111857142D01*
X115333333Y-111904761D01*
X115428571Y-111952380D01*
X115619047Y-111952380D01*
X115714285Y-111904761D01*
X115761904Y-111857142D01*
X115809523Y-111761904D01*
X115809523Y-110952380D01*
X116238095Y-111047619D02*
X116285714Y-111000000D01*
X116380952Y-110952380D01*
X116619047Y-110952380D01*
X116714285Y-111000000D01*
X116761904Y-111047619D01*
X116809523Y-111142857D01*
X116809523Y-111238095D01*
X116761904Y-111380952D01*
X116190476Y-111952380D01*
X116809523Y-111952380D01*
X145238095Y-110952380D02*
X145238095Y-111761904D01*
X145285714Y-111857142D01*
X145333333Y-111904761D01*
X145428571Y-111952380D01*
X145619047Y-111952380D01*
X145714285Y-111904761D01*
X145761904Y-111857142D01*
X145809523Y-111761904D01*
X145809523Y-110952380D01*
X146714285Y-111285714D02*
X146714285Y-111952380D01*
X146476190Y-110904761D02*
X146238095Y-111619047D01*
X146857142Y-111619047D01*
X165238095Y-102952380D02*
X165238095Y-103761904D01*
X165285714Y-103857142D01*
X165333333Y-103904761D01*
X165428571Y-103952380D01*
X165619047Y-103952380D01*
X165714285Y-103904761D01*
X165761904Y-103857142D01*
X165809523Y-103761904D01*
X165809523Y-102952380D01*
X166714285Y-102952380D02*
X166523809Y-102952380D01*
X166428571Y-103000000D01*
X166380952Y-103047619D01*
X166285714Y-103190476D01*
X166238095Y-103380952D01*
X166238095Y-103761904D01*
X166285714Y-103857142D01*
X166333333Y-103904761D01*
X166428571Y-103952380D01*
X166619047Y-103952380D01*
X166714285Y-103904761D01*
X166761904Y-103857142D01*
X166809523Y-103761904D01*
X166809523Y-103523809D01*
X166761904Y-103428571D01*
X166714285Y-103380952D01*
X166619047Y-103333333D01*
X166428571Y-103333333D01*
X166333333Y-103380952D01*
X166285714Y-103428571D01*
X166238095Y-103523809D01*
X184761904Y-110952380D02*
X184761904Y-111761904D01*
X184809523Y-111857142D01*
X184857142Y-111904761D01*
X184952380Y-111952380D01*
X185142857Y-111952380D01*
X185238095Y-111904761D01*
X185285714Y-111857142D01*
X185333333Y-111761904D01*
X185333333Y-110952380D01*
X186333333Y-111952380D02*
X185761904Y-111952380D01*
X186047619Y-111952380D02*
X186047619Y-110952380D01*
X185952380Y-111095238D01*
X185857142Y-111190476D01*
X185761904Y-111238095D01*
X187285714Y-111952380D02*
X186714285Y-111952380D01*
X187000000Y-111952380D02*
X187000000Y-110952380D01*
X186904761Y-111095238D01*
X186809523Y-111190476D01*
X186714285Y-111238095D01*
X214761904Y-110952380D02*
X214761904Y-111761904D01*
X214809523Y-111857142D01*
X214857142Y-111904761D01*
X214952380Y-111952380D01*
X215142857Y-111952380D01*
X215238095Y-111904761D01*
X215285714Y-111857142D01*
X215333333Y-111761904D01*
X215333333Y-110952380D01*
X216333333Y-111952380D02*
X215761904Y-111952380D01*
X216047619Y-111952380D02*
X216047619Y-110952380D01*
X215952380Y-111095238D01*
X215857142Y-111190476D01*
X215761904Y-111238095D01*
X216666666Y-110952380D02*
X217285714Y-110952380D01*
X216952380Y-111333333D01*
X217095238Y-111333333D01*
X217190476Y-111380952D01*
X217238095Y-111428571D01*
X217285714Y-111523809D01*
X217285714Y-111761904D01*
X217238095Y-111857142D01*
X217190476Y-111904761D01*
X217095238Y-111952380D01*
X216809523Y-111952380D01*
X216714285Y-111904761D01*
X216666666Y-111857142D01*
%LPC*%
D12*
X232000000Y-75500000D03*
X232000000Y-127500000D03*
X100000000Y-127500000D03*
X100000000Y-75500000D03*
D13*
X102540000Y-111800000D03*
D14*
X100000000Y-96000000D03*
D15*
X102540000Y-96000000D03*
X105080000Y-96000000D03*
D16*
X99000000Y-88310000D03*
X99000000Y-85770000D03*
X99000000Y-83230000D03*
X99000000Y-80690000D03*
D17*
X224890000Y-117740000D03*
X224890000Y-125260000D03*
X222350000Y-117740000D03*
X222350000Y-125260000D03*
X219810000Y-117740000D03*
X219810000Y-125260000D03*
X217270000Y-117740000D03*
X217270000Y-125260000D03*
X214730000Y-117740000D03*
X214730000Y-125260000D03*
X212190000Y-117740000D03*
X212190000Y-125260000D03*
X209650000Y-117740000D03*
X209650000Y-125260000D03*
X207110000Y-117740000D03*
X207110000Y-125260000D03*
D18*
X138380000Y-88500000D03*
D19*
X146000000Y-88500000D03*
D20*
X187000000Y-74985000D03*
D18*
X220020000Y-90225000D03*
X189540000Y-74985000D03*
X217480000Y-90225000D03*
X192080000Y-74985000D03*
X214940000Y-90225000D03*
X194620000Y-74985000D03*
X212400000Y-90225000D03*
X197160000Y-74985000D03*
X209860000Y-90225000D03*
X199700000Y-74985000D03*
X207320000Y-90225000D03*
X202240000Y-74985000D03*
X204780000Y-90225000D03*
X204780000Y-74985000D03*
X202240000Y-90225000D03*
X207320000Y-74985000D03*
X199700000Y-90225000D03*
X209860000Y-74985000D03*
X197160000Y-90225000D03*
X212400000Y-74985000D03*
X194620000Y-90225000D03*
X214940000Y-74985000D03*
X192080000Y-90225000D03*
X217480000Y-74985000D03*
X189540000Y-90225000D03*
X220020000Y-74985000D03*
X187000000Y-90225000D03*
X222560000Y-74985000D03*
X222560000Y-90225000D03*
D19*
X116000000Y-88500000D03*
D18*
X123620000Y-88500000D03*
D19*
X176000000Y-90500000D03*
D18*
X176000000Y-98120000D03*
D19*
X171000000Y-90500000D03*
D18*
X171000000Y-98120000D03*
X166000000Y-98120000D03*
D19*
X166000000Y-90500000D03*
D18*
X161000000Y-98120000D03*
D19*
X161000000Y-90500000D03*
X156000000Y-90500000D03*
D18*
X156000000Y-98120000D03*
D19*
X174000000Y-87500000D03*
D18*
X181620000Y-87500000D03*
X197380000Y-97500000D03*
D19*
X205000000Y-97500000D03*
D17*
X124890000Y-117740000D03*
X124890000Y-125260000D03*
X122350000Y-117740000D03*
X122350000Y-125260000D03*
X119810000Y-117740000D03*
X119810000Y-125260000D03*
X117270000Y-117740000D03*
X117270000Y-125260000D03*
X114730000Y-117740000D03*
X114730000Y-125260000D03*
X112190000Y-117740000D03*
X112190000Y-125260000D03*
X109650000Y-117740000D03*
X109650000Y-125260000D03*
X107110000Y-117740000D03*
X107110000Y-125260000D03*
D21*
X116000000Y-96000000D03*
X118555977Y-96629992D03*
X120526411Y-98375644D03*
X121459899Y-100837048D03*
X121142589Y-103450327D03*
X119647175Y-105616809D03*
X117316236Y-106840180D03*
X114683764Y-106840180D03*
X112352825Y-105616809D03*
X110857411Y-103450327D03*
X110540101Y-100837048D03*
X111473887Y-98375644D03*
X113444023Y-96629992D03*
D17*
X137110000Y-125260000D03*
X137110000Y-117740000D03*
X139650000Y-125260000D03*
X139650000Y-117740000D03*
X142190000Y-125260000D03*
X142190000Y-117740000D03*
X144730000Y-125260000D03*
X144730000Y-117740000D03*
X147270000Y-125260000D03*
X147270000Y-117740000D03*
X149810000Y-125260000D03*
X149810000Y-117740000D03*
X152350000Y-125260000D03*
X152350000Y-117740000D03*
X154890000Y-125260000D03*
X154890000Y-117740000D03*
D21*
X143444023Y-96629992D03*
X141473887Y-98375644D03*
X140540101Y-100837048D03*
X140857411Y-103450327D03*
X142352825Y-105616809D03*
X144683764Y-106840180D03*
X147316236Y-106840180D03*
X149647175Y-105616809D03*
X151142589Y-103450327D03*
X151459899Y-100837048D03*
X150526411Y-98375644D03*
X148555977Y-96629992D03*
X146000000Y-96000000D03*
D16*
X169760000Y-125390000D03*
X162240000Y-125390000D03*
X169760000Y-122850000D03*
X162240000Y-122850000D03*
X169760000Y-120310000D03*
X162240000Y-120310000D03*
X169760000Y-117770000D03*
X162240000Y-117770000D03*
X169760000Y-115230000D03*
X162240000Y-115230000D03*
X169760000Y-112690000D03*
X162240000Y-112690000D03*
X169760000Y-110150000D03*
X162240000Y-110150000D03*
X169760000Y-107610000D03*
X162240000Y-107610000D03*
D21*
X164730000Y-101500000D03*
X167270000Y-101500000D03*
D17*
X194890000Y-117740000D03*
X194890000Y-125260000D03*
X192350000Y-117740000D03*
X192350000Y-125260000D03*
X189810000Y-117740000D03*
X189810000Y-125260000D03*
X187270000Y-117740000D03*
X187270000Y-125260000D03*
X184730000Y-117740000D03*
X184730000Y-125260000D03*
X182190000Y-117740000D03*
X182190000Y-125260000D03*
X179650000Y-117740000D03*
X179650000Y-125260000D03*
X177110000Y-117740000D03*
X177110000Y-125260000D03*
D21*
X186000000Y-96000000D03*
X188555977Y-96629992D03*
X190526411Y-98375644D03*
X191459899Y-100837048D03*
X191142589Y-103450327D03*
X189647175Y-105616809D03*
X187316236Y-106840180D03*
X184683764Y-106840180D03*
X182352825Y-105616809D03*
X180857411Y-103450327D03*
X180540101Y-100837048D03*
X181473887Y-98375644D03*
X183444023Y-96629992D03*
X213444023Y-96629992D03*
X211473887Y-98375644D03*
X210540101Y-100837048D03*
X210857411Y-103450327D03*
X212352825Y-105616809D03*
X214683764Y-106840180D03*
X217316236Y-106840180D03*
X219647175Y-105616809D03*
X221142589Y-103450327D03*
X221459899Y-100837048D03*
X220526411Y-98375644D03*
X218555977Y-96629992D03*
X216000000Y-96000000D03*
D16*
X200000000Y-113850000D03*
X200000000Y-111310000D03*
X200000000Y-108770000D03*
X200000000Y-106230000D03*
X200000000Y-103690000D03*
X200000000Y-101150000D03*
D13*
X154840000Y-81040000D03*
D22*
X171500000Y-78500000D03*
D23*
X171500000Y-81040000D03*
X171500000Y-83580000D03*
M02*
