G04 #@! TF.GenerationSoftware,KiCad,Pcbnew,(5.1.12)-1*
G04 #@! TF.CreationDate,2022-01-06T04:44:55-05:00*
G04 #@! TF.ProjectId,Nixie_Clock,4e697869-655f-4436-9c6f-636b2e6b6963,1.1*
G04 #@! TF.SameCoordinates,Original*
G04 #@! TF.FileFunction,Paste,Bot*
G04 #@! TF.FilePolarity,Positive*
%FSLAX46Y46*%
G04 Gerber Fmt 4.6, Leading zero omitted, Abs format (unit mm)*
G04 Created by KiCad (PCBNEW (5.1.12)-1) date 2022-01-06 04:44:55*
%MOMM*%
%LPD*%
G01*
G04 APERTURE LIST*
G04 APERTURE END LIST*
G36*
G01*
X103845000Y-120565000D02*
X104155000Y-120565000D01*
G75*
G02*
X104310000Y-120720000I0J-155000D01*
G01*
X104310000Y-121145000D01*
G75*
G02*
X104155000Y-121300000I-155000J0D01*
G01*
X103845000Y-121300000D01*
G75*
G02*
X103690000Y-121145000I0J155000D01*
G01*
X103690000Y-120720000D01*
G75*
G02*
X103845000Y-120565000I155000J0D01*
G01*
G37*
G36*
G01*
X103845000Y-121700000D02*
X104155000Y-121700000D01*
G75*
G02*
X104310000Y-121855000I0J-155000D01*
G01*
X104310000Y-122280000D01*
G75*
G02*
X104155000Y-122435000I-155000J0D01*
G01*
X103845000Y-122435000D01*
G75*
G02*
X103690000Y-122280000I0J155000D01*
G01*
X103690000Y-121855000D01*
G75*
G02*
X103845000Y-121700000I155000J0D01*
G01*
G37*
G36*
G01*
X133845000Y-121700000D02*
X134155000Y-121700000D01*
G75*
G02*
X134310000Y-121855000I0J-155000D01*
G01*
X134310000Y-122280000D01*
G75*
G02*
X134155000Y-122435000I-155000J0D01*
G01*
X133845000Y-122435000D01*
G75*
G02*
X133690000Y-122280000I0J155000D01*
G01*
X133690000Y-121855000D01*
G75*
G02*
X133845000Y-121700000I155000J0D01*
G01*
G37*
G36*
G01*
X133845000Y-120565000D02*
X134155000Y-120565000D01*
G75*
G02*
X134310000Y-120720000I0J-155000D01*
G01*
X134310000Y-121145000D01*
G75*
G02*
X134155000Y-121300000I-155000J0D01*
G01*
X133845000Y-121300000D01*
G75*
G02*
X133690000Y-121145000I0J155000D01*
G01*
X133690000Y-120720000D01*
G75*
G02*
X133845000Y-120565000I155000J0D01*
G01*
G37*
G36*
G01*
X166935000Y-128345000D02*
X166935000Y-128655000D01*
G75*
G02*
X166780000Y-128810000I-155000J0D01*
G01*
X166355000Y-128810000D01*
G75*
G02*
X166200000Y-128655000I0J155000D01*
G01*
X166200000Y-128345000D01*
G75*
G02*
X166355000Y-128190000I155000J0D01*
G01*
X166780000Y-128190000D01*
G75*
G02*
X166935000Y-128345000I0J-155000D01*
G01*
G37*
G36*
G01*
X165800000Y-128345000D02*
X165800000Y-128655000D01*
G75*
G02*
X165645000Y-128810000I-155000J0D01*
G01*
X165220000Y-128810000D01*
G75*
G02*
X165065000Y-128655000I0J155000D01*
G01*
X165065000Y-128345000D01*
G75*
G02*
X165220000Y-128190000I155000J0D01*
G01*
X165645000Y-128190000D01*
G75*
G02*
X165800000Y-128345000I0J-155000D01*
G01*
G37*
G36*
G01*
X174845000Y-82065000D02*
X175155000Y-82065000D01*
G75*
G02*
X175310000Y-82220000I0J-155000D01*
G01*
X175310000Y-82645000D01*
G75*
G02*
X175155000Y-82800000I-155000J0D01*
G01*
X174845000Y-82800000D01*
G75*
G02*
X174690000Y-82645000I0J155000D01*
G01*
X174690000Y-82220000D01*
G75*
G02*
X174845000Y-82065000I155000J0D01*
G01*
G37*
G36*
G01*
X174845000Y-83200000D02*
X175155000Y-83200000D01*
G75*
G02*
X175310000Y-83355000I0J-155000D01*
G01*
X175310000Y-83780000D01*
G75*
G02*
X175155000Y-83935000I-155000J0D01*
G01*
X174845000Y-83935000D01*
G75*
G02*
X174690000Y-83780000I0J155000D01*
G01*
X174690000Y-83355000D01*
G75*
G02*
X174845000Y-83200000I155000J0D01*
G01*
G37*
G36*
G01*
X177275000Y-83650002D02*
X177275000Y-82349998D01*
G75*
G02*
X177524998Y-82100000I249998J0D01*
G01*
X178350002Y-82100000D01*
G75*
G02*
X178600000Y-82349998I0J-249998D01*
G01*
X178600000Y-83650002D01*
G75*
G02*
X178350002Y-83900000I-249998J0D01*
G01*
X177524998Y-83900000D01*
G75*
G02*
X177275000Y-83650002I0J249998D01*
G01*
G37*
G36*
G01*
X180400000Y-83650002D02*
X180400000Y-82349998D01*
G75*
G02*
X180649998Y-82100000I249998J0D01*
G01*
X181475002Y-82100000D01*
G75*
G02*
X181725000Y-82349998I0J-249998D01*
G01*
X181725000Y-83650002D01*
G75*
G02*
X181475002Y-83900000I-249998J0D01*
G01*
X180649998Y-83900000D01*
G75*
G02*
X180400000Y-83650002I0J249998D01*
G01*
G37*
G36*
G01*
X173845000Y-120565000D02*
X174155000Y-120565000D01*
G75*
G02*
X174310000Y-120720000I0J-155000D01*
G01*
X174310000Y-121145000D01*
G75*
G02*
X174155000Y-121300000I-155000J0D01*
G01*
X173845000Y-121300000D01*
G75*
G02*
X173690000Y-121145000I0J155000D01*
G01*
X173690000Y-120720000D01*
G75*
G02*
X173845000Y-120565000I155000J0D01*
G01*
G37*
G36*
G01*
X173845000Y-121700000D02*
X174155000Y-121700000D01*
G75*
G02*
X174310000Y-121855000I0J-155000D01*
G01*
X174310000Y-122280000D01*
G75*
G02*
X174155000Y-122435000I-155000J0D01*
G01*
X173845000Y-122435000D01*
G75*
G02*
X173690000Y-122280000I0J155000D01*
G01*
X173690000Y-121855000D01*
G75*
G02*
X173845000Y-121700000I155000J0D01*
G01*
G37*
G36*
G01*
X203845000Y-120905000D02*
X204155000Y-120905000D01*
G75*
G02*
X204310000Y-121060000I0J-155000D01*
G01*
X204310000Y-121485000D01*
G75*
G02*
X204155000Y-121640000I-155000J0D01*
G01*
X203845000Y-121640000D01*
G75*
G02*
X203690000Y-121485000I0J155000D01*
G01*
X203690000Y-121060000D01*
G75*
G02*
X203845000Y-120905000I155000J0D01*
G01*
G37*
G36*
G01*
X203845000Y-119770000D02*
X204155000Y-119770000D01*
G75*
G02*
X204310000Y-119925000I0J-155000D01*
G01*
X204310000Y-120350000D01*
G75*
G02*
X204155000Y-120505000I-155000J0D01*
G01*
X203845000Y-120505000D01*
G75*
G02*
X203690000Y-120350000I0J155000D01*
G01*
X203690000Y-119925000D01*
G75*
G02*
X203845000Y-119770000I155000J0D01*
G01*
G37*
G36*
G01*
X98600000Y-114849998D02*
X98600000Y-116150002D01*
G75*
G02*
X98350002Y-116400000I-249998J0D01*
G01*
X97524998Y-116400000D01*
G75*
G02*
X97275000Y-116150002I0J249998D01*
G01*
X97275000Y-114849998D01*
G75*
G02*
X97524998Y-114600000I249998J0D01*
G01*
X98350002Y-114600000D01*
G75*
G02*
X98600000Y-114849998I0J-249998D01*
G01*
G37*
G36*
G01*
X101725000Y-114849998D02*
X101725000Y-116150002D01*
G75*
G02*
X101475002Y-116400000I-249998J0D01*
G01*
X100649998Y-116400000D01*
G75*
G02*
X100400000Y-116150002I0J249998D01*
G01*
X100400000Y-114849998D01*
G75*
G02*
X100649998Y-114600000I249998J0D01*
G01*
X101475002Y-114600000D01*
G75*
G02*
X101725000Y-114849998I0J-249998D01*
G01*
G37*
G36*
G01*
X101475000Y-124125000D02*
X100525000Y-124125000D01*
G75*
G02*
X100275000Y-123875000I0J250000D01*
G01*
X100275000Y-123200000D01*
G75*
G02*
X100525000Y-122950000I250000J0D01*
G01*
X101475000Y-122950000D01*
G75*
G02*
X101725000Y-123200000I0J-250000D01*
G01*
X101725000Y-123875000D01*
G75*
G02*
X101475000Y-124125000I-250000J0D01*
G01*
G37*
G36*
G01*
X101475000Y-122050000D02*
X100525000Y-122050000D01*
G75*
G02*
X100275000Y-121800000I0J250000D01*
G01*
X100275000Y-121125000D01*
G75*
G02*
X100525000Y-120875000I250000J0D01*
G01*
X101475000Y-120875000D01*
G75*
G02*
X101725000Y-121125000I0J-250000D01*
G01*
X101725000Y-121800000D01*
G75*
G02*
X101475000Y-122050000I-250000J0D01*
G01*
G37*
G36*
G01*
X204155000Y-102300000D02*
X203845000Y-102300000D01*
G75*
G02*
X203690000Y-102145000I0J155000D01*
G01*
X203690000Y-101720000D01*
G75*
G02*
X203845000Y-101565000I155000J0D01*
G01*
X204155000Y-101565000D01*
G75*
G02*
X204310000Y-101720000I0J-155000D01*
G01*
X204310000Y-102145000D01*
G75*
G02*
X204155000Y-102300000I-155000J0D01*
G01*
G37*
G36*
G01*
X204155000Y-103435000D02*
X203845000Y-103435000D01*
G75*
G02*
X203690000Y-103280000I0J155000D01*
G01*
X203690000Y-102855000D01*
G75*
G02*
X203845000Y-102700000I155000J0D01*
G01*
X204155000Y-102700000D01*
G75*
G02*
X204310000Y-102855000I0J-155000D01*
G01*
X204310000Y-103280000D01*
G75*
G02*
X204155000Y-103435000I-155000J0D01*
G01*
G37*
M02*
