G04 #@! TF.GenerationSoftware,KiCad,Pcbnew,(5.1.12)-1*
G04 #@! TF.CreationDate,2021-12-30T12:39:14-05:00*
G04 #@! TF.ProjectId,Nixie_Clock,4e697869-655f-4436-9c6f-636b2e6b6963,1.0*
G04 #@! TF.SameCoordinates,Original*
G04 #@! TF.FileFunction,Soldermask,Top*
G04 #@! TF.FilePolarity,Negative*
%FSLAX46Y46*%
G04 Gerber Fmt 4.6, Leading zero omitted, Abs format (unit mm)*
G04 Created by KiCad (PCBNEW (5.1.12)-1) date 2021-12-30 12:39:14*
%MOMM*%
%LPD*%
G01*
G04 APERTURE LIST*
%ADD10C,4.400000*%
%ADD11O,1.200000X2.000000*%
%ADD12C,1.500000*%
%ADD13R,1.600000X1.600000*%
%ADD14O,1.600000X1.600000*%
%ADD15O,2.000000X1.200000*%
%ADD16C,1.600000*%
G04 APERTURE END LIST*
D10*
X63692400Y-129276400D03*
X195692400Y-129276400D03*
X195692400Y-77276400D03*
D11*
X158582400Y-119516400D03*
X158582400Y-127036400D03*
X156042400Y-119516400D03*
X156042400Y-127036400D03*
X153502400Y-119516400D03*
X153502400Y-127036400D03*
X150962400Y-119516400D03*
X150962400Y-127036400D03*
X148422400Y-119516400D03*
X148422400Y-127036400D03*
X145882400Y-119516400D03*
X145882400Y-127036400D03*
X143342400Y-119516400D03*
X143342400Y-127036400D03*
X140802400Y-119516400D03*
X140802400Y-127036400D03*
D12*
X179692400Y-97776400D03*
X182248377Y-98406392D03*
X184218811Y-100152044D03*
X185152299Y-102613448D03*
X184834989Y-105226727D03*
X183339575Y-107393209D03*
X181008636Y-108616580D03*
X178376164Y-108616580D03*
X176045225Y-107393209D03*
X174549811Y-105226727D03*
X174232501Y-102613448D03*
X175166287Y-100152044D03*
X177136423Y-98406392D03*
D11*
X188582400Y-119516400D03*
X188582400Y-127036400D03*
X186042400Y-119516400D03*
X186042400Y-127036400D03*
X183502400Y-119516400D03*
X183502400Y-127036400D03*
X180962400Y-119516400D03*
X180962400Y-127036400D03*
X178422400Y-119516400D03*
X178422400Y-127036400D03*
X175882400Y-119516400D03*
X175882400Y-127036400D03*
X173342400Y-119516400D03*
X173342400Y-127036400D03*
X170802400Y-119516400D03*
X170802400Y-127036400D03*
D13*
X145692400Y-76276400D03*
D14*
X178712400Y-91516400D03*
X148232400Y-76276400D03*
X176172400Y-91516400D03*
X150772400Y-76276400D03*
X173632400Y-91516400D03*
X153312400Y-76276400D03*
X171092400Y-91516400D03*
X155852400Y-76276400D03*
X168552400Y-91516400D03*
X158392400Y-76276400D03*
X166012400Y-91516400D03*
X160932400Y-76276400D03*
X163472400Y-91516400D03*
X163472400Y-76276400D03*
X160932400Y-91516400D03*
X166012400Y-76276400D03*
X158392400Y-91516400D03*
X168552400Y-76276400D03*
X155852400Y-91516400D03*
X171092400Y-76276400D03*
X153312400Y-91516400D03*
X173632400Y-76276400D03*
X150772400Y-91516400D03*
X176172400Y-76276400D03*
X148232400Y-91516400D03*
X178712400Y-76276400D03*
X145692400Y-91516400D03*
X181252400Y-76276400D03*
X181252400Y-91516400D03*
D15*
X65192400Y-90816400D03*
X65192400Y-88276400D03*
X65192400Y-85736400D03*
D11*
X101652400Y-78776400D03*
X104192400Y-78776400D03*
D12*
X77136423Y-98406392D03*
X75166287Y-100152044D03*
X74232501Y-102613448D03*
X74549811Y-105226727D03*
X76045225Y-107393209D03*
X78376164Y-108616580D03*
X81008636Y-108616580D03*
X83339575Y-107393209D03*
X84834989Y-105226727D03*
X85152299Y-102613448D03*
X84218811Y-100152044D03*
X82248377Y-98406392D03*
X79692400Y-97776400D03*
D16*
X109692400Y-83276400D03*
D14*
X109692400Y-75656400D03*
X114692400Y-75656400D03*
D16*
X114692400Y-83276400D03*
X121692400Y-90776400D03*
D14*
X121692400Y-98396400D03*
D16*
X129692400Y-90776400D03*
D14*
X129692400Y-98396400D03*
X137692400Y-98396400D03*
D16*
X137692400Y-90776400D03*
D14*
X132072400Y-87276400D03*
D16*
X139692400Y-87276400D03*
X119692400Y-87276400D03*
D14*
X127312400Y-87276400D03*
D16*
X133692400Y-83276400D03*
D14*
X133692400Y-75656400D03*
X138692400Y-75656400D03*
D16*
X138692400Y-83276400D03*
D11*
X88582400Y-119516400D03*
X88582400Y-127036400D03*
X86042400Y-119516400D03*
X86042400Y-127036400D03*
X83502400Y-119516400D03*
X83502400Y-127036400D03*
X80962400Y-119516400D03*
X80962400Y-127036400D03*
X78422400Y-119516400D03*
X78422400Y-127036400D03*
X75882400Y-119516400D03*
X75882400Y-127036400D03*
X73342400Y-119516400D03*
X73342400Y-127036400D03*
X70802400Y-119516400D03*
X70802400Y-127036400D03*
X100802400Y-127036400D03*
X100802400Y-119516400D03*
X103342400Y-127036400D03*
X103342400Y-119516400D03*
X105882400Y-127036400D03*
X105882400Y-119516400D03*
X108422400Y-127036400D03*
X108422400Y-119516400D03*
X110962400Y-127036400D03*
X110962400Y-119516400D03*
X113502400Y-127036400D03*
X113502400Y-119516400D03*
X116042400Y-127036400D03*
X116042400Y-119516400D03*
X118582400Y-127036400D03*
X118582400Y-119516400D03*
D12*
X109692400Y-97776400D03*
X112248377Y-98406392D03*
X114218811Y-100152044D03*
X115152299Y-102613448D03*
X114834989Y-105226727D03*
X113339575Y-107393209D03*
X111008636Y-108616580D03*
X108376164Y-108616580D03*
X106045225Y-107393209D03*
X104549811Y-105226727D03*
X104232501Y-102613448D03*
X105166287Y-100152044D03*
X107136423Y-98406392D03*
D15*
X133452400Y-127166400D03*
X125932400Y-127166400D03*
X133452400Y-124626400D03*
X125932400Y-124626400D03*
X133452400Y-122086400D03*
X125932400Y-122086400D03*
X133452400Y-119546400D03*
X125932400Y-119546400D03*
X133452400Y-117006400D03*
X125932400Y-117006400D03*
X133452400Y-114466400D03*
X125932400Y-114466400D03*
X133452400Y-111926400D03*
X125932400Y-111926400D03*
X133452400Y-109386400D03*
X125932400Y-109386400D03*
D12*
X128422400Y-103276400D03*
X130962400Y-103276400D03*
X147136423Y-98406392D03*
X145166287Y-100152044D03*
X144232501Y-102613448D03*
X144549811Y-105226727D03*
X146045225Y-107393209D03*
X148376164Y-108616580D03*
X151008636Y-108616580D03*
X153339575Y-107393209D03*
X154834989Y-105226727D03*
X155152299Y-102613448D03*
X154218811Y-100152044D03*
X152248377Y-98406392D03*
X149692400Y-97776400D03*
D15*
X164541200Y-98069400D03*
X164541200Y-100609400D03*
X164541200Y-103149400D03*
X164541200Y-105689400D03*
X164541200Y-108229400D03*
X164541200Y-110769400D03*
M02*
