G04 #@! TF.GenerationSoftware,KiCad,Pcbnew,(5.1.12)-1*
G04 #@! TF.CreationDate,2021-12-29T20:31:44-05:00*
G04 #@! TF.ProjectId,Nixie_Clock,4e697869-655f-4436-9c6f-636b2e6b6963,1.0*
G04 #@! TF.SameCoordinates,Original*
G04 #@! TF.FileFunction,Soldermask,Bot*
G04 #@! TF.FilePolarity,Negative*
%FSLAX46Y46*%
G04 Gerber Fmt 4.6, Leading zero omitted, Abs format (unit mm)*
G04 Created by KiCad (PCBNEW (5.1.12)-1) date 2021-12-29 20:31:44*
%MOMM*%
%LPD*%
G01*
G04 APERTURE LIST*
%ADD10O,1.200000X2.000000*%
%ADD11C,1.500000*%
%ADD12R,1.600000X1.600000*%
%ADD13O,1.600000X1.600000*%
%ADD14O,2.000000X1.200000*%
%ADD15C,1.600000*%
G04 APERTURE END LIST*
D10*
X28890000Y-16240000D03*
X28890000Y-23760000D03*
X26350000Y-16240000D03*
X26350000Y-23760000D03*
X23810000Y-16240000D03*
X23810000Y-23760000D03*
X21270000Y-16240000D03*
X21270000Y-23760000D03*
X18730000Y-16240000D03*
X18730000Y-23760000D03*
X16190000Y-16240000D03*
X16190000Y-23760000D03*
X13650000Y-16240000D03*
X13650000Y-23760000D03*
X11110000Y-16240000D03*
X11110000Y-23760000D03*
D11*
X50000000Y5500000D03*
X52555977Y4870008D03*
X54526411Y3124356D03*
X55459899Y662952D03*
X55142589Y-1950327D03*
X53647175Y-4116809D03*
X51316236Y-5340180D03*
X48683764Y-5340180D03*
X46352825Y-4116809D03*
X44857411Y-1950327D03*
X44540101Y662952D03*
X45473887Y3124356D03*
X47444023Y4870008D03*
D10*
X58890000Y-16240000D03*
X58890000Y-23760000D03*
X56350000Y-16240000D03*
X56350000Y-23760000D03*
X53810000Y-16240000D03*
X53810000Y-23760000D03*
X51270000Y-16240000D03*
X51270000Y-23760000D03*
X48730000Y-16240000D03*
X48730000Y-23760000D03*
X46190000Y-16240000D03*
X46190000Y-23760000D03*
X43650000Y-16240000D03*
X43650000Y-23760000D03*
X41110000Y-16240000D03*
X41110000Y-23760000D03*
D12*
X16000000Y27000000D03*
D13*
X49020000Y11760000D03*
X18540000Y27000000D03*
X46480000Y11760000D03*
X21080000Y27000000D03*
X43940000Y11760000D03*
X23620000Y27000000D03*
X41400000Y11760000D03*
X26160000Y27000000D03*
X38860000Y11760000D03*
X28700000Y27000000D03*
X36320000Y11760000D03*
X31240000Y27000000D03*
X33780000Y11760000D03*
X33780000Y27000000D03*
X31240000Y11760000D03*
X36320000Y27000000D03*
X28700000Y11760000D03*
X38860000Y27000000D03*
X26160000Y11760000D03*
X41400000Y27000000D03*
X23620000Y11760000D03*
X43940000Y27000000D03*
X21080000Y11760000D03*
X46480000Y27000000D03*
X18540000Y11760000D03*
X49020000Y27000000D03*
X16000000Y11760000D03*
X51560000Y27000000D03*
X51560000Y11760000D03*
D14*
X-64500000Y12460000D03*
X-64500000Y15000000D03*
X-64500000Y17540000D03*
D10*
X-28040000Y24500000D03*
X-25500000Y24500000D03*
D11*
X-52555977Y4870008D03*
X-54526113Y3124356D03*
X-55459899Y662952D03*
X-55142589Y-1950327D03*
X-53647175Y-4116809D03*
X-51316236Y-5340180D03*
X-48683764Y-5340180D03*
X-46352825Y-4116809D03*
X-44857411Y-1950327D03*
X-44540101Y662952D03*
X-45473589Y3124356D03*
X-47444023Y4870008D03*
X-50000000Y5500000D03*
D15*
X-20000000Y20000000D03*
D13*
X-20000000Y27620000D03*
X-15000000Y27620000D03*
D15*
X-15000000Y20000000D03*
X-8000000Y12500000D03*
D13*
X-8000000Y4880000D03*
D15*
X0Y12500000D03*
D13*
X0Y4880000D03*
X8000000Y4880000D03*
D15*
X8000000Y12500000D03*
D13*
X2380000Y16000000D03*
D15*
X10000000Y16000000D03*
X-10000000Y16000000D03*
D13*
X-2380000Y16000000D03*
D15*
X4000000Y20000000D03*
D13*
X4000000Y27620000D03*
X9000000Y27620000D03*
D15*
X9000000Y20000000D03*
D10*
X-41110000Y-16240000D03*
X-41110000Y-23760000D03*
X-43650000Y-16240000D03*
X-43650000Y-23760000D03*
X-46190000Y-16240000D03*
X-46190000Y-23760000D03*
X-48730000Y-16240000D03*
X-48730000Y-23760000D03*
X-51270000Y-16240000D03*
X-51270000Y-23760000D03*
X-53810000Y-16240000D03*
X-53810000Y-23760000D03*
X-56350000Y-16240000D03*
X-56350000Y-23760000D03*
X-58890000Y-16240000D03*
X-58890000Y-23760000D03*
X-28890000Y-23760000D03*
X-28890000Y-16240000D03*
X-26350000Y-23760000D03*
X-26350000Y-16240000D03*
X-23810000Y-23760000D03*
X-23810000Y-16240000D03*
X-21270000Y-23760000D03*
X-21270000Y-16240000D03*
X-18730000Y-23760000D03*
X-18730000Y-16240000D03*
X-16190000Y-23760000D03*
X-16190000Y-16240000D03*
X-13650000Y-23760000D03*
X-13650000Y-16240000D03*
X-11110000Y-23760000D03*
X-11110000Y-16240000D03*
D11*
X-20000000Y5500000D03*
X-17444023Y4870008D03*
X-15473589Y3124356D03*
X-14540101Y662952D03*
X-14857411Y-1950327D03*
X-16352825Y-4116809D03*
X-18683764Y-5340180D03*
X-21316236Y-5340180D03*
X-23647175Y-4116809D03*
X-25142589Y-1950327D03*
X-25459899Y662952D03*
X-24526113Y3124356D03*
X-22555977Y4870008D03*
D14*
X3760000Y-23890000D03*
X-3760000Y-23890000D03*
X3760000Y-21350000D03*
X-3760000Y-21350000D03*
X3760000Y-18810000D03*
X-3760000Y-18810000D03*
X3760000Y-16270000D03*
X-3760000Y-16270000D03*
X3760000Y-13730000D03*
X-3760000Y-13730000D03*
X3760000Y-11190000D03*
X-3760000Y-11190000D03*
X3760000Y-8650000D03*
X-3760000Y-8650000D03*
X3760000Y-6110000D03*
X-3760000Y-6110000D03*
D11*
X-1270000Y0D03*
X1270000Y0D03*
X17444023Y4870008D03*
X15473887Y3124356D03*
X14540101Y662952D03*
X14857411Y-1950327D03*
X16352825Y-4116809D03*
X18683764Y-5340180D03*
X21316236Y-5340180D03*
X23647175Y-4116809D03*
X25142589Y-1950327D03*
X25459899Y662952D03*
X24526411Y3124356D03*
X22555977Y4870008D03*
X20000000Y5500000D03*
D14*
X34848800Y5207000D03*
X34848800Y2667000D03*
X34848800Y127000D03*
X34848800Y-2413000D03*
X34848800Y-4953000D03*
X34848800Y-7493000D03*
M02*
