%FSLAX45Y45*%
G04 Gerber Fmt 4.5, Leading zero omitted, Abs format (unit mm)*
G04 Created by KiCad (PCBNEW (5.1.12)-1) date 2022-01-06 04:44:59*
%MOMM*%
%LPD*%
G01*
G04 APERTURE LIST*
%TA.AperFunction,Profile*%
%ADD10C,0.150000*%
%TD*%
%ADD11C,0.200000*%
%ADD12C,0.300000*%
G04 APERTURE END LIST*
D10*
X9600000Y-13150000D02*
X9600000Y-7150000D01*
X9600000Y-7150000D02*
X23600000Y-7150000D01*
X23600000Y-13150000D02*
X23600000Y-7150000D01*
X9600000Y-13150000D02*
X23600000Y-13150000D01*
D11*
D12*
X9878928Y-13623214D02*
X9878928Y-13323214D01*
X9950357Y-13323214D01*
X9993214Y-13337500D01*
X10021786Y-13366071D01*
X10036071Y-13394643D01*
X10050357Y-13451786D01*
X10050357Y-13494643D01*
X10036071Y-13551786D01*
X10021786Y-13580357D01*
X9993214Y-13608929D01*
X9950357Y-13623214D01*
X9878928Y-13623214D01*
X10178928Y-13623214D02*
X10178928Y-13423214D01*
X10178928Y-13480357D02*
X10193214Y-13451786D01*
X10207500Y-13437500D01*
X10236071Y-13423214D01*
X10264643Y-13423214D01*
X10364643Y-13623214D02*
X10364643Y-13423214D01*
X10364643Y-13323214D02*
X10350357Y-13337500D01*
X10364643Y-13351786D01*
X10378928Y-13337500D01*
X10364643Y-13323214D01*
X10364643Y-13351786D01*
X10550357Y-13623214D02*
X10521786Y-13608929D01*
X10507500Y-13580357D01*
X10507500Y-13323214D01*
X10707500Y-13623214D02*
X10678928Y-13608929D01*
X10664643Y-13580357D01*
X10664643Y-13323214D01*
X11050357Y-13623214D02*
X11050357Y-13323214D01*
X11150357Y-13537500D01*
X11250357Y-13323214D01*
X11250357Y-13623214D01*
X11521786Y-13623214D02*
X11521786Y-13466071D01*
X11507500Y-13437500D01*
X11478928Y-13423214D01*
X11421786Y-13423214D01*
X11393214Y-13437500D01*
X11521786Y-13608929D02*
X11493214Y-13623214D01*
X11421786Y-13623214D01*
X11393214Y-13608929D01*
X11378928Y-13580357D01*
X11378928Y-13551786D01*
X11393214Y-13523214D01*
X11421786Y-13508929D01*
X11493214Y-13508929D01*
X11521786Y-13494643D01*
X11664643Y-13423214D02*
X11664643Y-13723214D01*
X11664643Y-13437500D02*
X11693214Y-13423214D01*
X11750357Y-13423214D01*
X11778928Y-13437500D01*
X11793214Y-13451786D01*
X11807500Y-13480357D01*
X11807500Y-13566071D01*
X11793214Y-13594643D01*
X11778928Y-13608929D01*
X11750357Y-13623214D01*
X11693214Y-13623214D01*
X11664643Y-13608929D01*
X11936071Y-13594643D02*
X11950357Y-13608929D01*
X11936071Y-13623214D01*
X11921786Y-13608929D01*
X11936071Y-13594643D01*
X11936071Y-13623214D01*
X11936071Y-13437500D02*
X11950357Y-13451786D01*
X11936071Y-13466071D01*
X11921786Y-13451786D01*
X11936071Y-13437500D01*
X11936071Y-13466071D01*
M02*
