M48
; DRILL file {KiCad (5.1.12)-1} date 01/07/22 20:59:34
; FORMAT={-:-/ absolute / metric / decimal}
; #@! TF.CreationDate,2022-01-07T20:59:34-05:00
; #@! TF.GenerationSoftware,Kicad,Pcbnew,(5.1.12)-1
; #@! TF.FileFunction,Plated,1,2,PTH
FMAT,2
METRIC
T1C0.400
T2C0.750
T3C0.800
T4C1.000
T5C1.100
T6C1.200
T7C2.200
%
G90
G05
T1
X107.0Y-123.0
X141.839Y-121.839
X161.5Y-77.885
X165.395Y-118.895
X172.0Y-122.0
X184.0Y-122.0
X184.2Y-85.0
X187.0Y-86.5
X188.458Y-87.458
X208.5Y-123.5
X208.614Y-120.614
T2
X110.54Y-100.837
X110.857Y-103.45
X111.474Y-98.376
X112.353Y-105.617
X113.444Y-96.63
X114.684Y-106.84
X116.0Y-96.0
X117.316Y-106.84
X118.556Y-96.63
X119.647Y-105.617
X120.526Y-98.376
X121.143Y-103.45
X121.46Y-100.837
X140.54Y-100.837
X140.857Y-103.45
X141.474Y-98.376
X142.353Y-105.617
X143.444Y-96.63
X144.684Y-106.84
X146.0Y-96.0
X147.316Y-106.84
X148.556Y-96.63
X149.647Y-105.617
X150.526Y-98.376
X151.143Y-103.45
X151.46Y-100.837
X164.73Y-101.5
X167.27Y-101.5
X180.54Y-100.837
X180.857Y-103.45
X181.474Y-98.376
X182.353Y-105.617
X183.444Y-96.63
X184.684Y-106.84
X186.0Y-96.0
X187.316Y-106.84
X188.556Y-96.63
X189.647Y-105.617
X190.526Y-98.376
X191.143Y-103.45
X191.46Y-100.837
X210.54Y-100.837
X210.857Y-103.45
X211.474Y-98.376
X212.353Y-105.617
X213.444Y-96.63
X214.684Y-106.84
X216.0Y-96.0
X217.316Y-106.84
X218.556Y-96.63
X219.647Y-105.617
X220.526Y-98.376
X221.143Y-103.45
X221.46Y-100.837
T3
X99.0Y-80.69
X99.0Y-83.23
X99.0Y-85.77
X99.0Y-88.31
X107.11Y-117.74
X107.11Y-125.26
X109.65Y-117.74
X109.65Y-125.26
X112.19Y-117.74
X112.19Y-125.26
X114.73Y-117.74
X114.73Y-125.26
X116.0Y-88.5
X117.27Y-117.74
X117.27Y-125.26
X119.81Y-117.74
X119.81Y-125.26
X122.35Y-117.74
X122.35Y-125.26
X123.62Y-88.5
X124.89Y-117.74
X124.89Y-125.26
X137.11Y-117.74
X137.11Y-125.26
X138.38Y-88.5
X139.65Y-117.74
X139.65Y-125.26
X142.19Y-117.74
X142.19Y-125.26
X144.73Y-117.74
X144.73Y-125.26
X146.0Y-88.5
X147.27Y-117.74
X147.27Y-125.26
X149.81Y-117.74
X149.81Y-125.26
X152.35Y-117.74
X152.35Y-125.26
X154.89Y-117.74
X154.89Y-125.26
X156.0Y-90.5
X156.0Y-98.12
X161.0Y-90.5
X161.0Y-98.12
X162.24Y-107.61
X162.24Y-110.15
X162.24Y-112.69
X162.24Y-115.23
X162.24Y-117.77
X162.24Y-120.31
X162.24Y-122.85
X162.24Y-125.39
X166.0Y-90.5
X166.0Y-98.12
X169.76Y-107.61
X169.76Y-110.15
X169.76Y-112.69
X169.76Y-115.23
X169.76Y-117.77
X169.76Y-120.31
X169.76Y-122.85
X169.76Y-125.39
X171.0Y-90.5
X171.0Y-98.12
X174.0Y-87.5
X176.0Y-90.5
X176.0Y-98.12
X177.11Y-117.74
X177.11Y-125.26
X179.65Y-117.74
X179.65Y-125.26
X181.62Y-87.5
X182.19Y-117.74
X182.19Y-125.26
X184.73Y-117.74
X184.73Y-125.26
X187.27Y-117.74
X187.27Y-125.26
X189.81Y-117.74
X189.81Y-125.26
X192.35Y-117.74
X192.35Y-125.26
X194.89Y-117.74
X194.89Y-125.26
X197.38Y-97.5
X200.0Y-101.15
X200.0Y-103.69
X200.0Y-106.23
X200.0Y-108.77
X200.0Y-111.31
X200.0Y-113.85
X205.0Y-97.5
X207.11Y-117.74
X207.11Y-125.26
X209.65Y-117.74
X209.65Y-125.26
X212.19Y-117.74
X212.19Y-125.26
X214.73Y-117.74
X214.73Y-125.26
X217.27Y-117.74
X217.27Y-125.26
X219.81Y-117.74
X219.81Y-125.26
X222.35Y-117.74
X222.35Y-125.26
X224.89Y-117.74
X224.89Y-125.26
T4
X187.0Y-74.985
X187.0Y-90.225
X189.54Y-74.985
X189.54Y-90.225
X192.08Y-74.985
X192.08Y-90.225
X194.62Y-74.985
X194.62Y-90.225
X197.16Y-74.985
X197.16Y-90.225
X199.7Y-74.985
X199.7Y-90.225
X202.24Y-74.985
X202.24Y-90.225
X204.78Y-74.985
X204.78Y-90.225
X207.32Y-74.985
X207.32Y-90.225
X209.86Y-74.985
X209.86Y-90.225
X212.4Y-74.985
X212.4Y-90.225
X214.94Y-74.985
X214.94Y-90.225
X217.48Y-74.985
X217.48Y-90.225
X220.02Y-74.985
X220.02Y-90.225
X222.56Y-74.985
X222.56Y-90.225
T5
X171.5Y-78.5
X171.5Y-81.04
X171.5Y-83.58
T6
X100.0Y-96.0
X102.54Y-96.0
X105.08Y-96.0
T7
X100.0Y-75.5
X100.0Y-127.5
X232.0Y-75.5
X232.0Y-127.5
T0
M30
