%FSLAX45Y45*%
G04 Gerber Fmt 4.5, Leading zero omitted, Abs format (unit mm)*
G04 Created by KiCad (PCBNEW (5.1.12)-1) date 2021-12-30 12:39:19*
%MOMM*%
%LPD*%
G01*
G04 APERTURE LIST*
%TA.AperFunction,Profile*%
%ADD10C,0.150000*%
%TD*%
%ADD11C,0.200000*%
%ADD12C,0.300000*%
G04 APERTURE END LIST*
D10*
X19969240Y-7327640D02*
X19969240Y-13327640D01*
X19969240Y-7327640D02*
X5969240Y-7327640D01*
X5969240Y-13327640D02*
X5969240Y-7327640D01*
X19969240Y-13327640D02*
X5969240Y-13327640D01*
D11*
X6499240Y-10647060D02*
X6539240Y-10687060D01*
X6539240Y-10647060D02*
X6499240Y-10687060D01*
X7325680Y-13123644D02*
X7365680Y-13163644D01*
X7365680Y-13123644D02*
X7325680Y-13163644D01*
X9981420Y-7413140D02*
X10021420Y-7453140D01*
X10021420Y-7413140D02*
X9981420Y-7453140D01*
X12014520Y-11216960D02*
X12054520Y-11256960D01*
X12054520Y-11216960D02*
X12014520Y-11256960D01*
X12469180Y-7770640D02*
X12509180Y-7810640D01*
X12509180Y-7770640D02*
X12469180Y-7810640D01*
X12631740Y-7958140D02*
X12671740Y-7998140D01*
X12671740Y-7958140D02*
X12631740Y-7998140D01*
X13018221Y-8110139D02*
X13058221Y-8150139D01*
X13058221Y-8110139D02*
X13018221Y-8150139D01*
X13734100Y-12563160D02*
X13774100Y-12603160D01*
X13774100Y-12563160D02*
X13734100Y-12603160D01*
X14061760Y-8473760D02*
X14101760Y-8513760D01*
X14101760Y-8473760D02*
X14061760Y-8513760D01*
X16578900Y-12753660D02*
X16618900Y-12793660D01*
X16618900Y-12753660D02*
X16578900Y-12793660D01*
X17833660Y-13123644D02*
X17873660Y-13163644D01*
X17873660Y-13123644D02*
X17833660Y-13163644D01*
X7460750Y-10261345D02*
G75*
G03*
X7460750Y-10261345I-37500J0D01*
G01*
X7492481Y-10522673D02*
G75*
G03*
X7492481Y-10522673I-37500J0D01*
G01*
X7554129Y-10015204D02*
G75*
G03*
X7554129Y-10015204I-37500J0D01*
G01*
X7642022Y-10739321D02*
G75*
G03*
X7642022Y-10739321I-37500J0D01*
G01*
X7751142Y-9840639D02*
G75*
G03*
X7751142Y-9840639I-37500J0D01*
G01*
X7875116Y-10861658D02*
G75*
G03*
X7875116Y-10861658I-37500J0D01*
G01*
X8006740Y-9777640D02*
G75*
G03*
X8006740Y-9777640I-37500J0D01*
G01*
X8138364Y-10861658D02*
G75*
G03*
X8138364Y-10861658I-37500J0D01*
G01*
X8262338Y-9840639D02*
G75*
G03*
X8262338Y-9840639I-37500J0D01*
G01*
X8371457Y-10739321D02*
G75*
G03*
X8371457Y-10739321I-37500J0D01*
G01*
X8459381Y-10015204D02*
G75*
G03*
X8459381Y-10015204I-37500J0D01*
G01*
X8520999Y-10522673D02*
G75*
G03*
X8520999Y-10522673I-37500J0D01*
G01*
X8552730Y-10261345D02*
G75*
G03*
X8552730Y-10261345I-37500J0D01*
G01*
X10460750Y-10261345D02*
G75*
G03*
X10460750Y-10261345I-37500J0D01*
G01*
X10492481Y-10522673D02*
G75*
G03*
X10492481Y-10522673I-37500J0D01*
G01*
X10554129Y-10015204D02*
G75*
G03*
X10554129Y-10015204I-37500J0D01*
G01*
X10642023Y-10739321D02*
G75*
G03*
X10642023Y-10739321I-37500J0D01*
G01*
X10751142Y-9840639D02*
G75*
G03*
X10751142Y-9840639I-37500J0D01*
G01*
X10875116Y-10861658D02*
G75*
G03*
X10875116Y-10861658I-37500J0D01*
G01*
X11006740Y-9777640D02*
G75*
G03*
X11006740Y-9777640I-37500J0D01*
G01*
X11138364Y-10861658D02*
G75*
G03*
X11138364Y-10861658I-37500J0D01*
G01*
X11262338Y-9840639D02*
G75*
G03*
X11262338Y-9840639I-37500J0D01*
G01*
X11371457Y-10739321D02*
G75*
G03*
X11371457Y-10739321I-37500J0D01*
G01*
X11459381Y-10015204D02*
G75*
G03*
X11459381Y-10015204I-37500J0D01*
G01*
X11520999Y-10522673D02*
G75*
G03*
X11520999Y-10522673I-37500J0D01*
G01*
X11552730Y-10261345D02*
G75*
G03*
X11552730Y-10261345I-37500J0D01*
G01*
X12879740Y-10327640D02*
G75*
G03*
X12879740Y-10327640I-37500J0D01*
G01*
X13133740Y-10327640D02*
G75*
G03*
X13133740Y-10327640I-37500J0D01*
G01*
X14460750Y-10261345D02*
G75*
G03*
X14460750Y-10261345I-37500J0D01*
G01*
X14492481Y-10522673D02*
G75*
G03*
X14492481Y-10522673I-37500J0D01*
G01*
X14554129Y-10015204D02*
G75*
G03*
X14554129Y-10015204I-37500J0D01*
G01*
X14642022Y-10739321D02*
G75*
G03*
X14642022Y-10739321I-37500J0D01*
G01*
X14751142Y-9840639D02*
G75*
G03*
X14751142Y-9840639I-37500J0D01*
G01*
X14875116Y-10861658D02*
G75*
G03*
X14875116Y-10861658I-37500J0D01*
G01*
X15006740Y-9777640D02*
G75*
G03*
X15006740Y-9777640I-37500J0D01*
G01*
X15138364Y-10861658D02*
G75*
G03*
X15138364Y-10861658I-37500J0D01*
G01*
X15262338Y-9840639D02*
G75*
G03*
X15262338Y-9840639I-37500J0D01*
G01*
X15371457Y-10739321D02*
G75*
G03*
X15371457Y-10739321I-37500J0D01*
G01*
X15459381Y-10015204D02*
G75*
G03*
X15459381Y-10015204I-37500J0D01*
G01*
X15520999Y-10522673D02*
G75*
G03*
X15520999Y-10522673I-37500J0D01*
G01*
X15552730Y-10261345D02*
G75*
G03*
X15552730Y-10261345I-37500J0D01*
G01*
X17460750Y-10261345D02*
G75*
G03*
X17460750Y-10261345I-37500J0D01*
G01*
X17492481Y-10522673D02*
G75*
G03*
X17492481Y-10522673I-37500J0D01*
G01*
X17554129Y-10015204D02*
G75*
G03*
X17554129Y-10015204I-37500J0D01*
G01*
X17642023Y-10739321D02*
G75*
G03*
X17642023Y-10739321I-37500J0D01*
G01*
X17751142Y-9840639D02*
G75*
G03*
X17751142Y-9840639I-37500J0D01*
G01*
X17875116Y-10861658D02*
G75*
G03*
X17875116Y-10861658I-37500J0D01*
G01*
X18006740Y-9777640D02*
G75*
G03*
X18006740Y-9777640I-37500J0D01*
G01*
X18138364Y-10861658D02*
G75*
G03*
X18138364Y-10861658I-37500J0D01*
G01*
X18262338Y-9840639D02*
G75*
G03*
X18262338Y-9840639I-37500J0D01*
G01*
X18371458Y-10739321D02*
G75*
G03*
X18371458Y-10739321I-37500J0D01*
G01*
X18459381Y-10015204D02*
G75*
G03*
X18459381Y-10015204I-37500J0D01*
G01*
X18520999Y-10522673D02*
G75*
G03*
X18520999Y-10522673I-37500J0D01*
G01*
X18552730Y-10261345D02*
G75*
G03*
X18552730Y-10261345I-37500J0D01*
G01*
X6519240Y-8533640D02*
X6519240Y-8613640D01*
X6479240Y-8573640D02*
X6559240Y-8573640D01*
X6519240Y-8787640D02*
X6519240Y-8867640D01*
X6479240Y-8827640D02*
X6559240Y-8827640D01*
X6519240Y-9041640D02*
X6519240Y-9121640D01*
X6479240Y-9081640D02*
X6559240Y-9081640D01*
X7080240Y-11911640D02*
X7080240Y-11991640D01*
X7040240Y-11951640D02*
X7120240Y-11951640D01*
X7080240Y-12663640D02*
X7080240Y-12743640D01*
X7040240Y-12703640D02*
X7120240Y-12703640D01*
X7334240Y-11911640D02*
X7334240Y-11991640D01*
X7294240Y-11951640D02*
X7374240Y-11951640D01*
X7334240Y-12663640D02*
X7334240Y-12743640D01*
X7294240Y-12703640D02*
X7374240Y-12703640D01*
X7588240Y-11911640D02*
X7588240Y-11991640D01*
X7548240Y-11951640D02*
X7628240Y-11951640D01*
X7588240Y-12663640D02*
X7588240Y-12743640D01*
X7548240Y-12703640D02*
X7628240Y-12703640D01*
X7842240Y-11911640D02*
X7842240Y-11991640D01*
X7802240Y-11951640D02*
X7882240Y-11951640D01*
X7842240Y-12663640D02*
X7842240Y-12743640D01*
X7802240Y-12703640D02*
X7882240Y-12703640D01*
X8096240Y-11911640D02*
X8096240Y-11991640D01*
X8056240Y-11951640D02*
X8136240Y-11951640D01*
X8096240Y-12663640D02*
X8096240Y-12743640D01*
X8056240Y-12703640D02*
X8136240Y-12703640D01*
X8350240Y-11911640D02*
X8350240Y-11991640D01*
X8310240Y-11951640D02*
X8390240Y-11951640D01*
X8350240Y-12663640D02*
X8350240Y-12743640D01*
X8310240Y-12703640D02*
X8390240Y-12703640D01*
X8604240Y-11911640D02*
X8604240Y-11991640D01*
X8564240Y-11951640D02*
X8644240Y-11951640D01*
X8604240Y-12663640D02*
X8604240Y-12743640D01*
X8564240Y-12703640D02*
X8644240Y-12703640D01*
X8858240Y-11911640D02*
X8858240Y-11991640D01*
X8818240Y-11951640D02*
X8898240Y-11951640D01*
X8858240Y-12663640D02*
X8858240Y-12743640D01*
X8818240Y-12703640D02*
X8898240Y-12703640D01*
X10080240Y-11911640D02*
X10080240Y-11991640D01*
X10040240Y-11951640D02*
X10120240Y-11951640D01*
X10080240Y-12663640D02*
X10080240Y-12743640D01*
X10040240Y-12703640D02*
X10120240Y-12703640D01*
X10165240Y-7837640D02*
X10165240Y-7917640D01*
X10125240Y-7877640D02*
X10205240Y-7877640D01*
X10334240Y-11911640D02*
X10334240Y-11991640D01*
X10294240Y-11951640D02*
X10374240Y-11951640D01*
X10334240Y-12663640D02*
X10334240Y-12743640D01*
X10294240Y-12703640D02*
X10374240Y-12703640D01*
X10419240Y-7837640D02*
X10419240Y-7917640D01*
X10379240Y-7877640D02*
X10459240Y-7877640D01*
X10588240Y-11911640D02*
X10588240Y-11991640D01*
X10548240Y-11951640D02*
X10628240Y-11951640D01*
X10588240Y-12663640D02*
X10588240Y-12743640D01*
X10548240Y-12703640D02*
X10628240Y-12703640D01*
X10842240Y-11911640D02*
X10842240Y-11991640D01*
X10802240Y-11951640D02*
X10882240Y-11951640D01*
X10842240Y-12663640D02*
X10842240Y-12743640D01*
X10802240Y-12703640D02*
X10882240Y-12703640D01*
X10969240Y-7525640D02*
X10969240Y-7605640D01*
X10929240Y-7565640D02*
X11009240Y-7565640D01*
X10969240Y-8287640D02*
X10969240Y-8367640D01*
X10929240Y-8327640D02*
X11009240Y-8327640D01*
X11096240Y-11911640D02*
X11096240Y-11991640D01*
X11056240Y-11951640D02*
X11136240Y-11951640D01*
X11096240Y-12663640D02*
X11096240Y-12743640D01*
X11056240Y-12703640D02*
X11136240Y-12703640D01*
X11350240Y-11911640D02*
X11350240Y-11991640D01*
X11310240Y-11951640D02*
X11390240Y-11951640D01*
X11350240Y-12663640D02*
X11350240Y-12743640D01*
X11310240Y-12703640D02*
X11390240Y-12703640D01*
X11469240Y-7525640D02*
X11469240Y-7605640D01*
X11429240Y-7565640D02*
X11509240Y-7565640D01*
X11469240Y-8287640D02*
X11469240Y-8367640D01*
X11429240Y-8327640D02*
X11509240Y-8327640D01*
X11604240Y-11911640D02*
X11604240Y-11991640D01*
X11564240Y-11951640D02*
X11644240Y-11951640D01*
X11604240Y-12663640D02*
X11604240Y-12743640D01*
X11564240Y-12703640D02*
X11644240Y-12703640D01*
X11858240Y-11911640D02*
X11858240Y-11991640D01*
X11818240Y-11951640D02*
X11898240Y-11951640D01*
X11858240Y-12663640D02*
X11858240Y-12743640D01*
X11818240Y-12703640D02*
X11898240Y-12703640D01*
X11969240Y-8687640D02*
X11969240Y-8767640D01*
X11929240Y-8727640D02*
X12009240Y-8727640D01*
X12169240Y-9037640D02*
X12169240Y-9117640D01*
X12129240Y-9077640D02*
X12209240Y-9077640D01*
X12169240Y-9799640D02*
X12169240Y-9879640D01*
X12129240Y-9839640D02*
X12209240Y-9839640D01*
X12593240Y-10898640D02*
X12593240Y-10978640D01*
X12553240Y-10938640D02*
X12633240Y-10938640D01*
X12593240Y-11152640D02*
X12593240Y-11232640D01*
X12553240Y-11192640D02*
X12633240Y-11192640D01*
X12593240Y-11406640D02*
X12593240Y-11486640D01*
X12553240Y-11446640D02*
X12633240Y-11446640D01*
X12593240Y-11660640D02*
X12593240Y-11740640D01*
X12553240Y-11700640D02*
X12633240Y-11700640D01*
X12593240Y-11914640D02*
X12593240Y-11994640D01*
X12553240Y-11954640D02*
X12633240Y-11954640D01*
X12593240Y-12168640D02*
X12593240Y-12248640D01*
X12553240Y-12208640D02*
X12633240Y-12208640D01*
X12593240Y-12422640D02*
X12593240Y-12502640D01*
X12553240Y-12462640D02*
X12633240Y-12462640D01*
X12593240Y-12676640D02*
X12593240Y-12756640D01*
X12553240Y-12716640D02*
X12633240Y-12716640D01*
X12731240Y-8687640D02*
X12731240Y-8767640D01*
X12691240Y-8727640D02*
X12771240Y-8727640D01*
X12969240Y-9037640D02*
X12969240Y-9117640D01*
X12929240Y-9077640D02*
X13009240Y-9077640D01*
X12969240Y-9799640D02*
X12969240Y-9879640D01*
X12929240Y-9839640D02*
X13009240Y-9839640D01*
X13207240Y-8687640D02*
X13207240Y-8767640D01*
X13167240Y-8727640D02*
X13247240Y-8727640D01*
X13345240Y-10898640D02*
X13345240Y-10978640D01*
X13305240Y-10938640D02*
X13385240Y-10938640D01*
X13345240Y-11152640D02*
X13345240Y-11232640D01*
X13305240Y-11192640D02*
X13385240Y-11192640D01*
X13345240Y-11406640D02*
X13345240Y-11486640D01*
X13305240Y-11446640D02*
X13385240Y-11446640D01*
X13345240Y-11660640D02*
X13345240Y-11740640D01*
X13305240Y-11700640D02*
X13385240Y-11700640D01*
X13345240Y-11914640D02*
X13345240Y-11994640D01*
X13305240Y-11954640D02*
X13385240Y-11954640D01*
X13345240Y-12168640D02*
X13345240Y-12248640D01*
X13305240Y-12208640D02*
X13385240Y-12208640D01*
X13345240Y-12422640D02*
X13345240Y-12502640D01*
X13305240Y-12462640D02*
X13385240Y-12462640D01*
X13345240Y-12676640D02*
X13345240Y-12756640D01*
X13305240Y-12716640D02*
X13385240Y-12716640D01*
X13369240Y-7525640D02*
X13369240Y-7605640D01*
X13329240Y-7565640D02*
X13409240Y-7565640D01*
X13369240Y-8287640D02*
X13369240Y-8367640D01*
X13329240Y-8327640D02*
X13409240Y-8327640D01*
X13769240Y-9037640D02*
X13769240Y-9117640D01*
X13729240Y-9077640D02*
X13809240Y-9077640D01*
X13769240Y-9799640D02*
X13769240Y-9879640D01*
X13729240Y-9839640D02*
X13809240Y-9839640D01*
X13869240Y-7525640D02*
X13869240Y-7605640D01*
X13829240Y-7565640D02*
X13909240Y-7565640D01*
X13869240Y-8287640D02*
X13869240Y-8367640D01*
X13829240Y-8327640D02*
X13909240Y-8327640D01*
X13969240Y-8687640D02*
X13969240Y-8767640D01*
X13929240Y-8727640D02*
X14009240Y-8727640D01*
X14080240Y-11911640D02*
X14080240Y-11991640D01*
X14040240Y-11951640D02*
X14120240Y-11951640D01*
X14080240Y-12663640D02*
X14080240Y-12743640D01*
X14040240Y-12703640D02*
X14120240Y-12703640D01*
X14334240Y-11911640D02*
X14334240Y-11991640D01*
X14294240Y-11951640D02*
X14374240Y-11951640D01*
X14334240Y-12663640D02*
X14334240Y-12743640D01*
X14294240Y-12703640D02*
X14374240Y-12703640D01*
X14588240Y-11911640D02*
X14588240Y-11991640D01*
X14548240Y-11951640D02*
X14628240Y-11951640D01*
X14588240Y-12663640D02*
X14588240Y-12743640D01*
X14548240Y-12703640D02*
X14628240Y-12703640D01*
X14842240Y-11911640D02*
X14842240Y-11991640D01*
X14802240Y-11951640D02*
X14882240Y-11951640D01*
X14842240Y-12663640D02*
X14842240Y-12743640D01*
X14802240Y-12703640D02*
X14882240Y-12703640D01*
X15096240Y-11911640D02*
X15096240Y-11991640D01*
X15056240Y-11951640D02*
X15136240Y-11951640D01*
X15096240Y-12663640D02*
X15096240Y-12743640D01*
X15056240Y-12703640D02*
X15136240Y-12703640D01*
X15350240Y-11911640D02*
X15350240Y-11991640D01*
X15310240Y-11951640D02*
X15390240Y-11951640D01*
X15350240Y-12663640D02*
X15350240Y-12743640D01*
X15310240Y-12703640D02*
X15390240Y-12703640D01*
X15604240Y-11911640D02*
X15604240Y-11991640D01*
X15564240Y-11951640D02*
X15644240Y-11951640D01*
X15604240Y-12663640D02*
X15604240Y-12743640D01*
X15564240Y-12703640D02*
X15644240Y-12703640D01*
X15858240Y-11911640D02*
X15858240Y-11991640D01*
X15818240Y-11951640D02*
X15898240Y-11951640D01*
X15858240Y-12663640D02*
X15858240Y-12743640D01*
X15818240Y-12703640D02*
X15898240Y-12703640D01*
X16454120Y-9766940D02*
X16454120Y-9846940D01*
X16414120Y-9806940D02*
X16494120Y-9806940D01*
X16454120Y-10020940D02*
X16454120Y-10100940D01*
X16414120Y-10060940D02*
X16494120Y-10060940D01*
X16454120Y-10274940D02*
X16454120Y-10354940D01*
X16414120Y-10314940D02*
X16494120Y-10314940D01*
X16454120Y-10528940D02*
X16454120Y-10608940D01*
X16414120Y-10568940D02*
X16494120Y-10568940D01*
X16454120Y-10782940D02*
X16454120Y-10862940D01*
X16414120Y-10822940D02*
X16494120Y-10822940D01*
X16454120Y-11036940D02*
X16454120Y-11116940D01*
X16414120Y-11076940D02*
X16494120Y-11076940D01*
X17080240Y-11911640D02*
X17080240Y-11991640D01*
X17040240Y-11951640D02*
X17120240Y-11951640D01*
X17080240Y-12663640D02*
X17080240Y-12743640D01*
X17040240Y-12703640D02*
X17120240Y-12703640D01*
X17334240Y-11911640D02*
X17334240Y-11991640D01*
X17294240Y-11951640D02*
X17374240Y-11951640D01*
X17334240Y-12663640D02*
X17334240Y-12743640D01*
X17294240Y-12703640D02*
X17374240Y-12703640D01*
X17588240Y-11911640D02*
X17588240Y-11991640D01*
X17548240Y-11951640D02*
X17628240Y-11951640D01*
X17588240Y-12663640D02*
X17588240Y-12743640D01*
X17548240Y-12703640D02*
X17628240Y-12703640D01*
X17842240Y-11911640D02*
X17842240Y-11991640D01*
X17802240Y-11951640D02*
X17882240Y-11951640D01*
X17842240Y-12663640D02*
X17842240Y-12743640D01*
X17802240Y-12703640D02*
X17882240Y-12703640D01*
X18096240Y-11911640D02*
X18096240Y-11991640D01*
X18056240Y-11951640D02*
X18136240Y-11951640D01*
X18096240Y-12663640D02*
X18096240Y-12743640D01*
X18056240Y-12703640D02*
X18136240Y-12703640D01*
X18350240Y-11911640D02*
X18350240Y-11991640D01*
X18310240Y-11951640D02*
X18390240Y-11951640D01*
X18350240Y-12663640D02*
X18350240Y-12743640D01*
X18310240Y-12703640D02*
X18390240Y-12703640D01*
X18604240Y-11911640D02*
X18604240Y-11991640D01*
X18564240Y-11951640D02*
X18644240Y-11951640D01*
X18604240Y-12663640D02*
X18604240Y-12743640D01*
X18564240Y-12703640D02*
X18644240Y-12703640D01*
X18858240Y-11911640D02*
X18858240Y-11991640D01*
X18818240Y-11951640D02*
X18898240Y-11951640D01*
X18858240Y-12663640D02*
X18858240Y-12743640D01*
X18818240Y-12703640D02*
X18898240Y-12703640D01*
X14604596Y-7662996D02*
X14604596Y-7592284D01*
X14533884Y-7592284D01*
X14533884Y-7662996D01*
X14604596Y-7662996D01*
X14604596Y-9186996D02*
X14604596Y-9116284D01*
X14533884Y-9116284D01*
X14533884Y-9186996D01*
X14604596Y-9186996D01*
X14858596Y-7662996D02*
X14858596Y-7592284D01*
X14787884Y-7592284D01*
X14787884Y-7662996D01*
X14858596Y-7662996D01*
X14858596Y-9186996D02*
X14858596Y-9116284D01*
X14787884Y-9116284D01*
X14787884Y-9186996D01*
X14858596Y-9186996D01*
X15112596Y-7662996D02*
X15112596Y-7592284D01*
X15041884Y-7592284D01*
X15041884Y-7662996D01*
X15112596Y-7662996D01*
X15112596Y-9186996D02*
X15112596Y-9116284D01*
X15041884Y-9116284D01*
X15041884Y-9186996D01*
X15112596Y-9186996D01*
X15366596Y-7662996D02*
X15366596Y-7592284D01*
X15295884Y-7592284D01*
X15295884Y-7662996D01*
X15366596Y-7662996D01*
X15366596Y-9186996D02*
X15366596Y-9116284D01*
X15295884Y-9116284D01*
X15295884Y-9186996D01*
X15366596Y-9186996D01*
X15620596Y-7662996D02*
X15620596Y-7592284D01*
X15549884Y-7592284D01*
X15549884Y-7662996D01*
X15620596Y-7662996D01*
X15620596Y-9186996D02*
X15620596Y-9116284D01*
X15549884Y-9116284D01*
X15549884Y-9186996D01*
X15620596Y-9186996D01*
X15874596Y-7662996D02*
X15874596Y-7592284D01*
X15803884Y-7592284D01*
X15803884Y-7662996D01*
X15874596Y-7662996D01*
X15874596Y-9186996D02*
X15874596Y-9116284D01*
X15803884Y-9116284D01*
X15803884Y-9186996D01*
X15874596Y-9186996D01*
X16128596Y-7662996D02*
X16128596Y-7592284D01*
X16057884Y-7592284D01*
X16057884Y-7662996D01*
X16128596Y-7662996D01*
X16128596Y-9186996D02*
X16128596Y-9116284D01*
X16057884Y-9116284D01*
X16057884Y-9186996D01*
X16128596Y-9186996D01*
X16382596Y-7662996D02*
X16382596Y-7592284D01*
X16311884Y-7592284D01*
X16311884Y-7662996D01*
X16382596Y-7662996D01*
X16382596Y-9186996D02*
X16382596Y-9116284D01*
X16311884Y-9116284D01*
X16311884Y-9186996D01*
X16382596Y-9186996D01*
X16636596Y-7662996D02*
X16636596Y-7592284D01*
X16565884Y-7592284D01*
X16565884Y-7662996D01*
X16636596Y-7662996D01*
X16636596Y-9186996D02*
X16636596Y-9116284D01*
X16565884Y-9116284D01*
X16565884Y-9186996D01*
X16636596Y-9186996D01*
X16890596Y-7662996D02*
X16890596Y-7592284D01*
X16819884Y-7592284D01*
X16819884Y-7662996D01*
X16890596Y-7662996D01*
X16890596Y-9186996D02*
X16890596Y-9116284D01*
X16819884Y-9116284D01*
X16819884Y-9186996D01*
X16890596Y-9186996D01*
X17144596Y-7662996D02*
X17144596Y-7592284D01*
X17073884Y-7592284D01*
X17073884Y-7662996D01*
X17144596Y-7662996D01*
X17144596Y-9186996D02*
X17144596Y-9116284D01*
X17073884Y-9116284D01*
X17073884Y-9186996D01*
X17144596Y-9186996D01*
X17398596Y-7662996D02*
X17398596Y-7592284D01*
X17327884Y-7592284D01*
X17327884Y-7662996D01*
X17398596Y-7662996D01*
X17398596Y-9186996D02*
X17398596Y-9116284D01*
X17327884Y-9116284D01*
X17327884Y-9186996D01*
X17398596Y-9186996D01*
X17652596Y-7662996D02*
X17652596Y-7592284D01*
X17581884Y-7592284D01*
X17581884Y-7662996D01*
X17652596Y-7662996D01*
X17652596Y-9186996D02*
X17652596Y-9116284D01*
X17581884Y-9116284D01*
X17581884Y-9186996D01*
X17652596Y-9186996D01*
X17906596Y-7662996D02*
X17906596Y-7592284D01*
X17835884Y-7592284D01*
X17835884Y-7662996D01*
X17906596Y-7662996D01*
X17906596Y-9186996D02*
X17906596Y-9116284D01*
X17835884Y-9116284D01*
X17835884Y-9186996D01*
X17906596Y-9186996D01*
X18160596Y-7662996D02*
X18160596Y-7592284D01*
X18089884Y-7592284D01*
X18089884Y-7662996D01*
X18160596Y-7662996D01*
X18160596Y-9186996D02*
X18160596Y-9116284D01*
X18089884Y-9116284D01*
X18089884Y-9186996D01*
X18160596Y-9186996D01*
X6369240Y-13037640D02*
X6479240Y-12927640D01*
X6369240Y-12817640D01*
X6259240Y-12927640D01*
X6369240Y-13037640D01*
X19569240Y-7837640D02*
X19679240Y-7727640D01*
X19569240Y-7617640D01*
X19459240Y-7727640D01*
X19569240Y-7837640D01*
X19569240Y-13037640D02*
X19679240Y-12927640D01*
X19569240Y-12817640D01*
X19459240Y-12927640D01*
X19569240Y-13037640D01*
D12*
X6248168Y-13800854D02*
X6248168Y-13500854D01*
X6319597Y-13500854D01*
X6362454Y-13515140D01*
X6391026Y-13543711D01*
X6405311Y-13572283D01*
X6419597Y-13629426D01*
X6419597Y-13672283D01*
X6405311Y-13729426D01*
X6391026Y-13757997D01*
X6362454Y-13786569D01*
X6319597Y-13800854D01*
X6248168Y-13800854D01*
X6548168Y-13800854D02*
X6548168Y-13600854D01*
X6548168Y-13657997D02*
X6562454Y-13629426D01*
X6576740Y-13615140D01*
X6605311Y-13600854D01*
X6633883Y-13600854D01*
X6733883Y-13800854D02*
X6733883Y-13600854D01*
X6733883Y-13500854D02*
X6719597Y-13515140D01*
X6733883Y-13529426D01*
X6748168Y-13515140D01*
X6733883Y-13500854D01*
X6733883Y-13529426D01*
X6919597Y-13800854D02*
X6891026Y-13786569D01*
X6876740Y-13757997D01*
X6876740Y-13500854D01*
X7076740Y-13800854D02*
X7048168Y-13786569D01*
X7033883Y-13757997D01*
X7033883Y-13500854D01*
X7419597Y-13800854D02*
X7419597Y-13500854D01*
X7519597Y-13715140D01*
X7619597Y-13500854D01*
X7619597Y-13800854D01*
X7891026Y-13800854D02*
X7891026Y-13643711D01*
X7876740Y-13615140D01*
X7848168Y-13600854D01*
X7791026Y-13600854D01*
X7762454Y-13615140D01*
X7891026Y-13786569D02*
X7862454Y-13800854D01*
X7791026Y-13800854D01*
X7762454Y-13786569D01*
X7748168Y-13757997D01*
X7748168Y-13729426D01*
X7762454Y-13700854D01*
X7791026Y-13686569D01*
X7862454Y-13686569D01*
X7891026Y-13672283D01*
X8033883Y-13600854D02*
X8033883Y-13900854D01*
X8033883Y-13615140D02*
X8062454Y-13600854D01*
X8119597Y-13600854D01*
X8148168Y-13615140D01*
X8162454Y-13629426D01*
X8176740Y-13657997D01*
X8176740Y-13743711D01*
X8162454Y-13772283D01*
X8148168Y-13786569D01*
X8119597Y-13800854D01*
X8062454Y-13800854D01*
X8033883Y-13786569D01*
X8305311Y-13772283D02*
X8319597Y-13786569D01*
X8305311Y-13800854D01*
X8291026Y-13786569D01*
X8305311Y-13772283D01*
X8305311Y-13800854D01*
X8305311Y-13615140D02*
X8319597Y-13629426D01*
X8305311Y-13643711D01*
X8291026Y-13629426D01*
X8305311Y-13615140D01*
X8305311Y-13643711D01*
X5921740Y-14275140D02*
X5961740Y-14315140D01*
X5961740Y-14275140D02*
X5921740Y-14315140D01*
X6305311Y-14130854D02*
X6333883Y-14130854D01*
X6362454Y-14145140D01*
X6376740Y-14159426D01*
X6391026Y-14187997D01*
X6405311Y-14245140D01*
X6405311Y-14316569D01*
X6391026Y-14373711D01*
X6376740Y-14402283D01*
X6362454Y-14416569D01*
X6333883Y-14430854D01*
X6305311Y-14430854D01*
X6276740Y-14416569D01*
X6262454Y-14402283D01*
X6248168Y-14373711D01*
X6233883Y-14316569D01*
X6233883Y-14245140D01*
X6248168Y-14187997D01*
X6262454Y-14159426D01*
X6276740Y-14145140D01*
X6305311Y-14130854D01*
X6533883Y-14402283D02*
X6548168Y-14416569D01*
X6533883Y-14430854D01*
X6519597Y-14416569D01*
X6533883Y-14402283D01*
X6533883Y-14430854D01*
X6805311Y-14230854D02*
X6805311Y-14430854D01*
X6733883Y-14116569D02*
X6662454Y-14330854D01*
X6848168Y-14330854D01*
X7019597Y-14130854D02*
X7048168Y-14130854D01*
X7076740Y-14145140D01*
X7091026Y-14159426D01*
X7105311Y-14187997D01*
X7119597Y-14245140D01*
X7119597Y-14316569D01*
X7105311Y-14373711D01*
X7091026Y-14402283D01*
X7076740Y-14416569D01*
X7048168Y-14430854D01*
X7019597Y-14430854D01*
X6991026Y-14416569D01*
X6976740Y-14402283D01*
X6962454Y-14373711D01*
X6948168Y-14316569D01*
X6948168Y-14245140D01*
X6962454Y-14187997D01*
X6976740Y-14159426D01*
X6991026Y-14145140D01*
X7019597Y-14130854D01*
X7305311Y-14130854D02*
X7333883Y-14130854D01*
X7362454Y-14145140D01*
X7376740Y-14159426D01*
X7391026Y-14187997D01*
X7405311Y-14245140D01*
X7405311Y-14316569D01*
X7391026Y-14373711D01*
X7376740Y-14402283D01*
X7362454Y-14416569D01*
X7333883Y-14430854D01*
X7305311Y-14430854D01*
X7276740Y-14416569D01*
X7262454Y-14402283D01*
X7248168Y-14373711D01*
X7233883Y-14316569D01*
X7233883Y-14245140D01*
X7248168Y-14187997D01*
X7262454Y-14159426D01*
X7276740Y-14145140D01*
X7305311Y-14130854D01*
X7533883Y-14430854D02*
X7533883Y-14230854D01*
X7533883Y-14259426D02*
X7548168Y-14245140D01*
X7576740Y-14230854D01*
X7619597Y-14230854D01*
X7648168Y-14245140D01*
X7662454Y-14273711D01*
X7662454Y-14430854D01*
X7662454Y-14273711D02*
X7676740Y-14245140D01*
X7705311Y-14230854D01*
X7748168Y-14230854D01*
X7776740Y-14245140D01*
X7791026Y-14273711D01*
X7791026Y-14430854D01*
X7933883Y-14430854D02*
X7933883Y-14230854D01*
X7933883Y-14259426D02*
X7948168Y-14245140D01*
X7976740Y-14230854D01*
X8019597Y-14230854D01*
X8048168Y-14245140D01*
X8062454Y-14273711D01*
X8062454Y-14430854D01*
X8062454Y-14273711D02*
X8076740Y-14245140D01*
X8105311Y-14230854D01*
X8148168Y-14230854D01*
X8176740Y-14245140D01*
X8191026Y-14273711D01*
X8191026Y-14430854D01*
X8776740Y-14116569D02*
X8519597Y-14502283D01*
X9162454Y-14130854D02*
X9191026Y-14130854D01*
X9219597Y-14145140D01*
X9233883Y-14159426D01*
X9248168Y-14187997D01*
X9262454Y-14245140D01*
X9262454Y-14316569D01*
X9248168Y-14373711D01*
X9233883Y-14402283D01*
X9219597Y-14416569D01*
X9191026Y-14430854D01*
X9162454Y-14430854D01*
X9133883Y-14416569D01*
X9119597Y-14402283D01*
X9105311Y-14373711D01*
X9091026Y-14316569D01*
X9091026Y-14245140D01*
X9105311Y-14187997D01*
X9119597Y-14159426D01*
X9133883Y-14145140D01*
X9162454Y-14130854D01*
X9391026Y-14402283D02*
X9405311Y-14416569D01*
X9391026Y-14430854D01*
X9376740Y-14416569D01*
X9391026Y-14402283D01*
X9391026Y-14430854D01*
X9591026Y-14130854D02*
X9619597Y-14130854D01*
X9648168Y-14145140D01*
X9662454Y-14159426D01*
X9676740Y-14187997D01*
X9691026Y-14245140D01*
X9691026Y-14316569D01*
X9676740Y-14373711D01*
X9662454Y-14402283D01*
X9648168Y-14416569D01*
X9619597Y-14430854D01*
X9591026Y-14430854D01*
X9562454Y-14416569D01*
X9548168Y-14402283D01*
X9533883Y-14373711D01*
X9519597Y-14316569D01*
X9519597Y-14245140D01*
X9533883Y-14187997D01*
X9548168Y-14159426D01*
X9562454Y-14145140D01*
X9591026Y-14130854D01*
X9976740Y-14430854D02*
X9805311Y-14430854D01*
X9891026Y-14430854D02*
X9891026Y-14130854D01*
X9862454Y-14173711D01*
X9833883Y-14202283D01*
X9805311Y-14216569D01*
X10248168Y-14130854D02*
X10105311Y-14130854D01*
X10091026Y-14273711D01*
X10105311Y-14259426D01*
X10133883Y-14245140D01*
X10205311Y-14245140D01*
X10233883Y-14259426D01*
X10248168Y-14273711D01*
X10262454Y-14302283D01*
X10262454Y-14373711D01*
X10248168Y-14402283D01*
X10233883Y-14416569D01*
X10205311Y-14430854D01*
X10133883Y-14430854D01*
X10105311Y-14416569D01*
X10091026Y-14402283D01*
X10362454Y-14130854D02*
X10562454Y-14130854D01*
X10433883Y-14430854D01*
X10662454Y-14130854D02*
X10662454Y-14187997D01*
X10776740Y-14130854D02*
X10776740Y-14187997D01*
X11219597Y-14545140D02*
X11205311Y-14530854D01*
X11176740Y-14487997D01*
X11162454Y-14459426D01*
X11148168Y-14416569D01*
X11133883Y-14345140D01*
X11133883Y-14287997D01*
X11148168Y-14216569D01*
X11162454Y-14173711D01*
X11176740Y-14145140D01*
X11205311Y-14102283D01*
X11219597Y-14087997D01*
X11491026Y-14430854D02*
X11319597Y-14430854D01*
X11405311Y-14430854D02*
X11405311Y-14130854D01*
X11376740Y-14173711D01*
X11348168Y-14202283D01*
X11319597Y-14216569D01*
X11776740Y-14430854D02*
X11605311Y-14430854D01*
X11691026Y-14430854D02*
X11691026Y-14130854D01*
X11662454Y-14173711D01*
X11633883Y-14202283D01*
X11605311Y-14216569D01*
X12133883Y-14430854D02*
X12133883Y-14130854D01*
X12262454Y-14430854D02*
X12262454Y-14273711D01*
X12248168Y-14245140D01*
X12219597Y-14230854D01*
X12176740Y-14230854D01*
X12148168Y-14245140D01*
X12133883Y-14259426D01*
X12448168Y-14430854D02*
X12419597Y-14416569D01*
X12405311Y-14402283D01*
X12391026Y-14373711D01*
X12391026Y-14287997D01*
X12405311Y-14259426D01*
X12419597Y-14245140D01*
X12448168Y-14230854D01*
X12491026Y-14230854D01*
X12519597Y-14245140D01*
X12533883Y-14259426D01*
X12548168Y-14287997D01*
X12548168Y-14373711D01*
X12533883Y-14402283D01*
X12519597Y-14416569D01*
X12491026Y-14430854D01*
X12448168Y-14430854D01*
X12719597Y-14430854D02*
X12691026Y-14416569D01*
X12676740Y-14387997D01*
X12676740Y-14130854D01*
X12948168Y-14416569D02*
X12919597Y-14430854D01*
X12862454Y-14430854D01*
X12833883Y-14416569D01*
X12819597Y-14387997D01*
X12819597Y-14273711D01*
X12833883Y-14245140D01*
X12862454Y-14230854D01*
X12919597Y-14230854D01*
X12948168Y-14245140D01*
X12962454Y-14273711D01*
X12962454Y-14302283D01*
X12819597Y-14330854D01*
X13076740Y-14416569D02*
X13105311Y-14430854D01*
X13162454Y-14430854D01*
X13191026Y-14416569D01*
X13205311Y-14387997D01*
X13205311Y-14373711D01*
X13191026Y-14345140D01*
X13162454Y-14330854D01*
X13119597Y-14330854D01*
X13091026Y-14316569D01*
X13076740Y-14287997D01*
X13076740Y-14273711D01*
X13091026Y-14245140D01*
X13119597Y-14230854D01*
X13162454Y-14230854D01*
X13191026Y-14245140D01*
X13305311Y-14545140D02*
X13319597Y-14530854D01*
X13348168Y-14487997D01*
X13362454Y-14459426D01*
X13376740Y-14416569D01*
X13391026Y-14345140D01*
X13391026Y-14287997D01*
X13376740Y-14216569D01*
X13362454Y-14173711D01*
X13348168Y-14145140D01*
X13319597Y-14102283D01*
X13305311Y-14087997D01*
X5961740Y-14691140D02*
G75*
G03*
X5961740Y-14691140I-37500J0D01*
G01*
X6305311Y-14526854D02*
X6333883Y-14526854D01*
X6362454Y-14541140D01*
X6376740Y-14555426D01*
X6391026Y-14583997D01*
X6405311Y-14641140D01*
X6405311Y-14712569D01*
X6391026Y-14769711D01*
X6376740Y-14798283D01*
X6362454Y-14812569D01*
X6333883Y-14826854D01*
X6305311Y-14826854D01*
X6276740Y-14812569D01*
X6262454Y-14798283D01*
X6248168Y-14769711D01*
X6233883Y-14712569D01*
X6233883Y-14641140D01*
X6248168Y-14583997D01*
X6262454Y-14555426D01*
X6276740Y-14541140D01*
X6305311Y-14526854D01*
X6533883Y-14798283D02*
X6548168Y-14812569D01*
X6533883Y-14826854D01*
X6519597Y-14812569D01*
X6533883Y-14798283D01*
X6533883Y-14826854D01*
X6648168Y-14526854D02*
X6848168Y-14526854D01*
X6719597Y-14826854D01*
X7105311Y-14526854D02*
X6962454Y-14526854D01*
X6948168Y-14669711D01*
X6962454Y-14655426D01*
X6991026Y-14641140D01*
X7062454Y-14641140D01*
X7091026Y-14655426D01*
X7105311Y-14669711D01*
X7119597Y-14698283D01*
X7119597Y-14769711D01*
X7105311Y-14798283D01*
X7091026Y-14812569D01*
X7062454Y-14826854D01*
X6991026Y-14826854D01*
X6962454Y-14812569D01*
X6948168Y-14798283D01*
X7305311Y-14526854D02*
X7333883Y-14526854D01*
X7362454Y-14541140D01*
X7376740Y-14555426D01*
X7391026Y-14583997D01*
X7405311Y-14641140D01*
X7405311Y-14712569D01*
X7391026Y-14769711D01*
X7376740Y-14798283D01*
X7362454Y-14812569D01*
X7333883Y-14826854D01*
X7305311Y-14826854D01*
X7276740Y-14812569D01*
X7262454Y-14798283D01*
X7248168Y-14769711D01*
X7233883Y-14712569D01*
X7233883Y-14641140D01*
X7248168Y-14583997D01*
X7262454Y-14555426D01*
X7276740Y-14541140D01*
X7305311Y-14526854D01*
X7533883Y-14826854D02*
X7533883Y-14626854D01*
X7533883Y-14655426D02*
X7548168Y-14641140D01*
X7576740Y-14626854D01*
X7619597Y-14626854D01*
X7648168Y-14641140D01*
X7662454Y-14669711D01*
X7662454Y-14826854D01*
X7662454Y-14669711D02*
X7676740Y-14641140D01*
X7705311Y-14626854D01*
X7748168Y-14626854D01*
X7776740Y-14641140D01*
X7791026Y-14669711D01*
X7791026Y-14826854D01*
X7933883Y-14826854D02*
X7933883Y-14626854D01*
X7933883Y-14655426D02*
X7948168Y-14641140D01*
X7976740Y-14626854D01*
X8019597Y-14626854D01*
X8048168Y-14641140D01*
X8062454Y-14669711D01*
X8062454Y-14826854D01*
X8062454Y-14669711D02*
X8076740Y-14641140D01*
X8105311Y-14626854D01*
X8148168Y-14626854D01*
X8176740Y-14641140D01*
X8191026Y-14669711D01*
X8191026Y-14826854D01*
X8776740Y-14512569D02*
X8519597Y-14898283D01*
X9162454Y-14526854D02*
X9191026Y-14526854D01*
X9219597Y-14541140D01*
X9233883Y-14555426D01*
X9248168Y-14583997D01*
X9262454Y-14641140D01*
X9262454Y-14712569D01*
X9248168Y-14769711D01*
X9233883Y-14798283D01*
X9219597Y-14812569D01*
X9191026Y-14826854D01*
X9162454Y-14826854D01*
X9133883Y-14812569D01*
X9119597Y-14798283D01*
X9105311Y-14769711D01*
X9091026Y-14712569D01*
X9091026Y-14641140D01*
X9105311Y-14583997D01*
X9119597Y-14555426D01*
X9133883Y-14541140D01*
X9162454Y-14526854D01*
X9391026Y-14798283D02*
X9405311Y-14812569D01*
X9391026Y-14826854D01*
X9376740Y-14812569D01*
X9391026Y-14798283D01*
X9391026Y-14826854D01*
X9591026Y-14526854D02*
X9619597Y-14526854D01*
X9648168Y-14541140D01*
X9662454Y-14555426D01*
X9676740Y-14583997D01*
X9691026Y-14641140D01*
X9691026Y-14712569D01*
X9676740Y-14769711D01*
X9662454Y-14798283D01*
X9648168Y-14812569D01*
X9619597Y-14826854D01*
X9591026Y-14826854D01*
X9562454Y-14812569D01*
X9548168Y-14798283D01*
X9533883Y-14769711D01*
X9519597Y-14712569D01*
X9519597Y-14641140D01*
X9533883Y-14583997D01*
X9548168Y-14555426D01*
X9562454Y-14541140D01*
X9591026Y-14526854D01*
X9805311Y-14555426D02*
X9819597Y-14541140D01*
X9848168Y-14526854D01*
X9919597Y-14526854D01*
X9948168Y-14541140D01*
X9962454Y-14555426D01*
X9976740Y-14583997D01*
X9976740Y-14612569D01*
X9962454Y-14655426D01*
X9791026Y-14826854D01*
X9976740Y-14826854D01*
X10119597Y-14826854D02*
X10176740Y-14826854D01*
X10205311Y-14812569D01*
X10219597Y-14798283D01*
X10248168Y-14755426D01*
X10262454Y-14698283D01*
X10262454Y-14583997D01*
X10248168Y-14555426D01*
X10233883Y-14541140D01*
X10205311Y-14526854D01*
X10148168Y-14526854D01*
X10119597Y-14541140D01*
X10105311Y-14555426D01*
X10091026Y-14583997D01*
X10091026Y-14655426D01*
X10105311Y-14683997D01*
X10119597Y-14698283D01*
X10148168Y-14712569D01*
X10205311Y-14712569D01*
X10233883Y-14698283D01*
X10248168Y-14683997D01*
X10262454Y-14655426D01*
X10533883Y-14526854D02*
X10391026Y-14526854D01*
X10376740Y-14669711D01*
X10391026Y-14655426D01*
X10419597Y-14641140D01*
X10491026Y-14641140D01*
X10519597Y-14655426D01*
X10533883Y-14669711D01*
X10548168Y-14698283D01*
X10548168Y-14769711D01*
X10533883Y-14798283D01*
X10519597Y-14812569D01*
X10491026Y-14826854D01*
X10419597Y-14826854D01*
X10391026Y-14812569D01*
X10376740Y-14798283D01*
X10662454Y-14526854D02*
X10662454Y-14583997D01*
X10776740Y-14526854D02*
X10776740Y-14583997D01*
X11219597Y-14941140D02*
X11205311Y-14926854D01*
X11176740Y-14883997D01*
X11162454Y-14855426D01*
X11148168Y-14812569D01*
X11133883Y-14741140D01*
X11133883Y-14683997D01*
X11148168Y-14612569D01*
X11162454Y-14569711D01*
X11176740Y-14541140D01*
X11205311Y-14498283D01*
X11219597Y-14483997D01*
X11476740Y-14526854D02*
X11333883Y-14526854D01*
X11319597Y-14669711D01*
X11333883Y-14655426D01*
X11362454Y-14641140D01*
X11433883Y-14641140D01*
X11462454Y-14655426D01*
X11476740Y-14669711D01*
X11491026Y-14698283D01*
X11491026Y-14769711D01*
X11476740Y-14798283D01*
X11462454Y-14812569D01*
X11433883Y-14826854D01*
X11362454Y-14826854D01*
X11333883Y-14812569D01*
X11319597Y-14798283D01*
X11748168Y-14626854D02*
X11748168Y-14826854D01*
X11676740Y-14512569D02*
X11605311Y-14726854D01*
X11791026Y-14726854D01*
X12133883Y-14826854D02*
X12133883Y-14526854D01*
X12262454Y-14826854D02*
X12262454Y-14669711D01*
X12248168Y-14641140D01*
X12219597Y-14626854D01*
X12176740Y-14626854D01*
X12148168Y-14641140D01*
X12133883Y-14655426D01*
X12448168Y-14826854D02*
X12419597Y-14812569D01*
X12405311Y-14798283D01*
X12391026Y-14769711D01*
X12391026Y-14683997D01*
X12405311Y-14655426D01*
X12419597Y-14641140D01*
X12448168Y-14626854D01*
X12491026Y-14626854D01*
X12519597Y-14641140D01*
X12533883Y-14655426D01*
X12548168Y-14683997D01*
X12548168Y-14769711D01*
X12533883Y-14798283D01*
X12519597Y-14812569D01*
X12491026Y-14826854D01*
X12448168Y-14826854D01*
X12719597Y-14826854D02*
X12691026Y-14812569D01*
X12676740Y-14783997D01*
X12676740Y-14526854D01*
X12948168Y-14812569D02*
X12919597Y-14826854D01*
X12862454Y-14826854D01*
X12833883Y-14812569D01*
X12819597Y-14783997D01*
X12819597Y-14669711D01*
X12833883Y-14641140D01*
X12862454Y-14626854D01*
X12919597Y-14626854D01*
X12948168Y-14641140D01*
X12962454Y-14669711D01*
X12962454Y-14698283D01*
X12819597Y-14726854D01*
X13076740Y-14812569D02*
X13105311Y-14826854D01*
X13162454Y-14826854D01*
X13191026Y-14812569D01*
X13205311Y-14783997D01*
X13205311Y-14769711D01*
X13191026Y-14741140D01*
X13162454Y-14726854D01*
X13119597Y-14726854D01*
X13091026Y-14712569D01*
X13076740Y-14683997D01*
X13076740Y-14669711D01*
X13091026Y-14641140D01*
X13119597Y-14626854D01*
X13162454Y-14626854D01*
X13191026Y-14641140D01*
X13305311Y-14941140D02*
X13319597Y-14926854D01*
X13348168Y-14883997D01*
X13362454Y-14855426D01*
X13376740Y-14812569D01*
X13391026Y-14741140D01*
X13391026Y-14683997D01*
X13376740Y-14612569D01*
X13362454Y-14569711D01*
X13348168Y-14541140D01*
X13319597Y-14498283D01*
X13305311Y-14483997D01*
X5921740Y-15047140D02*
X5921740Y-15127140D01*
X5881740Y-15087140D02*
X5961740Y-15087140D01*
X6305311Y-14922854D02*
X6333883Y-14922854D01*
X6362454Y-14937140D01*
X6376740Y-14951426D01*
X6391026Y-14979997D01*
X6405311Y-15037140D01*
X6405311Y-15108569D01*
X6391026Y-15165711D01*
X6376740Y-15194283D01*
X6362454Y-15208569D01*
X6333883Y-15222854D01*
X6305311Y-15222854D01*
X6276740Y-15208569D01*
X6262454Y-15194283D01*
X6248168Y-15165711D01*
X6233883Y-15108569D01*
X6233883Y-15037140D01*
X6248168Y-14979997D01*
X6262454Y-14951426D01*
X6276740Y-14937140D01*
X6305311Y-14922854D01*
X6533883Y-15194283D02*
X6548168Y-15208569D01*
X6533883Y-15222854D01*
X6519597Y-15208569D01*
X6533883Y-15194283D01*
X6533883Y-15222854D01*
X6719597Y-15051426D02*
X6691026Y-15037140D01*
X6676740Y-15022854D01*
X6662454Y-14994283D01*
X6662454Y-14979997D01*
X6676740Y-14951426D01*
X6691026Y-14937140D01*
X6719597Y-14922854D01*
X6776740Y-14922854D01*
X6805311Y-14937140D01*
X6819597Y-14951426D01*
X6833883Y-14979997D01*
X6833883Y-14994283D01*
X6819597Y-15022854D01*
X6805311Y-15037140D01*
X6776740Y-15051426D01*
X6719597Y-15051426D01*
X6691026Y-15065711D01*
X6676740Y-15079997D01*
X6662454Y-15108569D01*
X6662454Y-15165711D01*
X6676740Y-15194283D01*
X6691026Y-15208569D01*
X6719597Y-15222854D01*
X6776740Y-15222854D01*
X6805311Y-15208569D01*
X6819597Y-15194283D01*
X6833883Y-15165711D01*
X6833883Y-15108569D01*
X6819597Y-15079997D01*
X6805311Y-15065711D01*
X6776740Y-15051426D01*
X7019597Y-14922854D02*
X7048168Y-14922854D01*
X7076740Y-14937140D01*
X7091026Y-14951426D01*
X7105311Y-14979997D01*
X7119597Y-15037140D01*
X7119597Y-15108569D01*
X7105311Y-15165711D01*
X7091026Y-15194283D01*
X7076740Y-15208569D01*
X7048168Y-15222854D01*
X7019597Y-15222854D01*
X6991026Y-15208569D01*
X6976740Y-15194283D01*
X6962454Y-15165711D01*
X6948168Y-15108569D01*
X6948168Y-15037140D01*
X6962454Y-14979997D01*
X6976740Y-14951426D01*
X6991026Y-14937140D01*
X7019597Y-14922854D01*
X7305311Y-14922854D02*
X7333883Y-14922854D01*
X7362454Y-14937140D01*
X7376740Y-14951426D01*
X7391026Y-14979997D01*
X7405311Y-15037140D01*
X7405311Y-15108569D01*
X7391026Y-15165711D01*
X7376740Y-15194283D01*
X7362454Y-15208569D01*
X7333883Y-15222854D01*
X7305311Y-15222854D01*
X7276740Y-15208569D01*
X7262454Y-15194283D01*
X7248168Y-15165711D01*
X7233883Y-15108569D01*
X7233883Y-15037140D01*
X7248168Y-14979997D01*
X7262454Y-14951426D01*
X7276740Y-14937140D01*
X7305311Y-14922854D01*
X7533883Y-15222854D02*
X7533883Y-15022854D01*
X7533883Y-15051426D02*
X7548168Y-15037140D01*
X7576740Y-15022854D01*
X7619597Y-15022854D01*
X7648168Y-15037140D01*
X7662454Y-15065711D01*
X7662454Y-15222854D01*
X7662454Y-15065711D02*
X7676740Y-15037140D01*
X7705311Y-15022854D01*
X7748168Y-15022854D01*
X7776740Y-15037140D01*
X7791026Y-15065711D01*
X7791026Y-15222854D01*
X7933883Y-15222854D02*
X7933883Y-15022854D01*
X7933883Y-15051426D02*
X7948168Y-15037140D01*
X7976740Y-15022854D01*
X8019597Y-15022854D01*
X8048168Y-15037140D01*
X8062454Y-15065711D01*
X8062454Y-15222854D01*
X8062454Y-15065711D02*
X8076740Y-15037140D01*
X8105311Y-15022854D01*
X8148168Y-15022854D01*
X8176740Y-15037140D01*
X8191026Y-15065711D01*
X8191026Y-15222854D01*
X8776740Y-14908569D02*
X8519597Y-15294283D01*
X9162454Y-14922854D02*
X9191026Y-14922854D01*
X9219597Y-14937140D01*
X9233883Y-14951426D01*
X9248168Y-14979997D01*
X9262454Y-15037140D01*
X9262454Y-15108569D01*
X9248168Y-15165711D01*
X9233883Y-15194283D01*
X9219597Y-15208569D01*
X9191026Y-15222854D01*
X9162454Y-15222854D01*
X9133883Y-15208569D01*
X9119597Y-15194283D01*
X9105311Y-15165711D01*
X9091026Y-15108569D01*
X9091026Y-15037140D01*
X9105311Y-14979997D01*
X9119597Y-14951426D01*
X9133883Y-14937140D01*
X9162454Y-14922854D01*
X9391026Y-15194283D02*
X9405311Y-15208569D01*
X9391026Y-15222854D01*
X9376740Y-15208569D01*
X9391026Y-15194283D01*
X9391026Y-15222854D01*
X9591026Y-14922854D02*
X9619597Y-14922854D01*
X9648168Y-14937140D01*
X9662454Y-14951426D01*
X9676740Y-14979997D01*
X9691026Y-15037140D01*
X9691026Y-15108569D01*
X9676740Y-15165711D01*
X9662454Y-15194283D01*
X9648168Y-15208569D01*
X9619597Y-15222854D01*
X9591026Y-15222854D01*
X9562454Y-15208569D01*
X9548168Y-15194283D01*
X9533883Y-15165711D01*
X9519597Y-15108569D01*
X9519597Y-15037140D01*
X9533883Y-14979997D01*
X9548168Y-14951426D01*
X9562454Y-14937140D01*
X9591026Y-14922854D01*
X9791026Y-14922854D02*
X9976740Y-14922854D01*
X9876740Y-15037140D01*
X9919597Y-15037140D01*
X9948168Y-15051426D01*
X9962454Y-15065711D01*
X9976740Y-15094283D01*
X9976740Y-15165711D01*
X9962454Y-15194283D01*
X9948168Y-15208569D01*
X9919597Y-15222854D01*
X9833883Y-15222854D01*
X9805311Y-15208569D01*
X9791026Y-15194283D01*
X10262454Y-15222854D02*
X10091026Y-15222854D01*
X10176740Y-15222854D02*
X10176740Y-14922854D01*
X10148168Y-14965711D01*
X10119597Y-14994283D01*
X10091026Y-15008569D01*
X10533883Y-14922854D02*
X10391026Y-14922854D01*
X10376740Y-15065711D01*
X10391026Y-15051426D01*
X10419597Y-15037140D01*
X10491026Y-15037140D01*
X10519597Y-15051426D01*
X10533883Y-15065711D01*
X10548168Y-15094283D01*
X10548168Y-15165711D01*
X10533883Y-15194283D01*
X10519597Y-15208569D01*
X10491026Y-15222854D01*
X10419597Y-15222854D01*
X10391026Y-15208569D01*
X10376740Y-15194283D01*
X10662454Y-14922854D02*
X10662454Y-14979997D01*
X10776740Y-14922854D02*
X10776740Y-14979997D01*
X11219597Y-15337140D02*
X11205311Y-15322854D01*
X11176740Y-15279997D01*
X11162454Y-15251426D01*
X11148168Y-15208569D01*
X11133883Y-15137140D01*
X11133883Y-15079997D01*
X11148168Y-15008569D01*
X11162454Y-14965711D01*
X11176740Y-14937140D01*
X11205311Y-14894283D01*
X11219597Y-14879997D01*
X11491026Y-15222854D02*
X11319597Y-15222854D01*
X11405311Y-15222854D02*
X11405311Y-14922854D01*
X11376740Y-14965711D01*
X11348168Y-14994283D01*
X11319597Y-15008569D01*
X11676740Y-14922854D02*
X11705311Y-14922854D01*
X11733883Y-14937140D01*
X11748168Y-14951426D01*
X11762454Y-14979997D01*
X11776740Y-15037140D01*
X11776740Y-15108569D01*
X11762454Y-15165711D01*
X11748168Y-15194283D01*
X11733883Y-15208569D01*
X11705311Y-15222854D01*
X11676740Y-15222854D01*
X11648168Y-15208569D01*
X11633883Y-15194283D01*
X11619597Y-15165711D01*
X11605311Y-15108569D01*
X11605311Y-15037140D01*
X11619597Y-14979997D01*
X11633883Y-14951426D01*
X11648168Y-14937140D01*
X11676740Y-14922854D01*
X11919597Y-15222854D02*
X11976740Y-15222854D01*
X12005311Y-15208569D01*
X12019597Y-15194283D01*
X12048168Y-15151426D01*
X12062454Y-15094283D01*
X12062454Y-14979997D01*
X12048168Y-14951426D01*
X12033883Y-14937140D01*
X12005311Y-14922854D01*
X11948168Y-14922854D01*
X11919597Y-14937140D01*
X11905311Y-14951426D01*
X11891026Y-14979997D01*
X11891026Y-15051426D01*
X11905311Y-15079997D01*
X11919597Y-15094283D01*
X11948168Y-15108569D01*
X12005311Y-15108569D01*
X12033883Y-15094283D01*
X12048168Y-15079997D01*
X12062454Y-15051426D01*
X12419597Y-15222854D02*
X12419597Y-14922854D01*
X12548168Y-15222854D02*
X12548168Y-15065711D01*
X12533883Y-15037140D01*
X12505311Y-15022854D01*
X12462454Y-15022854D01*
X12433883Y-15037140D01*
X12419597Y-15051426D01*
X12733883Y-15222854D02*
X12705311Y-15208569D01*
X12691026Y-15194283D01*
X12676740Y-15165711D01*
X12676740Y-15079997D01*
X12691026Y-15051426D01*
X12705311Y-15037140D01*
X12733883Y-15022854D01*
X12776740Y-15022854D01*
X12805311Y-15037140D01*
X12819597Y-15051426D01*
X12833883Y-15079997D01*
X12833883Y-15165711D01*
X12819597Y-15194283D01*
X12805311Y-15208569D01*
X12776740Y-15222854D01*
X12733883Y-15222854D01*
X13005311Y-15222854D02*
X12976740Y-15208569D01*
X12962454Y-15179997D01*
X12962454Y-14922854D01*
X13233883Y-15208569D02*
X13205311Y-15222854D01*
X13148168Y-15222854D01*
X13119597Y-15208569D01*
X13105311Y-15179997D01*
X13105311Y-15065711D01*
X13119597Y-15037140D01*
X13148168Y-15022854D01*
X13205311Y-15022854D01*
X13233883Y-15037140D01*
X13248168Y-15065711D01*
X13248168Y-15094283D01*
X13105311Y-15122854D01*
X13362454Y-15208569D02*
X13391026Y-15222854D01*
X13448168Y-15222854D01*
X13476740Y-15208569D01*
X13491026Y-15179997D01*
X13491026Y-15165711D01*
X13476740Y-15137140D01*
X13448168Y-15122854D01*
X13405311Y-15122854D01*
X13376740Y-15108569D01*
X13362454Y-15079997D01*
X13362454Y-15065711D01*
X13376740Y-15037140D01*
X13405311Y-15022854D01*
X13448168Y-15022854D01*
X13476740Y-15037140D01*
X13591026Y-15337140D02*
X13605311Y-15322854D01*
X13633883Y-15279997D01*
X13648168Y-15251426D01*
X13662454Y-15208569D01*
X13676740Y-15137140D01*
X13676740Y-15079997D01*
X13662454Y-15008569D01*
X13648168Y-14965711D01*
X13633883Y-14937140D01*
X13605311Y-14894283D01*
X13591026Y-14879997D01*
X5947096Y-15518496D02*
X5947096Y-15447784D01*
X5876384Y-15447784D01*
X5876384Y-15518496D01*
X5947096Y-15518496D01*
X6405311Y-15618854D02*
X6233883Y-15618854D01*
X6319597Y-15618854D02*
X6319597Y-15318854D01*
X6291026Y-15361711D01*
X6262454Y-15390283D01*
X6233883Y-15404569D01*
X6533883Y-15590283D02*
X6548168Y-15604569D01*
X6533883Y-15618854D01*
X6519597Y-15604569D01*
X6533883Y-15590283D01*
X6533883Y-15618854D01*
X6733883Y-15318854D02*
X6762454Y-15318854D01*
X6791026Y-15333140D01*
X6805311Y-15347426D01*
X6819597Y-15375997D01*
X6833883Y-15433140D01*
X6833883Y-15504569D01*
X6819597Y-15561711D01*
X6805311Y-15590283D01*
X6791026Y-15604569D01*
X6762454Y-15618854D01*
X6733883Y-15618854D01*
X6705311Y-15604569D01*
X6691026Y-15590283D01*
X6676740Y-15561711D01*
X6662454Y-15504569D01*
X6662454Y-15433140D01*
X6676740Y-15375997D01*
X6691026Y-15347426D01*
X6705311Y-15333140D01*
X6733883Y-15318854D01*
X7019597Y-15318854D02*
X7048168Y-15318854D01*
X7076740Y-15333140D01*
X7091026Y-15347426D01*
X7105311Y-15375997D01*
X7119597Y-15433140D01*
X7119597Y-15504569D01*
X7105311Y-15561711D01*
X7091026Y-15590283D01*
X7076740Y-15604569D01*
X7048168Y-15618854D01*
X7019597Y-15618854D01*
X6991026Y-15604569D01*
X6976740Y-15590283D01*
X6962454Y-15561711D01*
X6948168Y-15504569D01*
X6948168Y-15433140D01*
X6962454Y-15375997D01*
X6976740Y-15347426D01*
X6991026Y-15333140D01*
X7019597Y-15318854D01*
X7305311Y-15318854D02*
X7333883Y-15318854D01*
X7362454Y-15333140D01*
X7376740Y-15347426D01*
X7391026Y-15375997D01*
X7405311Y-15433140D01*
X7405311Y-15504569D01*
X7391026Y-15561711D01*
X7376740Y-15590283D01*
X7362454Y-15604569D01*
X7333883Y-15618854D01*
X7305311Y-15618854D01*
X7276740Y-15604569D01*
X7262454Y-15590283D01*
X7248168Y-15561711D01*
X7233883Y-15504569D01*
X7233883Y-15433140D01*
X7248168Y-15375997D01*
X7262454Y-15347426D01*
X7276740Y-15333140D01*
X7305311Y-15318854D01*
X7533883Y-15618854D02*
X7533883Y-15418854D01*
X7533883Y-15447426D02*
X7548168Y-15433140D01*
X7576740Y-15418854D01*
X7619597Y-15418854D01*
X7648168Y-15433140D01*
X7662454Y-15461711D01*
X7662454Y-15618854D01*
X7662454Y-15461711D02*
X7676740Y-15433140D01*
X7705311Y-15418854D01*
X7748168Y-15418854D01*
X7776740Y-15433140D01*
X7791026Y-15461711D01*
X7791026Y-15618854D01*
X7933883Y-15618854D02*
X7933883Y-15418854D01*
X7933883Y-15447426D02*
X7948168Y-15433140D01*
X7976740Y-15418854D01*
X8019597Y-15418854D01*
X8048168Y-15433140D01*
X8062454Y-15461711D01*
X8062454Y-15618854D01*
X8062454Y-15461711D02*
X8076740Y-15433140D01*
X8105311Y-15418854D01*
X8148168Y-15418854D01*
X8176740Y-15433140D01*
X8191026Y-15461711D01*
X8191026Y-15618854D01*
X8776740Y-15304569D02*
X8519597Y-15690283D01*
X9162454Y-15318854D02*
X9191026Y-15318854D01*
X9219597Y-15333140D01*
X9233883Y-15347426D01*
X9248168Y-15375997D01*
X9262454Y-15433140D01*
X9262454Y-15504569D01*
X9248168Y-15561711D01*
X9233883Y-15590283D01*
X9219597Y-15604569D01*
X9191026Y-15618854D01*
X9162454Y-15618854D01*
X9133883Y-15604569D01*
X9119597Y-15590283D01*
X9105311Y-15561711D01*
X9091026Y-15504569D01*
X9091026Y-15433140D01*
X9105311Y-15375997D01*
X9119597Y-15347426D01*
X9133883Y-15333140D01*
X9162454Y-15318854D01*
X9391026Y-15590283D02*
X9405311Y-15604569D01*
X9391026Y-15618854D01*
X9376740Y-15604569D01*
X9391026Y-15590283D01*
X9391026Y-15618854D01*
X9591026Y-15318854D02*
X9619597Y-15318854D01*
X9648168Y-15333140D01*
X9662454Y-15347426D01*
X9676740Y-15375997D01*
X9691026Y-15433140D01*
X9691026Y-15504569D01*
X9676740Y-15561711D01*
X9662454Y-15590283D01*
X9648168Y-15604569D01*
X9619597Y-15618854D01*
X9591026Y-15618854D01*
X9562454Y-15604569D01*
X9548168Y-15590283D01*
X9533883Y-15561711D01*
X9519597Y-15504569D01*
X9519597Y-15433140D01*
X9533883Y-15375997D01*
X9548168Y-15347426D01*
X9562454Y-15333140D01*
X9591026Y-15318854D01*
X9791026Y-15318854D02*
X9976740Y-15318854D01*
X9876740Y-15433140D01*
X9919597Y-15433140D01*
X9948168Y-15447426D01*
X9962454Y-15461711D01*
X9976740Y-15490283D01*
X9976740Y-15561711D01*
X9962454Y-15590283D01*
X9948168Y-15604569D01*
X9919597Y-15618854D01*
X9833883Y-15618854D01*
X9805311Y-15604569D01*
X9791026Y-15590283D01*
X10119597Y-15618854D02*
X10176740Y-15618854D01*
X10205311Y-15604569D01*
X10219597Y-15590283D01*
X10248168Y-15547426D01*
X10262454Y-15490283D01*
X10262454Y-15375997D01*
X10248168Y-15347426D01*
X10233883Y-15333140D01*
X10205311Y-15318854D01*
X10148168Y-15318854D01*
X10119597Y-15333140D01*
X10105311Y-15347426D01*
X10091026Y-15375997D01*
X10091026Y-15447426D01*
X10105311Y-15475997D01*
X10119597Y-15490283D01*
X10148168Y-15504569D01*
X10205311Y-15504569D01*
X10233883Y-15490283D01*
X10248168Y-15475997D01*
X10262454Y-15447426D01*
X10519597Y-15418854D02*
X10519597Y-15618854D01*
X10448168Y-15304569D02*
X10376740Y-15518854D01*
X10562454Y-15518854D01*
X10662454Y-15318854D02*
X10662454Y-15375997D01*
X10776740Y-15318854D02*
X10776740Y-15375997D01*
X11219597Y-15733140D02*
X11205311Y-15718854D01*
X11176740Y-15675997D01*
X11162454Y-15647426D01*
X11148168Y-15604569D01*
X11133883Y-15533140D01*
X11133883Y-15475997D01*
X11148168Y-15404569D01*
X11162454Y-15361711D01*
X11176740Y-15333140D01*
X11205311Y-15290283D01*
X11219597Y-15275997D01*
X11305311Y-15318854D02*
X11491026Y-15318854D01*
X11391026Y-15433140D01*
X11433883Y-15433140D01*
X11462454Y-15447426D01*
X11476740Y-15461711D01*
X11491026Y-15490283D01*
X11491026Y-15561711D01*
X11476740Y-15590283D01*
X11462454Y-15604569D01*
X11433883Y-15618854D01*
X11348168Y-15618854D01*
X11319597Y-15604569D01*
X11305311Y-15590283D01*
X11676740Y-15318854D02*
X11705311Y-15318854D01*
X11733883Y-15333140D01*
X11748168Y-15347426D01*
X11762454Y-15375997D01*
X11776740Y-15433140D01*
X11776740Y-15504569D01*
X11762454Y-15561711D01*
X11748168Y-15590283D01*
X11733883Y-15604569D01*
X11705311Y-15618854D01*
X11676740Y-15618854D01*
X11648168Y-15604569D01*
X11633883Y-15590283D01*
X11619597Y-15561711D01*
X11605311Y-15504569D01*
X11605311Y-15433140D01*
X11619597Y-15375997D01*
X11633883Y-15347426D01*
X11648168Y-15333140D01*
X11676740Y-15318854D01*
X12133883Y-15618854D02*
X12133883Y-15318854D01*
X12262454Y-15618854D02*
X12262454Y-15461711D01*
X12248168Y-15433140D01*
X12219597Y-15418854D01*
X12176740Y-15418854D01*
X12148168Y-15433140D01*
X12133883Y-15447426D01*
X12448168Y-15618854D02*
X12419597Y-15604569D01*
X12405311Y-15590283D01*
X12391026Y-15561711D01*
X12391026Y-15475997D01*
X12405311Y-15447426D01*
X12419597Y-15433140D01*
X12448168Y-15418854D01*
X12491026Y-15418854D01*
X12519597Y-15433140D01*
X12533883Y-15447426D01*
X12548168Y-15475997D01*
X12548168Y-15561711D01*
X12533883Y-15590283D01*
X12519597Y-15604569D01*
X12491026Y-15618854D01*
X12448168Y-15618854D01*
X12719597Y-15618854D02*
X12691026Y-15604569D01*
X12676740Y-15575997D01*
X12676740Y-15318854D01*
X12948168Y-15604569D02*
X12919597Y-15618854D01*
X12862454Y-15618854D01*
X12833883Y-15604569D01*
X12819597Y-15575997D01*
X12819597Y-15461711D01*
X12833883Y-15433140D01*
X12862454Y-15418854D01*
X12919597Y-15418854D01*
X12948168Y-15433140D01*
X12962454Y-15461711D01*
X12962454Y-15490283D01*
X12819597Y-15518854D01*
X13076740Y-15604569D02*
X13105311Y-15618854D01*
X13162454Y-15618854D01*
X13191026Y-15604569D01*
X13205311Y-15575997D01*
X13205311Y-15561711D01*
X13191026Y-15533140D01*
X13162454Y-15518854D01*
X13119597Y-15518854D01*
X13091026Y-15504569D01*
X13076740Y-15475997D01*
X13076740Y-15461711D01*
X13091026Y-15433140D01*
X13119597Y-15418854D01*
X13162454Y-15418854D01*
X13191026Y-15433140D01*
X13305311Y-15733140D02*
X13319597Y-15718854D01*
X13348168Y-15675997D01*
X13362454Y-15647426D01*
X13376740Y-15604569D01*
X13391026Y-15533140D01*
X13391026Y-15475997D01*
X13376740Y-15404569D01*
X13362454Y-15361711D01*
X13348168Y-15333140D01*
X13319597Y-15290283D01*
X13305311Y-15275997D01*
X5851740Y-15989140D02*
X5961740Y-15879140D01*
X5851740Y-15769140D01*
X5741740Y-15879140D01*
X5851740Y-15989140D01*
X6233883Y-15743426D02*
X6248168Y-15729140D01*
X6276740Y-15714854D01*
X6348168Y-15714854D01*
X6376740Y-15729140D01*
X6391026Y-15743426D01*
X6405311Y-15771997D01*
X6405311Y-15800569D01*
X6391026Y-15843426D01*
X6219597Y-16014854D01*
X6405311Y-16014854D01*
X6533883Y-15986283D02*
X6548168Y-16000569D01*
X6533883Y-16014854D01*
X6519597Y-16000569D01*
X6533883Y-15986283D01*
X6533883Y-16014854D01*
X6662454Y-15743426D02*
X6676740Y-15729140D01*
X6705311Y-15714854D01*
X6776740Y-15714854D01*
X6805311Y-15729140D01*
X6819597Y-15743426D01*
X6833883Y-15771997D01*
X6833883Y-15800569D01*
X6819597Y-15843426D01*
X6648168Y-16014854D01*
X6833883Y-16014854D01*
X7019597Y-15714854D02*
X7048168Y-15714854D01*
X7076740Y-15729140D01*
X7091026Y-15743426D01*
X7105311Y-15771997D01*
X7119597Y-15829140D01*
X7119597Y-15900569D01*
X7105311Y-15957711D01*
X7091026Y-15986283D01*
X7076740Y-16000569D01*
X7048168Y-16014854D01*
X7019597Y-16014854D01*
X6991026Y-16000569D01*
X6976740Y-15986283D01*
X6962454Y-15957711D01*
X6948168Y-15900569D01*
X6948168Y-15829140D01*
X6962454Y-15771997D01*
X6976740Y-15743426D01*
X6991026Y-15729140D01*
X7019597Y-15714854D01*
X7305311Y-15714854D02*
X7333883Y-15714854D01*
X7362454Y-15729140D01*
X7376740Y-15743426D01*
X7391026Y-15771997D01*
X7405311Y-15829140D01*
X7405311Y-15900569D01*
X7391026Y-15957711D01*
X7376740Y-15986283D01*
X7362454Y-16000569D01*
X7333883Y-16014854D01*
X7305311Y-16014854D01*
X7276740Y-16000569D01*
X7262454Y-15986283D01*
X7248168Y-15957711D01*
X7233883Y-15900569D01*
X7233883Y-15829140D01*
X7248168Y-15771997D01*
X7262454Y-15743426D01*
X7276740Y-15729140D01*
X7305311Y-15714854D01*
X7533883Y-16014854D02*
X7533883Y-15814854D01*
X7533883Y-15843426D02*
X7548168Y-15829140D01*
X7576740Y-15814854D01*
X7619597Y-15814854D01*
X7648168Y-15829140D01*
X7662454Y-15857711D01*
X7662454Y-16014854D01*
X7662454Y-15857711D02*
X7676740Y-15829140D01*
X7705311Y-15814854D01*
X7748168Y-15814854D01*
X7776740Y-15829140D01*
X7791026Y-15857711D01*
X7791026Y-16014854D01*
X7933883Y-16014854D02*
X7933883Y-15814854D01*
X7933883Y-15843426D02*
X7948168Y-15829140D01*
X7976740Y-15814854D01*
X8019597Y-15814854D01*
X8048168Y-15829140D01*
X8062454Y-15857711D01*
X8062454Y-16014854D01*
X8062454Y-15857711D02*
X8076740Y-15829140D01*
X8105311Y-15814854D01*
X8148168Y-15814854D01*
X8176740Y-15829140D01*
X8191026Y-15857711D01*
X8191026Y-16014854D01*
X8776740Y-15700569D02*
X8519597Y-16086283D01*
X9162454Y-15714854D02*
X9191026Y-15714854D01*
X9219597Y-15729140D01*
X9233883Y-15743426D01*
X9248168Y-15771997D01*
X9262454Y-15829140D01*
X9262454Y-15900569D01*
X9248168Y-15957711D01*
X9233883Y-15986283D01*
X9219597Y-16000569D01*
X9191026Y-16014854D01*
X9162454Y-16014854D01*
X9133883Y-16000569D01*
X9119597Y-15986283D01*
X9105311Y-15957711D01*
X9091026Y-15900569D01*
X9091026Y-15829140D01*
X9105311Y-15771997D01*
X9119597Y-15743426D01*
X9133883Y-15729140D01*
X9162454Y-15714854D01*
X9391026Y-15986283D02*
X9405311Y-16000569D01*
X9391026Y-16014854D01*
X9376740Y-16000569D01*
X9391026Y-15986283D01*
X9391026Y-16014854D01*
X9591026Y-15714854D02*
X9619597Y-15714854D01*
X9648168Y-15729140D01*
X9662454Y-15743426D01*
X9676740Y-15771997D01*
X9691026Y-15829140D01*
X9691026Y-15900569D01*
X9676740Y-15957711D01*
X9662454Y-15986283D01*
X9648168Y-16000569D01*
X9619597Y-16014854D01*
X9591026Y-16014854D01*
X9562454Y-16000569D01*
X9548168Y-15986283D01*
X9533883Y-15957711D01*
X9519597Y-15900569D01*
X9519597Y-15829140D01*
X9533883Y-15771997D01*
X9548168Y-15743426D01*
X9562454Y-15729140D01*
X9591026Y-15714854D01*
X9862454Y-15843426D02*
X9833883Y-15829140D01*
X9819597Y-15814854D01*
X9805311Y-15786283D01*
X9805311Y-15771997D01*
X9819597Y-15743426D01*
X9833883Y-15729140D01*
X9862454Y-15714854D01*
X9919597Y-15714854D01*
X9948168Y-15729140D01*
X9962454Y-15743426D01*
X9976740Y-15771997D01*
X9976740Y-15786283D01*
X9962454Y-15814854D01*
X9948168Y-15829140D01*
X9919597Y-15843426D01*
X9862454Y-15843426D01*
X9833883Y-15857711D01*
X9819597Y-15871997D01*
X9805311Y-15900569D01*
X9805311Y-15957711D01*
X9819597Y-15986283D01*
X9833883Y-16000569D01*
X9862454Y-16014854D01*
X9919597Y-16014854D01*
X9948168Y-16000569D01*
X9962454Y-15986283D01*
X9976740Y-15957711D01*
X9976740Y-15900569D01*
X9962454Y-15871997D01*
X9948168Y-15857711D01*
X9919597Y-15843426D01*
X10233883Y-15714854D02*
X10176740Y-15714854D01*
X10148168Y-15729140D01*
X10133883Y-15743426D01*
X10105311Y-15786283D01*
X10091026Y-15843426D01*
X10091026Y-15957711D01*
X10105311Y-15986283D01*
X10119597Y-16000569D01*
X10148168Y-16014854D01*
X10205311Y-16014854D01*
X10233883Y-16000569D01*
X10248168Y-15986283D01*
X10262454Y-15957711D01*
X10262454Y-15886283D01*
X10248168Y-15857711D01*
X10233883Y-15843426D01*
X10205311Y-15829140D01*
X10148168Y-15829140D01*
X10119597Y-15843426D01*
X10105311Y-15857711D01*
X10091026Y-15886283D01*
X10519597Y-15714854D02*
X10462454Y-15714854D01*
X10433883Y-15729140D01*
X10419597Y-15743426D01*
X10391026Y-15786283D01*
X10376740Y-15843426D01*
X10376740Y-15957711D01*
X10391026Y-15986283D01*
X10405311Y-16000569D01*
X10433883Y-16014854D01*
X10491026Y-16014854D01*
X10519597Y-16000569D01*
X10533883Y-15986283D01*
X10548168Y-15957711D01*
X10548168Y-15886283D01*
X10533883Y-15857711D01*
X10519597Y-15843426D01*
X10491026Y-15829140D01*
X10433883Y-15829140D01*
X10405311Y-15843426D01*
X10391026Y-15857711D01*
X10376740Y-15886283D01*
X10662454Y-15714854D02*
X10662454Y-15771997D01*
X10776740Y-15714854D02*
X10776740Y-15771997D01*
X11219597Y-16129140D02*
X11205311Y-16114854D01*
X11176740Y-16071997D01*
X11162454Y-16043426D01*
X11148168Y-16000569D01*
X11133883Y-15929140D01*
X11133883Y-15871997D01*
X11148168Y-15800569D01*
X11162454Y-15757711D01*
X11176740Y-15729140D01*
X11205311Y-15686283D01*
X11219597Y-15671997D01*
X11305311Y-15714854D02*
X11491026Y-15714854D01*
X11391026Y-15829140D01*
X11433883Y-15829140D01*
X11462454Y-15843426D01*
X11476740Y-15857711D01*
X11491026Y-15886283D01*
X11491026Y-15957711D01*
X11476740Y-15986283D01*
X11462454Y-16000569D01*
X11433883Y-16014854D01*
X11348168Y-16014854D01*
X11319597Y-16000569D01*
X11305311Y-15986283D01*
X11848168Y-16014854D02*
X11848168Y-15714854D01*
X11976740Y-16014854D02*
X11976740Y-15857711D01*
X11962454Y-15829140D01*
X11933883Y-15814854D01*
X11891026Y-15814854D01*
X11862454Y-15829140D01*
X11848168Y-15843426D01*
X12162454Y-16014854D02*
X12133883Y-16000569D01*
X12119597Y-15986283D01*
X12105311Y-15957711D01*
X12105311Y-15871997D01*
X12119597Y-15843426D01*
X12133883Y-15829140D01*
X12162454Y-15814854D01*
X12205311Y-15814854D01*
X12233883Y-15829140D01*
X12248168Y-15843426D01*
X12262454Y-15871997D01*
X12262454Y-15957711D01*
X12248168Y-15986283D01*
X12233883Y-16000569D01*
X12205311Y-16014854D01*
X12162454Y-16014854D01*
X12433883Y-16014854D02*
X12405311Y-16000569D01*
X12391026Y-15971997D01*
X12391026Y-15714854D01*
X12662454Y-16000569D02*
X12633883Y-16014854D01*
X12576740Y-16014854D01*
X12548168Y-16000569D01*
X12533883Y-15971997D01*
X12533883Y-15857711D01*
X12548168Y-15829140D01*
X12576740Y-15814854D01*
X12633883Y-15814854D01*
X12662454Y-15829140D01*
X12676740Y-15857711D01*
X12676740Y-15886283D01*
X12533883Y-15914854D01*
X12791026Y-16000569D02*
X12819597Y-16014854D01*
X12876740Y-16014854D01*
X12905311Y-16000569D01*
X12919597Y-15971997D01*
X12919597Y-15957711D01*
X12905311Y-15929140D01*
X12876740Y-15914854D01*
X12833883Y-15914854D01*
X12805311Y-15900569D01*
X12791026Y-15871997D01*
X12791026Y-15857711D01*
X12805311Y-15829140D01*
X12833883Y-15814854D01*
X12876740Y-15814854D01*
X12905311Y-15829140D01*
X13019597Y-16129140D02*
X13033883Y-16114854D01*
X13062454Y-16071997D01*
X13076740Y-16043426D01*
X13091026Y-16000569D01*
X13105311Y-15929140D01*
X13105311Y-15871997D01*
X13091026Y-15800569D01*
X13076740Y-15757711D01*
X13062454Y-15729140D01*
X13033883Y-15686283D01*
X13019597Y-15671997D01*
M02*
