G04 #@! TF.GenerationSoftware,KiCad,Pcbnew,(5.1.12)-1*
G04 #@! TF.CreationDate,2021-12-29T20:31:44-05:00*
G04 #@! TF.ProjectId,Nixie_Clock,4e697869-655f-4436-9c6f-636b2e6b6963,1.0*
G04 #@! TF.SameCoordinates,Original*
G04 #@! TF.FileFunction,Legend,Bot*
G04 #@! TF.FilePolarity,Positive*
%FSLAX46Y46*%
G04 Gerber Fmt 4.6, Leading zero omitted, Abs format (unit mm)*
G04 Created by KiCad (PCBNEW (5.1.12)-1) date 2021-12-29 20:31:44*
%MOMM*%
%LPD*%
G01*
G04 APERTURE LIST*
%ADD10C,0.100000*%
%ADD11C,0.120000*%
%ADD12C,0.150000*%
%ADD13O,1.200000X2.000000*%
%ADD14C,1.500000*%
%ADD15R,1.600000X1.600000*%
%ADD16O,1.600000X1.600000*%
%ADD17O,2.000000X1.200000*%
%ADD18C,1.600000*%
G04 APERTURE END LIST*
D10*
X-52217866Y28598000D02*
X-52217866Y28031333D01*
X-52184533Y27964666D01*
X-52151200Y27931333D01*
X-52084533Y27898000D01*
X-51984533Y27898000D01*
X-51917866Y27931333D01*
X-52217866Y28164666D02*
X-52151200Y28131333D01*
X-52017866Y28131333D01*
X-51951200Y28164666D01*
X-51917866Y28198000D01*
X-51884533Y28264666D01*
X-51884533Y28464666D01*
X-51917866Y28531333D01*
X-51951200Y28564666D01*
X-52017866Y28598000D01*
X-52151200Y28598000D01*
X-52217866Y28564666D01*
X-52551200Y28131333D02*
X-52551200Y28598000D01*
X-52551200Y28831333D02*
X-52517866Y28798000D01*
X-52551200Y28764666D01*
X-52584533Y28798000D01*
X-52551200Y28831333D01*
X-52551200Y28764666D01*
X-52784533Y28598000D02*
X-53051200Y28598000D01*
X-52884533Y28831333D02*
X-52884533Y28231333D01*
X-52917866Y28164666D01*
X-52984533Y28131333D01*
X-53051200Y28131333D01*
X-53284533Y28131333D02*
X-53284533Y28831333D01*
X-53584533Y28131333D02*
X-53584533Y28498000D01*
X-53551200Y28564666D01*
X-53484533Y28598000D01*
X-53384533Y28598000D01*
X-53317866Y28564666D01*
X-53284533Y28531333D01*
X-54217866Y28598000D02*
X-54217866Y28131333D01*
X-53917866Y28598000D02*
X-53917866Y28231333D01*
X-53951200Y28164666D01*
X-54017866Y28131333D01*
X-54117866Y28131333D01*
X-54184533Y28164666D01*
X-54217866Y28198000D01*
X-54551200Y28131333D02*
X-54551200Y28831333D01*
X-54551200Y28564666D02*
X-54617866Y28598000D01*
X-54751200Y28598000D01*
X-54817866Y28564666D01*
X-54851200Y28531333D01*
X-54884533Y28464666D01*
X-54884533Y28264666D01*
X-54851200Y28198000D01*
X-54817866Y28164666D01*
X-54751200Y28131333D01*
X-54617866Y28131333D01*
X-54551200Y28164666D01*
X-55184533Y28198000D02*
X-55217866Y28164666D01*
X-55184533Y28131333D01*
X-55151200Y28164666D01*
X-55184533Y28198000D01*
X-55184533Y28131333D01*
X-55817866Y28164666D02*
X-55751200Y28131333D01*
X-55617866Y28131333D01*
X-55551200Y28164666D01*
X-55517866Y28198000D01*
X-55484533Y28264666D01*
X-55484533Y28464666D01*
X-55517866Y28531333D01*
X-55551200Y28564666D01*
X-55617866Y28598000D01*
X-55751200Y28598000D01*
X-55817866Y28564666D01*
X-56217866Y28131333D02*
X-56151200Y28164666D01*
X-56117866Y28198000D01*
X-56084533Y28264666D01*
X-56084533Y28464666D01*
X-56117866Y28531333D01*
X-56151200Y28564666D01*
X-56217866Y28598000D01*
X-56317866Y28598000D01*
X-56384533Y28564666D01*
X-56417866Y28531333D01*
X-56451200Y28464666D01*
X-56451200Y28264666D01*
X-56417866Y28198000D01*
X-56384533Y28164666D01*
X-56317866Y28131333D01*
X-56217866Y28131333D01*
X-56751200Y28131333D02*
X-56751200Y28598000D01*
X-56751200Y28531333D02*
X-56784533Y28564666D01*
X-56851200Y28598000D01*
X-56951200Y28598000D01*
X-57017866Y28564666D01*
X-57051200Y28498000D01*
X-57051200Y28131333D01*
X-57051200Y28498000D02*
X-57084533Y28564666D01*
X-57151200Y28598000D01*
X-57251200Y28598000D01*
X-57317866Y28564666D01*
X-57351200Y28498000D01*
X-57351200Y28131333D01*
X-58184533Y28864666D02*
X-57584533Y27964666D01*
X-58417866Y28131333D02*
X-58417866Y28831333D01*
X-58717866Y28131333D02*
X-58717866Y28498000D01*
X-58684533Y28564666D01*
X-58617866Y28598000D01*
X-58517866Y28598000D01*
X-58451200Y28564666D01*
X-58417866Y28531333D01*
X-59351200Y28131333D02*
X-59351200Y28498000D01*
X-59317866Y28564666D01*
X-59251200Y28598000D01*
X-59117866Y28598000D01*
X-59051200Y28564666D01*
X-59351200Y28164666D02*
X-59284533Y28131333D01*
X-59117866Y28131333D01*
X-59051200Y28164666D01*
X-59017866Y28231333D01*
X-59017866Y28298000D01*
X-59051200Y28364666D01*
X-59117866Y28398000D01*
X-59284533Y28398000D01*
X-59351200Y28431333D01*
X-59617866Y28831333D02*
X-60084533Y28131333D01*
X-60084533Y28831333D02*
X-59617866Y28131333D01*
X-60451200Y28131333D02*
X-60384533Y28164666D01*
X-60351200Y28198000D01*
X-60317866Y28264666D01*
X-60317866Y28464666D01*
X-60351200Y28531333D01*
X-60384533Y28564666D01*
X-60451200Y28598000D01*
X-60551200Y28598000D01*
X-60617866Y28564666D01*
X-60651200Y28531333D01*
X-60684533Y28464666D01*
X-60684533Y28264666D01*
X-60651200Y28198000D01*
X-60617866Y28164666D01*
X-60551200Y28131333D01*
X-60451200Y28131333D01*
X-60984533Y28131333D02*
X-60984533Y28598000D01*
X-60984533Y28464666D02*
X-61017866Y28531333D01*
X-61051200Y28564666D01*
X-61117866Y28598000D01*
X-61184533Y28598000D01*
X-61717866Y28598000D02*
X-61717866Y28131333D01*
X-61417866Y28598000D02*
X-61417866Y28231333D01*
X-61451200Y28164666D01*
X-61517866Y28131333D01*
X-61617866Y28131333D01*
X-61684533Y28164666D01*
X-61717866Y28198000D01*
X-62384533Y28831333D02*
X-62051200Y28831333D01*
X-62017866Y28498000D01*
X-62051200Y28531333D01*
X-62117866Y28564666D01*
X-62284533Y28564666D01*
X-62351200Y28531333D01*
X-62384533Y28498000D01*
X-62417866Y28431333D01*
X-62417866Y28264666D01*
X-62384533Y28198000D01*
X-62351200Y28164666D01*
X-62284533Y28131333D01*
X-62117866Y28131333D01*
X-62051200Y28164666D01*
X-62017866Y28198000D01*
X-63217866Y28864666D02*
X-62617866Y27964666D01*
X-63451200Y28598000D02*
X-63451200Y28131333D01*
X-63451200Y28531333D02*
X-63484533Y28564666D01*
X-63551200Y28598000D01*
X-63651200Y28598000D01*
X-63717866Y28564666D01*
X-63751200Y28498000D01*
X-63751200Y28131333D01*
X-64084533Y28131333D02*
X-64084533Y28598000D01*
X-64084533Y28831333D02*
X-64051200Y28798000D01*
X-64084533Y28764666D01*
X-64117866Y28798000D01*
X-64084533Y28831333D01*
X-64084533Y28764666D01*
X-64351200Y28131333D02*
X-64717866Y28598000D01*
X-64351200Y28598000D02*
X-64717866Y28131333D01*
X-64984533Y28131333D02*
X-64984533Y28598000D01*
X-64984533Y28831333D02*
X-64951200Y28798000D01*
X-64984533Y28764666D01*
X-65017866Y28798000D01*
X-64984533Y28831333D01*
X-64984533Y28764666D01*
X-65584533Y28164666D02*
X-65517866Y28131333D01*
X-65384533Y28131333D01*
X-65317866Y28164666D01*
X-65284533Y28231333D01*
X-65284533Y28498000D01*
X-65317866Y28564666D01*
X-65384533Y28598000D01*
X-65517866Y28598000D01*
X-65584533Y28564666D01*
X-65617866Y28498000D01*
X-65617866Y28431333D01*
X-65284533Y28364666D01*
X-65751200Y28064666D02*
X-66284533Y28064666D01*
X-66751200Y28164666D02*
X-66684533Y28131333D01*
X-66551200Y28131333D01*
X-66484533Y28164666D01*
X-66451200Y28198000D01*
X-66417866Y28264666D01*
X-66417866Y28464666D01*
X-66451200Y28531333D01*
X-66484533Y28564666D01*
X-66551200Y28598000D01*
X-66684533Y28598000D01*
X-66751200Y28564666D01*
X-67151200Y28131333D02*
X-67084533Y28164666D01*
X-67051200Y28231333D01*
X-67051200Y28831333D01*
X-67517866Y28131333D02*
X-67451200Y28164666D01*
X-67417866Y28198000D01*
X-67384533Y28264666D01*
X-67384533Y28464666D01*
X-67417866Y28531333D01*
X-67451200Y28564666D01*
X-67517866Y28598000D01*
X-67617866Y28598000D01*
X-67684533Y28564666D01*
X-67717866Y28531333D01*
X-67751200Y28464666D01*
X-67751200Y28264666D01*
X-67717866Y28198000D01*
X-67684533Y28164666D01*
X-67617866Y28131333D01*
X-67517866Y28131333D01*
X-68351200Y28164666D02*
X-68284533Y28131333D01*
X-68151200Y28131333D01*
X-68084533Y28164666D01*
X-68051200Y28198000D01*
X-68017866Y28264666D01*
X-68017866Y28464666D01*
X-68051200Y28531333D01*
X-68084533Y28564666D01*
X-68151200Y28598000D01*
X-68284533Y28598000D01*
X-68351200Y28564666D01*
X-68651200Y28131333D02*
X-68651200Y28831333D01*
X-68717866Y28398000D02*
X-68917866Y28131333D01*
X-68917866Y28598000D02*
X-68651200Y28331333D01*
D11*
X29990000Y-25259999D02*
X10010000Y-25260000D01*
X10010000Y-25260000D02*
X10010000Y-14740001D01*
X10010000Y-14740001D02*
X29990000Y-14740000D01*
X29990000Y-14740000D02*
X29990000Y-18246667D01*
X29990000Y-18246667D02*
X29630000Y-18246667D01*
X29630000Y-18246667D02*
X29630000Y-21753333D01*
X29630000Y-21753333D02*
X29990000Y-21753333D01*
X29990000Y-21753333D02*
X29990000Y-25259999D01*
X59990000Y-25259999D02*
X40010000Y-25260000D01*
X40010000Y-25260000D02*
X40010000Y-14740001D01*
X40010000Y-14740001D02*
X59990000Y-14740000D01*
X59990000Y-14740000D02*
X59990000Y-18246667D01*
X59990000Y-18246667D02*
X59630000Y-18246667D01*
X59630000Y-18246667D02*
X59630000Y-21753333D01*
X59630000Y-21753333D02*
X59990000Y-21753333D01*
X59990000Y-21753333D02*
X59990000Y-25259999D01*
X17270000Y25730000D02*
X14730000Y25730000D01*
X14730000Y25730000D02*
X14730000Y28400000D01*
X17270000Y28400000D02*
X55500000Y28400000D01*
X12060000Y28400000D02*
X14730000Y28400000D01*
X14730000Y13030000D02*
X14730000Y10360000D01*
X14730000Y13030000D02*
X52830000Y13030000D01*
X52830000Y13030000D02*
X52830000Y10360000D01*
X17270000Y25730000D02*
X17270000Y28400000D01*
X17270000Y25730000D02*
X52830000Y25730000D01*
X52830000Y25730000D02*
X52830000Y28400000D01*
X55500000Y28400000D02*
X55500000Y10360000D01*
X55500000Y10360000D02*
X12060000Y10360000D01*
X12060000Y10360000D02*
X12060000Y28400000D01*
X-23500000Y27000000D02*
X-66500000Y27000000D01*
X-66500000Y27000000D02*
X-66500000Y3000000D01*
X-66500000Y3000000D02*
X-23500000Y3000000D01*
X-23500000Y3000000D02*
X-23500000Y27000000D01*
X-18960000Y20540000D02*
X-18630000Y20540000D01*
X-18630000Y20540000D02*
X-18630000Y27080000D01*
X-18630000Y27080000D02*
X-18960000Y27080000D01*
X-21040000Y20540000D02*
X-21370000Y20540000D01*
X-21370000Y20540000D02*
X-21370000Y27080000D01*
X-21370000Y27080000D02*
X-21040000Y27080000D01*
X-16370000Y27080000D02*
X-16040000Y27080000D01*
X-16370000Y20540000D02*
X-16370000Y27080000D01*
X-16040000Y20540000D02*
X-16370000Y20540000D01*
X-13630000Y27080000D02*
X-13960000Y27080000D01*
X-13630000Y20540000D02*
X-13630000Y27080000D01*
X-13960000Y20540000D02*
X-13630000Y20540000D01*
X-9040000Y11960000D02*
X-9370000Y11960000D01*
X-9370000Y11960000D02*
X-9370000Y5420000D01*
X-9370000Y5420000D02*
X-9040000Y5420000D01*
X-6960000Y11960000D02*
X-6630000Y11960000D01*
X-6630000Y11960000D02*
X-6630000Y5420000D01*
X-6630000Y5420000D02*
X-6960000Y5420000D01*
X-1040000Y11960000D02*
X-1370000Y11960000D01*
X-1370000Y11960000D02*
X-1370000Y5420000D01*
X-1370000Y5420000D02*
X-1040000Y5420000D01*
X1040000Y11960000D02*
X1370000Y11960000D01*
X1370000Y11960000D02*
X1370000Y5420000D01*
X1370000Y5420000D02*
X1040000Y5420000D01*
X9370000Y5420000D02*
X9040000Y5420000D01*
X9370000Y11960000D02*
X9370000Y5420000D01*
X9040000Y11960000D02*
X9370000Y11960000D01*
X6630000Y5420000D02*
X6960000Y5420000D01*
X6630000Y11960000D02*
X6630000Y5420000D01*
X6960000Y11960000D02*
X6630000Y11960000D01*
X2920000Y14630000D02*
X2920000Y14960000D01*
X9460000Y14630000D02*
X2920000Y14630000D01*
X9460000Y14960000D02*
X9460000Y14630000D01*
X2920000Y17370000D02*
X2920000Y17040000D01*
X9460000Y17370000D02*
X2920000Y17370000D01*
X9460000Y17040000D02*
X9460000Y17370000D01*
X-9460000Y14960000D02*
X-9460000Y14630000D01*
X-9460000Y14630000D02*
X-2920000Y14630000D01*
X-2920000Y14630000D02*
X-2920000Y14960000D01*
X-9460000Y17040000D02*
X-9460000Y17370000D01*
X-9460000Y17370000D02*
X-2920000Y17370000D01*
X-2920000Y17370000D02*
X-2920000Y17040000D01*
X5040000Y20540000D02*
X5370000Y20540000D01*
X5370000Y20540000D02*
X5370000Y27080000D01*
X5370000Y27080000D02*
X5040000Y27080000D01*
X2960000Y20540000D02*
X2630000Y20540000D01*
X2630000Y20540000D02*
X2630000Y27080000D01*
X2630000Y27080000D02*
X2960000Y27080000D01*
X7630000Y27080000D02*
X7960000Y27080000D01*
X7630000Y20540000D02*
X7630000Y27080000D01*
X7960000Y20540000D02*
X7630000Y20540000D01*
X10370000Y27080000D02*
X10040000Y27080000D01*
X10370000Y20540000D02*
X10370000Y27080000D01*
X10040000Y20540000D02*
X10370000Y20540000D01*
X-40010000Y-25259999D02*
X-59990000Y-25260000D01*
X-59990000Y-25260000D02*
X-59990000Y-14740001D01*
X-59990000Y-14740001D02*
X-40010000Y-14740000D01*
X-40010000Y-14740000D02*
X-40010000Y-18246667D01*
X-40010000Y-18246667D02*
X-40370000Y-18246667D01*
X-40370000Y-18246667D02*
X-40370000Y-21753333D01*
X-40370000Y-21753333D02*
X-40010000Y-21753333D01*
X-40010000Y-21753333D02*
X-40010000Y-25259999D01*
X-10010000Y-21753333D02*
X-10010000Y-25259999D01*
X-10370000Y-21753333D02*
X-10010000Y-21753333D01*
X-10370000Y-18246667D02*
X-10370000Y-21753333D01*
X-10010000Y-18246667D02*
X-10370000Y-18246667D01*
X-10010000Y-14740000D02*
X-10010000Y-18246667D01*
X-29990000Y-14740001D02*
X-10010000Y-14740000D01*
X-29990000Y-25260000D02*
X-29990000Y-14740001D01*
X-10010000Y-25259999D02*
X-29990000Y-25260000D01*
X1753333Y-5010000D02*
X5259999Y-5010000D01*
X1753333Y-5370000D02*
X1753333Y-5010000D01*
X-1753333Y-5370000D02*
X1753333Y-5370000D01*
X-1753333Y-5010000D02*
X-1753333Y-5370000D01*
X-5260000Y-5010000D02*
X-1753333Y-5010000D01*
X-5259999Y-24990000D02*
X-5260000Y-5010000D01*
X5260000Y-24990000D02*
X-5259999Y-24990000D01*
X5259999Y-5010000D02*
X5260000Y-24990000D01*
X33348800Y3937000D02*
X36348800Y3937000D01*
X36348800Y6307000D02*
X33348800Y6307000D01*
X36348800Y-8593000D02*
X36348800Y6307000D01*
X33348800Y-8593000D02*
X36348800Y-8593000D01*
X33348800Y6307000D02*
X33348800Y-8593000D01*
D12*
X31751904Y-19452380D02*
X31751904Y-20261904D01*
X31704285Y-20357142D01*
X31656666Y-20404761D01*
X31561428Y-20452380D01*
X31370952Y-20452380D01*
X31275714Y-20404761D01*
X31228095Y-20357142D01*
X31180476Y-20261904D01*
X31180476Y-19452380D01*
X30561428Y-19880952D02*
X30656666Y-19833333D01*
X30704285Y-19785714D01*
X30751904Y-19690476D01*
X30751904Y-19642857D01*
X30704285Y-19547619D01*
X30656666Y-19500000D01*
X30561428Y-19452380D01*
X30370952Y-19452380D01*
X30275714Y-19500000D01*
X30228095Y-19547619D01*
X30180476Y-19642857D01*
X30180476Y-19690476D01*
X30228095Y-19785714D01*
X30275714Y-19833333D01*
X30370952Y-19880952D01*
X30561428Y-19880952D01*
X30656666Y-19928571D01*
X30704285Y-19976190D01*
X30751904Y-20071428D01*
X30751904Y-20261904D01*
X30704285Y-20357142D01*
X30656666Y-20404761D01*
X30561428Y-20452380D01*
X30370952Y-20452380D01*
X30275714Y-20404761D01*
X30228095Y-20357142D01*
X30180476Y-20261904D01*
X30180476Y-20071428D01*
X30228095Y-19976190D01*
X30275714Y-19928571D01*
X30370952Y-19880952D01*
X62452095Y-19454880D02*
X62452095Y-20264404D01*
X62404476Y-20359642D01*
X62356857Y-20407261D01*
X62261619Y-20454880D01*
X62071142Y-20454880D01*
X61975904Y-20407261D01*
X61928285Y-20359642D01*
X61880666Y-20264404D01*
X61880666Y-19454880D01*
X60880666Y-20454880D02*
X61452095Y-20454880D01*
X61166380Y-20454880D02*
X61166380Y-19454880D01*
X61261619Y-19597738D01*
X61356857Y-19692976D01*
X61452095Y-19740595D01*
X60261619Y-19454880D02*
X60166380Y-19454880D01*
X60071142Y-19502500D01*
X60023523Y-19550119D01*
X59975904Y-19645357D01*
X59928285Y-19835833D01*
X59928285Y-20073928D01*
X59975904Y-20264404D01*
X60023523Y-20359642D01*
X60071142Y-20407261D01*
X60166380Y-20454880D01*
X60261619Y-20454880D01*
X60356857Y-20407261D01*
X60404476Y-20359642D01*
X60452095Y-20264404D01*
X60499714Y-20073928D01*
X60499714Y-19835833D01*
X60452095Y-19645357D01*
X60404476Y-19550119D01*
X60356857Y-19502500D01*
X60261619Y-19454880D01*
X57356285Y19213333D02*
X56880095Y19213333D01*
X57451523Y18927619D02*
X57118190Y19927619D01*
X56784857Y18927619D01*
X55927714Y18927619D02*
X56499142Y18927619D01*
X56213428Y18927619D02*
X56213428Y19927619D01*
X56308666Y19784761D01*
X56403904Y19689523D01*
X56499142Y19641904D01*
X-44238095Y28551119D02*
X-44238095Y27741595D01*
X-44285714Y27646357D01*
X-44333333Y27598738D01*
X-44428571Y27551119D01*
X-44619047Y27551119D01*
X-44714285Y27598738D01*
X-44761904Y27646357D01*
X-44809523Y27741595D01*
X-44809523Y28551119D01*
X-45190476Y28551119D02*
X-45857142Y28551119D01*
X-45428571Y27551119D01*
X-19833333Y17047619D02*
X-19500000Y17523809D01*
X-19261904Y17047619D02*
X-19261904Y18047619D01*
X-19642857Y18047619D01*
X-19738095Y18000000D01*
X-19785714Y17952380D01*
X-19833333Y17857142D01*
X-19833333Y17714285D01*
X-19785714Y17619047D01*
X-19738095Y17571428D01*
X-19642857Y17523809D01*
X-19261904Y17523809D01*
X-20785714Y17047619D02*
X-20214285Y17047619D01*
X-20500000Y17047619D02*
X-20500000Y18047619D01*
X-20404761Y17904761D01*
X-20309523Y17809523D01*
X-20214285Y17761904D01*
X-14833333Y17047619D02*
X-14500000Y17523809D01*
X-14261904Y17047619D02*
X-14261904Y18047619D01*
X-14642857Y18047619D01*
X-14738095Y18000000D01*
X-14785714Y17952380D01*
X-14833333Y17857142D01*
X-14833333Y17714285D01*
X-14785714Y17619047D01*
X-14738095Y17571428D01*
X-14642857Y17523809D01*
X-14261904Y17523809D01*
X-15214285Y17952380D02*
X-15261904Y18000000D01*
X-15357142Y18047619D01*
X-15595238Y18047619D01*
X-15690476Y18000000D01*
X-15738095Y17952380D01*
X-15785714Y17857142D01*
X-15785714Y17761904D01*
X-15738095Y17619047D01*
X-15166666Y17047619D01*
X-15785714Y17047619D01*
X-7833333Y2047619D02*
X-7500000Y2523809D01*
X-7261904Y2047619D02*
X-7261904Y3047619D01*
X-7642857Y3047619D01*
X-7738095Y3000000D01*
X-7785714Y2952380D01*
X-7833333Y2857142D01*
X-7833333Y2714285D01*
X-7785714Y2619047D01*
X-7738095Y2571428D01*
X-7642857Y2523809D01*
X-7261904Y2523809D01*
X-8166666Y3047619D02*
X-8785714Y3047619D01*
X-8452380Y2666666D01*
X-8595238Y2666666D01*
X-8690476Y2619047D01*
X-8738095Y2571428D01*
X-8785714Y2476190D01*
X-8785714Y2238095D01*
X-8738095Y2142857D01*
X-8690476Y2095238D01*
X-8595238Y2047619D01*
X-8309523Y2047619D01*
X-8214285Y2095238D01*
X-8166666Y2142857D01*
X166666Y2047619D02*
X500000Y2523809D01*
X738095Y2047619D02*
X738095Y3047619D01*
X357142Y3047619D01*
X261904Y3000000D01*
X214285Y2952380D01*
X166666Y2857142D01*
X166666Y2714285D01*
X214285Y2619047D01*
X261904Y2571428D01*
X357142Y2523809D01*
X738095Y2523809D01*
X-690476Y2714285D02*
X-690476Y2047619D01*
X-452380Y3095238D02*
X-214285Y2380952D01*
X-833333Y2380952D01*
X8166666Y2047619D02*
X8500000Y2523809D01*
X8738095Y2047619D02*
X8738095Y3047619D01*
X8357142Y3047619D01*
X8261904Y3000000D01*
X8214285Y2952380D01*
X8166666Y2857142D01*
X8166666Y2714285D01*
X8214285Y2619047D01*
X8261904Y2571428D01*
X8357142Y2523809D01*
X8738095Y2523809D01*
X7261904Y3047619D02*
X7738095Y3047619D01*
X7785714Y2571428D01*
X7738095Y2619047D01*
X7642857Y2666666D01*
X7404761Y2666666D01*
X7309523Y2619047D01*
X7261904Y2571428D01*
X7214285Y2476190D01*
X7214285Y2238095D01*
X7261904Y2142857D01*
X7309523Y2095238D01*
X7404761Y2047619D01*
X7642857Y2047619D01*
X7738095Y2095238D01*
X7785714Y2142857D01*
X6356666Y17917619D02*
X6690000Y18393809D01*
X6928095Y17917619D02*
X6928095Y18917619D01*
X6547142Y18917619D01*
X6451904Y18870000D01*
X6404285Y18822380D01*
X6356666Y18727142D01*
X6356666Y18584285D01*
X6404285Y18489047D01*
X6451904Y18441428D01*
X6547142Y18393809D01*
X6928095Y18393809D01*
X5499523Y18917619D02*
X5690000Y18917619D01*
X5785238Y18870000D01*
X5832857Y18822380D01*
X5928095Y18679523D01*
X5975714Y18489047D01*
X5975714Y18108095D01*
X5928095Y18012857D01*
X5880476Y17965238D01*
X5785238Y17917619D01*
X5594761Y17917619D01*
X5499523Y17965238D01*
X5451904Y18012857D01*
X5404285Y18108095D01*
X5404285Y18346190D01*
X5451904Y18441428D01*
X5499523Y18489047D01*
X5594761Y18536666D01*
X5785238Y18536666D01*
X5880476Y18489047D01*
X5928095Y18441428D01*
X5975714Y18346190D01*
X-6023333Y17917619D02*
X-5690000Y18393809D01*
X-5451904Y17917619D02*
X-5451904Y18917619D01*
X-5832857Y18917619D01*
X-5928095Y18870000D01*
X-5975714Y18822380D01*
X-6023333Y18727142D01*
X-6023333Y18584285D01*
X-5975714Y18489047D01*
X-5928095Y18441428D01*
X-5832857Y18393809D01*
X-5451904Y18393809D01*
X-6356666Y18917619D02*
X-7023333Y18917619D01*
X-6594761Y17917619D01*
X6822380Y23976666D02*
X6346190Y24310000D01*
X6822380Y24548095D02*
X5822380Y24548095D01*
X5822380Y24167142D01*
X5870000Y24071904D01*
X5917619Y24024285D01*
X6012857Y23976666D01*
X6155714Y23976666D01*
X6250952Y24024285D01*
X6298571Y24071904D01*
X6346190Y24167142D01*
X6346190Y24548095D01*
X6250952Y23405238D02*
X6203333Y23500476D01*
X6155714Y23548095D01*
X6060476Y23595714D01*
X6012857Y23595714D01*
X5917619Y23548095D01*
X5870000Y23500476D01*
X5822380Y23405238D01*
X5822380Y23214761D01*
X5870000Y23119523D01*
X5917619Y23071904D01*
X6012857Y23024285D01*
X6060476Y23024285D01*
X6155714Y23071904D01*
X6203333Y23119523D01*
X6250952Y23214761D01*
X6250952Y23405238D01*
X6298571Y23500476D01*
X6346190Y23548095D01*
X6441428Y23595714D01*
X6631904Y23595714D01*
X6727142Y23548095D01*
X6774761Y23500476D01*
X6822380Y23405238D01*
X6822380Y23214761D01*
X6774761Y23119523D01*
X6727142Y23071904D01*
X6631904Y23024285D01*
X6441428Y23024285D01*
X6346190Y23071904D01*
X6298571Y23119523D01*
X6250952Y23214761D01*
X11822380Y23976666D02*
X11346190Y24310000D01*
X11822380Y24548095D02*
X10822380Y24548095D01*
X10822380Y24167142D01*
X10870000Y24071904D01*
X10917619Y24024285D01*
X11012857Y23976666D01*
X11155714Y23976666D01*
X11250952Y24024285D01*
X11298571Y24071904D01*
X11346190Y24167142D01*
X11346190Y24548095D01*
X11822380Y23500476D02*
X11822380Y23310000D01*
X11774761Y23214761D01*
X11727142Y23167142D01*
X11584285Y23071904D01*
X11393809Y23024285D01*
X11012857Y23024285D01*
X10917619Y23071904D01*
X10870000Y23119523D01*
X10822380Y23214761D01*
X10822380Y23405238D01*
X10870000Y23500476D01*
X10917619Y23548095D01*
X11012857Y23595714D01*
X11250952Y23595714D01*
X11346190Y23548095D01*
X11393809Y23500476D01*
X11441428Y23405238D01*
X11441428Y23214761D01*
X11393809Y23119523D01*
X11346190Y23071904D01*
X11250952Y23024285D01*
X-38248095Y-19452380D02*
X-38248095Y-20261904D01*
X-38295714Y-20357142D01*
X-38343333Y-20404761D01*
X-38438571Y-20452380D01*
X-38629047Y-20452380D01*
X-38724285Y-20404761D01*
X-38771904Y-20357142D01*
X-38819523Y-20261904D01*
X-38819523Y-19452380D01*
X-39819523Y-20452380D02*
X-39248095Y-20452380D01*
X-39533809Y-20452380D02*
X-39533809Y-19452380D01*
X-39438571Y-19595238D01*
X-39343333Y-19690476D01*
X-39248095Y-19738095D01*
X-8248095Y-19452380D02*
X-8248095Y-20261904D01*
X-8295714Y-20357142D01*
X-8343333Y-20404761D01*
X-8438571Y-20452380D01*
X-8629047Y-20452380D01*
X-8724285Y-20404761D01*
X-8771904Y-20357142D01*
X-8819523Y-20261904D01*
X-8819523Y-19452380D01*
X-9200476Y-19452380D02*
X-9819523Y-19452380D01*
X-9486190Y-19833333D01*
X-9629047Y-19833333D01*
X-9724285Y-19880952D01*
X-9771904Y-19928571D01*
X-9819523Y-20023809D01*
X-9819523Y-20261904D01*
X-9771904Y-20357142D01*
X-9724285Y-20404761D01*
X-9629047Y-20452380D01*
X-9343333Y-20452380D01*
X-9248095Y-20404761D01*
X-9200476Y-20357142D01*
X761904Y-3462380D02*
X761904Y-4271904D01*
X714285Y-4367142D01*
X666666Y-4414761D01*
X571428Y-4462380D01*
X380952Y-4462380D01*
X285714Y-4414761D01*
X238095Y-4367142D01*
X190476Y-4271904D01*
X190476Y-3462380D01*
X-761904Y-3462380D02*
X-285714Y-3462380D01*
X-238095Y-3938571D01*
X-285714Y-3890952D01*
X-380952Y-3843333D01*
X-619047Y-3843333D01*
X-714285Y-3890952D01*
X-761904Y-3938571D01*
X-809523Y-4033809D01*
X-809523Y-4271904D01*
X-761904Y-4367142D01*
X-714285Y-4414761D01*
X-619047Y-4462380D01*
X-380952Y-4462380D01*
X-285714Y-4414761D01*
X-238095Y-4367142D01*
X36163095Y-8913880D02*
X36163095Y-9723404D01*
X36115476Y-9818642D01*
X36067857Y-9866261D01*
X35972619Y-9913880D01*
X35782142Y-9913880D01*
X35686904Y-9866261D01*
X35639285Y-9818642D01*
X35591666Y-9723404D01*
X35591666Y-8913880D01*
X34591666Y-9913880D02*
X35163095Y-9913880D01*
X34877380Y-9913880D02*
X34877380Y-8913880D01*
X34972619Y-9056738D01*
X35067857Y-9151976D01*
X35163095Y-9199595D01*
X34210714Y-9009119D02*
X34163095Y-8961500D01*
X34067857Y-8913880D01*
X33829761Y-8913880D01*
X33734523Y-8961500D01*
X33686904Y-9009119D01*
X33639285Y-9104357D01*
X33639285Y-9199595D01*
X33686904Y-9342452D01*
X34258333Y-9913880D01*
X33639285Y-9913880D01*
%LPC*%
D13*
X28890000Y-16240000D03*
X28890000Y-23760000D03*
X26350000Y-16240000D03*
X26350000Y-23760000D03*
X23810000Y-16240000D03*
X23810000Y-23760000D03*
X21270000Y-16240000D03*
X21270000Y-23760000D03*
X18730000Y-16240000D03*
X18730000Y-23760000D03*
X16190000Y-16240000D03*
X16190000Y-23760000D03*
X13650000Y-16240000D03*
X13650000Y-23760000D03*
X11110000Y-16240000D03*
X11110000Y-23760000D03*
D14*
X50000000Y5500000D03*
X52555977Y4870008D03*
X54526411Y3124356D03*
X55459899Y662952D03*
X55142589Y-1950327D03*
X53647175Y-4116809D03*
X51316236Y-5340180D03*
X48683764Y-5340180D03*
X46352825Y-4116809D03*
X44857411Y-1950327D03*
X44540101Y662952D03*
X45473887Y3124356D03*
X47444023Y4870008D03*
D13*
X58890000Y-16240000D03*
X58890000Y-23760000D03*
X56350000Y-16240000D03*
X56350000Y-23760000D03*
X53810000Y-16240000D03*
X53810000Y-23760000D03*
X51270000Y-16240000D03*
X51270000Y-23760000D03*
X48730000Y-16240000D03*
X48730000Y-23760000D03*
X46190000Y-16240000D03*
X46190000Y-23760000D03*
X43650000Y-16240000D03*
X43650000Y-23760000D03*
X41110000Y-16240000D03*
X41110000Y-23760000D03*
D15*
X16000000Y27000000D03*
D16*
X49020000Y11760000D03*
X18540000Y27000000D03*
X46480000Y11760000D03*
X21080000Y27000000D03*
X43940000Y11760000D03*
X23620000Y27000000D03*
X41400000Y11760000D03*
X26160000Y27000000D03*
X38860000Y11760000D03*
X28700000Y27000000D03*
X36320000Y11760000D03*
X31240000Y27000000D03*
X33780000Y11760000D03*
X33780000Y27000000D03*
X31240000Y11760000D03*
X36320000Y27000000D03*
X28700000Y11760000D03*
X38860000Y27000000D03*
X26160000Y11760000D03*
X41400000Y27000000D03*
X23620000Y11760000D03*
X43940000Y27000000D03*
X21080000Y11760000D03*
X46480000Y27000000D03*
X18540000Y11760000D03*
X49020000Y27000000D03*
X16000000Y11760000D03*
X51560000Y27000000D03*
X51560000Y11760000D03*
D17*
X-64500000Y12460000D03*
X-64500000Y15000000D03*
X-64500000Y17540000D03*
D13*
X-28040000Y24500000D03*
X-25500000Y24500000D03*
D14*
X-52555977Y4870008D03*
X-54526113Y3124356D03*
X-55459899Y662952D03*
X-55142589Y-1950327D03*
X-53647175Y-4116809D03*
X-51316236Y-5340180D03*
X-48683764Y-5340180D03*
X-46352825Y-4116809D03*
X-44857411Y-1950327D03*
X-44540101Y662952D03*
X-45473589Y3124356D03*
X-47444023Y4870008D03*
X-50000000Y5500000D03*
D18*
X-20000000Y20000000D03*
D16*
X-20000000Y27620000D03*
X-15000000Y27620000D03*
D18*
X-15000000Y20000000D03*
X-8000000Y12500000D03*
D16*
X-8000000Y4880000D03*
D18*
X0Y12500000D03*
D16*
X0Y4880000D03*
X8000000Y4880000D03*
D18*
X8000000Y12500000D03*
D16*
X2380000Y16000000D03*
D18*
X10000000Y16000000D03*
X-10000000Y16000000D03*
D16*
X-2380000Y16000000D03*
D18*
X4000000Y20000000D03*
D16*
X4000000Y27620000D03*
X9000000Y27620000D03*
D18*
X9000000Y20000000D03*
D13*
X-41110000Y-16240000D03*
X-41110000Y-23760000D03*
X-43650000Y-16240000D03*
X-43650000Y-23760000D03*
X-46190000Y-16240000D03*
X-46190000Y-23760000D03*
X-48730000Y-16240000D03*
X-48730000Y-23760000D03*
X-51270000Y-16240000D03*
X-51270000Y-23760000D03*
X-53810000Y-16240000D03*
X-53810000Y-23760000D03*
X-56350000Y-16240000D03*
X-56350000Y-23760000D03*
X-58890000Y-16240000D03*
X-58890000Y-23760000D03*
X-28890000Y-23760000D03*
X-28890000Y-16240000D03*
X-26350000Y-23760000D03*
X-26350000Y-16240000D03*
X-23810000Y-23760000D03*
X-23810000Y-16240000D03*
X-21270000Y-23760000D03*
X-21270000Y-16240000D03*
X-18730000Y-23760000D03*
X-18730000Y-16240000D03*
X-16190000Y-23760000D03*
X-16190000Y-16240000D03*
X-13650000Y-23760000D03*
X-13650000Y-16240000D03*
X-11110000Y-23760000D03*
X-11110000Y-16240000D03*
D14*
X-20000000Y5500000D03*
X-17444023Y4870008D03*
X-15473589Y3124356D03*
X-14540101Y662952D03*
X-14857411Y-1950327D03*
X-16352825Y-4116809D03*
X-18683764Y-5340180D03*
X-21316236Y-5340180D03*
X-23647175Y-4116809D03*
X-25142589Y-1950327D03*
X-25459899Y662952D03*
X-24526113Y3124356D03*
X-22555977Y4870008D03*
D17*
X3760000Y-23890000D03*
X-3760000Y-23890000D03*
X3760000Y-21350000D03*
X-3760000Y-21350000D03*
X3760000Y-18810000D03*
X-3760000Y-18810000D03*
X3760000Y-16270000D03*
X-3760000Y-16270000D03*
X3760000Y-13730000D03*
X-3760000Y-13730000D03*
X3760000Y-11190000D03*
X-3760000Y-11190000D03*
X3760000Y-8650000D03*
X-3760000Y-8650000D03*
X3760000Y-6110000D03*
X-3760000Y-6110000D03*
D14*
X-1270000Y0D03*
X1270000Y0D03*
X17444023Y4870008D03*
X15473887Y3124356D03*
X14540101Y662952D03*
X14857411Y-1950327D03*
X16352825Y-4116809D03*
X18683764Y-5340180D03*
X21316236Y-5340180D03*
X23647175Y-4116809D03*
X25142589Y-1950327D03*
X25459899Y662952D03*
X24526411Y3124356D03*
X22555977Y4870008D03*
X20000000Y5500000D03*
D17*
X34848800Y5207000D03*
X34848800Y2667000D03*
X34848800Y127000D03*
X34848800Y-2413000D03*
X34848800Y-4953000D03*
X34848800Y-7493000D03*
M02*
