%FSLAX45Y45*%
G04 Gerber Fmt 4.5, Leading zero omitted, Abs format (unit mm)*
G04 Created by KiCad (PCBNEW (5.1.12)-1) date 2021-12-30 12:39:19*
%MOMM*%
%LPD*%
G01*
G04 APERTURE LIST*
%TA.AperFunction,Profile*%
%ADD10C,0.150000*%
%TD*%
%ADD11C,0.200000*%
%ADD12C,0.300000*%
G04 APERTURE END LIST*
D10*
X19969240Y-7327640D02*
X19969240Y-13327640D01*
X19969240Y-7327640D02*
X5969240Y-7327640D01*
X5969240Y-13327640D02*
X5969240Y-7327640D01*
X19969240Y-13327640D02*
X5969240Y-13327640D01*
D11*
D12*
X6248168Y-13800854D02*
X6248168Y-13500854D01*
X6319597Y-13500854D01*
X6362454Y-13515140D01*
X6391026Y-13543711D01*
X6405311Y-13572283D01*
X6419597Y-13629426D01*
X6419597Y-13672283D01*
X6405311Y-13729426D01*
X6391026Y-13757997D01*
X6362454Y-13786569D01*
X6319597Y-13800854D01*
X6248168Y-13800854D01*
X6548168Y-13800854D02*
X6548168Y-13600854D01*
X6548168Y-13657997D02*
X6562454Y-13629426D01*
X6576740Y-13615140D01*
X6605311Y-13600854D01*
X6633883Y-13600854D01*
X6733883Y-13800854D02*
X6733883Y-13600854D01*
X6733883Y-13500854D02*
X6719597Y-13515140D01*
X6733883Y-13529426D01*
X6748168Y-13515140D01*
X6733883Y-13500854D01*
X6733883Y-13529426D01*
X6919597Y-13800854D02*
X6891026Y-13786569D01*
X6876740Y-13757997D01*
X6876740Y-13500854D01*
X7076740Y-13800854D02*
X7048168Y-13786569D01*
X7033883Y-13757997D01*
X7033883Y-13500854D01*
X7419597Y-13800854D02*
X7419597Y-13500854D01*
X7519597Y-13715140D01*
X7619597Y-13500854D01*
X7619597Y-13800854D01*
X7891026Y-13800854D02*
X7891026Y-13643711D01*
X7876740Y-13615140D01*
X7848168Y-13600854D01*
X7791026Y-13600854D01*
X7762454Y-13615140D01*
X7891026Y-13786569D02*
X7862454Y-13800854D01*
X7791026Y-13800854D01*
X7762454Y-13786569D01*
X7748168Y-13757997D01*
X7748168Y-13729426D01*
X7762454Y-13700854D01*
X7791026Y-13686569D01*
X7862454Y-13686569D01*
X7891026Y-13672283D01*
X8033883Y-13600854D02*
X8033883Y-13900854D01*
X8033883Y-13615140D02*
X8062454Y-13600854D01*
X8119597Y-13600854D01*
X8148168Y-13615140D01*
X8162454Y-13629426D01*
X8176740Y-13657997D01*
X8176740Y-13743711D01*
X8162454Y-13772283D01*
X8148168Y-13786569D01*
X8119597Y-13800854D01*
X8062454Y-13800854D01*
X8033883Y-13786569D01*
X8305311Y-13772283D02*
X8319597Y-13786569D01*
X8305311Y-13800854D01*
X8291026Y-13786569D01*
X8305311Y-13772283D01*
X8305311Y-13800854D01*
X8305311Y-13615140D02*
X8319597Y-13629426D01*
X8305311Y-13643711D01*
X8291026Y-13629426D01*
X8305311Y-13615140D01*
X8305311Y-13643711D01*
M02*
