G04 #@! TF.GenerationSoftware,KiCad,Pcbnew,(5.1.12)-1*
G04 #@! TF.CreationDate,2021-12-30T16:40:14-05:00*
G04 #@! TF.ProjectId,Nixie_Clock,4e697869-655f-4436-9c6f-636b2e6b6963,1.0*
G04 #@! TF.SameCoordinates,Original*
G04 #@! TF.FileFunction,Legend,Top*
G04 #@! TF.FilePolarity,Positive*
%FSLAX46Y46*%
G04 Gerber Fmt 4.6, Leading zero omitted, Abs format (unit mm)*
G04 Created by KiCad (PCBNEW (5.1.12)-1) date 2021-12-30 16:40:14*
%MOMM*%
%LPD*%
G01*
G04 APERTURE LIST*
%ADD10C,0.100000*%
%ADD11C,0.010000*%
%ADD12C,0.120000*%
%ADD13C,0.150000*%
%ADD14C,4.400000*%
%ADD15O,1.200000X2.000000*%
%ADD16C,1.500000*%
%ADD17R,1.600000X1.600000*%
%ADD18O,1.600000X1.600000*%
%ADD19O,2.000000X1.200000*%
%ADD20C,1.600000*%
G04 APERTURE END LIST*
D10*
X60632866Y-74824066D02*
X60632866Y-74124066D01*
X61032866Y-74824066D01*
X61032866Y-74124066D01*
X61366200Y-74824066D02*
X61366200Y-74357400D01*
X61366200Y-74124066D02*
X61332866Y-74157400D01*
X61366200Y-74190733D01*
X61399533Y-74157400D01*
X61366200Y-74124066D01*
X61366200Y-74190733D01*
X61632866Y-74824066D02*
X61999533Y-74357400D01*
X61632866Y-74357400D02*
X61999533Y-74824066D01*
X62266200Y-74824066D02*
X62266200Y-74357400D01*
X62266200Y-74124066D02*
X62232866Y-74157400D01*
X62266200Y-74190733D01*
X62299533Y-74157400D01*
X62266200Y-74124066D01*
X62266200Y-74190733D01*
X62866200Y-74790733D02*
X62799533Y-74824066D01*
X62666200Y-74824066D01*
X62599533Y-74790733D01*
X62566200Y-74724066D01*
X62566200Y-74457400D01*
X62599533Y-74390733D01*
X62666200Y-74357400D01*
X62799533Y-74357400D01*
X62866200Y-74390733D01*
X62899533Y-74457400D01*
X62899533Y-74524066D01*
X62566200Y-74590733D01*
X64132866Y-74757400D02*
X64099533Y-74790733D01*
X63999533Y-74824066D01*
X63932866Y-74824066D01*
X63832866Y-74790733D01*
X63766200Y-74724066D01*
X63732866Y-74657400D01*
X63699533Y-74524066D01*
X63699533Y-74424066D01*
X63732866Y-74290733D01*
X63766200Y-74224066D01*
X63832866Y-74157400D01*
X63932866Y-74124066D01*
X63999533Y-74124066D01*
X64099533Y-74157400D01*
X64132866Y-74190733D01*
X64532866Y-74824066D02*
X64466200Y-74790733D01*
X64432866Y-74724066D01*
X64432866Y-74124066D01*
X64899533Y-74824066D02*
X64832866Y-74790733D01*
X64799533Y-74757400D01*
X64766200Y-74690733D01*
X64766200Y-74490733D01*
X64799533Y-74424066D01*
X64832866Y-74390733D01*
X64899533Y-74357400D01*
X64999533Y-74357400D01*
X65066200Y-74390733D01*
X65099533Y-74424066D01*
X65132866Y-74490733D01*
X65132866Y-74690733D01*
X65099533Y-74757400D01*
X65066200Y-74790733D01*
X64999533Y-74824066D01*
X64899533Y-74824066D01*
X65732866Y-74790733D02*
X65666200Y-74824066D01*
X65532866Y-74824066D01*
X65466200Y-74790733D01*
X65432866Y-74757400D01*
X65399533Y-74690733D01*
X65399533Y-74490733D01*
X65432866Y-74424066D01*
X65466200Y-74390733D01*
X65532866Y-74357400D01*
X65666200Y-74357400D01*
X65732866Y-74390733D01*
X66032866Y-74824066D02*
X66032866Y-74124066D01*
X66099533Y-74557400D02*
X66299533Y-74824066D01*
X66299533Y-74357400D02*
X66032866Y-74624066D01*
X67032866Y-74124066D02*
X67266200Y-74824066D01*
X67499533Y-74124066D01*
X68099533Y-74824066D02*
X67699533Y-74824066D01*
X67899533Y-74824066D02*
X67899533Y-74124066D01*
X67832866Y-74224066D01*
X67766200Y-74290733D01*
X67699533Y-74324066D01*
X68399533Y-74757400D02*
X68432866Y-74790733D01*
X68399533Y-74824066D01*
X68366200Y-74790733D01*
X68399533Y-74757400D01*
X68399533Y-74824066D01*
X68866200Y-74124066D02*
X68932866Y-74124066D01*
X68999533Y-74157400D01*
X69032866Y-74190733D01*
X69066200Y-74257400D01*
X69099533Y-74390733D01*
X69099533Y-74557400D01*
X69066200Y-74690733D01*
X69032866Y-74757400D01*
X68999533Y-74790733D01*
X68932866Y-74824066D01*
X68866200Y-74824066D01*
X68799533Y-74790733D01*
X68766200Y-74757400D01*
X68732866Y-74690733D01*
X68699533Y-74557400D01*
X68699533Y-74390733D01*
X68732866Y-74257400D01*
X68766200Y-74190733D01*
X68799533Y-74157400D01*
X68866200Y-74124066D01*
X60632866Y-75974066D02*
X60632866Y-75274066D01*
X60866200Y-75774066D01*
X61099533Y-75274066D01*
X61099533Y-75974066D01*
X61432866Y-75974066D02*
X61432866Y-75507400D01*
X61432866Y-75274066D02*
X61399533Y-75307400D01*
X61432866Y-75340733D01*
X61466200Y-75307400D01*
X61432866Y-75274066D01*
X61432866Y-75340733D01*
X62066200Y-75940733D02*
X61999533Y-75974066D01*
X61866200Y-75974066D01*
X61799533Y-75940733D01*
X61766200Y-75907400D01*
X61732866Y-75840733D01*
X61732866Y-75640733D01*
X61766200Y-75574066D01*
X61799533Y-75540733D01*
X61866200Y-75507400D01*
X61999533Y-75507400D01*
X62066200Y-75540733D01*
X62366200Y-75974066D02*
X62366200Y-75274066D01*
X62666200Y-75974066D02*
X62666200Y-75607400D01*
X62632866Y-75540733D01*
X62566200Y-75507400D01*
X62466200Y-75507400D01*
X62399533Y-75540733D01*
X62366200Y-75574066D01*
X63299533Y-75974066D02*
X63299533Y-75607400D01*
X63266200Y-75540733D01*
X63199533Y-75507400D01*
X63066200Y-75507400D01*
X62999533Y-75540733D01*
X63299533Y-75940733D02*
X63232866Y-75974066D01*
X63066200Y-75974066D01*
X62999533Y-75940733D01*
X62966200Y-75874066D01*
X62966200Y-75807400D01*
X62999533Y-75740733D01*
X63066200Y-75707400D01*
X63232866Y-75707400D01*
X63299533Y-75674066D01*
X63899533Y-75940733D02*
X63832866Y-75974066D01*
X63699533Y-75974066D01*
X63632866Y-75940733D01*
X63599533Y-75874066D01*
X63599533Y-75607400D01*
X63632866Y-75540733D01*
X63699533Y-75507400D01*
X63832866Y-75507400D01*
X63899533Y-75540733D01*
X63932866Y-75607400D01*
X63932866Y-75674066D01*
X63599533Y-75740733D01*
X64332866Y-75974066D02*
X64266200Y-75940733D01*
X64232866Y-75874066D01*
X64232866Y-75274066D01*
X65066200Y-75274066D02*
X65532866Y-75274066D01*
X65066200Y-75974066D01*
X65532866Y-75974066D01*
X65799533Y-75974066D02*
X65799533Y-75274066D01*
X66099533Y-75974066D02*
X66099533Y-75607400D01*
X66066200Y-75540733D01*
X65999533Y-75507400D01*
X65899533Y-75507400D01*
X65832866Y-75540733D01*
X65799533Y-75574066D01*
X66699533Y-75940733D02*
X66632866Y-75974066D01*
X66499533Y-75974066D01*
X66432866Y-75940733D01*
X66399533Y-75874066D01*
X66399533Y-75607400D01*
X66432866Y-75540733D01*
X66499533Y-75507400D01*
X66632866Y-75507400D01*
X66699533Y-75540733D01*
X66732866Y-75607400D01*
X66732866Y-75674066D01*
X66399533Y-75740733D01*
X67032866Y-75507400D02*
X67032866Y-75974066D01*
X67032866Y-75574066D02*
X67066200Y-75540733D01*
X67132866Y-75507400D01*
X67232866Y-75507400D01*
X67299533Y-75540733D01*
X67332866Y-75607400D01*
X67332866Y-75974066D01*
X67966200Y-75507400D02*
X67966200Y-76074066D01*
X67932866Y-76140733D01*
X67899533Y-76174066D01*
X67832866Y-76207400D01*
X67732866Y-76207400D01*
X67666200Y-76174066D01*
X67966200Y-75940733D02*
X67899533Y-75974066D01*
X67766200Y-75974066D01*
X67699533Y-75940733D01*
X67666200Y-75907400D01*
X67632866Y-75840733D01*
X67632866Y-75640733D01*
X67666200Y-75574066D01*
X67699533Y-75540733D01*
X67766200Y-75507400D01*
X67899533Y-75507400D01*
X67966200Y-75540733D01*
D11*
G36*
X197534557Y-121854452D02*
G01*
X197756684Y-122136709D01*
X197911782Y-122451851D01*
X198009343Y-122834792D01*
X198058860Y-123320448D01*
X198070271Y-123825000D01*
X198053568Y-124419980D01*
X197997206Y-124883693D01*
X197891804Y-125251477D01*
X197727983Y-125558669D01*
X197550771Y-125782100D01*
X197244653Y-126120936D01*
X197047240Y-125635705D01*
X196918225Y-125348808D01*
X196788777Y-125108787D01*
X196709967Y-124995932D01*
X196626334Y-124881373D01*
X196618549Y-124761729D01*
X196685923Y-124569324D01*
X196705148Y-124523694D01*
X196786368Y-124315844D01*
X196854245Y-124114444D01*
X196899595Y-123954018D01*
X196913231Y-123869091D01*
X196885968Y-123894190D01*
X196857251Y-123952000D01*
X196784263Y-124121374D01*
X196676900Y-124383382D01*
X196589072Y-124603708D01*
X196313250Y-125107367D01*
X195989601Y-125489525D01*
X195580000Y-125892968D01*
X195170398Y-125489525D01*
X194912974Y-125174154D01*
X195854758Y-125174154D01*
X195866340Y-125179667D01*
X195943605Y-125120063D01*
X195961000Y-125095000D01*
X195982575Y-125015846D01*
X195970993Y-125010333D01*
X195893728Y-125069937D01*
X195876333Y-125095000D01*
X195854758Y-125174154D01*
X194912974Y-125174154D01*
X194799063Y-125034602D01*
X195170314Y-125034602D01*
X195190915Y-125081918D01*
X195276165Y-125172812D01*
X195325176Y-125154166D01*
X195326000Y-125142330D01*
X195265863Y-125070717D01*
X195228251Y-125044582D01*
X195170314Y-125034602D01*
X194799063Y-125034602D01*
X194789957Y-125023447D01*
X194570927Y-124603708D01*
X194455396Y-124314956D01*
X194353892Y-124069390D01*
X194321336Y-123994663D01*
X194653666Y-123994663D01*
X194676215Y-124040106D01*
X194722533Y-124100167D01*
X194873071Y-124234161D01*
X194994767Y-124206027D01*
X195037751Y-124150585D01*
X195046429Y-124101823D01*
X196101519Y-124101823D01*
X196122248Y-124150585D01*
X196236040Y-124242300D01*
X196373649Y-124172692D01*
X196437466Y-124100167D01*
X196510601Y-123999954D01*
X196467683Y-124020137D01*
X196409209Y-124065122D01*
X196251905Y-124130528D01*
X196163294Y-124115540D01*
X196101519Y-124101823D01*
X195046429Y-124101823D01*
X195048019Y-124092891D01*
X194996706Y-124115540D01*
X194856476Y-124119945D01*
X194750791Y-124065122D01*
X194653666Y-123994663D01*
X194321336Y-123994663D01*
X194302749Y-123952000D01*
X194278894Y-123909667D01*
X194818000Y-123909667D01*
X194882429Y-123991873D01*
X194902667Y-123994333D01*
X194976819Y-123936216D01*
X195326000Y-123936216D01*
X195367426Y-123949317D01*
X195453000Y-123862349D01*
X195554834Y-123748341D01*
X195630487Y-123769347D01*
X195707000Y-123862349D01*
X195800635Y-123954007D01*
X195834000Y-123936216D01*
X195821530Y-123909667D01*
X196172667Y-123909667D01*
X196237096Y-123991873D01*
X196257333Y-123994333D01*
X196339540Y-123929904D01*
X196342000Y-123909667D01*
X196277571Y-123827460D01*
X196257333Y-123825000D01*
X196175127Y-123889429D01*
X196172667Y-123909667D01*
X195821530Y-123909667D01*
X195775381Y-123811417D01*
X195707000Y-123740333D01*
X195571487Y-123677614D01*
X195453000Y-123740333D01*
X195346117Y-123870802D01*
X195326000Y-123936216D01*
X194976819Y-123936216D01*
X194984873Y-123929904D01*
X194987333Y-123909667D01*
X194922904Y-123827460D01*
X194902667Y-123825000D01*
X194820460Y-123889429D01*
X194818000Y-123909667D01*
X194278894Y-123909667D01*
X194253646Y-123864863D01*
X194249656Y-123903593D01*
X194281595Y-124033663D01*
X194340276Y-124220550D01*
X194416515Y-124429727D01*
X194454851Y-124523694D01*
X194535154Y-124735547D01*
X194540418Y-124862936D01*
X194469953Y-124973534D01*
X194450033Y-124995932D01*
X194342930Y-125156926D01*
X194210611Y-125413452D01*
X194112760Y-125635705D01*
X193915347Y-126120936D01*
X193609229Y-125782100D01*
X193392535Y-125497809D01*
X193241682Y-125180887D01*
X193147291Y-124795998D01*
X193099982Y-124307803D01*
X193089728Y-123825000D01*
X193092728Y-123719179D01*
X194564000Y-123719179D01*
X194571513Y-123870405D01*
X194613824Y-123868027D01*
X194681581Y-123781229D01*
X194740418Y-123651493D01*
X196411763Y-123651493D01*
X196455603Y-123756773D01*
X196534003Y-123859957D01*
X196573057Y-123818158D01*
X196581994Y-123780570D01*
X196577620Y-123583220D01*
X196556272Y-123504927D01*
X196498803Y-123413739D01*
X196430200Y-123480616D01*
X196429882Y-123481130D01*
X196411763Y-123651493D01*
X194740418Y-123651493D01*
X194758088Y-123612532D01*
X194757376Y-123511533D01*
X194686525Y-123433882D01*
X194613287Y-123490057D01*
X194567794Y-123647704D01*
X194564000Y-123719179D01*
X193092728Y-123719179D01*
X193106659Y-123227920D01*
X193123719Y-123088888D01*
X195156983Y-123088888D01*
X195194141Y-123091398D01*
X195286658Y-122975131D01*
X195325072Y-122914833D01*
X195454548Y-122736693D01*
X195562937Y-122643592D01*
X195580000Y-122639667D01*
X195676583Y-122705533D01*
X195805446Y-122868520D01*
X195834928Y-122914833D01*
X195939747Y-123064360D01*
X195998480Y-123104711D01*
X196003017Y-123088888D01*
X195950865Y-122963729D01*
X195821960Y-122785263D01*
X195791667Y-122750221D01*
X195580000Y-122512667D01*
X195368333Y-122750221D01*
X195229420Y-122931224D01*
X195159115Y-123071972D01*
X195156983Y-123088888D01*
X193123719Y-123088888D01*
X193163777Y-122762453D01*
X193270576Y-122393685D01*
X193436547Y-122086700D01*
X193625442Y-121854452D01*
X193945227Y-121511626D01*
X194041951Y-122260917D01*
X194106633Y-122693955D01*
X194170153Y-122965631D01*
X194236682Y-123083832D01*
X194310389Y-123056445D01*
X194386714Y-122912865D01*
X194492262Y-122743003D01*
X194686500Y-122500669D01*
X194934120Y-122228711D01*
X195033937Y-122127434D01*
X195580000Y-121586225D01*
X196126063Y-122127434D01*
X196384632Y-122399443D01*
X196603113Y-122657960D01*
X196746198Y-122860138D01*
X196773285Y-122912865D01*
X196857078Y-123065136D01*
X196929920Y-123078953D01*
X196995980Y-122946428D01*
X197059431Y-122659674D01*
X197118049Y-122260917D01*
X197214772Y-121511626D01*
X197534557Y-121854452D01*
G37*
X197534557Y-121854452D02*
X197756684Y-122136709D01*
X197911782Y-122451851D01*
X198009343Y-122834792D01*
X198058860Y-123320448D01*
X198070271Y-123825000D01*
X198053568Y-124419980D01*
X197997206Y-124883693D01*
X197891804Y-125251477D01*
X197727983Y-125558669D01*
X197550771Y-125782100D01*
X197244653Y-126120936D01*
X197047240Y-125635705D01*
X196918225Y-125348808D01*
X196788777Y-125108787D01*
X196709967Y-124995932D01*
X196626334Y-124881373D01*
X196618549Y-124761729D01*
X196685923Y-124569324D01*
X196705148Y-124523694D01*
X196786368Y-124315844D01*
X196854245Y-124114444D01*
X196899595Y-123954018D01*
X196913231Y-123869091D01*
X196885968Y-123894190D01*
X196857251Y-123952000D01*
X196784263Y-124121374D01*
X196676900Y-124383382D01*
X196589072Y-124603708D01*
X196313250Y-125107367D01*
X195989601Y-125489525D01*
X195580000Y-125892968D01*
X195170398Y-125489525D01*
X194912974Y-125174154D01*
X195854758Y-125174154D01*
X195866340Y-125179667D01*
X195943605Y-125120063D01*
X195961000Y-125095000D01*
X195982575Y-125015846D01*
X195970993Y-125010333D01*
X195893728Y-125069937D01*
X195876333Y-125095000D01*
X195854758Y-125174154D01*
X194912974Y-125174154D01*
X194799063Y-125034602D01*
X195170314Y-125034602D01*
X195190915Y-125081918D01*
X195276165Y-125172812D01*
X195325176Y-125154166D01*
X195326000Y-125142330D01*
X195265863Y-125070717D01*
X195228251Y-125044582D01*
X195170314Y-125034602D01*
X194799063Y-125034602D01*
X194789957Y-125023447D01*
X194570927Y-124603708D01*
X194455396Y-124314956D01*
X194353892Y-124069390D01*
X194321336Y-123994663D01*
X194653666Y-123994663D01*
X194676215Y-124040106D01*
X194722533Y-124100167D01*
X194873071Y-124234161D01*
X194994767Y-124206027D01*
X195037751Y-124150585D01*
X195046429Y-124101823D01*
X196101519Y-124101823D01*
X196122248Y-124150585D01*
X196236040Y-124242300D01*
X196373649Y-124172692D01*
X196437466Y-124100167D01*
X196510601Y-123999954D01*
X196467683Y-124020137D01*
X196409209Y-124065122D01*
X196251905Y-124130528D01*
X196163294Y-124115540D01*
X196101519Y-124101823D01*
X195046429Y-124101823D01*
X195048019Y-124092891D01*
X194996706Y-124115540D01*
X194856476Y-124119945D01*
X194750791Y-124065122D01*
X194653666Y-123994663D01*
X194321336Y-123994663D01*
X194302749Y-123952000D01*
X194278894Y-123909667D01*
X194818000Y-123909667D01*
X194882429Y-123991873D01*
X194902667Y-123994333D01*
X194976819Y-123936216D01*
X195326000Y-123936216D01*
X195367426Y-123949317D01*
X195453000Y-123862349D01*
X195554834Y-123748341D01*
X195630487Y-123769347D01*
X195707000Y-123862349D01*
X195800635Y-123954007D01*
X195834000Y-123936216D01*
X195821530Y-123909667D01*
X196172667Y-123909667D01*
X196237096Y-123991873D01*
X196257333Y-123994333D01*
X196339540Y-123929904D01*
X196342000Y-123909667D01*
X196277571Y-123827460D01*
X196257333Y-123825000D01*
X196175127Y-123889429D01*
X196172667Y-123909667D01*
X195821530Y-123909667D01*
X195775381Y-123811417D01*
X195707000Y-123740333D01*
X195571487Y-123677614D01*
X195453000Y-123740333D01*
X195346117Y-123870802D01*
X195326000Y-123936216D01*
X194976819Y-123936216D01*
X194984873Y-123929904D01*
X194987333Y-123909667D01*
X194922904Y-123827460D01*
X194902667Y-123825000D01*
X194820460Y-123889429D01*
X194818000Y-123909667D01*
X194278894Y-123909667D01*
X194253646Y-123864863D01*
X194249656Y-123903593D01*
X194281595Y-124033663D01*
X194340276Y-124220550D01*
X194416515Y-124429727D01*
X194454851Y-124523694D01*
X194535154Y-124735547D01*
X194540418Y-124862936D01*
X194469953Y-124973534D01*
X194450033Y-124995932D01*
X194342930Y-125156926D01*
X194210611Y-125413452D01*
X194112760Y-125635705D01*
X193915347Y-126120936D01*
X193609229Y-125782100D01*
X193392535Y-125497809D01*
X193241682Y-125180887D01*
X193147291Y-124795998D01*
X193099982Y-124307803D01*
X193089728Y-123825000D01*
X193092728Y-123719179D01*
X194564000Y-123719179D01*
X194571513Y-123870405D01*
X194613824Y-123868027D01*
X194681581Y-123781229D01*
X194740418Y-123651493D01*
X196411763Y-123651493D01*
X196455603Y-123756773D01*
X196534003Y-123859957D01*
X196573057Y-123818158D01*
X196581994Y-123780570D01*
X196577620Y-123583220D01*
X196556272Y-123504927D01*
X196498803Y-123413739D01*
X196430200Y-123480616D01*
X196429882Y-123481130D01*
X196411763Y-123651493D01*
X194740418Y-123651493D01*
X194758088Y-123612532D01*
X194757376Y-123511533D01*
X194686525Y-123433882D01*
X194613287Y-123490057D01*
X194567794Y-123647704D01*
X194564000Y-123719179D01*
X193092728Y-123719179D01*
X193106659Y-123227920D01*
X193123719Y-123088888D01*
X195156983Y-123088888D01*
X195194141Y-123091398D01*
X195286658Y-122975131D01*
X195325072Y-122914833D01*
X195454548Y-122736693D01*
X195562937Y-122643592D01*
X195580000Y-122639667D01*
X195676583Y-122705533D01*
X195805446Y-122868520D01*
X195834928Y-122914833D01*
X195939747Y-123064360D01*
X195998480Y-123104711D01*
X196003017Y-123088888D01*
X195950865Y-122963729D01*
X195821960Y-122785263D01*
X195791667Y-122750221D01*
X195580000Y-122512667D01*
X195368333Y-122750221D01*
X195229420Y-122931224D01*
X195159115Y-123071972D01*
X195156983Y-123088888D01*
X193123719Y-123088888D01*
X193163777Y-122762453D01*
X193270576Y-122393685D01*
X193436547Y-122086700D01*
X193625442Y-121854452D01*
X193945227Y-121511626D01*
X194041951Y-122260917D01*
X194106633Y-122693955D01*
X194170153Y-122965631D01*
X194236682Y-123083832D01*
X194310389Y-123056445D01*
X194386714Y-122912865D01*
X194492262Y-122743003D01*
X194686500Y-122500669D01*
X194934120Y-122228711D01*
X195033937Y-122127434D01*
X195580000Y-121586225D01*
X196126063Y-122127434D01*
X196384632Y-122399443D01*
X196603113Y-122657960D01*
X196746198Y-122860138D01*
X196773285Y-122912865D01*
X196857078Y-123065136D01*
X196929920Y-123078953D01*
X196995980Y-122946428D01*
X197059431Y-122659674D01*
X197118049Y-122260917D01*
X197214772Y-121511626D01*
X197534557Y-121854452D01*
D12*
X188942400Y-103276400D02*
G75*
G03*
X188942400Y-103276400I-9250000J0D01*
G01*
X185192400Y-103276400D02*
G75*
G03*
X185192400Y-103276400I-5500000J0D01*
G01*
X179692400Y-105816400D02*
X179692400Y-100736400D01*
X179692400Y-100736400D02*
X178422400Y-102006400D01*
X179692400Y-100736400D02*
X180962400Y-102006400D01*
X79692400Y-100736400D02*
X80962400Y-102006400D01*
X79692400Y-100736400D02*
X78422400Y-102006400D01*
X79692400Y-105816400D02*
X79692400Y-100736400D01*
X85192400Y-103276400D02*
G75*
G03*
X85192400Y-103276400I-5500000J0D01*
G01*
X88942400Y-103276400D02*
G75*
G03*
X88942400Y-103276400I-9250000J0D01*
G01*
X118942400Y-103276400D02*
G75*
G03*
X118942400Y-103276400I-9250000J0D01*
G01*
X115192400Y-103276400D02*
G75*
G03*
X115192400Y-103276400I-5500000J0D01*
G01*
X109692400Y-105816400D02*
X109692400Y-100736400D01*
X109692400Y-100736400D02*
X108422400Y-102006400D01*
X109692400Y-100736400D02*
X110962400Y-102006400D01*
X128192400Y-102006400D02*
X131192400Y-102006400D01*
X131192400Y-104546400D02*
X128192400Y-104546400D01*
X125247400Y-103276400D02*
X126517400Y-103276400D01*
X125882400Y-102641400D02*
X125882400Y-103911400D01*
X131192400Y-102006400D02*
G75*
G02*
X131192400Y-104546400I0J-1270000D01*
G01*
X128192400Y-104546400D02*
G75*
G02*
X128192400Y-102006400I0J1270000D01*
G01*
X149692400Y-100736400D02*
X150962400Y-102006400D01*
X149692400Y-100736400D02*
X148422400Y-102006400D01*
X149692400Y-105816400D02*
X149692400Y-100736400D01*
X155192400Y-103276400D02*
G75*
G03*
X155192400Y-103276400I-5500000J0D01*
G01*
X158942400Y-103276400D02*
G75*
G03*
X158942400Y-103276400I-9250000J0D01*
G01*
D13*
X178454304Y-112888780D02*
X178454304Y-113698304D01*
X178501923Y-113793542D01*
X178549542Y-113841161D01*
X178644780Y-113888780D01*
X178835257Y-113888780D01*
X178930495Y-113841161D01*
X178978114Y-113793542D01*
X179025733Y-113698304D01*
X179025733Y-112888780D01*
X180025733Y-113888780D02*
X179454304Y-113888780D01*
X179740019Y-113888780D02*
X179740019Y-112888780D01*
X179644780Y-113031638D01*
X179549542Y-113126876D01*
X179454304Y-113174495D01*
X180978114Y-113888780D02*
X180406685Y-113888780D01*
X180692400Y-113888780D02*
X180692400Y-112888780D01*
X180597161Y-113031638D01*
X180501923Y-113126876D01*
X180406685Y-113174495D01*
X78930495Y-112888780D02*
X78930495Y-113698304D01*
X78978114Y-113793542D01*
X79025733Y-113841161D01*
X79120971Y-113888780D01*
X79311447Y-113888780D01*
X79406685Y-113841161D01*
X79454304Y-113793542D01*
X79501923Y-113698304D01*
X79501923Y-112888780D01*
X79930495Y-112984019D02*
X79978114Y-112936400D01*
X80073352Y-112888780D01*
X80311447Y-112888780D01*
X80406685Y-112936400D01*
X80454304Y-112984019D01*
X80501923Y-113079257D01*
X80501923Y-113174495D01*
X80454304Y-113317352D01*
X79882876Y-113888780D01*
X80501923Y-113888780D01*
X108930495Y-112888780D02*
X108930495Y-113698304D01*
X108978114Y-113793542D01*
X109025733Y-113841161D01*
X109120971Y-113888780D01*
X109311447Y-113888780D01*
X109406685Y-113841161D01*
X109454304Y-113793542D01*
X109501923Y-113698304D01*
X109501923Y-112888780D01*
X110406685Y-113222114D02*
X110406685Y-113888780D01*
X110168590Y-112841161D02*
X109930495Y-113555447D01*
X110549542Y-113555447D01*
X128930495Y-105268780D02*
X128930495Y-106078304D01*
X128978114Y-106173542D01*
X129025733Y-106221161D01*
X129120971Y-106268780D01*
X129311447Y-106268780D01*
X129406685Y-106221161D01*
X129454304Y-106173542D01*
X129501923Y-106078304D01*
X129501923Y-105268780D01*
X130406685Y-105268780D02*
X130216209Y-105268780D01*
X130120971Y-105316400D01*
X130073352Y-105364019D01*
X129978114Y-105506876D01*
X129930495Y-105697352D01*
X129930495Y-106078304D01*
X129978114Y-106173542D01*
X130025733Y-106221161D01*
X130120971Y-106268780D01*
X130311447Y-106268780D01*
X130406685Y-106221161D01*
X130454304Y-106173542D01*
X130501923Y-106078304D01*
X130501923Y-105840209D01*
X130454304Y-105744971D01*
X130406685Y-105697352D01*
X130311447Y-105649733D01*
X130120971Y-105649733D01*
X130025733Y-105697352D01*
X129978114Y-105744971D01*
X129930495Y-105840209D01*
X148930495Y-112888780D02*
X148930495Y-113698304D01*
X148978114Y-113793542D01*
X149025733Y-113841161D01*
X149120971Y-113888780D01*
X149311447Y-113888780D01*
X149406685Y-113841161D01*
X149454304Y-113793542D01*
X149501923Y-113698304D01*
X149501923Y-112888780D01*
X150025733Y-113888780D02*
X150216209Y-113888780D01*
X150311447Y-113841161D01*
X150359066Y-113793542D01*
X150454304Y-113650685D01*
X150501923Y-113460209D01*
X150501923Y-113079257D01*
X150454304Y-112984019D01*
X150406685Y-112936400D01*
X150311447Y-112888780D01*
X150120971Y-112888780D01*
X150025733Y-112936400D01*
X149978114Y-112984019D01*
X149930495Y-113079257D01*
X149930495Y-113317352D01*
X149978114Y-113412590D01*
X150025733Y-113460209D01*
X150120971Y-113507828D01*
X150311447Y-113507828D01*
X150406685Y-113460209D01*
X150454304Y-113412590D01*
X150501923Y-113317352D01*
%LPC*%
D14*
X63692400Y-129276400D03*
X195692400Y-129276400D03*
X195692400Y-77276400D03*
D15*
X158582400Y-119516400D03*
X158582400Y-127036400D03*
X156042400Y-119516400D03*
X156042400Y-127036400D03*
X153502400Y-119516400D03*
X153502400Y-127036400D03*
X150962400Y-119516400D03*
X150962400Y-127036400D03*
X148422400Y-119516400D03*
X148422400Y-127036400D03*
X145882400Y-119516400D03*
X145882400Y-127036400D03*
X143342400Y-119516400D03*
X143342400Y-127036400D03*
X140802400Y-119516400D03*
X140802400Y-127036400D03*
D16*
X179692400Y-97776400D03*
X182248377Y-98406392D03*
X184218811Y-100152044D03*
X185152299Y-102613448D03*
X184834989Y-105226727D03*
X183339575Y-107393209D03*
X181008636Y-108616580D03*
X178376164Y-108616580D03*
X176045225Y-107393209D03*
X174549811Y-105226727D03*
X174232501Y-102613448D03*
X175166287Y-100152044D03*
X177136423Y-98406392D03*
D15*
X188582400Y-119516400D03*
X188582400Y-127036400D03*
X186042400Y-119516400D03*
X186042400Y-127036400D03*
X183502400Y-119516400D03*
X183502400Y-127036400D03*
X180962400Y-119516400D03*
X180962400Y-127036400D03*
X178422400Y-119516400D03*
X178422400Y-127036400D03*
X175882400Y-119516400D03*
X175882400Y-127036400D03*
X173342400Y-119516400D03*
X173342400Y-127036400D03*
X170802400Y-119516400D03*
X170802400Y-127036400D03*
D17*
X145692400Y-76276400D03*
D18*
X178712400Y-91516400D03*
X148232400Y-76276400D03*
X176172400Y-91516400D03*
X150772400Y-76276400D03*
X173632400Y-91516400D03*
X153312400Y-76276400D03*
X171092400Y-91516400D03*
X155852400Y-76276400D03*
X168552400Y-91516400D03*
X158392400Y-76276400D03*
X166012400Y-91516400D03*
X160932400Y-76276400D03*
X163472400Y-91516400D03*
X163472400Y-76276400D03*
X160932400Y-91516400D03*
X166012400Y-76276400D03*
X158392400Y-91516400D03*
X168552400Y-76276400D03*
X155852400Y-91516400D03*
X171092400Y-76276400D03*
X153312400Y-91516400D03*
X173632400Y-76276400D03*
X150772400Y-91516400D03*
X176172400Y-76276400D03*
X148232400Y-91516400D03*
X178712400Y-76276400D03*
X145692400Y-91516400D03*
X181252400Y-76276400D03*
X181252400Y-91516400D03*
D19*
X65192400Y-90816400D03*
X65192400Y-88276400D03*
X65192400Y-85736400D03*
D15*
X101652400Y-78776400D03*
X104192400Y-78776400D03*
D16*
X77136423Y-98406392D03*
X75166287Y-100152044D03*
X74232501Y-102613448D03*
X74549811Y-105226727D03*
X76045225Y-107393209D03*
X78376164Y-108616580D03*
X81008636Y-108616580D03*
X83339575Y-107393209D03*
X84834989Y-105226727D03*
X85152299Y-102613448D03*
X84218811Y-100152044D03*
X82248377Y-98406392D03*
X79692400Y-97776400D03*
D20*
X109692400Y-83276400D03*
D18*
X109692400Y-75656400D03*
X114692400Y-75656400D03*
D20*
X114692400Y-83276400D03*
X121692400Y-90776400D03*
D18*
X121692400Y-98396400D03*
D20*
X129692400Y-90776400D03*
D18*
X129692400Y-98396400D03*
X137692400Y-98396400D03*
D20*
X137692400Y-90776400D03*
D18*
X132072400Y-87276400D03*
D20*
X139692400Y-87276400D03*
X119692400Y-87276400D03*
D18*
X127312400Y-87276400D03*
D20*
X133692400Y-83276400D03*
D18*
X133692400Y-75656400D03*
X138692400Y-75656400D03*
D20*
X138692400Y-83276400D03*
D15*
X88582400Y-119516400D03*
X88582400Y-127036400D03*
X86042400Y-119516400D03*
X86042400Y-127036400D03*
X83502400Y-119516400D03*
X83502400Y-127036400D03*
X80962400Y-119516400D03*
X80962400Y-127036400D03*
X78422400Y-119516400D03*
X78422400Y-127036400D03*
X75882400Y-119516400D03*
X75882400Y-127036400D03*
X73342400Y-119516400D03*
X73342400Y-127036400D03*
X70802400Y-119516400D03*
X70802400Y-127036400D03*
X100802400Y-127036400D03*
X100802400Y-119516400D03*
X103342400Y-127036400D03*
X103342400Y-119516400D03*
X105882400Y-127036400D03*
X105882400Y-119516400D03*
X108422400Y-127036400D03*
X108422400Y-119516400D03*
X110962400Y-127036400D03*
X110962400Y-119516400D03*
X113502400Y-127036400D03*
X113502400Y-119516400D03*
X116042400Y-127036400D03*
X116042400Y-119516400D03*
X118582400Y-127036400D03*
X118582400Y-119516400D03*
D16*
X109692400Y-97776400D03*
X112248377Y-98406392D03*
X114218811Y-100152044D03*
X115152299Y-102613448D03*
X114834989Y-105226727D03*
X113339575Y-107393209D03*
X111008636Y-108616580D03*
X108376164Y-108616580D03*
X106045225Y-107393209D03*
X104549811Y-105226727D03*
X104232501Y-102613448D03*
X105166287Y-100152044D03*
X107136423Y-98406392D03*
D19*
X133452400Y-127166400D03*
X125932400Y-127166400D03*
X133452400Y-124626400D03*
X125932400Y-124626400D03*
X133452400Y-122086400D03*
X125932400Y-122086400D03*
X133452400Y-119546400D03*
X125932400Y-119546400D03*
X133452400Y-117006400D03*
X125932400Y-117006400D03*
X133452400Y-114466400D03*
X125932400Y-114466400D03*
X133452400Y-111926400D03*
X125932400Y-111926400D03*
X133452400Y-109386400D03*
X125932400Y-109386400D03*
D16*
X128422400Y-103276400D03*
X130962400Y-103276400D03*
X147136423Y-98406392D03*
X145166287Y-100152044D03*
X144232501Y-102613448D03*
X144549811Y-105226727D03*
X146045225Y-107393209D03*
X148376164Y-108616580D03*
X151008636Y-108616580D03*
X153339575Y-107393209D03*
X154834989Y-105226727D03*
X155152299Y-102613448D03*
X154218811Y-100152044D03*
X152248377Y-98406392D03*
X149692400Y-97776400D03*
D19*
X164541200Y-98069400D03*
X164541200Y-100609400D03*
X164541200Y-103149400D03*
X164541200Y-105689400D03*
X164541200Y-108229400D03*
X164541200Y-110769400D03*
M02*
