G04 #@! TF.GenerationSoftware,KiCad,Pcbnew,(5.1.12)-1*
G04 #@! TF.CreationDate,2021-12-29T20:31:43-05:00*
G04 #@! TF.ProjectId,Nixie_Clock,4e697869-655f-4436-9c6f-636b2e6b6963,1.0*
G04 #@! TF.SameCoordinates,Original*
G04 #@! TF.FileFunction,Copper,L1,Top*
G04 #@! TF.FilePolarity,Positive*
%FSLAX46Y46*%
G04 Gerber Fmt 4.6, Leading zero omitted, Abs format (unit mm)*
G04 Created by KiCad (PCBNEW (5.1.12)-1) date 2021-12-29 20:31:43*
%MOMM*%
%LPD*%
G01*
G04 APERTURE LIST*
G04 #@! TA.AperFunction,ComponentPad*
%ADD10O,1.200000X2.000000*%
G04 #@! TD*
G04 #@! TA.AperFunction,ComponentPad*
%ADD11C,1.500000*%
G04 #@! TD*
G04 #@! TA.AperFunction,ComponentPad*
%ADD12R,1.600000X1.600000*%
G04 #@! TD*
G04 #@! TA.AperFunction,ComponentPad*
%ADD13O,1.600000X1.600000*%
G04 #@! TD*
G04 #@! TA.AperFunction,ComponentPad*
%ADD14O,2.000000X1.200000*%
G04 #@! TD*
G04 #@! TA.AperFunction,ComponentPad*
%ADD15C,1.600000*%
G04 #@! TD*
G04 #@! TA.AperFunction,ViaPad*
%ADD16C,0.800000*%
G04 #@! TD*
G04 #@! TA.AperFunction,Conductor*
%ADD17C,0.250000*%
G04 #@! TD*
G04 #@! TA.AperFunction,Conductor*
%ADD18C,0.254000*%
G04 #@! TD*
G04 #@! TA.AperFunction,Conductor*
%ADD19C,0.100000*%
G04 #@! TD*
G04 APERTURE END LIST*
D10*
X28890000Y-16240000D03*
X28890000Y-23760000D03*
X26350000Y-16240000D03*
X26350000Y-23760000D03*
X23810000Y-16240000D03*
X23810000Y-23760000D03*
X21270000Y-16240000D03*
X21270000Y-23760000D03*
X18730000Y-16240000D03*
X18730000Y-23760000D03*
X16190000Y-16240000D03*
X16190000Y-23760000D03*
X13650000Y-16240000D03*
X13650000Y-23760000D03*
X11110000Y-16240000D03*
X11110000Y-23760000D03*
D11*
X50000000Y5500000D03*
X52555977Y4870008D03*
X54526411Y3124356D03*
X55459899Y662952D03*
X55142589Y-1950327D03*
X53647175Y-4116809D03*
X51316236Y-5340180D03*
X48683764Y-5340180D03*
X46352825Y-4116809D03*
X44857411Y-1950327D03*
X44540101Y662952D03*
X45473887Y3124356D03*
X47444023Y4870008D03*
D10*
X58890000Y-16240000D03*
X58890000Y-23760000D03*
X56350000Y-16240000D03*
X56350000Y-23760000D03*
X53810000Y-16240000D03*
X53810000Y-23760000D03*
X51270000Y-16240000D03*
X51270000Y-23760000D03*
X48730000Y-16240000D03*
X48730000Y-23760000D03*
X46190000Y-16240000D03*
X46190000Y-23760000D03*
X43650000Y-16240000D03*
X43650000Y-23760000D03*
X41110000Y-16240000D03*
X41110000Y-23760000D03*
D12*
X16000000Y27000000D03*
D13*
X49020000Y11760000D03*
X18540000Y27000000D03*
X46480000Y11760000D03*
X21080000Y27000000D03*
X43940000Y11760000D03*
X23620000Y27000000D03*
X41400000Y11760000D03*
X26160000Y27000000D03*
X38860000Y11760000D03*
X28700000Y27000000D03*
X36320000Y11760000D03*
X31240000Y27000000D03*
X33780000Y11760000D03*
X33780000Y27000000D03*
X31240000Y11760000D03*
X36320000Y27000000D03*
X28700000Y11760000D03*
X38860000Y27000000D03*
X26160000Y11760000D03*
X41400000Y27000000D03*
X23620000Y11760000D03*
X43940000Y27000000D03*
X21080000Y11760000D03*
X46480000Y27000000D03*
X18540000Y11760000D03*
X49020000Y27000000D03*
X16000000Y11760000D03*
X51560000Y27000000D03*
X51560000Y11760000D03*
D14*
X-64500000Y12460000D03*
X-64500000Y15000000D03*
X-64500000Y17540000D03*
D10*
X-28040000Y24500000D03*
X-25500000Y24500000D03*
D11*
X-52555977Y4870008D03*
X-54526113Y3124356D03*
X-55459899Y662952D03*
X-55142589Y-1950327D03*
X-53647175Y-4116809D03*
X-51316236Y-5340180D03*
X-48683764Y-5340180D03*
X-46352825Y-4116809D03*
X-44857411Y-1950327D03*
X-44540101Y662952D03*
X-45473589Y3124356D03*
X-47444023Y4870008D03*
X-50000000Y5500000D03*
D15*
X-20000000Y20000000D03*
D13*
X-20000000Y27620000D03*
X-15000000Y27620000D03*
D15*
X-15000000Y20000000D03*
X-8000000Y12500000D03*
D13*
X-8000000Y4880000D03*
D15*
X0Y12500000D03*
D13*
X0Y4880000D03*
X8000000Y4880000D03*
D15*
X8000000Y12500000D03*
D13*
X2380000Y16000000D03*
D15*
X10000000Y16000000D03*
X-10000000Y16000000D03*
D13*
X-2380000Y16000000D03*
D15*
X4000000Y20000000D03*
D13*
X4000000Y27620000D03*
X9000000Y27620000D03*
D15*
X9000000Y20000000D03*
D10*
X-41110000Y-16240000D03*
X-41110000Y-23760000D03*
X-43650000Y-16240000D03*
X-43650000Y-23760000D03*
X-46190000Y-16240000D03*
X-46190000Y-23760000D03*
X-48730000Y-16240000D03*
X-48730000Y-23760000D03*
X-51270000Y-16240000D03*
X-51270000Y-23760000D03*
X-53810000Y-16240000D03*
X-53810000Y-23760000D03*
X-56350000Y-16240000D03*
X-56350000Y-23760000D03*
X-58890000Y-16240000D03*
X-58890000Y-23760000D03*
X-28890000Y-23760000D03*
X-28890000Y-16240000D03*
X-26350000Y-23760000D03*
X-26350000Y-16240000D03*
X-23810000Y-23760000D03*
X-23810000Y-16240000D03*
X-21270000Y-23760000D03*
X-21270000Y-16240000D03*
X-18730000Y-23760000D03*
X-18730000Y-16240000D03*
X-16190000Y-23760000D03*
X-16190000Y-16240000D03*
X-13650000Y-23760000D03*
X-13650000Y-16240000D03*
X-11110000Y-23760000D03*
X-11110000Y-16240000D03*
D11*
X-20000000Y5500000D03*
X-17444023Y4870008D03*
X-15473589Y3124356D03*
X-14540101Y662952D03*
X-14857411Y-1950327D03*
X-16352825Y-4116809D03*
X-18683764Y-5340180D03*
X-21316236Y-5340180D03*
X-23647175Y-4116809D03*
X-25142589Y-1950327D03*
X-25459899Y662952D03*
X-24526113Y3124356D03*
X-22555977Y4870008D03*
D14*
X3760000Y-23890000D03*
X-3760000Y-23890000D03*
X3760000Y-21350000D03*
X-3760000Y-21350000D03*
X3760000Y-18810000D03*
X-3760000Y-18810000D03*
X3760000Y-16270000D03*
X-3760000Y-16270000D03*
X3760000Y-13730000D03*
X-3760000Y-13730000D03*
X3760000Y-11190000D03*
X-3760000Y-11190000D03*
X3760000Y-8650000D03*
X-3760000Y-8650000D03*
X3760000Y-6110000D03*
X-3760000Y-6110000D03*
D11*
X-1270000Y0D03*
X1270000Y0D03*
X17444023Y4870008D03*
X15473887Y3124356D03*
X14540101Y662952D03*
X14857411Y-1950327D03*
X16352825Y-4116809D03*
X18683764Y-5340180D03*
X21316236Y-5340180D03*
X23647175Y-4116809D03*
X25142589Y-1950327D03*
X25459899Y662952D03*
X24526411Y3124356D03*
X22555977Y4870008D03*
X20000000Y5500000D03*
D14*
X34848800Y5207000D03*
X34848800Y2667000D03*
X34848800Y127000D03*
X34848800Y-2413000D03*
X34848800Y-4953000D03*
X34848800Y-7493000D03*
D16*
X-4800600Y25369999D03*
X-3175000Y23495000D03*
X7848600Y-22555200D03*
X36296600Y-24460200D03*
X-29678199Y28945001D03*
X-9347200Y-9093200D03*
X689811Y21975011D03*
X11125200Y18338800D03*
X-56235600Y-28160040D03*
X-64500000Y-3394200D03*
X48844200Y-28160040D03*
D17*
X-46190000Y-23389744D02*
X-46190000Y-23760000D01*
X-38013948Y-15213692D02*
X-46190000Y-23389744D01*
X-32935739Y6145009D02*
X-38013948Y1066800D01*
X-21943976Y6145009D02*
X-32935739Y6145009D01*
X-21280976Y5482009D02*
X-21943976Y6145009D01*
X-21280976Y4893974D02*
X-21280976Y5482009D01*
X-38013948Y1066800D02*
X-38013948Y-15213692D01*
X-20612001Y4224999D02*
X-21280976Y4893974D01*
X-19387999Y4224999D02*
X-20612001Y4224999D01*
X-18724999Y4887999D02*
X-19387999Y4224999D01*
X-18724999Y6112001D02*
X-18724999Y4887999D01*
X-10162001Y14674999D02*
X-18724999Y6112001D01*
X-9363999Y14674999D02*
X-10162001Y14674999D01*
X-8674999Y15363999D02*
X-8674999Y23025749D01*
X-9363999Y14674999D02*
X-8674999Y15363999D01*
X15294999Y26294999D02*
X16000000Y27000000D01*
X-5405749Y26294999D02*
X15294999Y26294999D01*
X-8674999Y23025749D02*
X-5405749Y26294999D01*
X16909999Y25369999D02*
X-4800600Y25369999D01*
X18540000Y27000000D02*
X16909999Y25369999D01*
X34848800Y-7493000D02*
X32673780Y-5317980D01*
X32673780Y-5317980D02*
X32673780Y8443968D01*
X32673780Y8443968D02*
X31332759Y9784989D01*
X20515011Y9784989D02*
X18540000Y11760000D01*
X31332759Y9784989D02*
X20515011Y9784989D01*
X-1950011Y24719989D02*
X-3175000Y23495000D01*
X23879989Y24719989D02*
X-1950011Y24719989D01*
X26160000Y27000000D02*
X23879989Y24719989D01*
X34171770Y-26585030D02*
X36296600Y-24460200D01*
X10105522Y-26585030D02*
X34171770Y-26585030D01*
X7848600Y-24328108D02*
X10105522Y-26585030D01*
X7848600Y-22555200D02*
X7848600Y-24328108D01*
X26754999Y28945001D02*
X-29678199Y28945001D01*
X28700000Y27000000D02*
X26754999Y28945001D01*
X37023820Y11056180D02*
X36320000Y11760000D01*
X37023820Y-237980D02*
X37023820Y11056180D01*
X34848800Y-2413000D02*
X37023820Y-237980D01*
X-16190000Y-23360000D02*
X-16190000Y-23760000D01*
X-14414982Y-21584982D02*
X-16190000Y-23360000D01*
X-5643956Y-27235040D02*
X-11294014Y-21584982D01*
X58325216Y-27235040D02*
X-5643956Y-27235040D01*
X61315030Y-24245226D02*
X58325216Y-27235040D01*
X-11294014Y-21584982D02*
X-14414982Y-21584982D01*
X61315030Y20125224D02*
X61315030Y-24245226D01*
X52465243Y28975011D02*
X61315030Y20125224D01*
X33215011Y28975011D02*
X52465243Y28975011D01*
X31240000Y27000000D02*
X33215011Y28975011D01*
X36373810Y9166190D02*
X33780000Y11760000D01*
X36373810Y1652010D02*
X36373810Y9166190D01*
X34848800Y127000D02*
X36373810Y1652010D01*
X-9372600Y13281602D02*
X-9372600Y5537200D01*
X-9347200Y5511800D02*
X-9347200Y-9093200D01*
X29680012Y22900012D02*
X245810Y22900012D01*
X33780000Y27000000D02*
X29680012Y22900012D01*
X-9372600Y5537200D02*
X-9347200Y5511800D01*
X245810Y22900012D02*
X-9372600Y13281602D01*
X31295011Y21975011D02*
X689811Y21975011D01*
X36320000Y27000000D02*
X31295011Y21975011D01*
X689811Y21975011D02*
X689811Y21975011D01*
X-18181004Y-23760000D02*
X-18730000Y-23760000D01*
X-12186014Y-17765010D02*
X-18181004Y-23760000D01*
X-9984990Y-17105994D02*
X-10644006Y-17765010D01*
X-9984990Y-12883986D02*
X-9984990Y-17105994D01*
X-4336014Y-7235010D02*
X-9984990Y-12883986D01*
X-2154008Y-7235010D02*
X-4336014Y-7235010D01*
X16027672Y4399357D02*
X9480359Y4399357D01*
X16832022Y3595007D02*
X16027672Y4399357D01*
X19982009Y3595007D02*
X16832022Y3595007D01*
X21275001Y4887999D02*
X19982009Y3595007D01*
X21275001Y6112001D02*
X21275001Y4887999D01*
X17814601Y9572401D02*
X21275001Y6112001D01*
X11325001Y9572401D02*
X17814601Y9572401D01*
X-10644006Y-17765010D02*
X-12186014Y-17765010D01*
X11325001Y16636001D02*
X11325001Y9572401D01*
X9480359Y4399357D02*
X-2154008Y-7235010D01*
X10636001Y17325001D02*
X11325001Y16636001D01*
X9713997Y17325001D02*
X10636001Y17325001D01*
X7674999Y19363999D02*
X9713997Y17325001D01*
X7674999Y20636001D02*
X7674999Y19363999D01*
X8363999Y21325001D02*
X7674999Y20636001D01*
X33185001Y21325001D02*
X8363999Y21325001D01*
X38860000Y27000000D02*
X33185001Y21325001D01*
X33323790Y8713210D02*
X31602001Y10434999D01*
X33323790Y-3427990D02*
X33323790Y8713210D01*
X34848800Y-4953000D02*
X33323790Y-3427990D01*
X24945001Y10434999D02*
X23620000Y11760000D01*
X31602001Y10434999D02*
X24945001Y10434999D01*
X50345001Y28325001D02*
X49020000Y27000000D01*
X52196001Y28325001D02*
X50345001Y28325001D01*
X60665020Y19855982D02*
X52196001Y28325001D01*
X60665020Y-23975984D02*
X60665020Y19855982D01*
X58055974Y-26585030D02*
X60665020Y-23975984D01*
X40105522Y-26585030D02*
X58055974Y-26585030D01*
X35105472Y-21584980D02*
X40105522Y-26585030D01*
X23445020Y-21584980D02*
X35105472Y-21584980D01*
X21270000Y-23760000D02*
X23445020Y-21584980D01*
X16000000Y13464000D02*
X16000000Y11760000D01*
X11125200Y18338800D02*
X16000000Y13464000D01*
X53810000Y-23389744D02*
X53810000Y-23760000D01*
X60015010Y-17184734D02*
X53810000Y-23389744D01*
X60015010Y18544990D02*
X60015010Y-17184734D01*
X51560000Y27000000D02*
X60015010Y18544990D01*
X-20388996Y27620000D02*
X-20000000Y27620000D01*
X-30468996Y17540000D02*
X-20388996Y27620000D01*
X-64500000Y17540000D02*
X-30468996Y17540000D01*
X-20000000Y27620000D02*
X-15000000Y27620000D01*
X-10000000Y22620000D02*
X-10000000Y16000000D01*
X-15000000Y27620000D02*
X-10000000Y22620000D01*
X-5000000Y27620000D02*
X-10000000Y22620000D01*
X4000000Y27620000D02*
X-5000000Y27620000D01*
X4000000Y27620000D02*
X9000000Y27620000D01*
X-33750001Y6249999D02*
X-20000000Y20000000D01*
X-49250001Y6249999D02*
X-33750001Y6249999D01*
X-50000000Y5500000D02*
X-49250001Y6249999D01*
X-20000000Y15000000D02*
X-15000000Y20000000D01*
X-20000000Y5500000D02*
X-20000000Y15000000D01*
X-8000000Y12500000D02*
X0Y12500000D01*
X8000000Y14000000D02*
X10000000Y16000000D01*
X8000000Y12500000D02*
X8000000Y14000000D01*
X2380000Y16000000D02*
X-2380000Y16000000D01*
X-44775010Y-22894006D02*
X-44115994Y-22234990D01*
X-44775010Y-24625994D02*
X-44775010Y-22894006D01*
X-45434026Y-25285010D02*
X-44775010Y-24625994D01*
X-44115994Y-22234990D02*
X-42635010Y-22234990D01*
X-59355994Y-25285010D02*
X-45434026Y-25285010D01*
X-60015010Y-24625994D02*
X-59355994Y-25285010D01*
X-60015010Y-22894006D02*
X-60015010Y-24625994D01*
X-57764990Y-20643986D02*
X-60015010Y-22894006D01*
X-57764990Y-4572728D02*
X-57764990Y-20643986D01*
X-42635010Y-22234990D02*
X-41110000Y-23760000D01*
X-55142589Y-1950327D02*
X-57764990Y-4572728D01*
X-44575020Y-25935020D02*
X-43650000Y-25010000D01*
X-59625236Y-25935020D02*
X-44575020Y-25935020D01*
X-60665020Y-24895236D02*
X-59625236Y-25935020D01*
X-60665020Y-4542169D02*
X-60665020Y-24895236D01*
X-43650000Y-25010000D02*
X-43650000Y-23760000D01*
X-55459899Y662952D02*
X-60665020Y-4542169D01*
X-64500000Y-21979508D02*
X-64500000Y-3394200D01*
X-58319468Y-28160040D02*
X-64500000Y-21979508D01*
X-56235600Y-28160040D02*
X-58319468Y-28160040D01*
X48844200Y-28160040D02*
X-56235600Y-28160040D01*
X-11110000Y647769D02*
X-11110000Y-16240000D01*
X-14861588Y4399357D02*
X-11110000Y647769D01*
X-16085590Y4399357D02*
X-14861588Y4399357D01*
X-17360591Y3124356D02*
X-16085590Y4399357D01*
X-24526113Y3124356D02*
X-17360591Y3124356D01*
X-12635010Y-22234990D02*
X-11110000Y-23760000D01*
X-14775010Y-22894006D02*
X-14115994Y-22234990D01*
X-14775010Y-24336014D02*
X-14775010Y-22894006D01*
X-30015010Y-24625994D02*
X-29355994Y-25285010D01*
X-15724006Y-25285010D02*
X-14775010Y-24336014D01*
X-30015010Y-22894006D02*
X-30015010Y-24625994D01*
X-27475010Y-20354006D02*
X-30015010Y-22894006D01*
X-14115994Y-22234990D02*
X-12635010Y-22234990D01*
X-27475010Y-4282748D02*
X-27475010Y-20354006D01*
X-29355994Y-25285010D02*
X-15724006Y-25285010D01*
X-25142589Y-1950327D02*
X-27475010Y-4282748D01*
X-13582410Y-16172410D02*
X-13650000Y-16240000D01*
X-13582410Y-1338326D02*
X-13582410Y-16172410D01*
X-15213160Y-675326D02*
X-14245410Y-675326D01*
X-14245410Y-675326D02*
X-13582410Y-1338326D01*
X-16223588Y335102D02*
X-15213160Y-675326D01*
X-16223588Y2374357D02*
X-16223588Y335102D01*
X-15473589Y3124356D02*
X-16223588Y2374357D01*
X-13650000Y-25010000D02*
X-13650000Y-23760000D01*
X-14575020Y-25935020D02*
X-13650000Y-25010000D01*
X-29625236Y-25935020D02*
X-14575020Y-25935020D01*
X-30665020Y-24895236D02*
X-29625236Y-25935020D01*
X-30665020Y-4542169D02*
X-30665020Y-24895236D01*
X-25459899Y662952D02*
X-30665020Y-4542169D01*
X-18683764Y-13746236D02*
X-16190000Y-16240000D01*
X-18683764Y-5340180D02*
X-18683764Y-13746236D01*
X-19958765Y-15011235D02*
X-18730000Y-16240000D01*
X-19958765Y-4728179D02*
X-19958765Y-15011235D01*
X-18597396Y-3366810D02*
X-19958765Y-4728179D01*
X-17102824Y-3366810D02*
X-18597396Y-3366810D01*
X-16352825Y-4116809D02*
X-17102824Y-3366810D01*
X-21316236Y-13746236D02*
X-23810000Y-16240000D01*
X-21316236Y-5340180D02*
X-21316236Y-13746236D01*
X-23647175Y-13537175D02*
X-26350000Y-16240000D01*
X-23647175Y-4116809D02*
X-23647175Y-13537175D01*
X-28890000Y-3810736D02*
X-28890000Y-16240000D01*
X-25754590Y-675326D02*
X-28890000Y-3810736D01*
X-16132412Y-675326D02*
X-25754590Y-675326D01*
X-14857411Y-1950327D02*
X-16132412Y-675326D01*
X-27364990Y-22234990D02*
X-28890000Y-23760000D01*
X-17653986Y-22234990D02*
X-27364990Y-22234990D01*
X-12524990Y-17105994D02*
X-17653986Y-22234990D01*
X-12524990Y-1352159D02*
X-12524990Y-17105994D01*
X-14540101Y662952D02*
X-12524990Y-1352159D01*
X26350000Y-25010000D02*
X26350000Y-23760000D01*
X10374764Y-25935020D02*
X25424980Y-25935020D01*
X9334980Y-24895236D02*
X10374764Y-25935020D01*
X9334980Y-4542169D02*
X9334980Y-24895236D01*
X25424980Y-25935020D02*
X26350000Y-25010000D01*
X14540101Y662952D02*
X9334980Y-4542169D01*
X20041235Y-15011235D02*
X21270000Y-16240000D01*
X20041235Y-4728179D02*
X20041235Y-15011235D01*
X21402604Y-3366810D02*
X20041235Y-4728179D01*
X22897176Y-3366810D02*
X21402604Y-3366810D01*
X23647175Y-4116809D02*
X22897176Y-3366810D01*
X42635010Y-22234990D02*
X41110000Y-23760000D01*
X52346014Y-22234990D02*
X42635010Y-22234990D01*
X57475010Y-17105994D02*
X52346014Y-22234990D01*
X55459899Y662952D02*
X57475010Y-1352159D01*
X57475010Y-1352159D02*
X57475010Y-17105994D01*
X41110000Y-3810736D02*
X41110000Y-16240000D01*
X44245410Y-675326D02*
X41110000Y-3810736D01*
X53867588Y-675326D02*
X44245410Y-675326D01*
X55142589Y-1950327D02*
X53867588Y-675326D01*
X46352825Y-13537175D02*
X43650000Y-16240000D01*
X46352825Y-4116809D02*
X46352825Y-13537175D01*
X48683764Y-13746236D02*
X46190000Y-16240000D01*
X48683764Y-5340180D02*
X48683764Y-13746236D01*
X52897176Y-3366810D02*
X53647175Y-4116809D01*
X51402604Y-3366810D02*
X52897176Y-3366810D01*
X50041235Y-4728179D02*
X51402604Y-3366810D01*
X50041235Y-13390487D02*
X50041235Y-4728179D01*
X51270000Y-14619252D02*
X50041235Y-13390487D01*
X51270000Y-16240000D02*
X51270000Y-14619252D01*
X51316236Y-13746236D02*
X53810000Y-16240000D01*
X51316236Y-5340180D02*
X51316236Y-13746236D01*
X55424980Y-25935020D02*
X56350000Y-25010000D01*
X56350000Y-25010000D02*
X56350000Y-23760000D01*
X40374764Y-25935020D02*
X55424980Y-25935020D01*
X39334980Y-24895236D02*
X40374764Y-25935020D01*
X39334980Y-4542169D02*
X39334980Y-24895236D01*
X44540101Y662952D02*
X39334980Y-4542169D01*
X56417590Y-16172410D02*
X56350000Y-16240000D01*
X56417590Y-1338326D02*
X56417590Y-16172410D01*
X55754590Y-675326D02*
X56417590Y-1338326D01*
X54786840Y-675326D02*
X55754590Y-675326D01*
X53776412Y335102D02*
X54786840Y-675326D01*
X53776412Y2374357D02*
X53776412Y335102D01*
X54526411Y3124356D02*
X53776412Y2374357D01*
X55884006Y-22234990D02*
X57364990Y-22234990D01*
X55224990Y-22894006D02*
X55884006Y-22234990D01*
X55224990Y-24625994D02*
X55224990Y-22894006D01*
X54565974Y-25285010D02*
X55224990Y-24625994D01*
X40644006Y-25285010D02*
X54565974Y-25285010D01*
X39984990Y-24625994D02*
X40644006Y-25285010D01*
X39984990Y-22894006D02*
X39984990Y-24625994D01*
X42524990Y-20354006D02*
X39984990Y-22894006D01*
X42524990Y-4282748D02*
X42524990Y-20354006D01*
X57364990Y-22234990D02*
X58890000Y-23760000D01*
X44857411Y-1950327D02*
X42524990Y-4282748D01*
X58890000Y647769D02*
X58890000Y-16240000D01*
X55138412Y4399357D02*
X58890000Y647769D01*
X53914410Y4399357D02*
X55138412Y4399357D01*
X52639409Y3124356D02*
X53914410Y4399357D01*
X45473887Y3124356D02*
X52639409Y3124356D01*
X-6150000Y4880000D02*
X-1270000Y0D01*
X-8000000Y4880000D02*
X-6150000Y4880000D01*
X0Y4880000D02*
X8000000Y4880000D01*
X4000000Y14538998D02*
X4000000Y20000000D01*
X12288999Y6249999D02*
X4000000Y14538998D01*
X19250001Y6249999D02*
X12288999Y6249999D01*
X20000000Y5500000D02*
X19250001Y6249999D01*
X45281002Y20000000D02*
X9000000Y20000000D01*
X52885001Y12396001D02*
X45281002Y20000000D01*
X52885001Y8385001D02*
X52885001Y12396001D01*
X50000000Y5500000D02*
X52885001Y8385001D01*
X-41110000Y647769D02*
X-41110000Y-16240000D01*
X-44861588Y4399357D02*
X-41110000Y647769D01*
X-46085590Y4399357D02*
X-44861588Y4399357D01*
X-47360591Y3124356D02*
X-46085590Y4399357D01*
X-54526113Y3124356D02*
X-47360591Y3124356D01*
X-43582410Y-16172410D02*
X-43650000Y-16240000D01*
X-43582410Y-1338326D02*
X-43582410Y-16172410D01*
X-44245410Y-675326D02*
X-43582410Y-1338326D01*
X-45130830Y-675326D02*
X-44245410Y-675326D01*
X-45815102Y8946D02*
X-45130830Y-675326D01*
X-45815102Y2782843D02*
X-45815102Y8946D01*
X-45473589Y3124356D02*
X-45815102Y2782843D01*
X-48683764Y-13746236D02*
X-46190000Y-16240000D01*
X-48683764Y-5340180D02*
X-48683764Y-13746236D01*
X-49958765Y-15011235D02*
X-48730000Y-16240000D01*
X-49958765Y-4728179D02*
X-49958765Y-15011235D01*
X-48597396Y-3366810D02*
X-49958765Y-4728179D01*
X-47102824Y-3366810D02*
X-48597396Y-3366810D01*
X-46352825Y-4116809D02*
X-47102824Y-3366810D01*
X-51316236Y-13746236D02*
X-53810000Y-16240000D01*
X-51316236Y-5340180D02*
X-51316236Y-13746236D01*
X-53647175Y-13537175D02*
X-56350000Y-16240000D01*
X-53647175Y-4116809D02*
X-53647175Y-13537175D01*
X-58890000Y-3810736D02*
X-58890000Y-16240000D01*
X-55754590Y-675326D02*
X-58890000Y-3810736D01*
X-46132412Y-675326D02*
X-55754590Y-675326D01*
X-44857411Y-1950327D02*
X-46132412Y-675326D01*
X-57364990Y-22234990D02*
X-58890000Y-23760000D01*
X-47653986Y-22234990D02*
X-57364990Y-22234990D01*
X-42524990Y-17105994D02*
X-47653986Y-22234990D01*
X-42524990Y-1352159D02*
X-42524990Y-17105994D01*
X-44540101Y662952D02*
X-42524990Y-1352159D01*
X25138412Y4399357D02*
X28890000Y647769D01*
X28890000Y647769D02*
X28890000Y-16240000D01*
X23914410Y4399357D02*
X25138412Y4399357D01*
X21889410Y2374357D02*
X23914410Y4399357D01*
X16223886Y2374357D02*
X21889410Y2374357D01*
X15473887Y3124356D02*
X16223886Y2374357D01*
X27364990Y-22234990D02*
X28890000Y-23760000D01*
X25224990Y-22894006D02*
X25884006Y-22234990D01*
X25884006Y-22234990D02*
X27364990Y-22234990D01*
X25224990Y-24625994D02*
X25224990Y-22894006D01*
X24565974Y-25285010D02*
X25224990Y-24625994D01*
X9984990Y-24625994D02*
X10644006Y-25285010D01*
X9984990Y-22894006D02*
X9984990Y-24625994D01*
X10644006Y-25285010D02*
X24565974Y-25285010D01*
X12235010Y-20643986D02*
X9984990Y-22894006D01*
X12235010Y-4572728D02*
X12235010Y-20643986D01*
X14857411Y-1950327D02*
X12235010Y-4572728D01*
X26417590Y-16172410D02*
X26350000Y-16240000D01*
X26417590Y-1338326D02*
X26417590Y-16172410D01*
X25754590Y-675326D02*
X26417590Y-1338326D01*
X24786840Y-675326D02*
X25754590Y-675326D01*
X23776412Y335102D02*
X24786840Y-675326D01*
X23776412Y2374357D02*
X23776412Y335102D01*
X24526411Y3124356D02*
X23776412Y2374357D01*
X21316236Y-13746236D02*
X23810000Y-16240000D01*
X21316236Y-5340180D02*
X21316236Y-13746236D01*
X18683764Y-13746236D02*
X16190000Y-16240000D01*
X18683764Y-5340180D02*
X18683764Y-13746236D01*
X16352825Y-13537175D02*
X13650000Y-16240000D01*
X16352825Y-4116809D02*
X16352825Y-13537175D01*
X14245410Y-675326D02*
X11110000Y-3810736D01*
X23867588Y-675326D02*
X14245410Y-675326D01*
X11110000Y-3810736D02*
X11110000Y-16240000D01*
X25142589Y-1950327D02*
X23867588Y-675326D01*
X13935030Y-20934970D02*
X11110000Y-23760000D01*
X24912030Y-20934970D02*
X13935030Y-20934970D01*
X27475010Y-18371990D02*
X24912030Y-20934970D01*
X27475010Y-1352159D02*
X27475010Y-18371990D01*
X25459899Y662952D02*
X27475010Y-1352159D01*
D18*
X-30673425Y29246899D02*
X-30713199Y29046940D01*
X-30713199Y28843062D01*
X-30673425Y28643103D01*
X-30595404Y28454745D01*
X-30482136Y28285227D01*
X-30337973Y28141064D01*
X-30168455Y28027796D01*
X-29980097Y27949775D01*
X-29780138Y27910001D01*
X-29576260Y27910001D01*
X-29376301Y27949775D01*
X-29187943Y28027796D01*
X-29018425Y28141064D01*
X-28974488Y28185001D01*
X-21319201Y28185001D01*
X-21379853Y28038574D01*
X-21435000Y27761335D01*
X-21435000Y27648798D01*
X-24265000Y24818798D01*
X-24265000Y24960664D01*
X-24282870Y25142101D01*
X-24353489Y25374901D01*
X-24468167Y25589449D01*
X-24622498Y25777502D01*
X-24810551Y25931833D01*
X-25025099Y26046511D01*
X-25257898Y26117130D01*
X-25500000Y26140975D01*
X-25742101Y26117130D01*
X-25974900Y26046511D01*
X-26189448Y25931833D01*
X-26377501Y25777502D01*
X-26531832Y25589449D01*
X-26646511Y25374901D01*
X-26717130Y25142102D01*
X-26735000Y24960665D01*
X-26735000Y24039336D01*
X-26717130Y23857899D01*
X-26646511Y23625100D01*
X-26531833Y23410552D01*
X-26377502Y23222498D01*
X-26189449Y23068167D01*
X-26076176Y23007621D01*
X-30783797Y18300000D01*
X-63126067Y18300000D01*
X-63222498Y18417502D01*
X-63410551Y18571833D01*
X-63625099Y18686511D01*
X-63857898Y18757130D01*
X-64039335Y18775000D01*
X-64960665Y18775000D01*
X-65142102Y18757130D01*
X-65374901Y18686511D01*
X-65589449Y18571833D01*
X-65777502Y18417502D01*
X-65931833Y18229449D01*
X-66046511Y18014901D01*
X-66117130Y17782102D01*
X-66140975Y17540000D01*
X-66117130Y17297898D01*
X-66046511Y17065099D01*
X-65931833Y16850551D01*
X-65777502Y16662498D01*
X-65589449Y16508167D01*
X-65374901Y16393489D01*
X-65142102Y16322870D01*
X-64960665Y16305000D01*
X-64039335Y16305000D01*
X-63857898Y16322870D01*
X-63625099Y16393489D01*
X-63410551Y16508167D01*
X-63222498Y16662498D01*
X-63126067Y16780000D01*
X-30506318Y16780000D01*
X-30468996Y16776324D01*
X-30431674Y16780000D01*
X-30431663Y16780000D01*
X-30320010Y16790997D01*
X-30176749Y16834454D01*
X-30044720Y16905026D01*
X-29928995Y16999999D01*
X-29905192Y17029003D01*
X-20613363Y26320831D01*
X-20418574Y26240147D01*
X-20141335Y26185000D01*
X-19858665Y26185000D01*
X-19581426Y26240147D01*
X-19320273Y26348320D01*
X-19085241Y26505363D01*
X-18885363Y26705241D01*
X-18781957Y26860000D01*
X-16218043Y26860000D01*
X-16114637Y26705241D01*
X-15914759Y26505363D01*
X-15679727Y26348320D01*
X-15418574Y26240147D01*
X-15141335Y26185000D01*
X-14858665Y26185000D01*
X-14676113Y26221312D01*
X-10760000Y22305198D01*
X-10759999Y17218044D01*
X-10914759Y17114637D01*
X-11114637Y16914759D01*
X-11271680Y16679727D01*
X-11379853Y16418574D01*
X-11435000Y16141335D01*
X-11435000Y15858665D01*
X-11379853Y15581426D01*
X-11271680Y15320273D01*
X-11114637Y15085241D01*
X-10970599Y14941203D01*
X-19235996Y6675805D01*
X-19240000Y6672519D01*
X-19240000Y14685199D01*
X-15323886Y18601312D01*
X-15141335Y18565000D01*
X-14858665Y18565000D01*
X-14581426Y18620147D01*
X-14320273Y18728320D01*
X-14085241Y18885363D01*
X-13885363Y19085241D01*
X-13728320Y19320273D01*
X-13620147Y19581426D01*
X-13565000Y19858665D01*
X-13565000Y20141335D01*
X-13620147Y20418574D01*
X-13728320Y20679727D01*
X-13885363Y20914759D01*
X-14085241Y21114637D01*
X-14320273Y21271680D01*
X-14581426Y21379853D01*
X-14858665Y21435000D01*
X-15141335Y21435000D01*
X-15418574Y21379853D01*
X-15679727Y21271680D01*
X-15914759Y21114637D01*
X-16114637Y20914759D01*
X-16271680Y20679727D01*
X-16379853Y20418574D01*
X-16435000Y20141335D01*
X-16435000Y19858665D01*
X-16398688Y19676114D01*
X-20511002Y15563799D01*
X-20540000Y15540001D01*
X-20563798Y15511003D01*
X-20563799Y15511002D01*
X-20634974Y15424276D01*
X-20705546Y15292246D01*
X-20749002Y15148985D01*
X-20763676Y15000000D01*
X-20759999Y14962668D01*
X-20760000Y6657909D01*
X-20882886Y6575799D01*
X-21075799Y6382886D01*
X-21088317Y6364152D01*
X-21380173Y6656007D01*
X-21403975Y6685010D01*
X-21519700Y6779983D01*
X-21651729Y6850555D01*
X-21794990Y6894012D01*
X-21906643Y6905009D01*
X-21906654Y6905009D01*
X-21943976Y6908685D01*
X-21981298Y6905009D01*
X-32020190Y6905009D01*
X-20323886Y18601312D01*
X-20141335Y18565000D01*
X-19858665Y18565000D01*
X-19581426Y18620147D01*
X-19320273Y18728320D01*
X-19085241Y18885363D01*
X-18885363Y19085241D01*
X-18728320Y19320273D01*
X-18620147Y19581426D01*
X-18565000Y19858665D01*
X-18565000Y20141335D01*
X-18620147Y20418574D01*
X-18728320Y20679727D01*
X-18885363Y20914759D01*
X-19085241Y21114637D01*
X-19320273Y21271680D01*
X-19581426Y21379853D01*
X-19858665Y21435000D01*
X-20141335Y21435000D01*
X-20418574Y21379853D01*
X-20679727Y21271680D01*
X-20914759Y21114637D01*
X-21114637Y20914759D01*
X-21271680Y20679727D01*
X-21379853Y20418574D01*
X-21435000Y20141335D01*
X-21435000Y19858665D01*
X-21398688Y19676114D01*
X-34064802Y7009999D01*
X-49212676Y7009999D01*
X-49250001Y7013675D01*
X-49287326Y7009999D01*
X-49287334Y7009999D01*
X-49398987Y6999002D01*
X-49542248Y6955545D01*
X-49674277Y6884973D01*
X-49711184Y6854684D01*
X-49863589Y6885000D01*
X-50136411Y6885000D01*
X-50403989Y6831775D01*
X-50656043Y6727371D01*
X-50882886Y6575799D01*
X-51075799Y6382886D01*
X-51227371Y6156043D01*
X-51331775Y5903989D01*
X-51385000Y5636411D01*
X-51385000Y5610450D01*
X-51480178Y5752894D01*
X-51673091Y5945807D01*
X-51899934Y6097379D01*
X-52151988Y6201783D01*
X-52419566Y6255008D01*
X-52692388Y6255008D01*
X-52959966Y6201783D01*
X-53212020Y6097379D01*
X-53438863Y5945807D01*
X-53631776Y5752894D01*
X-53783348Y5526051D01*
X-53887752Y5273997D01*
X-53940977Y5006419D01*
X-53940977Y4733597D01*
X-53887752Y4466019D01*
X-53829061Y4324325D01*
X-53870070Y4351727D01*
X-54122124Y4456131D01*
X-54389702Y4509356D01*
X-54662524Y4509356D01*
X-54930102Y4456131D01*
X-55182156Y4351727D01*
X-55408999Y4200155D01*
X-55601912Y4007242D01*
X-55753484Y3780399D01*
X-55857888Y3528345D01*
X-55911113Y3260767D01*
X-55911113Y2987945D01*
X-55857888Y2720367D01*
X-55753484Y2468313D01*
X-55601912Y2241470D01*
X-55408999Y2048557D01*
X-55408094Y2047952D01*
X-55596310Y2047952D01*
X-55863888Y1994727D01*
X-56115942Y1890323D01*
X-56342785Y1738751D01*
X-56535698Y1545838D01*
X-56687270Y1318995D01*
X-56791674Y1066941D01*
X-56844899Y799363D01*
X-56844899Y526541D01*
X-56816066Y381587D01*
X-61176017Y-3978365D01*
X-61205021Y-4002168D01*
X-61260149Y-4069343D01*
X-61299994Y-4117893D01*
X-61353063Y-4217177D01*
X-61370566Y-4249923D01*
X-61414023Y-4393184D01*
X-61425020Y-4504837D01*
X-61425020Y-4504847D01*
X-61428696Y-4542169D01*
X-61425020Y-4579491D01*
X-61425019Y-23979688D01*
X-63740000Y-21664707D01*
X-63740000Y-4097911D01*
X-63696063Y-4053974D01*
X-63582795Y-3884456D01*
X-63504774Y-3696098D01*
X-63465000Y-3496139D01*
X-63465000Y-3292261D01*
X-63504774Y-3092302D01*
X-63582795Y-2903944D01*
X-63696063Y-2734426D01*
X-63840226Y-2590263D01*
X-64009744Y-2476995D01*
X-64198102Y-2398974D01*
X-64398061Y-2359200D01*
X-64601939Y-2359200D01*
X-64801898Y-2398974D01*
X-64990256Y-2476995D01*
X-65159774Y-2590263D01*
X-65303937Y-2734426D01*
X-65417205Y-2903944D01*
X-65495226Y-3092302D01*
X-65535000Y-3292261D01*
X-65535000Y-3496139D01*
X-65495226Y-3696098D01*
X-65417205Y-3884456D01*
X-65303937Y-4053974D01*
X-65259999Y-4097912D01*
X-65260000Y-21942186D01*
X-65263676Y-21979508D01*
X-65260000Y-22016830D01*
X-65260000Y-22016840D01*
X-65249003Y-22128493D01*
X-65211143Y-22253302D01*
X-65205546Y-22271754D01*
X-65134974Y-22403784D01*
X-65095129Y-22452334D01*
X-65040001Y-22519509D01*
X-65010997Y-22543312D01*
X-58883267Y-28671043D01*
X-58859469Y-28700041D01*
X-58743744Y-28795014D01*
X-58611715Y-28865586D01*
X-58468454Y-28909043D01*
X-58356801Y-28920040D01*
X-58356792Y-28920040D01*
X-58319469Y-28923716D01*
X-58282146Y-28920040D01*
X-56939311Y-28920040D01*
X-56895374Y-28963977D01*
X-56725856Y-29077245D01*
X-56537498Y-29155266D01*
X-56337539Y-29195040D01*
X-56133661Y-29195040D01*
X-55933702Y-29155266D01*
X-55745344Y-29077245D01*
X-55575826Y-28963977D01*
X-55531889Y-28920040D01*
X48140489Y-28920040D01*
X48184426Y-28963977D01*
X48353944Y-29077245D01*
X48542302Y-29155266D01*
X48742261Y-29195040D01*
X48946139Y-29195040D01*
X49146098Y-29155266D01*
X49334456Y-29077245D01*
X49503974Y-28963977D01*
X49648137Y-28819814D01*
X49761405Y-28650296D01*
X49839426Y-28461938D01*
X49879200Y-28261979D01*
X49879200Y-28058101D01*
X49866656Y-27995040D01*
X58287894Y-27995040D01*
X58325216Y-27998716D01*
X58362538Y-27995040D01*
X58362549Y-27995040D01*
X58474202Y-27984043D01*
X58617463Y-27940586D01*
X58749492Y-27870014D01*
X58865217Y-27775041D01*
X58889020Y-27746037D01*
X61826033Y-24809025D01*
X61855031Y-24785227D01*
X61950004Y-24669502D01*
X62020576Y-24537473D01*
X62064033Y-24394212D01*
X62075030Y-24282559D01*
X62078707Y-24245226D01*
X62075030Y-24207893D01*
X62075030Y20087901D01*
X62078706Y20125224D01*
X62075030Y20162547D01*
X62075030Y20162557D01*
X62064033Y20274210D01*
X62020576Y20417471D01*
X61950004Y20549500D01*
X61855031Y20665225D01*
X61826034Y20689022D01*
X53225055Y29290000D01*
X69290000Y29290000D01*
X69290001Y-29290000D01*
X-69290000Y-29290000D01*
X-69290000Y12460000D01*
X-66140975Y12460000D01*
X-66117130Y12217898D01*
X-66046511Y11985099D01*
X-65931833Y11770551D01*
X-65777502Y11582498D01*
X-65589449Y11428167D01*
X-65374901Y11313489D01*
X-65142102Y11242870D01*
X-64960665Y11225000D01*
X-64039335Y11225000D01*
X-63857898Y11242870D01*
X-63625099Y11313489D01*
X-63410551Y11428167D01*
X-63222498Y11582498D01*
X-63068167Y11770551D01*
X-62953489Y11985099D01*
X-62882870Y12217898D01*
X-62859025Y12460000D01*
X-62882870Y12702102D01*
X-62953489Y12934901D01*
X-63068167Y13149449D01*
X-63222498Y13337502D01*
X-63410551Y13491833D01*
X-63625099Y13606511D01*
X-63857898Y13677130D01*
X-64039335Y13695000D01*
X-64960665Y13695000D01*
X-65142102Y13677130D01*
X-65374901Y13606511D01*
X-65589449Y13491833D01*
X-65777502Y13337502D01*
X-65931833Y13149449D01*
X-66046511Y12934901D01*
X-66117130Y12702102D01*
X-66140975Y12460000D01*
X-69290000Y12460000D01*
X-69290000Y14682391D01*
X-66093462Y14682391D01*
X-66089591Y14644718D01*
X-65997421Y14419467D01*
X-65863078Y14216526D01*
X-65691725Y14043693D01*
X-65489946Y13907610D01*
X-65265496Y13813507D01*
X-65027000Y13765000D01*
X-64627000Y13765000D01*
X-64627000Y14873000D01*
X-64373000Y14873000D01*
X-64373000Y13765000D01*
X-63973000Y13765000D01*
X-63734504Y13813507D01*
X-63510054Y13907610D01*
X-63308275Y14043693D01*
X-63136922Y14216526D01*
X-63002579Y14419467D01*
X-62910409Y14644718D01*
X-62906538Y14682391D01*
X-63031269Y14873000D01*
X-64373000Y14873000D01*
X-64627000Y14873000D01*
X-65968731Y14873000D01*
X-66093462Y14682391D01*
X-69290000Y14682391D01*
X-69290000Y15317609D01*
X-66093462Y15317609D01*
X-65968731Y15127000D01*
X-64627000Y15127000D01*
X-64627000Y16235000D01*
X-64373000Y16235000D01*
X-64373000Y15127000D01*
X-63031269Y15127000D01*
X-62906538Y15317609D01*
X-62910409Y15355282D01*
X-63002579Y15580533D01*
X-63136922Y15783474D01*
X-63308275Y15956307D01*
X-63510054Y16092390D01*
X-63734504Y16186493D01*
X-63973000Y16235000D01*
X-64373000Y16235000D01*
X-64627000Y16235000D01*
X-65027000Y16235000D01*
X-65265496Y16186493D01*
X-65489946Y16092390D01*
X-65691725Y15956307D01*
X-65863078Y15783474D01*
X-65997421Y15580533D01*
X-66089591Y15355282D01*
X-66093462Y15317609D01*
X-69290000Y15317609D01*
X-69290000Y24960665D01*
X-29275000Y24960665D01*
X-29275000Y24039336D01*
X-29257130Y23857899D01*
X-29186511Y23625100D01*
X-29071833Y23410552D01*
X-28917502Y23222498D01*
X-28729449Y23068167D01*
X-28514901Y22953489D01*
X-28282102Y22882870D01*
X-28040000Y22859025D01*
X-27797899Y22882870D01*
X-27565100Y22953489D01*
X-27350552Y23068167D01*
X-27162498Y23222498D01*
X-27008167Y23410551D01*
X-26893489Y23625099D01*
X-26822870Y23857898D01*
X-26805000Y24039335D01*
X-26805000Y24960664D01*
X-26822870Y25142101D01*
X-26893489Y25374901D01*
X-27008167Y25589449D01*
X-27162498Y25777502D01*
X-27350551Y25931833D01*
X-27565099Y26046511D01*
X-27797898Y26117130D01*
X-28040000Y26140975D01*
X-28282101Y26117130D01*
X-28514900Y26046511D01*
X-28729448Y25931833D01*
X-28917501Y25777502D01*
X-29071832Y25589449D01*
X-29186511Y25374901D01*
X-29257130Y25142102D01*
X-29275000Y24960665D01*
X-69290000Y24960665D01*
X-69290000Y29290000D01*
X-30655572Y29290000D01*
X-30673425Y29246899D01*
G04 #@! TA.AperFunction,Conductor*
D19*
G36*
X-30673425Y29246899D02*
G01*
X-30713199Y29046940D01*
X-30713199Y28843062D01*
X-30673425Y28643103D01*
X-30595404Y28454745D01*
X-30482136Y28285227D01*
X-30337973Y28141064D01*
X-30168455Y28027796D01*
X-29980097Y27949775D01*
X-29780138Y27910001D01*
X-29576260Y27910001D01*
X-29376301Y27949775D01*
X-29187943Y28027796D01*
X-29018425Y28141064D01*
X-28974488Y28185001D01*
X-21319201Y28185001D01*
X-21379853Y28038574D01*
X-21435000Y27761335D01*
X-21435000Y27648798D01*
X-24265000Y24818798D01*
X-24265000Y24960664D01*
X-24282870Y25142101D01*
X-24353489Y25374901D01*
X-24468167Y25589449D01*
X-24622498Y25777502D01*
X-24810551Y25931833D01*
X-25025099Y26046511D01*
X-25257898Y26117130D01*
X-25500000Y26140975D01*
X-25742101Y26117130D01*
X-25974900Y26046511D01*
X-26189448Y25931833D01*
X-26377501Y25777502D01*
X-26531832Y25589449D01*
X-26646511Y25374901D01*
X-26717130Y25142102D01*
X-26735000Y24960665D01*
X-26735000Y24039336D01*
X-26717130Y23857899D01*
X-26646511Y23625100D01*
X-26531833Y23410552D01*
X-26377502Y23222498D01*
X-26189449Y23068167D01*
X-26076176Y23007621D01*
X-30783797Y18300000D01*
X-63126067Y18300000D01*
X-63222498Y18417502D01*
X-63410551Y18571833D01*
X-63625099Y18686511D01*
X-63857898Y18757130D01*
X-64039335Y18775000D01*
X-64960665Y18775000D01*
X-65142102Y18757130D01*
X-65374901Y18686511D01*
X-65589449Y18571833D01*
X-65777502Y18417502D01*
X-65931833Y18229449D01*
X-66046511Y18014901D01*
X-66117130Y17782102D01*
X-66140975Y17540000D01*
X-66117130Y17297898D01*
X-66046511Y17065099D01*
X-65931833Y16850551D01*
X-65777502Y16662498D01*
X-65589449Y16508167D01*
X-65374901Y16393489D01*
X-65142102Y16322870D01*
X-64960665Y16305000D01*
X-64039335Y16305000D01*
X-63857898Y16322870D01*
X-63625099Y16393489D01*
X-63410551Y16508167D01*
X-63222498Y16662498D01*
X-63126067Y16780000D01*
X-30506318Y16780000D01*
X-30468996Y16776324D01*
X-30431674Y16780000D01*
X-30431663Y16780000D01*
X-30320010Y16790997D01*
X-30176749Y16834454D01*
X-30044720Y16905026D01*
X-29928995Y16999999D01*
X-29905192Y17029003D01*
X-20613363Y26320831D01*
X-20418574Y26240147D01*
X-20141335Y26185000D01*
X-19858665Y26185000D01*
X-19581426Y26240147D01*
X-19320273Y26348320D01*
X-19085241Y26505363D01*
X-18885363Y26705241D01*
X-18781957Y26860000D01*
X-16218043Y26860000D01*
X-16114637Y26705241D01*
X-15914759Y26505363D01*
X-15679727Y26348320D01*
X-15418574Y26240147D01*
X-15141335Y26185000D01*
X-14858665Y26185000D01*
X-14676113Y26221312D01*
X-10760000Y22305198D01*
X-10759999Y17218044D01*
X-10914759Y17114637D01*
X-11114637Y16914759D01*
X-11271680Y16679727D01*
X-11379853Y16418574D01*
X-11435000Y16141335D01*
X-11435000Y15858665D01*
X-11379853Y15581426D01*
X-11271680Y15320273D01*
X-11114637Y15085241D01*
X-10970599Y14941203D01*
X-19235996Y6675805D01*
X-19240000Y6672519D01*
X-19240000Y14685199D01*
X-15323886Y18601312D01*
X-15141335Y18565000D01*
X-14858665Y18565000D01*
X-14581426Y18620147D01*
X-14320273Y18728320D01*
X-14085241Y18885363D01*
X-13885363Y19085241D01*
X-13728320Y19320273D01*
X-13620147Y19581426D01*
X-13565000Y19858665D01*
X-13565000Y20141335D01*
X-13620147Y20418574D01*
X-13728320Y20679727D01*
X-13885363Y20914759D01*
X-14085241Y21114637D01*
X-14320273Y21271680D01*
X-14581426Y21379853D01*
X-14858665Y21435000D01*
X-15141335Y21435000D01*
X-15418574Y21379853D01*
X-15679727Y21271680D01*
X-15914759Y21114637D01*
X-16114637Y20914759D01*
X-16271680Y20679727D01*
X-16379853Y20418574D01*
X-16435000Y20141335D01*
X-16435000Y19858665D01*
X-16398688Y19676114D01*
X-20511002Y15563799D01*
X-20540000Y15540001D01*
X-20563798Y15511003D01*
X-20563799Y15511002D01*
X-20634974Y15424276D01*
X-20705546Y15292246D01*
X-20749002Y15148985D01*
X-20763676Y15000000D01*
X-20759999Y14962668D01*
X-20760000Y6657909D01*
X-20882886Y6575799D01*
X-21075799Y6382886D01*
X-21088317Y6364152D01*
X-21380173Y6656007D01*
X-21403975Y6685010D01*
X-21519700Y6779983D01*
X-21651729Y6850555D01*
X-21794990Y6894012D01*
X-21906643Y6905009D01*
X-21906654Y6905009D01*
X-21943976Y6908685D01*
X-21981298Y6905009D01*
X-32020190Y6905009D01*
X-20323886Y18601312D01*
X-20141335Y18565000D01*
X-19858665Y18565000D01*
X-19581426Y18620147D01*
X-19320273Y18728320D01*
X-19085241Y18885363D01*
X-18885363Y19085241D01*
X-18728320Y19320273D01*
X-18620147Y19581426D01*
X-18565000Y19858665D01*
X-18565000Y20141335D01*
X-18620147Y20418574D01*
X-18728320Y20679727D01*
X-18885363Y20914759D01*
X-19085241Y21114637D01*
X-19320273Y21271680D01*
X-19581426Y21379853D01*
X-19858665Y21435000D01*
X-20141335Y21435000D01*
X-20418574Y21379853D01*
X-20679727Y21271680D01*
X-20914759Y21114637D01*
X-21114637Y20914759D01*
X-21271680Y20679727D01*
X-21379853Y20418574D01*
X-21435000Y20141335D01*
X-21435000Y19858665D01*
X-21398688Y19676114D01*
X-34064802Y7009999D01*
X-49212676Y7009999D01*
X-49250001Y7013675D01*
X-49287326Y7009999D01*
X-49287334Y7009999D01*
X-49398987Y6999002D01*
X-49542248Y6955545D01*
X-49674277Y6884973D01*
X-49711184Y6854684D01*
X-49863589Y6885000D01*
X-50136411Y6885000D01*
X-50403989Y6831775D01*
X-50656043Y6727371D01*
X-50882886Y6575799D01*
X-51075799Y6382886D01*
X-51227371Y6156043D01*
X-51331775Y5903989D01*
X-51385000Y5636411D01*
X-51385000Y5610450D01*
X-51480178Y5752894D01*
X-51673091Y5945807D01*
X-51899934Y6097379D01*
X-52151988Y6201783D01*
X-52419566Y6255008D01*
X-52692388Y6255008D01*
X-52959966Y6201783D01*
X-53212020Y6097379D01*
X-53438863Y5945807D01*
X-53631776Y5752894D01*
X-53783348Y5526051D01*
X-53887752Y5273997D01*
X-53940977Y5006419D01*
X-53940977Y4733597D01*
X-53887752Y4466019D01*
X-53829061Y4324325D01*
X-53870070Y4351727D01*
X-54122124Y4456131D01*
X-54389702Y4509356D01*
X-54662524Y4509356D01*
X-54930102Y4456131D01*
X-55182156Y4351727D01*
X-55408999Y4200155D01*
X-55601912Y4007242D01*
X-55753484Y3780399D01*
X-55857888Y3528345D01*
X-55911113Y3260767D01*
X-55911113Y2987945D01*
X-55857888Y2720367D01*
X-55753484Y2468313D01*
X-55601912Y2241470D01*
X-55408999Y2048557D01*
X-55408094Y2047952D01*
X-55596310Y2047952D01*
X-55863888Y1994727D01*
X-56115942Y1890323D01*
X-56342785Y1738751D01*
X-56535698Y1545838D01*
X-56687270Y1318995D01*
X-56791674Y1066941D01*
X-56844899Y799363D01*
X-56844899Y526541D01*
X-56816066Y381587D01*
X-61176017Y-3978365D01*
X-61205021Y-4002168D01*
X-61260149Y-4069343D01*
X-61299994Y-4117893D01*
X-61353063Y-4217177D01*
X-61370566Y-4249923D01*
X-61414023Y-4393184D01*
X-61425020Y-4504837D01*
X-61425020Y-4504847D01*
X-61428696Y-4542169D01*
X-61425020Y-4579491D01*
X-61425019Y-23979688D01*
X-63740000Y-21664707D01*
X-63740000Y-4097911D01*
X-63696063Y-4053974D01*
X-63582795Y-3884456D01*
X-63504774Y-3696098D01*
X-63465000Y-3496139D01*
X-63465000Y-3292261D01*
X-63504774Y-3092302D01*
X-63582795Y-2903944D01*
X-63696063Y-2734426D01*
X-63840226Y-2590263D01*
X-64009744Y-2476995D01*
X-64198102Y-2398974D01*
X-64398061Y-2359200D01*
X-64601939Y-2359200D01*
X-64801898Y-2398974D01*
X-64990256Y-2476995D01*
X-65159774Y-2590263D01*
X-65303937Y-2734426D01*
X-65417205Y-2903944D01*
X-65495226Y-3092302D01*
X-65535000Y-3292261D01*
X-65535000Y-3496139D01*
X-65495226Y-3696098D01*
X-65417205Y-3884456D01*
X-65303937Y-4053974D01*
X-65259999Y-4097912D01*
X-65260000Y-21942186D01*
X-65263676Y-21979508D01*
X-65260000Y-22016830D01*
X-65260000Y-22016840D01*
X-65249003Y-22128493D01*
X-65211143Y-22253302D01*
X-65205546Y-22271754D01*
X-65134974Y-22403784D01*
X-65095129Y-22452334D01*
X-65040001Y-22519509D01*
X-65010997Y-22543312D01*
X-58883267Y-28671043D01*
X-58859469Y-28700041D01*
X-58743744Y-28795014D01*
X-58611715Y-28865586D01*
X-58468454Y-28909043D01*
X-58356801Y-28920040D01*
X-58356792Y-28920040D01*
X-58319469Y-28923716D01*
X-58282146Y-28920040D01*
X-56939311Y-28920040D01*
X-56895374Y-28963977D01*
X-56725856Y-29077245D01*
X-56537498Y-29155266D01*
X-56337539Y-29195040D01*
X-56133661Y-29195040D01*
X-55933702Y-29155266D01*
X-55745344Y-29077245D01*
X-55575826Y-28963977D01*
X-55531889Y-28920040D01*
X48140489Y-28920040D01*
X48184426Y-28963977D01*
X48353944Y-29077245D01*
X48542302Y-29155266D01*
X48742261Y-29195040D01*
X48946139Y-29195040D01*
X49146098Y-29155266D01*
X49334456Y-29077245D01*
X49503974Y-28963977D01*
X49648137Y-28819814D01*
X49761405Y-28650296D01*
X49839426Y-28461938D01*
X49879200Y-28261979D01*
X49879200Y-28058101D01*
X49866656Y-27995040D01*
X58287894Y-27995040D01*
X58325216Y-27998716D01*
X58362538Y-27995040D01*
X58362549Y-27995040D01*
X58474202Y-27984043D01*
X58617463Y-27940586D01*
X58749492Y-27870014D01*
X58865217Y-27775041D01*
X58889020Y-27746037D01*
X61826033Y-24809025D01*
X61855031Y-24785227D01*
X61950004Y-24669502D01*
X62020576Y-24537473D01*
X62064033Y-24394212D01*
X62075030Y-24282559D01*
X62078707Y-24245226D01*
X62075030Y-24207893D01*
X62075030Y20087901D01*
X62078706Y20125224D01*
X62075030Y20162547D01*
X62075030Y20162557D01*
X62064033Y20274210D01*
X62020576Y20417471D01*
X61950004Y20549500D01*
X61855031Y20665225D01*
X61826034Y20689022D01*
X53225055Y29290000D01*
X69290000Y29290000D01*
X69290001Y-29290000D01*
X-69290000Y-29290000D01*
X-69290000Y12460000D01*
X-66140975Y12460000D01*
X-66117130Y12217898D01*
X-66046511Y11985099D01*
X-65931833Y11770551D01*
X-65777502Y11582498D01*
X-65589449Y11428167D01*
X-65374901Y11313489D01*
X-65142102Y11242870D01*
X-64960665Y11225000D01*
X-64039335Y11225000D01*
X-63857898Y11242870D01*
X-63625099Y11313489D01*
X-63410551Y11428167D01*
X-63222498Y11582498D01*
X-63068167Y11770551D01*
X-62953489Y11985099D01*
X-62882870Y12217898D01*
X-62859025Y12460000D01*
X-62882870Y12702102D01*
X-62953489Y12934901D01*
X-63068167Y13149449D01*
X-63222498Y13337502D01*
X-63410551Y13491833D01*
X-63625099Y13606511D01*
X-63857898Y13677130D01*
X-64039335Y13695000D01*
X-64960665Y13695000D01*
X-65142102Y13677130D01*
X-65374901Y13606511D01*
X-65589449Y13491833D01*
X-65777502Y13337502D01*
X-65931833Y13149449D01*
X-66046511Y12934901D01*
X-66117130Y12702102D01*
X-66140975Y12460000D01*
X-69290000Y12460000D01*
X-69290000Y14682391D01*
X-66093462Y14682391D01*
X-66089591Y14644718D01*
X-65997421Y14419467D01*
X-65863078Y14216526D01*
X-65691725Y14043693D01*
X-65489946Y13907610D01*
X-65265496Y13813507D01*
X-65027000Y13765000D01*
X-64627000Y13765000D01*
X-64627000Y14873000D01*
X-64373000Y14873000D01*
X-64373000Y13765000D01*
X-63973000Y13765000D01*
X-63734504Y13813507D01*
X-63510054Y13907610D01*
X-63308275Y14043693D01*
X-63136922Y14216526D01*
X-63002579Y14419467D01*
X-62910409Y14644718D01*
X-62906538Y14682391D01*
X-63031269Y14873000D01*
X-64373000Y14873000D01*
X-64627000Y14873000D01*
X-65968731Y14873000D01*
X-66093462Y14682391D01*
X-69290000Y14682391D01*
X-69290000Y15317609D01*
X-66093462Y15317609D01*
X-65968731Y15127000D01*
X-64627000Y15127000D01*
X-64627000Y16235000D01*
X-64373000Y16235000D01*
X-64373000Y15127000D01*
X-63031269Y15127000D01*
X-62906538Y15317609D01*
X-62910409Y15355282D01*
X-63002579Y15580533D01*
X-63136922Y15783474D01*
X-63308275Y15956307D01*
X-63510054Y16092390D01*
X-63734504Y16186493D01*
X-63973000Y16235000D01*
X-64373000Y16235000D01*
X-64627000Y16235000D01*
X-65027000Y16235000D01*
X-65265496Y16186493D01*
X-65489946Y16092390D01*
X-65691725Y15956307D01*
X-65863078Y15783474D01*
X-65997421Y15580533D01*
X-66089591Y15355282D01*
X-66093462Y15317609D01*
X-69290000Y15317609D01*
X-69290000Y24960665D01*
X-29275000Y24960665D01*
X-29275000Y24039336D01*
X-29257130Y23857899D01*
X-29186511Y23625100D01*
X-29071833Y23410552D01*
X-28917502Y23222498D01*
X-28729449Y23068167D01*
X-28514901Y22953489D01*
X-28282102Y22882870D01*
X-28040000Y22859025D01*
X-27797899Y22882870D01*
X-27565100Y22953489D01*
X-27350552Y23068167D01*
X-27162498Y23222498D01*
X-27008167Y23410551D01*
X-26893489Y23625099D01*
X-26822870Y23857898D01*
X-26805000Y24039335D01*
X-26805000Y24960664D01*
X-26822870Y25142101D01*
X-26893489Y25374901D01*
X-27008167Y25589449D01*
X-27162498Y25777502D01*
X-27350551Y25931833D01*
X-27565099Y26046511D01*
X-27797898Y26117130D01*
X-28040000Y26140975D01*
X-28282101Y26117130D01*
X-28514900Y26046511D01*
X-28729448Y25931833D01*
X-28917501Y25777502D01*
X-29071832Y25589449D01*
X-29186511Y25374901D01*
X-29257130Y25142102D01*
X-29275000Y24960665D01*
X-69290000Y24960665D01*
X-69290000Y29290000D01*
X-30655572Y29290000D01*
X-30673425Y29246899D01*
G37*
G04 #@! TD.AperFunction*
D18*
X14142112Y3528345D02*
X14088887Y3260767D01*
X14088887Y2987945D01*
X14142112Y2720367D01*
X14246516Y2468313D01*
X14398088Y2241470D01*
X14591001Y2048557D01*
X14591906Y2047952D01*
X14403690Y2047952D01*
X14136112Y1994727D01*
X13884058Y1890323D01*
X13657215Y1738751D01*
X13464302Y1545838D01*
X13312730Y1318995D01*
X13208326Y1066941D01*
X13155101Y799363D01*
X13155101Y526541D01*
X13183934Y381587D01*
X8823983Y-3978365D01*
X8794979Y-4002168D01*
X8739851Y-4069343D01*
X8700006Y-4117893D01*
X8646937Y-4217177D01*
X8629434Y-4249923D01*
X8585977Y-4393184D01*
X8574980Y-4504837D01*
X8574980Y-4504847D01*
X8571304Y-4542169D01*
X8574980Y-4579491D01*
X8574981Y-21817870D01*
X8508374Y-21751263D01*
X8338856Y-21637995D01*
X8150498Y-21559974D01*
X7950539Y-21520200D01*
X7746661Y-21520200D01*
X7546702Y-21559974D01*
X7358344Y-21637995D01*
X7188826Y-21751263D01*
X7044663Y-21895426D01*
X6931395Y-22064944D01*
X6853374Y-22253302D01*
X6813600Y-22453261D01*
X6813600Y-22657139D01*
X6853374Y-22857098D01*
X6931395Y-23045456D01*
X7044663Y-23214974D01*
X7088600Y-23258911D01*
X7088601Y-24290776D01*
X7084924Y-24328108D01*
X7099598Y-24477093D01*
X7143054Y-24620354D01*
X7213626Y-24752384D01*
X7284801Y-24839110D01*
X7308600Y-24868109D01*
X7337598Y-24891907D01*
X8920730Y-26475040D01*
X-5329154Y-26475040D01*
X-7914194Y-23890000D01*
X-5400975Y-23890000D01*
X-5377130Y-24132102D01*
X-5306511Y-24364901D01*
X-5191833Y-24579449D01*
X-5037502Y-24767502D01*
X-4849449Y-24921833D01*
X-4634901Y-25036511D01*
X-4402102Y-25107130D01*
X-4220665Y-25125000D01*
X-3299335Y-25125000D01*
X-3117898Y-25107130D01*
X-2885099Y-25036511D01*
X-2670551Y-24921833D01*
X-2482498Y-24767502D01*
X-2328167Y-24579449D01*
X-2213489Y-24364901D01*
X-2142870Y-24132102D01*
X-2119025Y-23890000D01*
X2119025Y-23890000D01*
X2142870Y-24132102D01*
X2213489Y-24364901D01*
X2328167Y-24579449D01*
X2482498Y-24767502D01*
X2670551Y-24921833D01*
X2885099Y-25036511D01*
X3117898Y-25107130D01*
X3299335Y-25125000D01*
X4220665Y-25125000D01*
X4402102Y-25107130D01*
X4634901Y-25036511D01*
X4849449Y-24921833D01*
X5037502Y-24767502D01*
X5191833Y-24579449D01*
X5306511Y-24364901D01*
X5377130Y-24132102D01*
X5400975Y-23890000D01*
X5377130Y-23647898D01*
X5306511Y-23415099D01*
X5191833Y-23200551D01*
X5037502Y-23012498D01*
X4849449Y-22858167D01*
X4634901Y-22743489D01*
X4402102Y-22672870D01*
X4220665Y-22655000D01*
X3299335Y-22655000D01*
X3117898Y-22672870D01*
X2885099Y-22743489D01*
X2670551Y-22858167D01*
X2482498Y-23012498D01*
X2328167Y-23200551D01*
X2213489Y-23415099D01*
X2142870Y-23647898D01*
X2119025Y-23890000D01*
X-2119025Y-23890000D01*
X-2142870Y-23647898D01*
X-2213489Y-23415099D01*
X-2328167Y-23200551D01*
X-2482498Y-23012498D01*
X-2670551Y-22858167D01*
X-2885099Y-22743489D01*
X-3117898Y-22672870D01*
X-3299335Y-22655000D01*
X-4220665Y-22655000D01*
X-4402102Y-22672870D01*
X-4634901Y-22743489D01*
X-4849449Y-22858167D01*
X-5037502Y-23012498D01*
X-5191833Y-23200551D01*
X-5306511Y-23415099D01*
X-5377130Y-23647898D01*
X-5400975Y-23890000D01*
X-7914194Y-23890000D01*
X-10454194Y-21350000D01*
X-5400975Y-21350000D01*
X-5377130Y-21592102D01*
X-5306511Y-21824901D01*
X-5191833Y-22039449D01*
X-5037502Y-22227502D01*
X-4849449Y-22381833D01*
X-4634901Y-22496511D01*
X-4402102Y-22567130D01*
X-4220665Y-22585000D01*
X-3299335Y-22585000D01*
X-3117898Y-22567130D01*
X-2885099Y-22496511D01*
X-2670551Y-22381833D01*
X-2482498Y-22227502D01*
X-2328167Y-22039449D01*
X-2213489Y-21824901D01*
X-2165775Y-21667609D01*
X2166538Y-21667609D01*
X2170409Y-21705282D01*
X2262579Y-21930533D01*
X2396922Y-22133474D01*
X2568275Y-22306307D01*
X2770054Y-22442390D01*
X2994504Y-22536493D01*
X3233000Y-22585000D01*
X3633000Y-22585000D01*
X3633000Y-21477000D01*
X3887000Y-21477000D01*
X3887000Y-22585000D01*
X4287000Y-22585000D01*
X4525496Y-22536493D01*
X4749946Y-22442390D01*
X4951725Y-22306307D01*
X5123078Y-22133474D01*
X5257421Y-21930533D01*
X5349591Y-21705282D01*
X5353462Y-21667609D01*
X5228731Y-21477000D01*
X3887000Y-21477000D01*
X3633000Y-21477000D01*
X2291269Y-21477000D01*
X2166538Y-21667609D01*
X-2165775Y-21667609D01*
X-2142870Y-21592102D01*
X-2119025Y-21350000D01*
X-2142870Y-21107898D01*
X-2165774Y-21032391D01*
X2166538Y-21032391D01*
X2291269Y-21223000D01*
X3633000Y-21223000D01*
X3633000Y-20115000D01*
X3887000Y-20115000D01*
X3887000Y-21223000D01*
X5228731Y-21223000D01*
X5353462Y-21032391D01*
X5349591Y-20994718D01*
X5257421Y-20769467D01*
X5123078Y-20566526D01*
X4951725Y-20393693D01*
X4749946Y-20257610D01*
X4525496Y-20163507D01*
X4287000Y-20115000D01*
X3887000Y-20115000D01*
X3633000Y-20115000D01*
X3233000Y-20115000D01*
X2994504Y-20163507D01*
X2770054Y-20257610D01*
X2568275Y-20393693D01*
X2396922Y-20566526D01*
X2262579Y-20769467D01*
X2170409Y-20994718D01*
X2166538Y-21032391D01*
X-2165774Y-21032391D01*
X-2213489Y-20875099D01*
X-2328167Y-20660551D01*
X-2482498Y-20472498D01*
X-2670551Y-20318167D01*
X-2885099Y-20203489D01*
X-3117898Y-20132870D01*
X-3299335Y-20115000D01*
X-4220665Y-20115000D01*
X-4402102Y-20132870D01*
X-4634901Y-20203489D01*
X-4849449Y-20318167D01*
X-5037502Y-20472498D01*
X-5191833Y-20660551D01*
X-5306511Y-20875099D01*
X-5377130Y-21107898D01*
X-5400975Y-21350000D01*
X-10454194Y-21350000D01*
X-10730210Y-21073985D01*
X-10754013Y-21044981D01*
X-10869738Y-20950008D01*
X-11001767Y-20879436D01*
X-11145028Y-20835979D01*
X-11256681Y-20824982D01*
X-11256692Y-20824982D01*
X-11294014Y-20821306D01*
X-11331336Y-20824982D01*
X-14171184Y-20824982D01*
X-12156202Y-18810000D01*
X-5400975Y-18810000D01*
X-5377130Y-19052102D01*
X-5306511Y-19284901D01*
X-5191833Y-19499449D01*
X-5037502Y-19687502D01*
X-4849449Y-19841833D01*
X-4634901Y-19956511D01*
X-4402102Y-20027130D01*
X-4220665Y-20045000D01*
X-3299335Y-20045000D01*
X-3117898Y-20027130D01*
X-2885099Y-19956511D01*
X-2670551Y-19841833D01*
X-2482498Y-19687502D01*
X-2328167Y-19499449D01*
X-2213489Y-19284901D01*
X-2165775Y-19127609D01*
X2166538Y-19127609D01*
X2170409Y-19165282D01*
X2262579Y-19390533D01*
X2396922Y-19593474D01*
X2568275Y-19766307D01*
X2770054Y-19902390D01*
X2994504Y-19996493D01*
X3233000Y-20045000D01*
X3633000Y-20045000D01*
X3633000Y-18937000D01*
X3887000Y-18937000D01*
X3887000Y-20045000D01*
X4287000Y-20045000D01*
X4525496Y-19996493D01*
X4749946Y-19902390D01*
X4951725Y-19766307D01*
X5123078Y-19593474D01*
X5257421Y-19390533D01*
X5349591Y-19165282D01*
X5353462Y-19127609D01*
X5228731Y-18937000D01*
X3887000Y-18937000D01*
X3633000Y-18937000D01*
X2291269Y-18937000D01*
X2166538Y-19127609D01*
X-2165775Y-19127609D01*
X-2142870Y-19052102D01*
X-2119025Y-18810000D01*
X-2142870Y-18567898D01*
X-2165774Y-18492391D01*
X2166538Y-18492391D01*
X2291269Y-18683000D01*
X3633000Y-18683000D01*
X3633000Y-17575000D01*
X3887000Y-17575000D01*
X3887000Y-18683000D01*
X5228731Y-18683000D01*
X5353462Y-18492391D01*
X5349591Y-18454718D01*
X5257421Y-18229467D01*
X5123078Y-18026526D01*
X4951725Y-17853693D01*
X4749946Y-17717610D01*
X4525496Y-17623507D01*
X4287000Y-17575000D01*
X3887000Y-17575000D01*
X3633000Y-17575000D01*
X3233000Y-17575000D01*
X2994504Y-17623507D01*
X2770054Y-17717610D01*
X2568275Y-17853693D01*
X2396922Y-18026526D01*
X2262579Y-18229467D01*
X2170409Y-18454718D01*
X2166538Y-18492391D01*
X-2165774Y-18492391D01*
X-2213489Y-18335099D01*
X-2328167Y-18120551D01*
X-2482498Y-17932498D01*
X-2670551Y-17778167D01*
X-2885099Y-17663489D01*
X-3117898Y-17592870D01*
X-3299335Y-17575000D01*
X-4220665Y-17575000D01*
X-4402102Y-17592870D01*
X-4634901Y-17663489D01*
X-4849449Y-17778167D01*
X-5037502Y-17932498D01*
X-5191833Y-18120551D01*
X-5306511Y-18335099D01*
X-5377130Y-18567898D01*
X-5400975Y-18810000D01*
X-12156202Y-18810000D01*
X-11871212Y-18525010D01*
X-10681328Y-18525010D01*
X-10644006Y-18528686D01*
X-10606684Y-18525010D01*
X-10606673Y-18525010D01*
X-10495020Y-18514013D01*
X-10351759Y-18470556D01*
X-10219730Y-18399984D01*
X-10104005Y-18305011D01*
X-10080203Y-18276008D01*
X-9473988Y-17669794D01*
X-9444989Y-17645995D01*
X-9350016Y-17530270D01*
X-9279444Y-17398241D01*
X-9235987Y-17254980D01*
X-9224990Y-17143327D01*
X-9224990Y-17143318D01*
X-9221314Y-17105995D01*
X-9224990Y-17068672D01*
X-9224990Y-16587609D01*
X-5353462Y-16587609D01*
X-5349591Y-16625282D01*
X-5257421Y-16850533D01*
X-5123078Y-17053474D01*
X-4951725Y-17226307D01*
X-4749946Y-17362390D01*
X-4525496Y-17456493D01*
X-4287000Y-17505000D01*
X-3887000Y-17505000D01*
X-3887000Y-16397000D01*
X-3633000Y-16397000D01*
X-3633000Y-17505000D01*
X-3233000Y-17505000D01*
X-2994504Y-17456493D01*
X-2770054Y-17362390D01*
X-2568275Y-17226307D01*
X-2396922Y-17053474D01*
X-2262579Y-16850533D01*
X-2170409Y-16625282D01*
X-2166538Y-16587609D01*
X-2291269Y-16397000D01*
X-3633000Y-16397000D01*
X-3887000Y-16397000D01*
X-5228731Y-16397000D01*
X-5353462Y-16587609D01*
X-9224990Y-16587609D01*
X-9224990Y-16270000D01*
X2119025Y-16270000D01*
X2142870Y-16512102D01*
X2213489Y-16744901D01*
X2328167Y-16959449D01*
X2482498Y-17147502D01*
X2670551Y-17301833D01*
X2885099Y-17416511D01*
X3117898Y-17487130D01*
X3299335Y-17505000D01*
X4220665Y-17505000D01*
X4402102Y-17487130D01*
X4634901Y-17416511D01*
X4849449Y-17301833D01*
X5037502Y-17147502D01*
X5191833Y-16959449D01*
X5306511Y-16744901D01*
X5377130Y-16512102D01*
X5400975Y-16270000D01*
X5377130Y-16027898D01*
X5306511Y-15795099D01*
X5191833Y-15580551D01*
X5037502Y-15392498D01*
X4849449Y-15238167D01*
X4634901Y-15123489D01*
X4402102Y-15052870D01*
X4220665Y-15035000D01*
X3299335Y-15035000D01*
X3117898Y-15052870D01*
X2885099Y-15123489D01*
X2670551Y-15238167D01*
X2482498Y-15392498D01*
X2328167Y-15580551D01*
X2213489Y-15795099D01*
X2142870Y-16027898D01*
X2119025Y-16270000D01*
X-9224990Y-16270000D01*
X-9224990Y-15952391D01*
X-5353462Y-15952391D01*
X-5228731Y-16143000D01*
X-3887000Y-16143000D01*
X-3887000Y-15035000D01*
X-3633000Y-15035000D01*
X-3633000Y-16143000D01*
X-2291269Y-16143000D01*
X-2166538Y-15952391D01*
X-2170409Y-15914718D01*
X-2262579Y-15689467D01*
X-2396922Y-15486526D01*
X-2568275Y-15313693D01*
X-2770054Y-15177610D01*
X-2994504Y-15083507D01*
X-3233000Y-15035000D01*
X-3633000Y-15035000D01*
X-3887000Y-15035000D01*
X-4287000Y-15035000D01*
X-4525496Y-15083507D01*
X-4749946Y-15177610D01*
X-4951725Y-15313693D01*
X-5123078Y-15486526D01*
X-5257421Y-15689467D01*
X-5349591Y-15914718D01*
X-5353462Y-15952391D01*
X-9224990Y-15952391D01*
X-9224990Y-13730000D01*
X-5400975Y-13730000D01*
X-5377130Y-13972102D01*
X-5306511Y-14204901D01*
X-5191833Y-14419449D01*
X-5037502Y-14607502D01*
X-4849449Y-14761833D01*
X-4634901Y-14876511D01*
X-4402102Y-14947130D01*
X-4220665Y-14965000D01*
X-3299335Y-14965000D01*
X-3117898Y-14947130D01*
X-2885099Y-14876511D01*
X-2670551Y-14761833D01*
X-2482498Y-14607502D01*
X-2328167Y-14419449D01*
X-2213489Y-14204901D01*
X-2142870Y-13972102D01*
X-2119025Y-13730000D01*
X2119025Y-13730000D01*
X2142870Y-13972102D01*
X2213489Y-14204901D01*
X2328167Y-14419449D01*
X2482498Y-14607502D01*
X2670551Y-14761833D01*
X2885099Y-14876511D01*
X3117898Y-14947130D01*
X3299335Y-14965000D01*
X4220665Y-14965000D01*
X4402102Y-14947130D01*
X4634901Y-14876511D01*
X4849449Y-14761833D01*
X5037502Y-14607502D01*
X5191833Y-14419449D01*
X5306511Y-14204901D01*
X5377130Y-13972102D01*
X5400975Y-13730000D01*
X5377130Y-13487898D01*
X5306511Y-13255099D01*
X5191833Y-13040551D01*
X5037502Y-12852498D01*
X4849449Y-12698167D01*
X4634901Y-12583489D01*
X4402102Y-12512870D01*
X4220665Y-12495000D01*
X3299335Y-12495000D01*
X3117898Y-12512870D01*
X2885099Y-12583489D01*
X2670551Y-12698167D01*
X2482498Y-12852498D01*
X2328167Y-13040551D01*
X2213489Y-13255099D01*
X2142870Y-13487898D01*
X2119025Y-13730000D01*
X-2119025Y-13730000D01*
X-2142870Y-13487898D01*
X-2213489Y-13255099D01*
X-2328167Y-13040551D01*
X-2482498Y-12852498D01*
X-2670551Y-12698167D01*
X-2885099Y-12583489D01*
X-3117898Y-12512870D01*
X-3299335Y-12495000D01*
X-4220665Y-12495000D01*
X-4402102Y-12512870D01*
X-4634901Y-12583489D01*
X-4849449Y-12698167D01*
X-5037502Y-12852498D01*
X-5191833Y-13040551D01*
X-5306511Y-13255099D01*
X-5377130Y-13487898D01*
X-5400975Y-13730000D01*
X-9224990Y-13730000D01*
X-9224990Y-13198787D01*
X-7216202Y-11190000D01*
X-5400975Y-11190000D01*
X-5377130Y-11432102D01*
X-5306511Y-11664901D01*
X-5191833Y-11879449D01*
X-5037502Y-12067502D01*
X-4849449Y-12221833D01*
X-4634901Y-12336511D01*
X-4402102Y-12407130D01*
X-4220665Y-12425000D01*
X-3299335Y-12425000D01*
X-3117898Y-12407130D01*
X-2885099Y-12336511D01*
X-2670551Y-12221833D01*
X-2482498Y-12067502D01*
X-2328167Y-11879449D01*
X-2213489Y-11664901D01*
X-2165775Y-11507609D01*
X2166538Y-11507609D01*
X2170409Y-11545282D01*
X2262579Y-11770533D01*
X2396922Y-11973474D01*
X2568275Y-12146307D01*
X2770054Y-12282390D01*
X2994504Y-12376493D01*
X3233000Y-12425000D01*
X3633000Y-12425000D01*
X3633000Y-11317000D01*
X3887000Y-11317000D01*
X3887000Y-12425000D01*
X4287000Y-12425000D01*
X4525496Y-12376493D01*
X4749946Y-12282390D01*
X4951725Y-12146307D01*
X5123078Y-11973474D01*
X5257421Y-11770533D01*
X5349591Y-11545282D01*
X5353462Y-11507609D01*
X5228731Y-11317000D01*
X3887000Y-11317000D01*
X3633000Y-11317000D01*
X2291269Y-11317000D01*
X2166538Y-11507609D01*
X-2165775Y-11507609D01*
X-2142870Y-11432102D01*
X-2119025Y-11190000D01*
X-2142870Y-10947898D01*
X-2165774Y-10872391D01*
X2166538Y-10872391D01*
X2291269Y-11063000D01*
X3633000Y-11063000D01*
X3633000Y-9955000D01*
X3887000Y-9955000D01*
X3887000Y-11063000D01*
X5228731Y-11063000D01*
X5353462Y-10872391D01*
X5349591Y-10834718D01*
X5257421Y-10609467D01*
X5123078Y-10406526D01*
X4951725Y-10233693D01*
X4749946Y-10097610D01*
X4525496Y-10003507D01*
X4287000Y-9955000D01*
X3887000Y-9955000D01*
X3633000Y-9955000D01*
X3233000Y-9955000D01*
X2994504Y-10003507D01*
X2770054Y-10097610D01*
X2568275Y-10233693D01*
X2396922Y-10406526D01*
X2262579Y-10609467D01*
X2170409Y-10834718D01*
X2166538Y-10872391D01*
X-2165774Y-10872391D01*
X-2213489Y-10715099D01*
X-2328167Y-10500551D01*
X-2482498Y-10312498D01*
X-2670551Y-10158167D01*
X-2885099Y-10043489D01*
X-3117898Y-9972870D01*
X-3299335Y-9955000D01*
X-4220665Y-9955000D01*
X-4402102Y-9972870D01*
X-4634901Y-10043489D01*
X-4849449Y-10158167D01*
X-5037502Y-10312498D01*
X-5191833Y-10500551D01*
X-5306511Y-10715099D01*
X-5377130Y-10947898D01*
X-5400975Y-11190000D01*
X-7216202Y-11190000D01*
X-5252378Y-9226177D01*
X-5191833Y-9339449D01*
X-5037502Y-9527502D01*
X-4849449Y-9681833D01*
X-4634901Y-9796511D01*
X-4402102Y-9867130D01*
X-4220665Y-9885000D01*
X-3299335Y-9885000D01*
X-3117898Y-9867130D01*
X-2885099Y-9796511D01*
X-2670551Y-9681833D01*
X-2482498Y-9527502D01*
X-2328167Y-9339449D01*
X-2213489Y-9124901D01*
X-2142870Y-8892102D01*
X-2119025Y-8650000D01*
X2119025Y-8650000D01*
X2142870Y-8892102D01*
X2213489Y-9124901D01*
X2328167Y-9339449D01*
X2482498Y-9527502D01*
X2670551Y-9681833D01*
X2885099Y-9796511D01*
X3117898Y-9867130D01*
X3299335Y-9885000D01*
X4220665Y-9885000D01*
X4402102Y-9867130D01*
X4634901Y-9796511D01*
X4849449Y-9681833D01*
X5037502Y-9527502D01*
X5191833Y-9339449D01*
X5306511Y-9124901D01*
X5377130Y-8892102D01*
X5400975Y-8650000D01*
X5377130Y-8407898D01*
X5306511Y-8175099D01*
X5191833Y-7960551D01*
X5037502Y-7772498D01*
X4849449Y-7618167D01*
X4634901Y-7503489D01*
X4402102Y-7432870D01*
X4220665Y-7415000D01*
X3299335Y-7415000D01*
X3117898Y-7432870D01*
X2885099Y-7503489D01*
X2670551Y-7618167D01*
X2482498Y-7772498D01*
X2328167Y-7960551D01*
X2213489Y-8175099D01*
X2142870Y-8407898D01*
X2119025Y-8650000D01*
X-2119025Y-8650000D01*
X-2142870Y-8407898D01*
X-2213489Y-8175099D01*
X-2309748Y-7995010D01*
X-2191330Y-7995010D01*
X-2154008Y-7998686D01*
X-2116686Y-7995010D01*
X-2116675Y-7995010D01*
X-2005022Y-7984013D01*
X-1861761Y-7940556D01*
X-1729732Y-7869984D01*
X-1614007Y-7775011D01*
X-1590204Y-7746007D01*
X45803Y-6110000D01*
X2119025Y-6110000D01*
X2142870Y-6352102D01*
X2213489Y-6584901D01*
X2328167Y-6799449D01*
X2482498Y-6987502D01*
X2670551Y-7141833D01*
X2885099Y-7256511D01*
X3117898Y-7327130D01*
X3299335Y-7345000D01*
X4220665Y-7345000D01*
X4402102Y-7327130D01*
X4634901Y-7256511D01*
X4849449Y-7141833D01*
X5037502Y-6987502D01*
X5191833Y-6799449D01*
X5306511Y-6584901D01*
X5377130Y-6352102D01*
X5400975Y-6110000D01*
X5377130Y-5867898D01*
X5306511Y-5635099D01*
X5191833Y-5420551D01*
X5037502Y-5232498D01*
X4849449Y-5078167D01*
X4634901Y-4963489D01*
X4402102Y-4892870D01*
X4220665Y-4875000D01*
X3299335Y-4875000D01*
X3117898Y-4892870D01*
X2885099Y-4963489D01*
X2670551Y-5078167D01*
X2482498Y-5232498D01*
X2328167Y-5420551D01*
X2213489Y-5635099D01*
X2142870Y-5867898D01*
X2119025Y-6110000D01*
X45803Y-6110000D01*
X9795161Y3639357D01*
X14188095Y3639357D01*
X14142112Y3528345D01*
G04 #@! TA.AperFunction,Conductor*
D19*
G36*
X14142112Y3528345D02*
G01*
X14088887Y3260767D01*
X14088887Y2987945D01*
X14142112Y2720367D01*
X14246516Y2468313D01*
X14398088Y2241470D01*
X14591001Y2048557D01*
X14591906Y2047952D01*
X14403690Y2047952D01*
X14136112Y1994727D01*
X13884058Y1890323D01*
X13657215Y1738751D01*
X13464302Y1545838D01*
X13312730Y1318995D01*
X13208326Y1066941D01*
X13155101Y799363D01*
X13155101Y526541D01*
X13183934Y381587D01*
X8823983Y-3978365D01*
X8794979Y-4002168D01*
X8739851Y-4069343D01*
X8700006Y-4117893D01*
X8646937Y-4217177D01*
X8629434Y-4249923D01*
X8585977Y-4393184D01*
X8574980Y-4504837D01*
X8574980Y-4504847D01*
X8571304Y-4542169D01*
X8574980Y-4579491D01*
X8574981Y-21817870D01*
X8508374Y-21751263D01*
X8338856Y-21637995D01*
X8150498Y-21559974D01*
X7950539Y-21520200D01*
X7746661Y-21520200D01*
X7546702Y-21559974D01*
X7358344Y-21637995D01*
X7188826Y-21751263D01*
X7044663Y-21895426D01*
X6931395Y-22064944D01*
X6853374Y-22253302D01*
X6813600Y-22453261D01*
X6813600Y-22657139D01*
X6853374Y-22857098D01*
X6931395Y-23045456D01*
X7044663Y-23214974D01*
X7088600Y-23258911D01*
X7088601Y-24290776D01*
X7084924Y-24328108D01*
X7099598Y-24477093D01*
X7143054Y-24620354D01*
X7213626Y-24752384D01*
X7284801Y-24839110D01*
X7308600Y-24868109D01*
X7337598Y-24891907D01*
X8920730Y-26475040D01*
X-5329154Y-26475040D01*
X-7914194Y-23890000D01*
X-5400975Y-23890000D01*
X-5377130Y-24132102D01*
X-5306511Y-24364901D01*
X-5191833Y-24579449D01*
X-5037502Y-24767502D01*
X-4849449Y-24921833D01*
X-4634901Y-25036511D01*
X-4402102Y-25107130D01*
X-4220665Y-25125000D01*
X-3299335Y-25125000D01*
X-3117898Y-25107130D01*
X-2885099Y-25036511D01*
X-2670551Y-24921833D01*
X-2482498Y-24767502D01*
X-2328167Y-24579449D01*
X-2213489Y-24364901D01*
X-2142870Y-24132102D01*
X-2119025Y-23890000D01*
X2119025Y-23890000D01*
X2142870Y-24132102D01*
X2213489Y-24364901D01*
X2328167Y-24579449D01*
X2482498Y-24767502D01*
X2670551Y-24921833D01*
X2885099Y-25036511D01*
X3117898Y-25107130D01*
X3299335Y-25125000D01*
X4220665Y-25125000D01*
X4402102Y-25107130D01*
X4634901Y-25036511D01*
X4849449Y-24921833D01*
X5037502Y-24767502D01*
X5191833Y-24579449D01*
X5306511Y-24364901D01*
X5377130Y-24132102D01*
X5400975Y-23890000D01*
X5377130Y-23647898D01*
X5306511Y-23415099D01*
X5191833Y-23200551D01*
X5037502Y-23012498D01*
X4849449Y-22858167D01*
X4634901Y-22743489D01*
X4402102Y-22672870D01*
X4220665Y-22655000D01*
X3299335Y-22655000D01*
X3117898Y-22672870D01*
X2885099Y-22743489D01*
X2670551Y-22858167D01*
X2482498Y-23012498D01*
X2328167Y-23200551D01*
X2213489Y-23415099D01*
X2142870Y-23647898D01*
X2119025Y-23890000D01*
X-2119025Y-23890000D01*
X-2142870Y-23647898D01*
X-2213489Y-23415099D01*
X-2328167Y-23200551D01*
X-2482498Y-23012498D01*
X-2670551Y-22858167D01*
X-2885099Y-22743489D01*
X-3117898Y-22672870D01*
X-3299335Y-22655000D01*
X-4220665Y-22655000D01*
X-4402102Y-22672870D01*
X-4634901Y-22743489D01*
X-4849449Y-22858167D01*
X-5037502Y-23012498D01*
X-5191833Y-23200551D01*
X-5306511Y-23415099D01*
X-5377130Y-23647898D01*
X-5400975Y-23890000D01*
X-7914194Y-23890000D01*
X-10454194Y-21350000D01*
X-5400975Y-21350000D01*
X-5377130Y-21592102D01*
X-5306511Y-21824901D01*
X-5191833Y-22039449D01*
X-5037502Y-22227502D01*
X-4849449Y-22381833D01*
X-4634901Y-22496511D01*
X-4402102Y-22567130D01*
X-4220665Y-22585000D01*
X-3299335Y-22585000D01*
X-3117898Y-22567130D01*
X-2885099Y-22496511D01*
X-2670551Y-22381833D01*
X-2482498Y-22227502D01*
X-2328167Y-22039449D01*
X-2213489Y-21824901D01*
X-2165775Y-21667609D01*
X2166538Y-21667609D01*
X2170409Y-21705282D01*
X2262579Y-21930533D01*
X2396922Y-22133474D01*
X2568275Y-22306307D01*
X2770054Y-22442390D01*
X2994504Y-22536493D01*
X3233000Y-22585000D01*
X3633000Y-22585000D01*
X3633000Y-21477000D01*
X3887000Y-21477000D01*
X3887000Y-22585000D01*
X4287000Y-22585000D01*
X4525496Y-22536493D01*
X4749946Y-22442390D01*
X4951725Y-22306307D01*
X5123078Y-22133474D01*
X5257421Y-21930533D01*
X5349591Y-21705282D01*
X5353462Y-21667609D01*
X5228731Y-21477000D01*
X3887000Y-21477000D01*
X3633000Y-21477000D01*
X2291269Y-21477000D01*
X2166538Y-21667609D01*
X-2165775Y-21667609D01*
X-2142870Y-21592102D01*
X-2119025Y-21350000D01*
X-2142870Y-21107898D01*
X-2165774Y-21032391D01*
X2166538Y-21032391D01*
X2291269Y-21223000D01*
X3633000Y-21223000D01*
X3633000Y-20115000D01*
X3887000Y-20115000D01*
X3887000Y-21223000D01*
X5228731Y-21223000D01*
X5353462Y-21032391D01*
X5349591Y-20994718D01*
X5257421Y-20769467D01*
X5123078Y-20566526D01*
X4951725Y-20393693D01*
X4749946Y-20257610D01*
X4525496Y-20163507D01*
X4287000Y-20115000D01*
X3887000Y-20115000D01*
X3633000Y-20115000D01*
X3233000Y-20115000D01*
X2994504Y-20163507D01*
X2770054Y-20257610D01*
X2568275Y-20393693D01*
X2396922Y-20566526D01*
X2262579Y-20769467D01*
X2170409Y-20994718D01*
X2166538Y-21032391D01*
X-2165774Y-21032391D01*
X-2213489Y-20875099D01*
X-2328167Y-20660551D01*
X-2482498Y-20472498D01*
X-2670551Y-20318167D01*
X-2885099Y-20203489D01*
X-3117898Y-20132870D01*
X-3299335Y-20115000D01*
X-4220665Y-20115000D01*
X-4402102Y-20132870D01*
X-4634901Y-20203489D01*
X-4849449Y-20318167D01*
X-5037502Y-20472498D01*
X-5191833Y-20660551D01*
X-5306511Y-20875099D01*
X-5377130Y-21107898D01*
X-5400975Y-21350000D01*
X-10454194Y-21350000D01*
X-10730210Y-21073985D01*
X-10754013Y-21044981D01*
X-10869738Y-20950008D01*
X-11001767Y-20879436D01*
X-11145028Y-20835979D01*
X-11256681Y-20824982D01*
X-11256692Y-20824982D01*
X-11294014Y-20821306D01*
X-11331336Y-20824982D01*
X-14171184Y-20824982D01*
X-12156202Y-18810000D01*
X-5400975Y-18810000D01*
X-5377130Y-19052102D01*
X-5306511Y-19284901D01*
X-5191833Y-19499449D01*
X-5037502Y-19687502D01*
X-4849449Y-19841833D01*
X-4634901Y-19956511D01*
X-4402102Y-20027130D01*
X-4220665Y-20045000D01*
X-3299335Y-20045000D01*
X-3117898Y-20027130D01*
X-2885099Y-19956511D01*
X-2670551Y-19841833D01*
X-2482498Y-19687502D01*
X-2328167Y-19499449D01*
X-2213489Y-19284901D01*
X-2165775Y-19127609D01*
X2166538Y-19127609D01*
X2170409Y-19165282D01*
X2262579Y-19390533D01*
X2396922Y-19593474D01*
X2568275Y-19766307D01*
X2770054Y-19902390D01*
X2994504Y-19996493D01*
X3233000Y-20045000D01*
X3633000Y-20045000D01*
X3633000Y-18937000D01*
X3887000Y-18937000D01*
X3887000Y-20045000D01*
X4287000Y-20045000D01*
X4525496Y-19996493D01*
X4749946Y-19902390D01*
X4951725Y-19766307D01*
X5123078Y-19593474D01*
X5257421Y-19390533D01*
X5349591Y-19165282D01*
X5353462Y-19127609D01*
X5228731Y-18937000D01*
X3887000Y-18937000D01*
X3633000Y-18937000D01*
X2291269Y-18937000D01*
X2166538Y-19127609D01*
X-2165775Y-19127609D01*
X-2142870Y-19052102D01*
X-2119025Y-18810000D01*
X-2142870Y-18567898D01*
X-2165774Y-18492391D01*
X2166538Y-18492391D01*
X2291269Y-18683000D01*
X3633000Y-18683000D01*
X3633000Y-17575000D01*
X3887000Y-17575000D01*
X3887000Y-18683000D01*
X5228731Y-18683000D01*
X5353462Y-18492391D01*
X5349591Y-18454718D01*
X5257421Y-18229467D01*
X5123078Y-18026526D01*
X4951725Y-17853693D01*
X4749946Y-17717610D01*
X4525496Y-17623507D01*
X4287000Y-17575000D01*
X3887000Y-17575000D01*
X3633000Y-17575000D01*
X3233000Y-17575000D01*
X2994504Y-17623507D01*
X2770054Y-17717610D01*
X2568275Y-17853693D01*
X2396922Y-18026526D01*
X2262579Y-18229467D01*
X2170409Y-18454718D01*
X2166538Y-18492391D01*
X-2165774Y-18492391D01*
X-2213489Y-18335099D01*
X-2328167Y-18120551D01*
X-2482498Y-17932498D01*
X-2670551Y-17778167D01*
X-2885099Y-17663489D01*
X-3117898Y-17592870D01*
X-3299335Y-17575000D01*
X-4220665Y-17575000D01*
X-4402102Y-17592870D01*
X-4634901Y-17663489D01*
X-4849449Y-17778167D01*
X-5037502Y-17932498D01*
X-5191833Y-18120551D01*
X-5306511Y-18335099D01*
X-5377130Y-18567898D01*
X-5400975Y-18810000D01*
X-12156202Y-18810000D01*
X-11871212Y-18525010D01*
X-10681328Y-18525010D01*
X-10644006Y-18528686D01*
X-10606684Y-18525010D01*
X-10606673Y-18525010D01*
X-10495020Y-18514013D01*
X-10351759Y-18470556D01*
X-10219730Y-18399984D01*
X-10104005Y-18305011D01*
X-10080203Y-18276008D01*
X-9473988Y-17669794D01*
X-9444989Y-17645995D01*
X-9350016Y-17530270D01*
X-9279444Y-17398241D01*
X-9235987Y-17254980D01*
X-9224990Y-17143327D01*
X-9224990Y-17143318D01*
X-9221314Y-17105995D01*
X-9224990Y-17068672D01*
X-9224990Y-16587609D01*
X-5353462Y-16587609D01*
X-5349591Y-16625282D01*
X-5257421Y-16850533D01*
X-5123078Y-17053474D01*
X-4951725Y-17226307D01*
X-4749946Y-17362390D01*
X-4525496Y-17456493D01*
X-4287000Y-17505000D01*
X-3887000Y-17505000D01*
X-3887000Y-16397000D01*
X-3633000Y-16397000D01*
X-3633000Y-17505000D01*
X-3233000Y-17505000D01*
X-2994504Y-17456493D01*
X-2770054Y-17362390D01*
X-2568275Y-17226307D01*
X-2396922Y-17053474D01*
X-2262579Y-16850533D01*
X-2170409Y-16625282D01*
X-2166538Y-16587609D01*
X-2291269Y-16397000D01*
X-3633000Y-16397000D01*
X-3887000Y-16397000D01*
X-5228731Y-16397000D01*
X-5353462Y-16587609D01*
X-9224990Y-16587609D01*
X-9224990Y-16270000D01*
X2119025Y-16270000D01*
X2142870Y-16512102D01*
X2213489Y-16744901D01*
X2328167Y-16959449D01*
X2482498Y-17147502D01*
X2670551Y-17301833D01*
X2885099Y-17416511D01*
X3117898Y-17487130D01*
X3299335Y-17505000D01*
X4220665Y-17505000D01*
X4402102Y-17487130D01*
X4634901Y-17416511D01*
X4849449Y-17301833D01*
X5037502Y-17147502D01*
X5191833Y-16959449D01*
X5306511Y-16744901D01*
X5377130Y-16512102D01*
X5400975Y-16270000D01*
X5377130Y-16027898D01*
X5306511Y-15795099D01*
X5191833Y-15580551D01*
X5037502Y-15392498D01*
X4849449Y-15238167D01*
X4634901Y-15123489D01*
X4402102Y-15052870D01*
X4220665Y-15035000D01*
X3299335Y-15035000D01*
X3117898Y-15052870D01*
X2885099Y-15123489D01*
X2670551Y-15238167D01*
X2482498Y-15392498D01*
X2328167Y-15580551D01*
X2213489Y-15795099D01*
X2142870Y-16027898D01*
X2119025Y-16270000D01*
X-9224990Y-16270000D01*
X-9224990Y-15952391D01*
X-5353462Y-15952391D01*
X-5228731Y-16143000D01*
X-3887000Y-16143000D01*
X-3887000Y-15035000D01*
X-3633000Y-15035000D01*
X-3633000Y-16143000D01*
X-2291269Y-16143000D01*
X-2166538Y-15952391D01*
X-2170409Y-15914718D01*
X-2262579Y-15689467D01*
X-2396922Y-15486526D01*
X-2568275Y-15313693D01*
X-2770054Y-15177610D01*
X-2994504Y-15083507D01*
X-3233000Y-15035000D01*
X-3633000Y-15035000D01*
X-3887000Y-15035000D01*
X-4287000Y-15035000D01*
X-4525496Y-15083507D01*
X-4749946Y-15177610D01*
X-4951725Y-15313693D01*
X-5123078Y-15486526D01*
X-5257421Y-15689467D01*
X-5349591Y-15914718D01*
X-5353462Y-15952391D01*
X-9224990Y-15952391D01*
X-9224990Y-13730000D01*
X-5400975Y-13730000D01*
X-5377130Y-13972102D01*
X-5306511Y-14204901D01*
X-5191833Y-14419449D01*
X-5037502Y-14607502D01*
X-4849449Y-14761833D01*
X-4634901Y-14876511D01*
X-4402102Y-14947130D01*
X-4220665Y-14965000D01*
X-3299335Y-14965000D01*
X-3117898Y-14947130D01*
X-2885099Y-14876511D01*
X-2670551Y-14761833D01*
X-2482498Y-14607502D01*
X-2328167Y-14419449D01*
X-2213489Y-14204901D01*
X-2142870Y-13972102D01*
X-2119025Y-13730000D01*
X2119025Y-13730000D01*
X2142870Y-13972102D01*
X2213489Y-14204901D01*
X2328167Y-14419449D01*
X2482498Y-14607502D01*
X2670551Y-14761833D01*
X2885099Y-14876511D01*
X3117898Y-14947130D01*
X3299335Y-14965000D01*
X4220665Y-14965000D01*
X4402102Y-14947130D01*
X4634901Y-14876511D01*
X4849449Y-14761833D01*
X5037502Y-14607502D01*
X5191833Y-14419449D01*
X5306511Y-14204901D01*
X5377130Y-13972102D01*
X5400975Y-13730000D01*
X5377130Y-13487898D01*
X5306511Y-13255099D01*
X5191833Y-13040551D01*
X5037502Y-12852498D01*
X4849449Y-12698167D01*
X4634901Y-12583489D01*
X4402102Y-12512870D01*
X4220665Y-12495000D01*
X3299335Y-12495000D01*
X3117898Y-12512870D01*
X2885099Y-12583489D01*
X2670551Y-12698167D01*
X2482498Y-12852498D01*
X2328167Y-13040551D01*
X2213489Y-13255099D01*
X2142870Y-13487898D01*
X2119025Y-13730000D01*
X-2119025Y-13730000D01*
X-2142870Y-13487898D01*
X-2213489Y-13255099D01*
X-2328167Y-13040551D01*
X-2482498Y-12852498D01*
X-2670551Y-12698167D01*
X-2885099Y-12583489D01*
X-3117898Y-12512870D01*
X-3299335Y-12495000D01*
X-4220665Y-12495000D01*
X-4402102Y-12512870D01*
X-4634901Y-12583489D01*
X-4849449Y-12698167D01*
X-5037502Y-12852498D01*
X-5191833Y-13040551D01*
X-5306511Y-13255099D01*
X-5377130Y-13487898D01*
X-5400975Y-13730000D01*
X-9224990Y-13730000D01*
X-9224990Y-13198787D01*
X-7216202Y-11190000D01*
X-5400975Y-11190000D01*
X-5377130Y-11432102D01*
X-5306511Y-11664901D01*
X-5191833Y-11879449D01*
X-5037502Y-12067502D01*
X-4849449Y-12221833D01*
X-4634901Y-12336511D01*
X-4402102Y-12407130D01*
X-4220665Y-12425000D01*
X-3299335Y-12425000D01*
X-3117898Y-12407130D01*
X-2885099Y-12336511D01*
X-2670551Y-12221833D01*
X-2482498Y-12067502D01*
X-2328167Y-11879449D01*
X-2213489Y-11664901D01*
X-2165775Y-11507609D01*
X2166538Y-11507609D01*
X2170409Y-11545282D01*
X2262579Y-11770533D01*
X2396922Y-11973474D01*
X2568275Y-12146307D01*
X2770054Y-12282390D01*
X2994504Y-12376493D01*
X3233000Y-12425000D01*
X3633000Y-12425000D01*
X3633000Y-11317000D01*
X3887000Y-11317000D01*
X3887000Y-12425000D01*
X4287000Y-12425000D01*
X4525496Y-12376493D01*
X4749946Y-12282390D01*
X4951725Y-12146307D01*
X5123078Y-11973474D01*
X5257421Y-11770533D01*
X5349591Y-11545282D01*
X5353462Y-11507609D01*
X5228731Y-11317000D01*
X3887000Y-11317000D01*
X3633000Y-11317000D01*
X2291269Y-11317000D01*
X2166538Y-11507609D01*
X-2165775Y-11507609D01*
X-2142870Y-11432102D01*
X-2119025Y-11190000D01*
X-2142870Y-10947898D01*
X-2165774Y-10872391D01*
X2166538Y-10872391D01*
X2291269Y-11063000D01*
X3633000Y-11063000D01*
X3633000Y-9955000D01*
X3887000Y-9955000D01*
X3887000Y-11063000D01*
X5228731Y-11063000D01*
X5353462Y-10872391D01*
X5349591Y-10834718D01*
X5257421Y-10609467D01*
X5123078Y-10406526D01*
X4951725Y-10233693D01*
X4749946Y-10097610D01*
X4525496Y-10003507D01*
X4287000Y-9955000D01*
X3887000Y-9955000D01*
X3633000Y-9955000D01*
X3233000Y-9955000D01*
X2994504Y-10003507D01*
X2770054Y-10097610D01*
X2568275Y-10233693D01*
X2396922Y-10406526D01*
X2262579Y-10609467D01*
X2170409Y-10834718D01*
X2166538Y-10872391D01*
X-2165774Y-10872391D01*
X-2213489Y-10715099D01*
X-2328167Y-10500551D01*
X-2482498Y-10312498D01*
X-2670551Y-10158167D01*
X-2885099Y-10043489D01*
X-3117898Y-9972870D01*
X-3299335Y-9955000D01*
X-4220665Y-9955000D01*
X-4402102Y-9972870D01*
X-4634901Y-10043489D01*
X-4849449Y-10158167D01*
X-5037502Y-10312498D01*
X-5191833Y-10500551D01*
X-5306511Y-10715099D01*
X-5377130Y-10947898D01*
X-5400975Y-11190000D01*
X-7216202Y-11190000D01*
X-5252378Y-9226177D01*
X-5191833Y-9339449D01*
X-5037502Y-9527502D01*
X-4849449Y-9681833D01*
X-4634901Y-9796511D01*
X-4402102Y-9867130D01*
X-4220665Y-9885000D01*
X-3299335Y-9885000D01*
X-3117898Y-9867130D01*
X-2885099Y-9796511D01*
X-2670551Y-9681833D01*
X-2482498Y-9527502D01*
X-2328167Y-9339449D01*
X-2213489Y-9124901D01*
X-2142870Y-8892102D01*
X-2119025Y-8650000D01*
X2119025Y-8650000D01*
X2142870Y-8892102D01*
X2213489Y-9124901D01*
X2328167Y-9339449D01*
X2482498Y-9527502D01*
X2670551Y-9681833D01*
X2885099Y-9796511D01*
X3117898Y-9867130D01*
X3299335Y-9885000D01*
X4220665Y-9885000D01*
X4402102Y-9867130D01*
X4634901Y-9796511D01*
X4849449Y-9681833D01*
X5037502Y-9527502D01*
X5191833Y-9339449D01*
X5306511Y-9124901D01*
X5377130Y-8892102D01*
X5400975Y-8650000D01*
X5377130Y-8407898D01*
X5306511Y-8175099D01*
X5191833Y-7960551D01*
X5037502Y-7772498D01*
X4849449Y-7618167D01*
X4634901Y-7503489D01*
X4402102Y-7432870D01*
X4220665Y-7415000D01*
X3299335Y-7415000D01*
X3117898Y-7432870D01*
X2885099Y-7503489D01*
X2670551Y-7618167D01*
X2482498Y-7772498D01*
X2328167Y-7960551D01*
X2213489Y-8175099D01*
X2142870Y-8407898D01*
X2119025Y-8650000D01*
X-2119025Y-8650000D01*
X-2142870Y-8407898D01*
X-2213489Y-8175099D01*
X-2309748Y-7995010D01*
X-2191330Y-7995010D01*
X-2154008Y-7998686D01*
X-2116686Y-7995010D01*
X-2116675Y-7995010D01*
X-2005022Y-7984013D01*
X-1861761Y-7940556D01*
X-1729732Y-7869984D01*
X-1614007Y-7775011D01*
X-1590204Y-7746007D01*
X45803Y-6110000D01*
X2119025Y-6110000D01*
X2142870Y-6352102D01*
X2213489Y-6584901D01*
X2328167Y-6799449D01*
X2482498Y-6987502D01*
X2670551Y-7141833D01*
X2885099Y-7256511D01*
X3117898Y-7327130D01*
X3299335Y-7345000D01*
X4220665Y-7345000D01*
X4402102Y-7327130D01*
X4634901Y-7256511D01*
X4849449Y-7141833D01*
X5037502Y-6987502D01*
X5191833Y-6799449D01*
X5306511Y-6584901D01*
X5377130Y-6352102D01*
X5400975Y-6110000D01*
X5377130Y-5867898D01*
X5306511Y-5635099D01*
X5191833Y-5420551D01*
X5037502Y-5232498D01*
X4849449Y-5078167D01*
X4634901Y-4963489D01*
X4402102Y-4892870D01*
X4220665Y-4875000D01*
X3299335Y-4875000D01*
X3117898Y-4892870D01*
X2885099Y-4963489D01*
X2670551Y-5078167D01*
X2482498Y-5232498D01*
X2328167Y-5420551D01*
X2213489Y-5635099D01*
X2142870Y-5867898D01*
X2119025Y-6110000D01*
X45803Y-6110000D01*
X9795161Y3639357D01*
X14188095Y3639357D01*
X14142112Y3528345D01*
G37*
G04 #@! TD.AperFunction*
D18*
X55657591Y-14810597D02*
X55472499Y-14962498D01*
X55318168Y-15150551D01*
X55203489Y-15365099D01*
X55132870Y-15597898D01*
X55115000Y-15779335D01*
X55115000Y-16700664D01*
X55132870Y-16882101D01*
X55203489Y-17114900D01*
X55318167Y-17329448D01*
X55472498Y-17517502D01*
X55660551Y-17671833D01*
X55773824Y-17732378D01*
X52031213Y-21474990D01*
X42672333Y-21474990D01*
X42635010Y-21471314D01*
X42597687Y-21474990D01*
X42597677Y-21474990D01*
X42486024Y-21485987D01*
X42459881Y-21493917D01*
X43035998Y-20917801D01*
X43064991Y-20894007D01*
X43088785Y-20865014D01*
X43088789Y-20865010D01*
X43159963Y-20778283D01*
X43159964Y-20778282D01*
X43230536Y-20646253D01*
X43273993Y-20502992D01*
X43284990Y-20391339D01*
X43284990Y-20391330D01*
X43288666Y-20354007D01*
X43284990Y-20316684D01*
X43284990Y-17819846D01*
X43407898Y-17857130D01*
X43650000Y-17880975D01*
X43892101Y-17857130D01*
X44124900Y-17786511D01*
X44339448Y-17671833D01*
X44527502Y-17517502D01*
X44681833Y-17329449D01*
X44796511Y-17114901D01*
X44867130Y-16882102D01*
X44885000Y-16700665D01*
X44885000Y-16079801D01*
X44955000Y-16009801D01*
X44955000Y-16700664D01*
X44972870Y-16882101D01*
X45043489Y-17114900D01*
X45158167Y-17329448D01*
X45312498Y-17517502D01*
X45500551Y-17671833D01*
X45715099Y-17786511D01*
X45947898Y-17857130D01*
X46190000Y-17880975D01*
X46432101Y-17857130D01*
X46664900Y-17786511D01*
X46879448Y-17671833D01*
X47067502Y-17517502D01*
X47221833Y-17329449D01*
X47336511Y-17114901D01*
X47407130Y-16882102D01*
X47425000Y-16700665D01*
X47425000Y-16367000D01*
X47495000Y-16367000D01*
X47495000Y-16767000D01*
X47543507Y-17005496D01*
X47637610Y-17229946D01*
X47773693Y-17431725D01*
X47946526Y-17603078D01*
X48149467Y-17737421D01*
X48374718Y-17829591D01*
X48412391Y-17833462D01*
X48603000Y-17708731D01*
X48603000Y-16367000D01*
X48857000Y-16367000D01*
X48857000Y-17708731D01*
X49047609Y-17833462D01*
X49085282Y-17829591D01*
X49310533Y-17737421D01*
X49513474Y-17603078D01*
X49686307Y-17431725D01*
X49822390Y-17229946D01*
X49916493Y-17005496D01*
X49965000Y-16767000D01*
X49965000Y-16367000D01*
X48857000Y-16367000D01*
X48603000Y-16367000D01*
X47495000Y-16367000D01*
X47425000Y-16367000D01*
X47425000Y-16079801D01*
X47495000Y-16009801D01*
X47495000Y-16113000D01*
X48603000Y-16113000D01*
X48603000Y-16093000D01*
X48857000Y-16093000D01*
X48857000Y-16113000D01*
X49965000Y-16113000D01*
X49965000Y-15713000D01*
X49916493Y-15474504D01*
X49822390Y-15250054D01*
X49686307Y-15048275D01*
X49513474Y-14876922D01*
X49310533Y-14742579D01*
X49085282Y-14650409D01*
X49047609Y-14646538D01*
X48857002Y-14771268D01*
X48857002Y-14647800D01*
X49194767Y-14310035D01*
X49223765Y-14286237D01*
X49318738Y-14170512D01*
X49389310Y-14038483D01*
X49432767Y-13895222D01*
X49437002Y-13852221D01*
X49439755Y-13855575D01*
X49501234Y-13930488D01*
X49530238Y-13954291D01*
X50472659Y-14896713D01*
X50392499Y-14962498D01*
X50238168Y-15150551D01*
X50123489Y-15365099D01*
X50052870Y-15597898D01*
X50035000Y-15779335D01*
X50035000Y-16700664D01*
X50052870Y-16882101D01*
X50123489Y-17114900D01*
X50238167Y-17329448D01*
X50392498Y-17517502D01*
X50580551Y-17671833D01*
X50795099Y-17786511D01*
X51027898Y-17857130D01*
X51270000Y-17880975D01*
X51512101Y-17857130D01*
X51744900Y-17786511D01*
X51959448Y-17671833D01*
X52147502Y-17517502D01*
X52301833Y-17329449D01*
X52416511Y-17114901D01*
X52487130Y-16882102D01*
X52505000Y-16700665D01*
X52505000Y-16009802D01*
X52575000Y-16079802D01*
X52575000Y-16700664D01*
X52592870Y-16882101D01*
X52663489Y-17114900D01*
X52778167Y-17329448D01*
X52932498Y-17517502D01*
X53120551Y-17671833D01*
X53335099Y-17786511D01*
X53567898Y-17857130D01*
X53810000Y-17880975D01*
X54052101Y-17857130D01*
X54284900Y-17786511D01*
X54499448Y-17671833D01*
X54687502Y-17517502D01*
X54841833Y-17329449D01*
X54956511Y-17114901D01*
X55027130Y-16882102D01*
X55045000Y-16700665D01*
X55045000Y-15779336D01*
X55027130Y-15597899D01*
X54956511Y-15365099D01*
X54841833Y-15150551D01*
X54687502Y-14962498D01*
X54499449Y-14808167D01*
X54284901Y-14693489D01*
X54052102Y-14622870D01*
X53810000Y-14599025D01*
X53567899Y-14622870D01*
X53337548Y-14692746D01*
X52076236Y-13431435D01*
X52076236Y-6498089D01*
X52199122Y-6415979D01*
X52392035Y-6223066D01*
X52543607Y-5996223D01*
X52648011Y-5744169D01*
X52701236Y-5476591D01*
X52701236Y-5203769D01*
X52682808Y-5111127D01*
X52764289Y-5192608D01*
X52991132Y-5344180D01*
X53243186Y-5448584D01*
X53510764Y-5501809D01*
X53783586Y-5501809D01*
X54051164Y-5448584D01*
X54303218Y-5344180D01*
X54530061Y-5192608D01*
X54722974Y-4999695D01*
X54874546Y-4772852D01*
X54978950Y-4520798D01*
X55032175Y-4253220D01*
X55032175Y-3980398D01*
X54978950Y-3712820D01*
X54874546Y-3460766D01*
X54757706Y-3285902D01*
X55006178Y-3335327D01*
X55279000Y-3335327D01*
X55546578Y-3282102D01*
X55657590Y-3236119D01*
X55657591Y-14810597D01*
G04 #@! TA.AperFunction,Conductor*
D19*
G36*
X55657591Y-14810597D02*
G01*
X55472499Y-14962498D01*
X55318168Y-15150551D01*
X55203489Y-15365099D01*
X55132870Y-15597898D01*
X55115000Y-15779335D01*
X55115000Y-16700664D01*
X55132870Y-16882101D01*
X55203489Y-17114900D01*
X55318167Y-17329448D01*
X55472498Y-17517502D01*
X55660551Y-17671833D01*
X55773824Y-17732378D01*
X52031213Y-21474990D01*
X42672333Y-21474990D01*
X42635010Y-21471314D01*
X42597687Y-21474990D01*
X42597677Y-21474990D01*
X42486024Y-21485987D01*
X42459881Y-21493917D01*
X43035998Y-20917801D01*
X43064991Y-20894007D01*
X43088785Y-20865014D01*
X43088789Y-20865010D01*
X43159963Y-20778283D01*
X43159964Y-20778282D01*
X43230536Y-20646253D01*
X43273993Y-20502992D01*
X43284990Y-20391339D01*
X43284990Y-20391330D01*
X43288666Y-20354007D01*
X43284990Y-20316684D01*
X43284990Y-17819846D01*
X43407898Y-17857130D01*
X43650000Y-17880975D01*
X43892101Y-17857130D01*
X44124900Y-17786511D01*
X44339448Y-17671833D01*
X44527502Y-17517502D01*
X44681833Y-17329449D01*
X44796511Y-17114901D01*
X44867130Y-16882102D01*
X44885000Y-16700665D01*
X44885000Y-16079801D01*
X44955000Y-16009801D01*
X44955000Y-16700664D01*
X44972870Y-16882101D01*
X45043489Y-17114900D01*
X45158167Y-17329448D01*
X45312498Y-17517502D01*
X45500551Y-17671833D01*
X45715099Y-17786511D01*
X45947898Y-17857130D01*
X46190000Y-17880975D01*
X46432101Y-17857130D01*
X46664900Y-17786511D01*
X46879448Y-17671833D01*
X47067502Y-17517502D01*
X47221833Y-17329449D01*
X47336511Y-17114901D01*
X47407130Y-16882102D01*
X47425000Y-16700665D01*
X47425000Y-16367000D01*
X47495000Y-16367000D01*
X47495000Y-16767000D01*
X47543507Y-17005496D01*
X47637610Y-17229946D01*
X47773693Y-17431725D01*
X47946526Y-17603078D01*
X48149467Y-17737421D01*
X48374718Y-17829591D01*
X48412391Y-17833462D01*
X48603000Y-17708731D01*
X48603000Y-16367000D01*
X48857000Y-16367000D01*
X48857000Y-17708731D01*
X49047609Y-17833462D01*
X49085282Y-17829591D01*
X49310533Y-17737421D01*
X49513474Y-17603078D01*
X49686307Y-17431725D01*
X49822390Y-17229946D01*
X49916493Y-17005496D01*
X49965000Y-16767000D01*
X49965000Y-16367000D01*
X48857000Y-16367000D01*
X48603000Y-16367000D01*
X47495000Y-16367000D01*
X47425000Y-16367000D01*
X47425000Y-16079801D01*
X47495000Y-16009801D01*
X47495000Y-16113000D01*
X48603000Y-16113000D01*
X48603000Y-16093000D01*
X48857000Y-16093000D01*
X48857000Y-16113000D01*
X49965000Y-16113000D01*
X49965000Y-15713000D01*
X49916493Y-15474504D01*
X49822390Y-15250054D01*
X49686307Y-15048275D01*
X49513474Y-14876922D01*
X49310533Y-14742579D01*
X49085282Y-14650409D01*
X49047609Y-14646538D01*
X48857002Y-14771268D01*
X48857002Y-14647800D01*
X49194767Y-14310035D01*
X49223765Y-14286237D01*
X49318738Y-14170512D01*
X49389310Y-14038483D01*
X49432767Y-13895222D01*
X49437002Y-13852221D01*
X49439755Y-13855575D01*
X49501234Y-13930488D01*
X49530238Y-13954291D01*
X50472659Y-14896713D01*
X50392499Y-14962498D01*
X50238168Y-15150551D01*
X50123489Y-15365099D01*
X50052870Y-15597898D01*
X50035000Y-15779335D01*
X50035000Y-16700664D01*
X50052870Y-16882101D01*
X50123489Y-17114900D01*
X50238167Y-17329448D01*
X50392498Y-17517502D01*
X50580551Y-17671833D01*
X50795099Y-17786511D01*
X51027898Y-17857130D01*
X51270000Y-17880975D01*
X51512101Y-17857130D01*
X51744900Y-17786511D01*
X51959448Y-17671833D01*
X52147502Y-17517502D01*
X52301833Y-17329449D01*
X52416511Y-17114901D01*
X52487130Y-16882102D01*
X52505000Y-16700665D01*
X52505000Y-16009802D01*
X52575000Y-16079802D01*
X52575000Y-16700664D01*
X52592870Y-16882101D01*
X52663489Y-17114900D01*
X52778167Y-17329448D01*
X52932498Y-17517502D01*
X53120551Y-17671833D01*
X53335099Y-17786511D01*
X53567898Y-17857130D01*
X53810000Y-17880975D01*
X54052101Y-17857130D01*
X54284900Y-17786511D01*
X54499448Y-17671833D01*
X54687502Y-17517502D01*
X54841833Y-17329449D01*
X54956511Y-17114901D01*
X55027130Y-16882102D01*
X55045000Y-16700665D01*
X55045000Y-15779336D01*
X55027130Y-15597899D01*
X54956511Y-15365099D01*
X54841833Y-15150551D01*
X54687502Y-14962498D01*
X54499449Y-14808167D01*
X54284901Y-14693489D01*
X54052102Y-14622870D01*
X53810000Y-14599025D01*
X53567899Y-14622870D01*
X53337548Y-14692746D01*
X52076236Y-13431435D01*
X52076236Y-6498089D01*
X52199122Y-6415979D01*
X52392035Y-6223066D01*
X52543607Y-5996223D01*
X52648011Y-5744169D01*
X52701236Y-5476591D01*
X52701236Y-5203769D01*
X52682808Y-5111127D01*
X52764289Y-5192608D01*
X52991132Y-5344180D01*
X53243186Y-5448584D01*
X53510764Y-5501809D01*
X53783586Y-5501809D01*
X54051164Y-5448584D01*
X54303218Y-5344180D01*
X54530061Y-5192608D01*
X54722974Y-4999695D01*
X54874546Y-4772852D01*
X54978950Y-4520798D01*
X55032175Y-4253220D01*
X55032175Y-3980398D01*
X54978950Y-3712820D01*
X54874546Y-3460766D01*
X54757706Y-3285902D01*
X55006178Y-3335327D01*
X55279000Y-3335327D01*
X55546578Y-3282102D01*
X55657590Y-3236119D01*
X55657591Y-14810597D01*
G37*
G04 #@! TD.AperFunction*
D18*
X-14342409Y-14810597D02*
X-14527501Y-14962498D01*
X-14681832Y-15150551D01*
X-14796511Y-15365099D01*
X-14867130Y-15597898D01*
X-14885000Y-15779335D01*
X-14885000Y-16700664D01*
X-14867130Y-16882101D01*
X-14796511Y-17114900D01*
X-14681833Y-17329448D01*
X-14527502Y-17517502D01*
X-14339449Y-17671833D01*
X-14226176Y-17732378D01*
X-17968787Y-21474990D01*
X-27327667Y-21474990D01*
X-27364990Y-21471314D01*
X-27402313Y-21474990D01*
X-27402323Y-21474990D01*
X-27513976Y-21485987D01*
X-27540119Y-21493917D01*
X-26964002Y-20917801D01*
X-26935009Y-20894007D01*
X-26911215Y-20865014D01*
X-26911211Y-20865010D01*
X-26840037Y-20778283D01*
X-26840036Y-20778282D01*
X-26769464Y-20646253D01*
X-26726007Y-20502992D01*
X-26715010Y-20391339D01*
X-26715010Y-20391330D01*
X-26711334Y-20354007D01*
X-26715010Y-20316684D01*
X-26715010Y-17819846D01*
X-26592102Y-17857130D01*
X-26350000Y-17880975D01*
X-26107899Y-17857130D01*
X-25875100Y-17786511D01*
X-25660552Y-17671833D01*
X-25472498Y-17517502D01*
X-25318167Y-17329449D01*
X-25203489Y-17114901D01*
X-25132870Y-16882102D01*
X-25115000Y-16700665D01*
X-25115000Y-16079801D01*
X-25045000Y-16009801D01*
X-25045000Y-16700664D01*
X-25027130Y-16882101D01*
X-24956511Y-17114900D01*
X-24841833Y-17329448D01*
X-24687502Y-17517502D01*
X-24499449Y-17671833D01*
X-24284901Y-17786511D01*
X-24052102Y-17857130D01*
X-23810000Y-17880975D01*
X-23567899Y-17857130D01*
X-23335100Y-17786511D01*
X-23120552Y-17671833D01*
X-22932498Y-17517502D01*
X-22778167Y-17329449D01*
X-22663489Y-17114901D01*
X-22592870Y-16882102D01*
X-22575000Y-16700665D01*
X-22575000Y-16367000D01*
X-22505000Y-16367000D01*
X-22505000Y-16767000D01*
X-22456493Y-17005496D01*
X-22362390Y-17229946D01*
X-22226307Y-17431725D01*
X-22053474Y-17603078D01*
X-21850533Y-17737421D01*
X-21625282Y-17829591D01*
X-21587609Y-17833462D01*
X-21397000Y-17708731D01*
X-21397000Y-16367000D01*
X-21143000Y-16367000D01*
X-21143000Y-17708731D01*
X-20952391Y-17833462D01*
X-20914718Y-17829591D01*
X-20689467Y-17737421D01*
X-20486526Y-17603078D01*
X-20313693Y-17431725D01*
X-20177610Y-17229946D01*
X-20083507Y-17005496D01*
X-20035000Y-16767000D01*
X-20035000Y-16367000D01*
X-21143000Y-16367000D01*
X-21397000Y-16367000D01*
X-22505000Y-16367000D01*
X-22575000Y-16367000D01*
X-22575000Y-16079801D01*
X-22505000Y-16009801D01*
X-22505000Y-16113000D01*
X-21397000Y-16113000D01*
X-21397000Y-16093000D01*
X-21143000Y-16093000D01*
X-21143000Y-16113000D01*
X-20035000Y-16113000D01*
X-20035000Y-16009801D01*
X-19965000Y-16079801D01*
X-19965000Y-16700664D01*
X-19947130Y-16882101D01*
X-19876511Y-17114900D01*
X-19761833Y-17329448D01*
X-19607502Y-17517502D01*
X-19419449Y-17671833D01*
X-19204901Y-17786511D01*
X-18972102Y-17857130D01*
X-18730000Y-17880975D01*
X-18487899Y-17857130D01*
X-18255100Y-17786511D01*
X-18040552Y-17671833D01*
X-17852498Y-17517502D01*
X-17698167Y-17329449D01*
X-17583489Y-17114901D01*
X-17512870Y-16882102D01*
X-17495000Y-16700665D01*
X-17495000Y-16009802D01*
X-17425000Y-16079802D01*
X-17425000Y-16700664D01*
X-17407130Y-16882101D01*
X-17336511Y-17114900D01*
X-17221833Y-17329448D01*
X-17067502Y-17517502D01*
X-16879449Y-17671833D01*
X-16664901Y-17786511D01*
X-16432102Y-17857130D01*
X-16190000Y-17880975D01*
X-15947899Y-17857130D01*
X-15715100Y-17786511D01*
X-15500552Y-17671833D01*
X-15312498Y-17517502D01*
X-15158167Y-17329449D01*
X-15043489Y-17114901D01*
X-14972870Y-16882102D01*
X-14955000Y-16700665D01*
X-14955000Y-15779336D01*
X-14972870Y-15597899D01*
X-15043489Y-15365099D01*
X-15158167Y-15150551D01*
X-15312498Y-14962498D01*
X-15500551Y-14808167D01*
X-15715099Y-14693489D01*
X-15947898Y-14622870D01*
X-16190000Y-14599025D01*
X-16432101Y-14622870D01*
X-16662452Y-14692746D01*
X-17923764Y-13431435D01*
X-17923764Y-6498089D01*
X-17800878Y-6415979D01*
X-17607965Y-6223066D01*
X-17456393Y-5996223D01*
X-17351989Y-5744169D01*
X-17298764Y-5476591D01*
X-17298764Y-5203769D01*
X-17317192Y-5111127D01*
X-17235711Y-5192608D01*
X-17008868Y-5344180D01*
X-16756814Y-5448584D01*
X-16489236Y-5501809D01*
X-16216414Y-5501809D01*
X-15948836Y-5448584D01*
X-15696782Y-5344180D01*
X-15469939Y-5192608D01*
X-15277026Y-4999695D01*
X-15125454Y-4772852D01*
X-15021050Y-4520798D01*
X-14967825Y-4253220D01*
X-14967825Y-3980398D01*
X-15021050Y-3712820D01*
X-15125454Y-3460766D01*
X-15242294Y-3285902D01*
X-14993822Y-3335327D01*
X-14721000Y-3335327D01*
X-14453422Y-3282102D01*
X-14342410Y-3236119D01*
X-14342409Y-14810597D01*
G04 #@! TA.AperFunction,Conductor*
D19*
G36*
X-14342409Y-14810597D02*
G01*
X-14527501Y-14962498D01*
X-14681832Y-15150551D01*
X-14796511Y-15365099D01*
X-14867130Y-15597898D01*
X-14885000Y-15779335D01*
X-14885000Y-16700664D01*
X-14867130Y-16882101D01*
X-14796511Y-17114900D01*
X-14681833Y-17329448D01*
X-14527502Y-17517502D01*
X-14339449Y-17671833D01*
X-14226176Y-17732378D01*
X-17968787Y-21474990D01*
X-27327667Y-21474990D01*
X-27364990Y-21471314D01*
X-27402313Y-21474990D01*
X-27402323Y-21474990D01*
X-27513976Y-21485987D01*
X-27540119Y-21493917D01*
X-26964002Y-20917801D01*
X-26935009Y-20894007D01*
X-26911215Y-20865014D01*
X-26911211Y-20865010D01*
X-26840037Y-20778283D01*
X-26840036Y-20778282D01*
X-26769464Y-20646253D01*
X-26726007Y-20502992D01*
X-26715010Y-20391339D01*
X-26715010Y-20391330D01*
X-26711334Y-20354007D01*
X-26715010Y-20316684D01*
X-26715010Y-17819846D01*
X-26592102Y-17857130D01*
X-26350000Y-17880975D01*
X-26107899Y-17857130D01*
X-25875100Y-17786511D01*
X-25660552Y-17671833D01*
X-25472498Y-17517502D01*
X-25318167Y-17329449D01*
X-25203489Y-17114901D01*
X-25132870Y-16882102D01*
X-25115000Y-16700665D01*
X-25115000Y-16079801D01*
X-25045000Y-16009801D01*
X-25045000Y-16700664D01*
X-25027130Y-16882101D01*
X-24956511Y-17114900D01*
X-24841833Y-17329448D01*
X-24687502Y-17517502D01*
X-24499449Y-17671833D01*
X-24284901Y-17786511D01*
X-24052102Y-17857130D01*
X-23810000Y-17880975D01*
X-23567899Y-17857130D01*
X-23335100Y-17786511D01*
X-23120552Y-17671833D01*
X-22932498Y-17517502D01*
X-22778167Y-17329449D01*
X-22663489Y-17114901D01*
X-22592870Y-16882102D01*
X-22575000Y-16700665D01*
X-22575000Y-16367000D01*
X-22505000Y-16367000D01*
X-22505000Y-16767000D01*
X-22456493Y-17005496D01*
X-22362390Y-17229946D01*
X-22226307Y-17431725D01*
X-22053474Y-17603078D01*
X-21850533Y-17737421D01*
X-21625282Y-17829591D01*
X-21587609Y-17833462D01*
X-21397000Y-17708731D01*
X-21397000Y-16367000D01*
X-21143000Y-16367000D01*
X-21143000Y-17708731D01*
X-20952391Y-17833462D01*
X-20914718Y-17829591D01*
X-20689467Y-17737421D01*
X-20486526Y-17603078D01*
X-20313693Y-17431725D01*
X-20177610Y-17229946D01*
X-20083507Y-17005496D01*
X-20035000Y-16767000D01*
X-20035000Y-16367000D01*
X-21143000Y-16367000D01*
X-21397000Y-16367000D01*
X-22505000Y-16367000D01*
X-22575000Y-16367000D01*
X-22575000Y-16079801D01*
X-22505000Y-16009801D01*
X-22505000Y-16113000D01*
X-21397000Y-16113000D01*
X-21397000Y-16093000D01*
X-21143000Y-16093000D01*
X-21143000Y-16113000D01*
X-20035000Y-16113000D01*
X-20035000Y-16009801D01*
X-19965000Y-16079801D01*
X-19965000Y-16700664D01*
X-19947130Y-16882101D01*
X-19876511Y-17114900D01*
X-19761833Y-17329448D01*
X-19607502Y-17517502D01*
X-19419449Y-17671833D01*
X-19204901Y-17786511D01*
X-18972102Y-17857130D01*
X-18730000Y-17880975D01*
X-18487899Y-17857130D01*
X-18255100Y-17786511D01*
X-18040552Y-17671833D01*
X-17852498Y-17517502D01*
X-17698167Y-17329449D01*
X-17583489Y-17114901D01*
X-17512870Y-16882102D01*
X-17495000Y-16700665D01*
X-17495000Y-16009802D01*
X-17425000Y-16079802D01*
X-17425000Y-16700664D01*
X-17407130Y-16882101D01*
X-17336511Y-17114900D01*
X-17221833Y-17329448D01*
X-17067502Y-17517502D01*
X-16879449Y-17671833D01*
X-16664901Y-17786511D01*
X-16432102Y-17857130D01*
X-16190000Y-17880975D01*
X-15947899Y-17857130D01*
X-15715100Y-17786511D01*
X-15500552Y-17671833D01*
X-15312498Y-17517502D01*
X-15158167Y-17329449D01*
X-15043489Y-17114901D01*
X-14972870Y-16882102D01*
X-14955000Y-16700665D01*
X-14955000Y-15779336D01*
X-14972870Y-15597899D01*
X-15043489Y-15365099D01*
X-15158167Y-15150551D01*
X-15312498Y-14962498D01*
X-15500551Y-14808167D01*
X-15715099Y-14693489D01*
X-15947898Y-14622870D01*
X-16190000Y-14599025D01*
X-16432101Y-14622870D01*
X-16662452Y-14692746D01*
X-17923764Y-13431435D01*
X-17923764Y-6498089D01*
X-17800878Y-6415979D01*
X-17607965Y-6223066D01*
X-17456393Y-5996223D01*
X-17351989Y-5744169D01*
X-17298764Y-5476591D01*
X-17298764Y-5203769D01*
X-17317192Y-5111127D01*
X-17235711Y-5192608D01*
X-17008868Y-5344180D01*
X-16756814Y-5448584D01*
X-16489236Y-5501809D01*
X-16216414Y-5501809D01*
X-15948836Y-5448584D01*
X-15696782Y-5344180D01*
X-15469939Y-5192608D01*
X-15277026Y-4999695D01*
X-15125454Y-4772852D01*
X-15021050Y-4520798D01*
X-14967825Y-4253220D01*
X-14967825Y-3980398D01*
X-15021050Y-3712820D01*
X-15125454Y-3460766D01*
X-15242294Y-3285902D01*
X-14993822Y-3335327D01*
X-14721000Y-3335327D01*
X-14453422Y-3282102D01*
X-14342410Y-3236119D01*
X-14342409Y-14810597D01*
G37*
G04 #@! TD.AperFunction*
D18*
X-44342409Y-14810597D02*
X-44527501Y-14962498D01*
X-44681832Y-15150551D01*
X-44796511Y-15365099D01*
X-44867130Y-15597898D01*
X-44885000Y-15779335D01*
X-44885000Y-16700664D01*
X-44867130Y-16882101D01*
X-44796511Y-17114900D01*
X-44681833Y-17329448D01*
X-44527502Y-17517502D01*
X-44339449Y-17671833D01*
X-44226176Y-17732378D01*
X-47968787Y-21474990D01*
X-57327667Y-21474990D01*
X-57364990Y-21471314D01*
X-57402313Y-21474990D01*
X-57402323Y-21474990D01*
X-57513976Y-21485987D01*
X-57540120Y-21493917D01*
X-57253987Y-21207785D01*
X-57224989Y-21183987D01*
X-57130016Y-21068262D01*
X-57059444Y-20936233D01*
X-57015987Y-20792972D01*
X-57004990Y-20681319D01*
X-57004990Y-20681309D01*
X-57001314Y-20643986D01*
X-57004990Y-20606663D01*
X-57004990Y-17690252D01*
X-56824901Y-17786511D01*
X-56592102Y-17857130D01*
X-56350000Y-17880975D01*
X-56107899Y-17857130D01*
X-55875100Y-17786511D01*
X-55660552Y-17671833D01*
X-55472498Y-17517502D01*
X-55318167Y-17329449D01*
X-55203489Y-17114901D01*
X-55132870Y-16882102D01*
X-55115000Y-16700665D01*
X-55115000Y-16079801D01*
X-55045000Y-16009801D01*
X-55045000Y-16700664D01*
X-55027130Y-16882101D01*
X-54956511Y-17114900D01*
X-54841833Y-17329448D01*
X-54687502Y-17517502D01*
X-54499449Y-17671833D01*
X-54284901Y-17786511D01*
X-54052102Y-17857130D01*
X-53810000Y-17880975D01*
X-53567899Y-17857130D01*
X-53335100Y-17786511D01*
X-53120552Y-17671833D01*
X-52932498Y-17517502D01*
X-52778167Y-17329449D01*
X-52663489Y-17114901D01*
X-52592870Y-16882102D01*
X-52575000Y-16700665D01*
X-52575000Y-16367000D01*
X-52505000Y-16367000D01*
X-52505000Y-16767000D01*
X-52456493Y-17005496D01*
X-52362390Y-17229946D01*
X-52226307Y-17431725D01*
X-52053474Y-17603078D01*
X-51850533Y-17737421D01*
X-51625282Y-17829591D01*
X-51587609Y-17833462D01*
X-51397000Y-17708731D01*
X-51397000Y-16367000D01*
X-51143000Y-16367000D01*
X-51143000Y-17708731D01*
X-50952391Y-17833462D01*
X-50914718Y-17829591D01*
X-50689467Y-17737421D01*
X-50486526Y-17603078D01*
X-50313693Y-17431725D01*
X-50177610Y-17229946D01*
X-50083507Y-17005496D01*
X-50035000Y-16767000D01*
X-50035000Y-16367000D01*
X-51143000Y-16367000D01*
X-51397000Y-16367000D01*
X-52505000Y-16367000D01*
X-52575000Y-16367000D01*
X-52575000Y-16079801D01*
X-52505000Y-16009801D01*
X-52505000Y-16113000D01*
X-51397000Y-16113000D01*
X-51397000Y-16093000D01*
X-51143000Y-16093000D01*
X-51143000Y-16113000D01*
X-50035000Y-16113000D01*
X-50035000Y-16009801D01*
X-49965000Y-16079801D01*
X-49965000Y-16700664D01*
X-49947130Y-16882101D01*
X-49876511Y-17114900D01*
X-49761833Y-17329448D01*
X-49607502Y-17517502D01*
X-49419449Y-17671833D01*
X-49204901Y-17786511D01*
X-48972102Y-17857130D01*
X-48730000Y-17880975D01*
X-48487899Y-17857130D01*
X-48255100Y-17786511D01*
X-48040552Y-17671833D01*
X-47852498Y-17517502D01*
X-47698167Y-17329449D01*
X-47583489Y-17114901D01*
X-47512870Y-16882102D01*
X-47495000Y-16700665D01*
X-47495000Y-16009802D01*
X-47425000Y-16079802D01*
X-47425000Y-16700664D01*
X-47407130Y-16882101D01*
X-47336511Y-17114900D01*
X-47221833Y-17329448D01*
X-47067502Y-17517502D01*
X-46879449Y-17671833D01*
X-46664901Y-17786511D01*
X-46432102Y-17857130D01*
X-46190000Y-17880975D01*
X-45947899Y-17857130D01*
X-45715100Y-17786511D01*
X-45500552Y-17671833D01*
X-45312498Y-17517502D01*
X-45158167Y-17329449D01*
X-45043489Y-17114901D01*
X-44972870Y-16882102D01*
X-44955000Y-16700665D01*
X-44955000Y-15779336D01*
X-44972870Y-15597899D01*
X-45043489Y-15365099D01*
X-45158167Y-15150551D01*
X-45312498Y-14962498D01*
X-45500551Y-14808167D01*
X-45715099Y-14693489D01*
X-45947898Y-14622870D01*
X-46190000Y-14599025D01*
X-46432101Y-14622870D01*
X-46662452Y-14692746D01*
X-47923764Y-13431435D01*
X-47923764Y-6498089D01*
X-47800878Y-6415979D01*
X-47607965Y-6223066D01*
X-47456393Y-5996223D01*
X-47351989Y-5744169D01*
X-47298764Y-5476591D01*
X-47298764Y-5203769D01*
X-47317192Y-5111127D01*
X-47235711Y-5192608D01*
X-47008868Y-5344180D01*
X-46756814Y-5448584D01*
X-46489236Y-5501809D01*
X-46216414Y-5501809D01*
X-45948836Y-5448584D01*
X-45696782Y-5344180D01*
X-45469939Y-5192608D01*
X-45277026Y-4999695D01*
X-45125454Y-4772852D01*
X-45021050Y-4520798D01*
X-44967825Y-4253220D01*
X-44967825Y-3980398D01*
X-45021050Y-3712820D01*
X-45125454Y-3460766D01*
X-45242294Y-3285902D01*
X-44993822Y-3335327D01*
X-44721000Y-3335327D01*
X-44453422Y-3282102D01*
X-44342410Y-3236119D01*
X-44342409Y-14810597D01*
G04 #@! TA.AperFunction,Conductor*
D19*
G36*
X-44342409Y-14810597D02*
G01*
X-44527501Y-14962498D01*
X-44681832Y-15150551D01*
X-44796511Y-15365099D01*
X-44867130Y-15597898D01*
X-44885000Y-15779335D01*
X-44885000Y-16700664D01*
X-44867130Y-16882101D01*
X-44796511Y-17114900D01*
X-44681833Y-17329448D01*
X-44527502Y-17517502D01*
X-44339449Y-17671833D01*
X-44226176Y-17732378D01*
X-47968787Y-21474990D01*
X-57327667Y-21474990D01*
X-57364990Y-21471314D01*
X-57402313Y-21474990D01*
X-57402323Y-21474990D01*
X-57513976Y-21485987D01*
X-57540120Y-21493917D01*
X-57253987Y-21207785D01*
X-57224989Y-21183987D01*
X-57130016Y-21068262D01*
X-57059444Y-20936233D01*
X-57015987Y-20792972D01*
X-57004990Y-20681319D01*
X-57004990Y-20681309D01*
X-57001314Y-20643986D01*
X-57004990Y-20606663D01*
X-57004990Y-17690252D01*
X-56824901Y-17786511D01*
X-56592102Y-17857130D01*
X-56350000Y-17880975D01*
X-56107899Y-17857130D01*
X-55875100Y-17786511D01*
X-55660552Y-17671833D01*
X-55472498Y-17517502D01*
X-55318167Y-17329449D01*
X-55203489Y-17114901D01*
X-55132870Y-16882102D01*
X-55115000Y-16700665D01*
X-55115000Y-16079801D01*
X-55045000Y-16009801D01*
X-55045000Y-16700664D01*
X-55027130Y-16882101D01*
X-54956511Y-17114900D01*
X-54841833Y-17329448D01*
X-54687502Y-17517502D01*
X-54499449Y-17671833D01*
X-54284901Y-17786511D01*
X-54052102Y-17857130D01*
X-53810000Y-17880975D01*
X-53567899Y-17857130D01*
X-53335100Y-17786511D01*
X-53120552Y-17671833D01*
X-52932498Y-17517502D01*
X-52778167Y-17329449D01*
X-52663489Y-17114901D01*
X-52592870Y-16882102D01*
X-52575000Y-16700665D01*
X-52575000Y-16367000D01*
X-52505000Y-16367000D01*
X-52505000Y-16767000D01*
X-52456493Y-17005496D01*
X-52362390Y-17229946D01*
X-52226307Y-17431725D01*
X-52053474Y-17603078D01*
X-51850533Y-17737421D01*
X-51625282Y-17829591D01*
X-51587609Y-17833462D01*
X-51397000Y-17708731D01*
X-51397000Y-16367000D01*
X-51143000Y-16367000D01*
X-51143000Y-17708731D01*
X-50952391Y-17833462D01*
X-50914718Y-17829591D01*
X-50689467Y-17737421D01*
X-50486526Y-17603078D01*
X-50313693Y-17431725D01*
X-50177610Y-17229946D01*
X-50083507Y-17005496D01*
X-50035000Y-16767000D01*
X-50035000Y-16367000D01*
X-51143000Y-16367000D01*
X-51397000Y-16367000D01*
X-52505000Y-16367000D01*
X-52575000Y-16367000D01*
X-52575000Y-16079801D01*
X-52505000Y-16009801D01*
X-52505000Y-16113000D01*
X-51397000Y-16113000D01*
X-51397000Y-16093000D01*
X-51143000Y-16093000D01*
X-51143000Y-16113000D01*
X-50035000Y-16113000D01*
X-50035000Y-16009801D01*
X-49965000Y-16079801D01*
X-49965000Y-16700664D01*
X-49947130Y-16882101D01*
X-49876511Y-17114900D01*
X-49761833Y-17329448D01*
X-49607502Y-17517502D01*
X-49419449Y-17671833D01*
X-49204901Y-17786511D01*
X-48972102Y-17857130D01*
X-48730000Y-17880975D01*
X-48487899Y-17857130D01*
X-48255100Y-17786511D01*
X-48040552Y-17671833D01*
X-47852498Y-17517502D01*
X-47698167Y-17329449D01*
X-47583489Y-17114901D01*
X-47512870Y-16882102D01*
X-47495000Y-16700665D01*
X-47495000Y-16009802D01*
X-47425000Y-16079802D01*
X-47425000Y-16700664D01*
X-47407130Y-16882101D01*
X-47336511Y-17114900D01*
X-47221833Y-17329448D01*
X-47067502Y-17517502D01*
X-46879449Y-17671833D01*
X-46664901Y-17786511D01*
X-46432102Y-17857130D01*
X-46190000Y-17880975D01*
X-45947899Y-17857130D01*
X-45715100Y-17786511D01*
X-45500552Y-17671833D01*
X-45312498Y-17517502D01*
X-45158167Y-17329449D01*
X-45043489Y-17114901D01*
X-44972870Y-16882102D01*
X-44955000Y-16700665D01*
X-44955000Y-15779336D01*
X-44972870Y-15597899D01*
X-45043489Y-15365099D01*
X-45158167Y-15150551D01*
X-45312498Y-14962498D01*
X-45500551Y-14808167D01*
X-45715099Y-14693489D01*
X-45947898Y-14622870D01*
X-46190000Y-14599025D01*
X-46432101Y-14622870D01*
X-46662452Y-14692746D01*
X-47923764Y-13431435D01*
X-47923764Y-6498089D01*
X-47800878Y-6415979D01*
X-47607965Y-6223066D01*
X-47456393Y-5996223D01*
X-47351989Y-5744169D01*
X-47298764Y-5476591D01*
X-47298764Y-5203769D01*
X-47317192Y-5111127D01*
X-47235711Y-5192608D01*
X-47008868Y-5344180D01*
X-46756814Y-5448584D01*
X-46489236Y-5501809D01*
X-46216414Y-5501809D01*
X-45948836Y-5448584D01*
X-45696782Y-5344180D01*
X-45469939Y-5192608D01*
X-45277026Y-4999695D01*
X-45125454Y-4772852D01*
X-45021050Y-4520798D01*
X-44967825Y-4253220D01*
X-44967825Y-3980398D01*
X-45021050Y-3712820D01*
X-45125454Y-3460766D01*
X-45242294Y-3285902D01*
X-44993822Y-3335327D01*
X-44721000Y-3335327D01*
X-44453422Y-3282102D01*
X-44342410Y-3236119D01*
X-44342409Y-14810597D01*
G37*
G04 #@! TD.AperFunction*
D18*
X25657591Y-14810597D02*
X25472499Y-14962498D01*
X25318168Y-15150551D01*
X25203489Y-15365099D01*
X25132870Y-15597898D01*
X25115000Y-15779335D01*
X25115000Y-16700664D01*
X25132870Y-16882101D01*
X25203489Y-17114900D01*
X25318167Y-17329448D01*
X25472498Y-17517502D01*
X25660551Y-17671833D01*
X25875099Y-17786511D01*
X26107898Y-17857130D01*
X26350000Y-17880975D01*
X26592101Y-17857130D01*
X26715011Y-17819846D01*
X26715011Y-18057187D01*
X24597229Y-20174970D01*
X13972355Y-20174970D01*
X13935030Y-20171294D01*
X13897705Y-20174970D01*
X13897697Y-20174970D01*
X13786044Y-20185967D01*
X13642783Y-20229424D01*
X13510754Y-20299996D01*
X13395029Y-20394969D01*
X13371231Y-20423967D01*
X12976083Y-20819116D01*
X12984013Y-20792972D01*
X12995010Y-20681319D01*
X12995010Y-20681309D01*
X12998686Y-20643986D01*
X12995010Y-20606663D01*
X12995010Y-17690252D01*
X13175099Y-17786511D01*
X13407898Y-17857130D01*
X13650000Y-17880975D01*
X13892101Y-17857130D01*
X14124900Y-17786511D01*
X14339448Y-17671833D01*
X14527502Y-17517502D01*
X14681833Y-17329449D01*
X14796511Y-17114901D01*
X14867130Y-16882102D01*
X14885000Y-16700665D01*
X14885000Y-16079801D01*
X14955000Y-16009801D01*
X14955000Y-16700664D01*
X14972870Y-16882101D01*
X15043489Y-17114900D01*
X15158167Y-17329448D01*
X15312498Y-17517502D01*
X15500551Y-17671833D01*
X15715099Y-17786511D01*
X15947898Y-17857130D01*
X16190000Y-17880975D01*
X16432101Y-17857130D01*
X16664900Y-17786511D01*
X16879448Y-17671833D01*
X17067502Y-17517502D01*
X17221833Y-17329449D01*
X17336511Y-17114901D01*
X17407130Y-16882102D01*
X17425000Y-16700665D01*
X17425000Y-16367000D01*
X17495000Y-16367000D01*
X17495000Y-16767000D01*
X17543507Y-17005496D01*
X17637610Y-17229946D01*
X17773693Y-17431725D01*
X17946526Y-17603078D01*
X18149467Y-17737421D01*
X18374718Y-17829591D01*
X18412391Y-17833462D01*
X18603000Y-17708731D01*
X18603000Y-16367000D01*
X18857000Y-16367000D01*
X18857000Y-17708731D01*
X19047609Y-17833462D01*
X19085282Y-17829591D01*
X19310533Y-17737421D01*
X19513474Y-17603078D01*
X19686307Y-17431725D01*
X19822390Y-17229946D01*
X19916493Y-17005496D01*
X19965000Y-16767000D01*
X19965000Y-16367000D01*
X18857000Y-16367000D01*
X18603000Y-16367000D01*
X17495000Y-16367000D01*
X17425000Y-16367000D01*
X17425000Y-16079801D01*
X17495000Y-16009801D01*
X17495000Y-16113000D01*
X18603000Y-16113000D01*
X18603000Y-16093000D01*
X18857000Y-16093000D01*
X18857000Y-16113000D01*
X19965000Y-16113000D01*
X19965000Y-16009801D01*
X20035000Y-16079801D01*
X20035000Y-16700664D01*
X20052870Y-16882101D01*
X20123489Y-17114900D01*
X20238167Y-17329448D01*
X20392498Y-17517502D01*
X20580551Y-17671833D01*
X20795099Y-17786511D01*
X21027898Y-17857130D01*
X21270000Y-17880975D01*
X21512101Y-17857130D01*
X21744900Y-17786511D01*
X21959448Y-17671833D01*
X22147502Y-17517502D01*
X22301833Y-17329449D01*
X22416511Y-17114901D01*
X22487130Y-16882102D01*
X22505000Y-16700665D01*
X22505000Y-16009802D01*
X22575000Y-16079802D01*
X22575000Y-16700664D01*
X22592870Y-16882101D01*
X22663489Y-17114900D01*
X22778167Y-17329448D01*
X22932498Y-17517502D01*
X23120551Y-17671833D01*
X23335099Y-17786511D01*
X23567898Y-17857130D01*
X23810000Y-17880975D01*
X24052101Y-17857130D01*
X24284900Y-17786511D01*
X24499448Y-17671833D01*
X24687502Y-17517502D01*
X24841833Y-17329449D01*
X24956511Y-17114901D01*
X25027130Y-16882102D01*
X25045000Y-16700665D01*
X25045000Y-15779336D01*
X25027130Y-15597899D01*
X24956511Y-15365099D01*
X24841833Y-15150551D01*
X24687502Y-14962498D01*
X24499449Y-14808167D01*
X24284901Y-14693489D01*
X24052102Y-14622870D01*
X23810000Y-14599025D01*
X23567899Y-14622870D01*
X23337548Y-14692746D01*
X22076236Y-13431435D01*
X22076236Y-6498089D01*
X22199122Y-6415979D01*
X22392035Y-6223066D01*
X22543607Y-5996223D01*
X22648011Y-5744169D01*
X22701236Y-5476591D01*
X22701236Y-5203769D01*
X22682808Y-5111127D01*
X22764289Y-5192608D01*
X22991132Y-5344180D01*
X23243186Y-5448584D01*
X23510764Y-5501809D01*
X23783586Y-5501809D01*
X24051164Y-5448584D01*
X24303218Y-5344180D01*
X24530061Y-5192608D01*
X24722974Y-4999695D01*
X24874546Y-4772852D01*
X24978950Y-4520798D01*
X25032175Y-4253220D01*
X25032175Y-3980398D01*
X24978950Y-3712820D01*
X24874546Y-3460766D01*
X24757706Y-3285902D01*
X25006178Y-3335327D01*
X25279000Y-3335327D01*
X25546578Y-3282102D01*
X25657590Y-3236119D01*
X25657591Y-14810597D01*
G04 #@! TA.AperFunction,Conductor*
D19*
G36*
X25657591Y-14810597D02*
G01*
X25472499Y-14962498D01*
X25318168Y-15150551D01*
X25203489Y-15365099D01*
X25132870Y-15597898D01*
X25115000Y-15779335D01*
X25115000Y-16700664D01*
X25132870Y-16882101D01*
X25203489Y-17114900D01*
X25318167Y-17329448D01*
X25472498Y-17517502D01*
X25660551Y-17671833D01*
X25875099Y-17786511D01*
X26107898Y-17857130D01*
X26350000Y-17880975D01*
X26592101Y-17857130D01*
X26715011Y-17819846D01*
X26715011Y-18057187D01*
X24597229Y-20174970D01*
X13972355Y-20174970D01*
X13935030Y-20171294D01*
X13897705Y-20174970D01*
X13897697Y-20174970D01*
X13786044Y-20185967D01*
X13642783Y-20229424D01*
X13510754Y-20299996D01*
X13395029Y-20394969D01*
X13371231Y-20423967D01*
X12976083Y-20819116D01*
X12984013Y-20792972D01*
X12995010Y-20681319D01*
X12995010Y-20681309D01*
X12998686Y-20643986D01*
X12995010Y-20606663D01*
X12995010Y-17690252D01*
X13175099Y-17786511D01*
X13407898Y-17857130D01*
X13650000Y-17880975D01*
X13892101Y-17857130D01*
X14124900Y-17786511D01*
X14339448Y-17671833D01*
X14527502Y-17517502D01*
X14681833Y-17329449D01*
X14796511Y-17114901D01*
X14867130Y-16882102D01*
X14885000Y-16700665D01*
X14885000Y-16079801D01*
X14955000Y-16009801D01*
X14955000Y-16700664D01*
X14972870Y-16882101D01*
X15043489Y-17114900D01*
X15158167Y-17329448D01*
X15312498Y-17517502D01*
X15500551Y-17671833D01*
X15715099Y-17786511D01*
X15947898Y-17857130D01*
X16190000Y-17880975D01*
X16432101Y-17857130D01*
X16664900Y-17786511D01*
X16879448Y-17671833D01*
X17067502Y-17517502D01*
X17221833Y-17329449D01*
X17336511Y-17114901D01*
X17407130Y-16882102D01*
X17425000Y-16700665D01*
X17425000Y-16367000D01*
X17495000Y-16367000D01*
X17495000Y-16767000D01*
X17543507Y-17005496D01*
X17637610Y-17229946D01*
X17773693Y-17431725D01*
X17946526Y-17603078D01*
X18149467Y-17737421D01*
X18374718Y-17829591D01*
X18412391Y-17833462D01*
X18603000Y-17708731D01*
X18603000Y-16367000D01*
X18857000Y-16367000D01*
X18857000Y-17708731D01*
X19047609Y-17833462D01*
X19085282Y-17829591D01*
X19310533Y-17737421D01*
X19513474Y-17603078D01*
X19686307Y-17431725D01*
X19822390Y-17229946D01*
X19916493Y-17005496D01*
X19965000Y-16767000D01*
X19965000Y-16367000D01*
X18857000Y-16367000D01*
X18603000Y-16367000D01*
X17495000Y-16367000D01*
X17425000Y-16367000D01*
X17425000Y-16079801D01*
X17495000Y-16009801D01*
X17495000Y-16113000D01*
X18603000Y-16113000D01*
X18603000Y-16093000D01*
X18857000Y-16093000D01*
X18857000Y-16113000D01*
X19965000Y-16113000D01*
X19965000Y-16009801D01*
X20035000Y-16079801D01*
X20035000Y-16700664D01*
X20052870Y-16882101D01*
X20123489Y-17114900D01*
X20238167Y-17329448D01*
X20392498Y-17517502D01*
X20580551Y-17671833D01*
X20795099Y-17786511D01*
X21027898Y-17857130D01*
X21270000Y-17880975D01*
X21512101Y-17857130D01*
X21744900Y-17786511D01*
X21959448Y-17671833D01*
X22147502Y-17517502D01*
X22301833Y-17329449D01*
X22416511Y-17114901D01*
X22487130Y-16882102D01*
X22505000Y-16700665D01*
X22505000Y-16009802D01*
X22575000Y-16079802D01*
X22575000Y-16700664D01*
X22592870Y-16882101D01*
X22663489Y-17114900D01*
X22778167Y-17329448D01*
X22932498Y-17517502D01*
X23120551Y-17671833D01*
X23335099Y-17786511D01*
X23567898Y-17857130D01*
X23810000Y-17880975D01*
X24052101Y-17857130D01*
X24284900Y-17786511D01*
X24499448Y-17671833D01*
X24687502Y-17517502D01*
X24841833Y-17329449D01*
X24956511Y-17114901D01*
X25027130Y-16882102D01*
X25045000Y-16700665D01*
X25045000Y-15779336D01*
X25027130Y-15597899D01*
X24956511Y-15365099D01*
X24841833Y-15150551D01*
X24687502Y-14962498D01*
X24499449Y-14808167D01*
X24284901Y-14693489D01*
X24052102Y-14622870D01*
X23810000Y-14599025D01*
X23567899Y-14622870D01*
X23337548Y-14692746D01*
X22076236Y-13431435D01*
X22076236Y-6498089D01*
X22199122Y-6415979D01*
X22392035Y-6223066D01*
X22543607Y-5996223D01*
X22648011Y-5744169D01*
X22701236Y-5476591D01*
X22701236Y-5203769D01*
X22682808Y-5111127D01*
X22764289Y-5192608D01*
X22991132Y-5344180D01*
X23243186Y-5448584D01*
X23510764Y-5501809D01*
X23783586Y-5501809D01*
X24051164Y-5448584D01*
X24303218Y-5344180D01*
X24530061Y-5192608D01*
X24722974Y-4999695D01*
X24874546Y-4772852D01*
X24978950Y-4520798D01*
X25032175Y-4253220D01*
X25032175Y-3980398D01*
X24978950Y-3712820D01*
X24874546Y-3460766D01*
X24757706Y-3285902D01*
X25006178Y-3335327D01*
X25279000Y-3335327D01*
X25546578Y-3282102D01*
X25657590Y-3236119D01*
X25657591Y-14810597D01*
G37*
G04 #@! TD.AperFunction*
M02*
