G04 #@! TF.GenerationSoftware,KiCad,Pcbnew,(5.1.12)-1*
G04 #@! TF.CreationDate,2022-01-06T15:45:00-05:00*
G04 #@! TF.ProjectId,Nixie_Clock,4e697869-655f-4436-9c6f-636b2e6b6963,1.1*
G04 #@! TF.SameCoordinates,Original*
G04 #@! TF.FileFunction,Soldermask,Bot*
G04 #@! TF.FilePolarity,Negative*
%FSLAX46Y46*%
G04 Gerber Fmt 4.6, Leading zero omitted, Abs format (unit mm)*
G04 Created by KiCad (PCBNEW (5.1.12)-1) date 2022-01-06 15:45:00*
%MOMM*%
%LPD*%
G01*
G04 APERTURE LIST*
%ADD10C,4.400000*%
%ADD11O,3.500000X3.500000*%
%ADD12R,1.905000X2.000000*%
%ADD13O,1.905000X2.000000*%
%ADD14O,2.000000X1.200000*%
%ADD15O,1.200000X2.000000*%
%ADD16O,1.600000X1.600000*%
%ADD17C,1.600000*%
%ADD18R,1.600000X1.600000*%
%ADD19C,1.500000*%
%ADD20R,2.000000X1.905000*%
%ADD21O,2.000000X1.905000*%
G04 APERTURE END LIST*
D10*
X232000000Y-75500000D03*
X232000000Y-127500000D03*
X100000000Y-127500000D03*
X100000000Y-75500000D03*
D11*
X102540000Y-111800000D03*
D12*
X100000000Y-96000000D03*
D13*
X102540000Y-96000000D03*
X105080000Y-96000000D03*
G36*
G01*
X112125000Y-91525000D02*
X112125000Y-92475000D01*
G75*
G02*
X111875000Y-92725000I-250000J0D01*
G01*
X111200000Y-92725000D01*
G75*
G02*
X110950000Y-92475000I0J250000D01*
G01*
X110950000Y-91525000D01*
G75*
G02*
X111200000Y-91275000I250000J0D01*
G01*
X111875000Y-91275000D01*
G75*
G02*
X112125000Y-91525000I0J-250000D01*
G01*
G37*
G36*
G01*
X110050000Y-91525000D02*
X110050000Y-92475000D01*
G75*
G02*
X109800000Y-92725000I-250000J0D01*
G01*
X109125000Y-92725000D01*
G75*
G02*
X108875000Y-92475000I0J250000D01*
G01*
X108875000Y-91525000D01*
G75*
G02*
X109125000Y-91275000I250000J0D01*
G01*
X109800000Y-91275000D01*
G75*
G02*
X110050000Y-91525000I0J-250000D01*
G01*
G37*
G36*
G01*
X103100000Y-91349997D02*
X103100000Y-92650003D01*
G75*
G02*
X102850003Y-92900000I-249997J0D01*
G01*
X102024997Y-92900000D01*
G75*
G02*
X101775000Y-92650003I0J249997D01*
G01*
X101775000Y-91349997D01*
G75*
G02*
X102024997Y-91100000I249997J0D01*
G01*
X102850003Y-91100000D01*
G75*
G02*
X103100000Y-91349997I0J-249997D01*
G01*
G37*
G36*
G01*
X106225000Y-91349997D02*
X106225000Y-92650003D01*
G75*
G02*
X105975003Y-92900000I-249997J0D01*
G01*
X105149997Y-92900000D01*
G75*
G02*
X104900000Y-92650003I0J249997D01*
G01*
X104900000Y-91349997D01*
G75*
G02*
X105149997Y-91100000I249997J0D01*
G01*
X105975003Y-91100000D01*
G75*
G02*
X106225000Y-91349997I0J-249997D01*
G01*
G37*
D14*
X99000000Y-88310000D03*
X99000000Y-85770000D03*
X99000000Y-83230000D03*
X99000000Y-80690000D03*
D15*
X224890000Y-117740000D03*
X224890000Y-125260000D03*
X222350000Y-117740000D03*
X222350000Y-125260000D03*
X219810000Y-117740000D03*
X219810000Y-125260000D03*
X217270000Y-117740000D03*
X217270000Y-125260000D03*
X214730000Y-117740000D03*
X214730000Y-125260000D03*
X212190000Y-117740000D03*
X212190000Y-125260000D03*
X209650000Y-117740000D03*
X209650000Y-125260000D03*
X207110000Y-117740000D03*
X207110000Y-125260000D03*
D16*
X138380000Y-88500000D03*
D17*
X146000000Y-88500000D03*
D18*
X187000000Y-74985000D03*
D16*
X220020000Y-90225000D03*
X189540000Y-74985000D03*
X217480000Y-90225000D03*
X192080000Y-74985000D03*
X214940000Y-90225000D03*
X194620000Y-74985000D03*
X212400000Y-90225000D03*
X197160000Y-74985000D03*
X209860000Y-90225000D03*
X199700000Y-74985000D03*
X207320000Y-90225000D03*
X202240000Y-74985000D03*
X204780000Y-90225000D03*
X204780000Y-74985000D03*
X202240000Y-90225000D03*
X207320000Y-74985000D03*
X199700000Y-90225000D03*
X209860000Y-74985000D03*
X197160000Y-90225000D03*
X212400000Y-74985000D03*
X194620000Y-90225000D03*
X214940000Y-74985000D03*
X192080000Y-90225000D03*
X217480000Y-74985000D03*
X189540000Y-90225000D03*
X220020000Y-74985000D03*
X187000000Y-90225000D03*
X222560000Y-74985000D03*
X222560000Y-90225000D03*
G36*
G01*
X103845000Y-120565000D02*
X104155000Y-120565000D01*
G75*
G02*
X104310000Y-120720000I0J-155000D01*
G01*
X104310000Y-121145000D01*
G75*
G02*
X104155000Y-121300000I-155000J0D01*
G01*
X103845000Y-121300000D01*
G75*
G02*
X103690000Y-121145000I0J155000D01*
G01*
X103690000Y-120720000D01*
G75*
G02*
X103845000Y-120565000I155000J0D01*
G01*
G37*
G36*
G01*
X103845000Y-121700000D02*
X104155000Y-121700000D01*
G75*
G02*
X104310000Y-121855000I0J-155000D01*
G01*
X104310000Y-122280000D01*
G75*
G02*
X104155000Y-122435000I-155000J0D01*
G01*
X103845000Y-122435000D01*
G75*
G02*
X103690000Y-122280000I0J155000D01*
G01*
X103690000Y-121855000D01*
G75*
G02*
X103845000Y-121700000I155000J0D01*
G01*
G37*
G36*
G01*
X133845000Y-121700000D02*
X134155000Y-121700000D01*
G75*
G02*
X134310000Y-121855000I0J-155000D01*
G01*
X134310000Y-122280000D01*
G75*
G02*
X134155000Y-122435000I-155000J0D01*
G01*
X133845000Y-122435000D01*
G75*
G02*
X133690000Y-122280000I0J155000D01*
G01*
X133690000Y-121855000D01*
G75*
G02*
X133845000Y-121700000I155000J0D01*
G01*
G37*
G36*
G01*
X133845000Y-120565000D02*
X134155000Y-120565000D01*
G75*
G02*
X134310000Y-120720000I0J-155000D01*
G01*
X134310000Y-121145000D01*
G75*
G02*
X134155000Y-121300000I-155000J0D01*
G01*
X133845000Y-121300000D01*
G75*
G02*
X133690000Y-121145000I0J155000D01*
G01*
X133690000Y-120720000D01*
G75*
G02*
X133845000Y-120565000I155000J0D01*
G01*
G37*
G36*
G01*
X166935000Y-128345000D02*
X166935000Y-128655000D01*
G75*
G02*
X166780000Y-128810000I-155000J0D01*
G01*
X166355000Y-128810000D01*
G75*
G02*
X166200000Y-128655000I0J155000D01*
G01*
X166200000Y-128345000D01*
G75*
G02*
X166355000Y-128190000I155000J0D01*
G01*
X166780000Y-128190000D01*
G75*
G02*
X166935000Y-128345000I0J-155000D01*
G01*
G37*
G36*
G01*
X165800000Y-128345000D02*
X165800000Y-128655000D01*
G75*
G02*
X165645000Y-128810000I-155000J0D01*
G01*
X165220000Y-128810000D01*
G75*
G02*
X165065000Y-128655000I0J155000D01*
G01*
X165065000Y-128345000D01*
G75*
G02*
X165220000Y-128190000I155000J0D01*
G01*
X165645000Y-128190000D01*
G75*
G02*
X165800000Y-128345000I0J-155000D01*
G01*
G37*
G36*
G01*
X175155000Y-83935000D02*
X174845000Y-83935000D01*
G75*
G02*
X174690000Y-83780000I0J155000D01*
G01*
X174690000Y-83355000D01*
G75*
G02*
X174845000Y-83200000I155000J0D01*
G01*
X175155000Y-83200000D01*
G75*
G02*
X175310000Y-83355000I0J-155000D01*
G01*
X175310000Y-83780000D01*
G75*
G02*
X175155000Y-83935000I-155000J0D01*
G01*
G37*
G36*
G01*
X175155000Y-82800000D02*
X174845000Y-82800000D01*
G75*
G02*
X174690000Y-82645000I0J155000D01*
G01*
X174690000Y-82220000D01*
G75*
G02*
X174845000Y-82065000I155000J0D01*
G01*
X175155000Y-82065000D01*
G75*
G02*
X175310000Y-82220000I0J-155000D01*
G01*
X175310000Y-82645000D01*
G75*
G02*
X175155000Y-82800000I-155000J0D01*
G01*
G37*
G36*
G01*
X177275000Y-83650003D02*
X177275000Y-82349997D01*
G75*
G02*
X177524997Y-82100000I249997J0D01*
G01*
X178350003Y-82100000D01*
G75*
G02*
X178600000Y-82349997I0J-249997D01*
G01*
X178600000Y-83650003D01*
G75*
G02*
X178350003Y-83900000I-249997J0D01*
G01*
X177524997Y-83900000D01*
G75*
G02*
X177275000Y-83650003I0J249997D01*
G01*
G37*
G36*
G01*
X180400000Y-83650003D02*
X180400000Y-82349997D01*
G75*
G02*
X180649997Y-82100000I249997J0D01*
G01*
X181475003Y-82100000D01*
G75*
G02*
X181725000Y-82349997I0J-249997D01*
G01*
X181725000Y-83650003D01*
G75*
G02*
X181475003Y-83900000I-249997J0D01*
G01*
X180649997Y-83900000D01*
G75*
G02*
X180400000Y-83650003I0J249997D01*
G01*
G37*
G36*
G01*
X173845000Y-120565000D02*
X174155000Y-120565000D01*
G75*
G02*
X174310000Y-120720000I0J-155000D01*
G01*
X174310000Y-121145000D01*
G75*
G02*
X174155000Y-121300000I-155000J0D01*
G01*
X173845000Y-121300000D01*
G75*
G02*
X173690000Y-121145000I0J155000D01*
G01*
X173690000Y-120720000D01*
G75*
G02*
X173845000Y-120565000I155000J0D01*
G01*
G37*
G36*
G01*
X173845000Y-121700000D02*
X174155000Y-121700000D01*
G75*
G02*
X174310000Y-121855000I0J-155000D01*
G01*
X174310000Y-122280000D01*
G75*
G02*
X174155000Y-122435000I-155000J0D01*
G01*
X173845000Y-122435000D01*
G75*
G02*
X173690000Y-122280000I0J155000D01*
G01*
X173690000Y-121855000D01*
G75*
G02*
X173845000Y-121700000I155000J0D01*
G01*
G37*
G36*
G01*
X203845000Y-120905000D02*
X204155000Y-120905000D01*
G75*
G02*
X204310000Y-121060000I0J-155000D01*
G01*
X204310000Y-121485000D01*
G75*
G02*
X204155000Y-121640000I-155000J0D01*
G01*
X203845000Y-121640000D01*
G75*
G02*
X203690000Y-121485000I0J155000D01*
G01*
X203690000Y-121060000D01*
G75*
G02*
X203845000Y-120905000I155000J0D01*
G01*
G37*
G36*
G01*
X203845000Y-119770000D02*
X204155000Y-119770000D01*
G75*
G02*
X204310000Y-119925000I0J-155000D01*
G01*
X204310000Y-120350000D01*
G75*
G02*
X204155000Y-120505000I-155000J0D01*
G01*
X203845000Y-120505000D01*
G75*
G02*
X203690000Y-120350000I0J155000D01*
G01*
X203690000Y-119925000D01*
G75*
G02*
X203845000Y-119770000I155000J0D01*
G01*
G37*
G36*
G01*
X204155000Y-102300000D02*
X203845000Y-102300000D01*
G75*
G02*
X203690000Y-102145000I0J155000D01*
G01*
X203690000Y-101720000D01*
G75*
G02*
X203845000Y-101565000I155000J0D01*
G01*
X204155000Y-101565000D01*
G75*
G02*
X204310000Y-101720000I0J-155000D01*
G01*
X204310000Y-102145000D01*
G75*
G02*
X204155000Y-102300000I-155000J0D01*
G01*
G37*
G36*
G01*
X204155000Y-103435000D02*
X203845000Y-103435000D01*
G75*
G02*
X203690000Y-103280000I0J155000D01*
G01*
X203690000Y-102855000D01*
G75*
G02*
X203845000Y-102700000I155000J0D01*
G01*
X204155000Y-102700000D01*
G75*
G02*
X204310000Y-102855000I0J-155000D01*
G01*
X204310000Y-103280000D01*
G75*
G02*
X204155000Y-103435000I-155000J0D01*
G01*
G37*
D17*
X116000000Y-88500000D03*
D16*
X123620000Y-88500000D03*
D17*
X176000000Y-90500000D03*
D16*
X176000000Y-98120000D03*
D17*
X171000000Y-90500000D03*
D16*
X171000000Y-98120000D03*
X166000000Y-98120000D03*
D17*
X166000000Y-90500000D03*
D16*
X161000000Y-98120000D03*
D17*
X161000000Y-90500000D03*
X156000000Y-90500000D03*
D16*
X156000000Y-98120000D03*
D17*
X174000000Y-87500000D03*
D16*
X181620000Y-87500000D03*
X197380000Y-97500000D03*
D17*
X205000000Y-97500000D03*
D15*
X124890000Y-117740000D03*
X124890000Y-125260000D03*
X122350000Y-117740000D03*
X122350000Y-125260000D03*
X119810000Y-117740000D03*
X119810000Y-125260000D03*
X117270000Y-117740000D03*
X117270000Y-125260000D03*
X114730000Y-117740000D03*
X114730000Y-125260000D03*
X112190000Y-117740000D03*
X112190000Y-125260000D03*
X109650000Y-117740000D03*
X109650000Y-125260000D03*
X107110000Y-117740000D03*
X107110000Y-125260000D03*
D19*
X116000000Y-96000000D03*
X118555977Y-96629992D03*
X120526411Y-98375644D03*
X121459899Y-100837048D03*
X121142589Y-103450327D03*
X119647175Y-105616809D03*
X117316236Y-106840180D03*
X114683764Y-106840180D03*
X112352825Y-105616809D03*
X110857411Y-103450327D03*
X110540101Y-100837048D03*
X111473887Y-98375644D03*
X113444023Y-96629992D03*
D15*
X137110000Y-125260000D03*
X137110000Y-117740000D03*
X139650000Y-125260000D03*
X139650000Y-117740000D03*
X142190000Y-125260000D03*
X142190000Y-117740000D03*
X144730000Y-125260000D03*
X144730000Y-117740000D03*
X147270000Y-125260000D03*
X147270000Y-117740000D03*
X149810000Y-125260000D03*
X149810000Y-117740000D03*
X152350000Y-125260000D03*
X152350000Y-117740000D03*
X154890000Y-125260000D03*
X154890000Y-117740000D03*
D19*
X143444023Y-96629992D03*
X141473887Y-98375644D03*
X140540101Y-100837048D03*
X140857411Y-103450327D03*
X142352825Y-105616809D03*
X144683764Y-106840180D03*
X147316236Y-106840180D03*
X149647175Y-105616809D03*
X151142589Y-103450327D03*
X151459899Y-100837048D03*
X150526411Y-98375644D03*
X148555977Y-96629992D03*
X146000000Y-96000000D03*
D14*
X169760000Y-125390000D03*
X162240000Y-125390000D03*
X169760000Y-122850000D03*
X162240000Y-122850000D03*
X169760000Y-120310000D03*
X162240000Y-120310000D03*
X169760000Y-117770000D03*
X162240000Y-117770000D03*
X169760000Y-115230000D03*
X162240000Y-115230000D03*
X169760000Y-112690000D03*
X162240000Y-112690000D03*
X169760000Y-110150000D03*
X162240000Y-110150000D03*
X169760000Y-107610000D03*
X162240000Y-107610000D03*
D19*
X164730000Y-101500000D03*
X167270000Y-101500000D03*
D15*
X194890000Y-117740000D03*
X194890000Y-125260000D03*
X192350000Y-117740000D03*
X192350000Y-125260000D03*
X189810000Y-117740000D03*
X189810000Y-125260000D03*
X187270000Y-117740000D03*
X187270000Y-125260000D03*
X184730000Y-117740000D03*
X184730000Y-125260000D03*
X182190000Y-117740000D03*
X182190000Y-125260000D03*
X179650000Y-117740000D03*
X179650000Y-125260000D03*
X177110000Y-117740000D03*
X177110000Y-125260000D03*
D19*
X186000000Y-96000000D03*
X188555977Y-96629992D03*
X190526411Y-98375644D03*
X191459899Y-100837048D03*
X191142589Y-103450327D03*
X189647175Y-105616809D03*
X187316236Y-106840180D03*
X184683764Y-106840180D03*
X182352825Y-105616809D03*
X180857411Y-103450327D03*
X180540101Y-100837048D03*
X181473887Y-98375644D03*
X183444023Y-96629992D03*
X213444023Y-96629992D03*
X211473887Y-98375644D03*
X210540101Y-100837048D03*
X210857411Y-103450327D03*
X212352825Y-105616809D03*
X214683764Y-106840180D03*
X217316236Y-106840180D03*
X219647175Y-105616809D03*
X221142589Y-103450327D03*
X221459899Y-100837048D03*
X220526411Y-98375644D03*
X218555977Y-96629992D03*
X216000000Y-96000000D03*
D14*
X200000000Y-113850000D03*
X200000000Y-111310000D03*
X200000000Y-108770000D03*
X200000000Y-106230000D03*
X200000000Y-103690000D03*
X200000000Y-101150000D03*
D11*
X154840000Y-81040000D03*
D20*
X171500000Y-78500000D03*
D21*
X171500000Y-81040000D03*
X171500000Y-83580000D03*
M02*
